<?xml version="1.0" encoding="us-ascii" standalone="no"?><svg xmlns="http://www.w3.org/2000/svg" xmlns:xlink="http://www.w3.org/1999/xlink" contentStyleType="text/css" height="159px" preserveAspectRatio="none" style="width:214px;height:159px;background:#FFFFFF;" version="1.1" viewBox="0 0 214 159" width="214px" zoomAndPan="magnify"><defs/><g><!--cluster Authentication--><g id="cluster_Authentication"><rect fill="none" height="146" rx="2.5" ry="2.5" style="stroke:#181818;stroke-width:1.0;" width="118.94" x="90" y="7"/><text fill="#000000" font-family="sans-serif" font-size="14" font-weight="bold" lengthAdjust="spacing" textLength="102" x="98.47" y="22.0059">Authentication</text></g><g id="elem_Login"><ellipse cx="149.4692" cy="57.0049" fill="#F1F1F1" rx="36.6692" ry="15.0349" style="stroke:#181818;stroke-width:0.5;"/><text fill="#000000" font-family="sans-serif" font-size="14" lengthAdjust="spacing" textLength="35" x="128.9692" y="60.7579">Login</text></g><g id="elem_Logout"><ellipse cx="149.4688" cy="122.0006" fill="#F1F1F1" rx="43.4688" ry="15.1406" style="stroke:#181818;stroke-width:0.5;"/><text fill="#000000" font-family="sans-serif" font-size="14" lengthAdjust="spacing" textLength="44" x="124.4688" y="125.7536">Logout</text></g><!--entity Admin--><g id="elem_Admin"><ellipse cx="26" cy="60.1" fill="#F1F1F1" rx="8" ry="8" style="stroke:#181818;stroke-width:0.5;"/><path d="M26,68.1 L26,95.1 M13,76.1 L39,76.1 M26,95.1 L13,110.1 M26,95.1 L39,110.1 " fill="none" style="stroke:#181818;stroke-width:0.5;"/><text fill="#000000" font-family="sans-serif" font-size="14" lengthAdjust="spacing" textLength="40" x="6" y="124.6059">Admin</text></g><!--link Admin to Login--><g id="link_Admin_Login"><path d="M46.25,84.77 C65.65,79.5 95.86,71.29 118.42,65.16 " fill="none" id="Admin-Login" style="stroke:#181818;stroke-width:1.0;"/></g><!--link Admin to Logout--><g id="link_Admin_Logout"><path d="M46.25,95.07 C64.44,99.86 92.16,107.16 114.14,112.96 " fill="none" id="Admin-Logout" style="stroke:#181818;stroke-width:1.0;"/></g><!--SRC=[POen3e0W40HxNh6nqe97qFi90WYNu5r2ZihuTu7MAMUcfakXWaQvA2Ar59I4ZGyg3IxUn6OwpxacRAvhIQmK_BmsF0Q3jS5QxATaucEwVv2kgupsVW00]--></g></svg>