<?xml version="1.0" encoding="us-ascii" standalone="no"?><svg xmlns="http://www.w3.org/2000/svg" xmlns:xlink="http://www.w3.org/1999/xlink" contentStyleType="text/css" height="666px" preserveAspectRatio="none" style="width:291px;height:666px;background:#FFFFFF;" version="1.1" viewBox="0 0 291 666" width="291px" zoomAndPan="magnify"><defs/><g><!--cluster Content Management--><g id="cluster_Content Management"><rect fill="none" height="653" rx="2.5" ry="2.5" style="stroke:#181818;stroke-width:1.0;" width="219.28" x="66" y="7"/><text fill="#000000" font-family="sans-serif" font-size="14" font-weight="bold" lengthAdjust="spacing" textLength="147" x="102.14" y="22.0059">Content Management</text></g><!--cluster Movies--><g id="cluster_Movies"><rect fill="none" height="282" rx="2.5" ry="2.5" style="stroke:#181818;stroke-width:1.0;" width="171.28" x="90" y="50"/><text fill="#000000" font-family="sans-serif" font-size="14" font-weight="bold" lengthAdjust="spacing" textLength="49" x="151.14" y="65.0059">Movies</text></g><!--cluster Series--><g id="cluster_Series"><rect fill="none" height="280" rx="2.5" ry="2.5" style="stroke:#181818;stroke-width:1.0;" width="166.5" x="92.39" y="356"/><text fill="#000000" font-family="sans-serif" font-size="14" font-weight="bold" lengthAdjust="spacing" textLength="42" x="154.64" y="371.0059">Series</text></g><g id="elem_Add movie"><ellipse cx="175.6392" cy="100.0042" fill="#F1F1F1" rx="60.8592" ry="15.3042" style="stroke:#181818;stroke-width:0.5;"/><text fill="#000000" font-family="sans-serif" font-size="14" lengthAdjust="spacing" textLength="67" x="139.1392" y="103.7572">Add movie</text></g><g id="elem_Search movie"><ellipse cx="175.6398" cy="166.998" fill="#F1F1F1" rx="69.6398" ry="16.328" style="stroke:#181818;stroke-width:0.5;"/><text fill="#000000" font-family="sans-serif" font-size="14" lengthAdjust="spacing" textLength="87" x="129.1398" y="170.7509">Search movie</text></g><g id="elem_Edit movie"><ellipse cx="175.6429" cy="233.999" fill="#F1F1F1" rx="60.1029" ry="15.299" style="stroke:#181818;stroke-width:0.5;"/><text fill="#000000" font-family="sans-serif" font-size="14" lengthAdjust="spacing" textLength="66" x="139.6429" y="237.752">Edit movie</text></g><g id="elem_Delete movie"><ellipse cx="175.6399" cy="300.002" fill="#F1F1F1" rx="68.2599" ry="16.052" style="stroke:#181818;stroke-width:0.5;"/><text fill="#000000" font-family="sans-serif" font-size="14" lengthAdjust="spacing" textLength="83" x="131.1399" y="303.755">Delete movie</text></g><g id="elem_Add serie"><ellipse cx="175.6351" cy="405.9951" fill="#F1F1F1" rx="55.5651" ry="15.2651" style="stroke:#181818;stroke-width:0.5;"/><text fill="#000000" font-family="sans-serif" font-size="14" lengthAdjust="spacing" textLength="60" x="142.6351" y="409.7481">Add serie</text></g><g id="elem_Search serie"><ellipse cx="175.6365" cy="471.9993" fill="#F1F1F1" rx="67.2465" ry="15.8493" style="stroke:#181818;stroke-width:0.5;"/><text fill="#000000" font-family="sans-serif" font-size="14" lengthAdjust="spacing" textLength="80" x="132.6365" y="475.7523">Search serie</text></g><g id="elem_Edit serie"><ellipse cx="175.6389" cy="537.999" fill="#F1F1F1" rx="54.8089" ry="15.259" style="stroke:#181818;stroke-width:0.5;"/><text fill="#000000" font-family="sans-serif" font-size="14" lengthAdjust="spacing" textLength="59" x="143.1389" y="541.7519">Edit serie</text></g><g id="elem_Delete serie"><ellipse cx="175.6354" cy="603.9951" fill="#F1F1F1" rx="65.9254" ry="15.5851" style="stroke:#181818;stroke-width:0.5;"/><text fill="#000000" font-family="sans-serif" font-size="14" lengthAdjust="spacing" textLength="76" x="134.6354" y="607.7481">Delete serie</text></g><!--entity Admin--><g id="elem_Admin"><ellipse cx="26" cy="323.1" fill="#F1F1F1" rx="8" ry="8" style="stroke:#181818;stroke-width:0.5;"/><path d="M26,331.1 L26,358.1 M13,339.1 L39,339.1 M26,358.1 L13,373.1 M26,358.1 L39,373.1 " fill="none" style="stroke:#181818;stroke-width:0.5;"/><text fill="#000000" font-family="sans-serif" font-size="14" lengthAdjust="spacing" textLength="40" x="6" y="387.6059">Admin</text></g><!--link Admin to Add movie--><g id="link_Admin_Add movie"><path d="M27.51,314.19 C29.05,258.39 35.05,159.3 58,133 C72.53,116.35 94.76,107.81 115.94,103.52 " fill="none" id="Admin-Add movie" style="stroke:#181818;stroke-width:1.0;"/></g><!--link Admin to Search movie--><g id="link_Admin_Search movie"><path d="M30.38,314.15 C34.58,274.71 43.09,217.2 58,201 C71.57,186.26 91.13,177.78 110.37,172.94 " fill="none" id="Admin-Search movie" style="stroke:#181818;stroke-width:1.0;"/></g><!--link Admin to Edit movie--><g id="link_Admin_Edit movie"><path d="M32.55,314.31 C36.86,297.37 44.48,278.54 58,266 C74.24,250.93 96.9,242.85 117.94,238.55 " fill="none" id="Admin-Edit movie" style="stroke:#181818;stroke-width:1.0;"/></g><!--link Admin to Delete movie--><g id="link_Admin_Delete movie"><path d="M46.3,346.07 C69.2,337.85 107.92,323.95 136.86,313.56 " fill="none" id="Admin-Delete movie" style="stroke:#181818;stroke-width:1.0;"/></g><!--link Admin to Add serie--><g id="link_Admin_Add serie"><path d="M46.3,359.93 C70.22,368.51 111.39,383.29 140.65,393.8 " fill="none" id="Admin-Add serie" style="stroke:#181818;stroke-width:1.0;"/></g><!--link Admin to Search serie--><g id="link_Admin_Search serie"><path d="M32.82,391.64 C37.17,408.26 44.77,426.66 58,439 C73.01,452.99 93.51,461.11 113.13,465.8 " fill="none" id="Admin-Search serie" style="stroke:#181818;stroke-width:1.0;"/></g><!--link Admin to Edit serie--><g id="link_Admin_Edit serie"><path d="M30.35,391.87 C34.53,431.34 43.02,488.86 58,505 C74.25,522.51 99.02,530.98 121.56,534.98 " fill="none" id="Admin-Edit serie" style="stroke:#181818;stroke-width:1.0;"/></g><!--link Admin to Delete serie--><g id="link_Admin_Delete serie"><path d="M27.56,391.46 C29.16,446.76 35.24,544.95 58,571 C71.64,586.61 92.05,595.09 112,599.62 " fill="none" id="Admin-Delete serie" style="stroke:#181818;stroke-width:1.0;"/></g><!--SRC=[VOx12iCW343lVaNeQJtq8ygsOq_z0j7C1ce46tOP_ljgTL3Od8SWUO_mLdm8I818RX6m5D481LRQI8WmMa-iyawpMn6wQs115fWqQuT-_tRmWlAKolCaJ-59kEs2gaQv1yC0bz5Qy9dtF-2CEfgbpU-Mf4rlkA9WvHzyUEahSSRuDt7Bl8TsOn5QZKrQ6qyygVG6]--></g></svg>