<?xml version="1.0" encoding="UTF-8" standalone="no"?><svg xmlns="http://www.w3.org/2000/svg" xmlns:xlink="http://www.w3.org/1999/xlink" contentStyleType="text/css" height="403px" preserveAspectRatio="none" style="width:1103px;height:403px;background:#FFFFFF;" version="1.1" viewBox="0 0 1103 403" width="1103px" zoomAndPan="magnify"><defs/><g><ellipse cx="490" cy="16" fill="#222222" rx="10" ry="10" style="stroke:none;stroke-width:1.0;"/><g id="CONTENT_MANAGEMENT"><rect fill="#F1F1F1" height="50" rx="12.5" ry="12.5" style="stroke:#181818;stroke-width:0.5;" width="196" x="392" y="121"/><line style="stroke:#181818;stroke-width:0.5;" x1="392" x2="588" y1="147.7999" y2="147.7999"/><text fill="#000000" font-family="sans-serif" font-size="14" lengthAdjust="spacing" textLength="176" x="402" y="139.0059">CONTENT_MANAGEMENT</text></g><g id="VIEW_CATALOG"><rect fill="#F1F1F1" height="50" rx="12.5" ry="12.5" style="stroke:#181818;stroke-width:0.5;" width="130" x="7" y="232"/><line style="stroke:#181818;stroke-width:0.5;" x1="7" x2="137" y1="258.7999" y2="258.7999"/><text fill="#000000" font-family="sans-serif" font-size="14" lengthAdjust="spacing" textLength="110" x="17" y="250.0059">VIEW_CATALOG</text></g><g id="ADD_NEW_CONTENT"><rect fill="#F1F1F1" height="50" rx="12.5" ry="12.5" style="stroke:#181818;stroke-width:0.5;" width="165" x="172.5" y="232"/><line style="stroke:#181818;stroke-width:0.5;" x1="172.5" x2="337.5" y1="258.7999" y2="258.7999"/><text fill="#000000" font-family="sans-serif" font-size="14" lengthAdjust="spacing" textLength="145" x="182.5" y="250.0059">ADD_NEW_CONTENT</text></g><g id="EDIT_CONTENT"><rect fill="#F1F1F1" height="50" rx="12.5" ry="12.5" style="stroke:#181818;stroke-width:0.5;" width="128" x="373" y="232"/><line style="stroke:#181818;stroke-width:0.5;" x1="373" x2="501" y1="258.7999" y2="258.7999"/><text fill="#000000" font-family="sans-serif" font-size="14" lengthAdjust="spacing" textLength="108" x="383" y="250.0059">EDIT_CONTENT</text></g><g id="DELETE_CONTENT"><rect fill="#F1F1F1" height="50" rx="12.5" ry="12.5" style="stroke:#181818;stroke-width:0.5;" width="150" x="536" y="232"/><line style="stroke:#181818;stroke-width:0.5;" x1="536" x2="686" y1="258.7999" y2="258.7999"/><text fill="#000000" font-family="sans-serif" font-size="14" lengthAdjust="spacing" textLength="130" x="546" y="250.0059">DELETE_CONTENT</text></g><g id="VIEW_CONTENT"><rect fill="#F1F1F1" height="50" rx="12.5" ry="12.5" style="stroke:#181818;stroke-width:0.5;" width="131" x="720.5" y="232"/><line style="stroke:#181818;stroke-width:0.5;" x1="720.5" x2="851.5" y1="258.7999" y2="258.7999"/><text fill="#000000" font-family="sans-serif" font-size="14" lengthAdjust="spacing" textLength="111" x="730.5" y="250.0059">VIEW_CONTENT</text></g><g id="SEARCH_FILTER_CONTENT"><rect fill="#F1F1F1" height="50" rx="12.5" ry="12.5" style="stroke:#181818;stroke-width:0.5;" width="210" x="886" y="232"/><line style="stroke:#181818;stroke-width:0.5;" x1="886" x2="1096" y1="258.7999" y2="258.7999"/><text fill="#000000" font-family="sans-serif" font-size="14" lengthAdjust="spacing" textLength="190" x="896" y="250.0059">SEARCH_FILTER_CONTENT</text></g><ellipse cx="524" cy="387" fill="none" rx="10" ry="10" style="stroke:#222222;stroke-width:1.0;"/><ellipse cx="524.5" cy="387.5" fill="#222222" rx="6" ry="6" style="stroke:none;stroke-width:1.0;"/><!--MD5=[5b976f1c0cf0de97d5b06f127151238e]
link *start to CONTENT_MANAGEMENT--><g id="link_*start_CONTENT_MANAGEMENT"><path d="M490,26.21 C490,44.45 490,85.94 490,114.71 " fill="none" id="*start-to-CONTENT_MANAGEMENT" style="stroke:#181818;stroke-width:1.0;"/><polygon fill="#181818" points="490,119.64,494,110.64,490,114.64,486,110.64,490,119.64" style="stroke:#181818;stroke-width:1.0;"/><path d="M495,61 L495,86 L606,86 L606,71 L596,61 L495,61 " fill="#FEFFDD" style="stroke:#181818;stroke-width:0.5;"/><path d="M596,61 L596,71 L606,71 L596,61 " fill="#FEFFDD" style="stroke:#181818;stroke-width:0.5;"/><text fill="#000000" font-family="sans-serif" font-size="13" lengthAdjust="spacing" textLength="90" x="501" y="78.077">Authenticaction</text></g><!--MD5=[67c5c983c48fef3cca7afc97b621b1b4]
link CONTENT_MANAGEMENT to VIEW_CATALOG--><g id="link_CONTENT_MANAGEMENT_VIEW_CATALOG"><path d="M391.56,171.07 C324.7,187.64 234.33,210.47 155,232 C151.02,233.08 146.94,234.21 142.82,235.35 " fill="none" id="CONTENT_MANAGEMENT-to-VIEW_CATALOG" style="stroke:#181818;stroke-width:1.0;"/><polygon fill="#181818" points="138.19,236.93,147.9338,238.3648,143.0062,235.5866,145.7844,230.659,138.19,236.93" style="stroke:#181818;stroke-width:1.0;"/></g><!--MD5=[8e0f3a0e5fa5e12330cca2f99d9a6c68]
link CONTENT_MANAGEMENT to ADD_NEW_CONTENT--><g id="link_CONTENT_MANAGEMENT_ADD_NEW_CONTENT"><path d="M437.26,171.46 C400.22,188.64 350.7,211.61 312.62,229.27 " fill="none" id="CONTENT_MANAGEMENT-to-ADD_NEW_CONTENT" style="stroke:#181818;stroke-width:1.0;"/><polygon fill="#181818" points="308.56,231.62,318.4076,231.4626,313.096,229.5165,315.0421,224.205,308.56,231.62" style="stroke:#181818;stroke-width:1.0;"/></g><!--MD5=[1edc9bc29ed43ce6541a04925f1a557a]
link CONTENT_MANAGEMENT to EDIT_CONTENT--><g id="link_CONTENT_MANAGEMENT_EDIT_CONTENT"><path d="M478.11,171.46 C470.2,187.73 459.76,209.19 451.38,226.42 " fill="none" id="CONTENT_MANAGEMENT-to-EDIT_CONTENT" style="stroke:#181818;stroke-width:1.0;"/><polygon fill="#181818" points="448.85,230.62,456.3881,224.2815,451.0401,226.1252,449.1964,220.7772,448.85,230.62" style="stroke:#181818;stroke-width:1.0;"/></g><!--MD5=[52ae7e7ec2420ed772a40f1efeb6e358]
link CONTENT_MANAGEMENT to DELETE_CONTENT--><g id="link_CONTENT_MANAGEMENT_DELETE_CONTENT"><path d="M517.15,171.46 C535.68,188.15 560.27,210.31 579.64,227.75 " fill="none" id="CONTENT_MANAGEMENT-to-DELETE_CONTENT" style="stroke:#181818;stroke-width:1.0;"/><polygon fill="#181818" points="582.94,230.62,578.9262,221.6261,579.2235,227.2752,573.5745,227.5725,582.94,230.62" style="stroke:#181818;stroke-width:1.0;"/></g><!--MD5=[349151000781baa9e2f4a97dc8514a16]
link CONTENT_MANAGEMENT to VIEW_CONTENT--><g id="link_CONTENT_MANAGEMENT_VIEW_CONTENT"><path d="M556.43,171.46 C603.45,188.78 666.45,211.98 714.55,229.69 " fill="none" id="CONTENT_MANAGEMENT-to-VIEW_CONTENT" style="stroke:#181818;stroke-width:1.0;"/><polygon fill="#181818" points="719.05,231.71,711.9839,224.8493,714.3573,229.9841,709.2225,232.3576,719.05,231.71" style="stroke:#181818;stroke-width:1.0;"/></g><!--MD5=[de06e7bc7f5375fc9ed0c9669e42a3e5]
link CONTENT_MANAGEMENT to SEARCH_FILTER_CONTENT--><g id="link_CONTENT_MANAGEMENT_SEARCH_FILTER_CONTENT"><path d="M588.38,168.4 C672.32,186.67 792.92,212.9 880.23,231.9 " fill="none" id="CONTENT_MANAGEMENT-to-SEARCH_FILTER_CONTENT" style="stroke:#181818;stroke-width:1.0;"/><polygon fill="#181818" points="884.93,233.14,876.9795,227.3271,880.0431,232.0826,875.2876,235.1462,884.93,233.14" style="stroke:#181818;stroke-width:1.0;"/></g><!--MD5=[5fd3d69b70d224f2dc800a2ffe01a16a]
link VIEW_CATALOG to *end--><g id="link_VIEW_CATALOG_*end"><path d="M110.71,282.42 C145.16,302.98 197.58,331.43 247,347 C342.8,377.18 464.61,384.05 507.87,385.58 " fill="none" id="VIEW_CATALOG-to-*end" style="stroke:#181818;stroke-width:1.0;"/><polygon fill="#181818" points="512.67,385.77,503.8001,381.4893,507.6725,385.6129,503.5488,389.4853,512.67,385.77" style="stroke:#181818;stroke-width:1.0;"/><path d="M252,317 L252,342 L312,342 L312,327 L302,317 L252,317 " fill="#FEFFDD" style="stroke:#181818;stroke-width:0.5;"/><path d="M302,317 L302,327 L312,327 L302,317 " fill="#FEFFDD" style="stroke:#181818;stroke-width:0.5;"/><text fill="#000000" font-family="sans-serif" font-size="13" lengthAdjust="spacing" textLength="39" x="258" y="334.077">Logout</text></g><!--MD5=[e26b289f607b93e4a3c4029eb1fc2089]
link ADD_NEW_CONTENT to *end--><g id="link_ADD_NEW_CONTENT_*end"><path d="M283.76,282.27 C308.62,302.16 346.25,329.75 383,347 C426,367.18 481.42,378.69 508.17,383.43 " fill="none" id="ADD_NEW_CONTENT-to-*end" style="stroke:#181818;stroke-width:1.0;"/><polygon fill="#181818" points="513.03,384.44,504.8485,378.9571,508.1039,383.5833,503.4777,386.8388,513.03,384.44" style="stroke:#181818;stroke-width:1.0;"/><path d="M388,317 L388,342 L448,342 L448,327 L438,317 L388,317 " fill="#FEFFDD" style="stroke:#181818;stroke-width:0.5;"/><path d="M438,317 L438,327 L448,327 L438,317 " fill="#FEFFDD" style="stroke:#181818;stroke-width:0.5;"/><text fill="#000000" font-family="sans-serif" font-size="13" lengthAdjust="spacing" textLength="39" x="394" y="334.077">Logout</text></g><!--MD5=[72cc172a721888cbeef76b3c77a86ac8]
link EDIT_CONTENT to *end--><g id="link_EDIT_CONTENT_*end"><path d="M446.53,282.37 C454.47,301.05 466.9,326.94 482,347 C490.58,358.4 502.73,369.27 511.76,376.62 " fill="none" id="EDIT_CONTENT-to-*end" style="stroke:#181818;stroke-width:1.0;"/><polygon fill="#181818" points="515.41,380.33,510.8576,371.5964,511.4973,377.217,505.8767,377.8567,515.41,380.33" style="stroke:#181818;stroke-width:1.0;"/><path d="M487,317 L487,342 L547,342 L547,327 L537,317 L487,317 " fill="#FEFFDD" style="stroke:#181818;stroke-width:0.5;"/><path d="M537,317 L537,327 L547,327 L537,317 " fill="#FEFFDD" style="stroke:#181818;stroke-width:0.5;"/><text fill="#000000" font-family="sans-serif" font-size="13" lengthAdjust="spacing" textLength="39" x="493" y="334.077">Logout</text></g><!--MD5=[aefc2750a0656c54f57842bffd3988a2]
link DELETE_CONTENT to *end--><g id="link_DELETE_CONTENT_*end"><path d="M597.14,282.36 C586.49,300.57 571.1,325.87 556,347 C549.17,356.56 540.71,366.81 534.2,374.4 " fill="none" id="DELETE_CONTENT-to-*end" style="stroke:#181818;stroke-width:1.0;"/><polygon fill="#181818" points="530.44,377.76,539.3589,373.5824,533.7163,373.983,533.3157,368.3403,530.44,377.76" style="stroke:#181818;stroke-width:1.0;"/><path d="M584,317 L584,342 L644,342 L644,327 L634,317 L584,317 " fill="#FEFFDD" style="stroke:#181818;stroke-width:0.5;"/><path d="M634,317 L634,327 L644,327 L634,317 " fill="#FEFFDD" style="stroke:#181818;stroke-width:0.5;"/><text fill="#000000" font-family="sans-serif" font-size="13" lengthAdjust="spacing" textLength="39" x="590" y="334.077">Logout</text></g><!--MD5=[1e4ade3523ddd9ec2992c789957a5d02]
link VIEW_CONTENT to *end--><g id="link_VIEW_CONTENT_*end"><path d="M756.66,282.31 C731.55,302.09 693.72,329.51 657,347 C616.78,366.16 565.16,378.01 539.68,383.1 " fill="none" id="VIEW_CONTENT-to-*end" style="stroke:#181818;stroke-width:1.0;"/><polygon fill="#181818" points="535.07,384.19,544.6687,386.3956,539.9778,383.2341,543.1393,378.5432,535.07,384.19" style="stroke:#181818;stroke-width:1.0;"/><path d="M722,317 L722,342 L782,342 L782,327 L772,317 L722,317 " fill="#FEFFDD" style="stroke:#181818;stroke-width:0.5;"/><path d="M772,317 L772,327 L782,327 L772,317 " fill="#FEFFDD" style="stroke:#181818;stroke-width:0.5;"/><text fill="#000000" font-family="sans-serif" font-size="13" lengthAdjust="spacing" textLength="39" x="728" y="334.077">Logout</text></g><!--MD5=[89a1574c2a8029e73cbbbb24f7e1c74a]
link SEARCH_FILTER_CONTENT to *end--><g id="link_SEARCH_FILTER_CONTENT_*end"><path d="M946.85,282.44 C908.01,302.85 849.34,331.1 795,347 C700.84,374.55 582.35,383.03 539.97,385.28 " fill="none" id="SEARCH_FILTER_CONTENT-to-*end" style="stroke:#181818;stroke-width:1.0;"/><polygon fill="#181818" points="535.06,385.58,544.2541,389.1111,540.0534,385.3225,543.842,381.1217,535.06,385.58" style="stroke:#181818;stroke-width:1.0;"/><path d="M889,317 L889,342 L949,342 L949,327 L939,317 L889,317 " fill="#FEFFDD" style="stroke:#181818;stroke-width:0.5;"/><path d="M939,317 L939,327 L949,327 L939,317 " fill="#FEFFDD" style="stroke:#181818;stroke-width:0.5;"/><text fill="#000000" font-family="sans-serif" font-size="13" lengthAdjust="spacing" textLength="39" x="895" y="334.077">Logout</text></g><!--MD5=[92716cbe52e80ad5927a0ecc9238273c]
@startuml use-cases-context
[*] - -> CONTENT_MANAGEMENT
note on link
  Authenticaction
end note

CONTENT_MANAGEMENT - -> VIEW_CATALOG
CONTENT_MANAGEMENT - -> ADD_NEW_CONTENT
CONTENT_MANAGEMENT - -> EDIT_CONTENT
CONTENT_MANAGEMENT - -> DELETE_CONTENT
CONTENT_MANAGEMENT - -> VIEW_CONTENT
CONTENT_MANAGEMENT - -> SEARCH_FILTER_CONTENT

VIEW_CATALOG - -> [*]
note on link
  Logout
end note
ADD_NEW_CONTENT - -> [*]
note on link
  Logout
end note
EDIT_CONTENT - -> [*]
note on link
  Logout
end note
DELETE_CONTENT - -> [*]
note on link
  Logout
end note
VIEW_CONTENT - -> [*]
note on link
  Logout
end note
SEARCH_FILTER_CONTENT - -> [*]
note on link
  Logout
end note
@enduml

PlantUML version 1.2022.7(Mon Aug 22 12:01:30 ECT 2022)
(GPL source distribution)
Java Runtime: OpenJDK Runtime Environment
JVM: OpenJDK 64-Bit Server VM
Default Encoding: UTF-8
Language: en
Country: null
--></g></svg>