<?xml version="1.0" encoding="UTF-8" standalone="no"?><svg xmlns="http://www.w3.org/2000/svg" xmlns:xlink="http://www.w3.org/1999/xlink" contentStyleType="text/css" height="510px" preserveAspectRatio="none" style="width:596px;height:510px;background:#FFFFFF;" version="1.1" viewBox="0 0 596 510" width="596px" zoomAndPan="magnify"><defs/><g><ellipse cx="517.5" cy="16" fill="#222222" rx="10" ry="10" style="stroke:none;stroke-width:1.0;"/><g id="AUTHENTICATION"><rect fill="#F1F1F1" height="50" rx="12.5" ry="12.5" style="stroke:#181818;stroke-width:0.5;" width="143" x="446" y="87"/><line style="stroke:#181818;stroke-width:0.5;" x1="446" x2="589" y1="113.7999" y2="113.7999"/><text fill="#000000" font-family="sans-serif" font-size="14" lengthAdjust="spacing" textLength="123" x="456" y="105.0059">AUTHENTICATION</text></g><g id="OPENED_FLIXXIC"><rect fill="#F1F1F1" height="50" rx="12.5" ry="12.5" style="stroke:#181818;stroke-width:0.5;" width="139" x="448" y="243.2"/><line style="stroke:#181818;stroke-width:0.5;" x1="448" x2="587" y1="269.9999" y2="269.9999"/><text fill="#000000" font-family="sans-serif" font-size="14" lengthAdjust="spacing" textLength="119" x="458" y="261.2059">OPENED_FLIXXIC</text></g><g id="CONTENT_MANAGEMENT"><rect fill="#F1F1F1" height="50" rx="12.5" ry="12.5" style="stroke:#181818;stroke-width:0.5;" width="196" x="216.5" y="243.2"/><line style="stroke:#181818;stroke-width:0.5;" x1="216.5" x2="412.5" y1="269.9999" y2="269.9999"/><text fill="#000000" font-family="sans-serif" font-size="14" lengthAdjust="spacing" textLength="176" x="226.5" y="261.2059">CONTENT_MANAGEMENT</text></g><g id="elem_GMN10"><path d="M6,232 L6,304.4001 A0,0 0 0 0 6,304.4001 L181,304.4001 A0,0 0 0 0 181,304.4001 L181,272.2 L216.03,268.2 L181,264.2 L181,242 L171,232 L6,232 A0,0 0 0 0 6,232 " fill="#FEFFDD" style="stroke:#181818;stroke-width:0.5;"/><path d="M171,232 L171,242 L181,242 L171,232 " fill="#FEFFDD" style="stroke:#181818;stroke-width:0.5;"/><ellipse cx="17.5" cy="245.1" fill="#000000" rx="2.5" ry="2.5" style="stroke:#000000;stroke-width:0.0;"/><text fill="#000000" font-family="sans-serif" font-size="13" lengthAdjust="spacing" textLength="97" x="24" y="249.077">Add new content</text><ellipse cx="17.5" cy="260.7" fill="#000000" rx="2.5" ry="2.5" style="stroke:#000000;stroke-width:0.0;"/><text fill="#000000" font-family="sans-serif" font-size="13" lengthAdjust="spacing" textLength="70" x="24" y="264.677">Edit content</text><ellipse cx="17.5" cy="276.3" fill="#000000" rx="2.5" ry="2.5" style="stroke:#000000;stroke-width:0.0;"/><text fill="#000000" font-family="sans-serif" font-size="13" lengthAdjust="spacing" textLength="84" x="24" y="280.277">Delete content</text><ellipse cx="17.5" cy="291.9001" fill="#000000" rx="2.5" ry="2.5" style="stroke:#000000;stroke-width:0.0;"/><text fill="#000000" font-family="sans-serif" font-size="13" lengthAdjust="spacing" textLength="142" x="24" y="295.8771">Search and filter content</text></g><g id="elem_continueManagement"><polygon fill="#F1F1F1" points="517.5,365.4,529.5,377.4,517.5,389.4,505.5,377.4,517.5,365.4" style="stroke:#181818;stroke-width:0.5;"/></g><ellipse cx="517.5" cy="494.4" fill="none" rx="10" ry="10" style="stroke:#222222;stroke-width:1.0;"/><ellipse cx="518" cy="494.9" fill="#222222" rx="6" ry="6" style="stroke:none;stroke-width:1.0;"/><!--MD5=[1e3bdf202a25adfebfa2664c5c686ea2]
link *start to AUTHENTICATION--><g id="link_*start_AUTHENTICATION"><path d="M517.5,26.36 C517.5,38.98 517.5,62.07 517.5,80.94 " fill="none" id="*start-to-AUTHENTICATION" style="stroke:#181818;stroke-width:1.0;"/><polygon fill="#181818" points="517.5,85.65,521.5,76.65,517.5,80.65,513.5,76.65,517.5,85.65" style="stroke:#181818;stroke-width:1.0;"/></g><!--MD5=[8a93a48e7e7146dd51d620cf7b3d7b34]
link AUTHENTICATION to OPENED_FLIXXIC--><g id="link_AUTHENTICATION_OPENED_FLIXXIC"><path d="M517.5,137.43 C517.5,164.39 517.5,207.8 517.5,236.9 " fill="none" id="AUTHENTICATION-to-OPENED_FLIXXIC" style="stroke:#181818;stroke-width:1.0;"/><polygon fill="#181818" points="517.5,241.88,521.5,232.88,517.5,236.88,513.5,232.88,517.5,241.88" style="stroke:#181818;stroke-width:1.0;"/><path d="M522.5,172 L522.5,197 L574.5,197 L574.5,182 L564.5,172 L522.5,172 " fill="#FEFFDD" style="stroke:#181818;stroke-width:0.5;"/><path d="M564.5,172 L564.5,182 L574.5,182 L564.5,172 " fill="#FEFFDD" style="stroke:#181818;stroke-width:0.5;"/><text fill="#000000" font-family="sans-serif" font-size="13" lengthAdjust="spacing" textLength="31" x="528.5" y="189.077">Login</text></g><!--MD5=[34dbf89f566f1087521f3a967f942ad9]
reverse link CONTENT_MANAGEMENT to OPENED_FLIXXIC--><g id="link_CONTENT_MANAGEMENT_OPENED_FLIXXIC"><path d="M418.8,268.2 C428.4,268.2 437.99,268.2 447.58,268.2 " fill="none" id="CONTENT_MANAGEMENT-backto-OPENED_FLIXXIC" style="stroke:#181818;stroke-width:1.0;"/><polygon fill="#181818" points="413.83,268.2,422.83,272.2,418.83,268.2,422.83,264.2,413.83,268.2" style="stroke:#181818;stroke-width:1.0;"/></g><!--MD5=[6f8c9059dc33badfbe19712177c137b3]
link OPENED_FLIXXIC to continueManagement--><g id="link_OPENED_FLIXXIC_continueManagement"><path d="M506.62,293.53 C503.39,316.19 504.34,348.94 509.47,365.67 " fill="none" id="OPENED_FLIXXIC-to-continueManagement" style="stroke:#181818;stroke-width:1.0;"/><polygon fill="#181818" points="511.54,370.06,512.0365,360.2237,509.7422,365.3944,504.5715,363.1001,511.54,370.06" style="stroke:#181818;stroke-width:1.0;"/></g><!--MD5=[26f34bc5ddc193a0d46f00db1397a69a]
link continueManagement to OPENED_FLIXXIC--><g id="link_continueManagement_OPENED_FLIXXIC"><path d="M523.81,371.06 C530.57,358.16 532.57,324.51 529.78,299.39 " fill="none" id="continueManagement-to-OPENED_FLIXXIC" style="stroke:#181818;stroke-width:1.0;"/><polygon fill="#181818" points="529.02,294.53,526.2107,303.9697,529.663,299.4885,534.1442,302.9408,529.02,294.53" style="stroke:#181818;stroke-width:1.0;"/></g><!--MD5=[378a111c64dd47050e4fad89d8b62125]
link CONTENT_MANAGEMENT to continueManagement--><g id="link_CONTENT_MANAGEMENT_continueManagement"><path d="M360.82,293.66 C407.55,318.34 476.71,354.86 504.88,369.73 " fill="none" id="CONTENT_MANAGEMENT-to-continueManagement" style="stroke:#181818;stroke-width:1.0;"/><polygon fill="#181818" points="508.94,372.41,502.8655,364.6575,504.5235,370.066,499.1151,371.7239,508.94,372.41" style="stroke:#181818;stroke-width:1.0;"/></g><!--MD5=[be3c5093ad0e0226624edbabb5cb6fc2]
link continueManagement to *end--><g id="link_continueManagement_*end"><path d="M517.5,389.85 C517.5,410.71 517.5,454.91 517.5,478.24 " fill="none" id="continueManagement-to-*end" style="stroke:#181818;stroke-width:1.0;"/><polygon fill="#181818" points="517.5,482.96,521.5,473.96,517.5,477.96,513.5,473.96,517.5,482.96" style="stroke:#181818;stroke-width:1.0;"/><path d="M522.5,424.4 L522.5,449.4 L582.5,449.4 L582.5,434.4 L572.5,424.4 L522.5,424.4 " fill="#FEFFDD" style="stroke:#181818;stroke-width:0.5;"/><path d="M572.5,424.4 L572.5,434.4 L582.5,434.4 L572.5,424.4 " fill="#FEFFDD" style="stroke:#181818;stroke-width:0.5;"/><text fill="#000000" font-family="sans-serif" font-size="13" lengthAdjust="spacing" textLength="39" x="528.5" y="441.477">Logout</text></g><!--MD5=[0d447ee2794016396d7e42f310d65a32]
@startuml use-cases-context-v2

[*] - -> AUTHENTICATION
AUTHENTICATION - -> OPENED_FLIXXIC
note on link 
    Login
end note

OPENED_FLIXXIC -left-> CONTENT_MANAGEMENT
note left    
    * Add new content
    * Edit content
    * Delete content
    * Search and filter content
end note

state continueManagement <<choice>>

OPENED_FLIXXIC - -> continueManagement
CONTENT_MANAGEMENT - -> continueManagement
continueManagement - -> OPENED_FLIXXIC
continueManagement - -> [*]
note on link 
    Logout
end note
@enduml

PlantUML version 1.2022.7(Mon Aug 22 12:01:30 ECT 2022)
(GPL source distribution)
Java Runtime: OpenJDK Runtime Environment
JVM: OpenJDK 64-Bit Server VM
Default Encoding: UTF-8
Language: en
Country: null
--></g></svg>