<?xml version="1.0" encoding="UTF-8" standalone="no"?><svg xmlns="http://www.w3.org/2000/svg" xmlns:xlink="http://www.w3.org/1999/xlink" contentStyleType="text/css" height="403px" preserveAspectRatio="none" style="width:1063px;height:403px;background:#FFFFFF;" version="1.1" viewBox="0 0 1063 403" width="1063px" zoomAndPan="magnify"><defs/><g><ellipse cx="450" cy="16" fill="#222222" rx="10" ry="10" style="stroke:none;stroke-width:1.0;"/><g id="CONTENT_MANAGEMENT"><rect fill="#F1F1F1" height="50" rx="12.5" ry="12.5" style="stroke:#181818;stroke-width:0.5;" width="196" x="352" y="121"/><line style="stroke:#181818;stroke-width:0.5;" x1="352" x2="548" y1="147.7999" y2="147.7999"/><text fill="#000000" font-family="sans-serif" font-size="14" lengthAdjust="spacing" textLength="176" x="362" y="139.0059">CONTENT_MANAGEMENT</text></g><g id="VIEW_CATALOG"><rect fill="#F1F1F1" height="50" rx="12.5" ry="12.5" style="stroke:#181818;stroke-width:0.5;" width="130" x="7" y="232"/><line style="stroke:#181818;stroke-width:0.5;" x1="7" x2="137" y1="258.7999" y2="258.7999"/><text fill="#000000" font-family="sans-serif" font-size="14" lengthAdjust="spacing" textLength="110" x="17" y="250.0059">VIEW_CATALOG</text></g><g id="ADD_CONTENT"><rect fill="#F1F1F1" height="50" rx="12.5" ry="12.5" style="stroke:#181818;stroke-width:0.5;" width="125" x="172.5" y="232"/><line style="stroke:#181818;stroke-width:0.5;" x1="172.5" x2="297.5" y1="258.7999" y2="258.7999"/><text fill="#000000" font-family="sans-serif" font-size="14" lengthAdjust="spacing" textLength="105" x="182.5" y="250.0059">ADD_CONTENT</text></g><g id="EDIT_CONTENT"><rect fill="#F1F1F1" height="50" rx="12.5" ry="12.5" style="stroke:#181818;stroke-width:0.5;" width="128" x="333" y="232"/><line style="stroke:#181818;stroke-width:0.5;" x1="333" x2="461" y1="258.7999" y2="258.7999"/><text fill="#000000" font-family="sans-serif" font-size="14" lengthAdjust="spacing" textLength="108" x="343" y="250.0059">EDIT_CONTENT</text></g><g id="DELETE_CONTENT"><rect fill="#F1F1F1" height="50" rx="12.5" ry="12.5" style="stroke:#181818;stroke-width:0.5;" width="150" x="496" y="232"/><line style="stroke:#181818;stroke-width:0.5;" x1="496" x2="646" y1="258.7999" y2="258.7999"/><text fill="#000000" font-family="sans-serif" font-size="14" lengthAdjust="spacing" textLength="130" x="506" y="250.0059">DELETE_CONTENT</text></g><g id="VIEW_CONTENT"><rect fill="#F1F1F1" height="50" rx="12.5" ry="12.5" style="stroke:#181818;stroke-width:0.5;" width="131" x="680.5" y="232"/><line style="stroke:#181818;stroke-width:0.5;" x1="680.5" x2="811.5" y1="258.7999" y2="258.7999"/><text fill="#000000" font-family="sans-serif" font-size="14" lengthAdjust="spacing" textLength="111" x="690.5" y="250.0059">VIEW_CONTENT</text></g><g id="SEARCH_FILTER_CONTENT"><rect fill="#F1F1F1" height="50" rx="12.5" ry="12.5" style="stroke:#181818;stroke-width:0.5;" width="210" x="846" y="232"/><line style="stroke:#181818;stroke-width:0.5;" x1="846" x2="1056" y1="258.7999" y2="258.7999"/><text fill="#000000" font-family="sans-serif" font-size="14" lengthAdjust="spacing" textLength="190" x="856" y="250.0059">SEARCH_FILTER_CONTENT</text></g><ellipse cx="484" cy="387" fill="none" rx="10" ry="10" style="stroke:#222222;stroke-width:1.0;"/><ellipse cx="484.5" cy="387.5" fill="#222222" rx="6" ry="6" style="stroke:none;stroke-width:1.0;"/><!--MD5=[5b976f1c0cf0de97d5b06f127151238e]
link *start to CONTENT_MANAGEMENT--><g id="link_*start_CONTENT_MANAGEMENT"><path d="M450,26.21 C450,44.45 450,85.94 450,114.71 " fill="none" id="*start-to-CONTENT_MANAGEMENT" style="stroke:#181818;stroke-width:1.0;"/><polygon fill="#181818" points="450,119.64,454,110.64,450,114.64,446,110.64,450,119.64" style="stroke:#181818;stroke-width:1.0;"/><path d="M455,61 L455,86 L566,86 L566,71 L556,61 L455,61 " fill="#FEFFDD" style="stroke:#181818;stroke-width:0.5;"/><path d="M556,61 L556,71 L566,71 L556,61 " fill="#FEFFDD" style="stroke:#181818;stroke-width:0.5;"/><text fill="#000000" font-family="sans-serif" font-size="13" lengthAdjust="spacing" textLength="90" x="461" y="78.077">Authenticaction</text></g><!--MD5=[67c5c983c48fef3cca7afc97b621b1b4]
link CONTENT_MANAGEMENT to VIEW_CATALOG--><g id="link_CONTENT_MANAGEMENT_VIEW_CATALOG"><path d="M365.11,171.44 C306.16,188.41 225.8,211.57 155,232 C151.04,233.14 146.97,234.32 142.86,235.51 " fill="none" id="CONTENT_MANAGEMENT-to-VIEW_CATALOG" style="stroke:#181818;stroke-width:1.0;"/><polygon fill="#181818" points="138.24,237.13,147.9963,238.4768,143.0438,235.7432,145.7774,230.7907,138.24,237.13" style="stroke:#181818;stroke-width:1.0;"/></g><!--MD5=[a151b4679bf58c3499ea38e5fecfad87]
link CONTENT_MANAGEMENT to ADD_CONTENT--><g id="link_CONTENT_MANAGEMENT_ADD_CONTENT"><path d="M401.75,171.46 C368,188.57 322.92,211.43 288.14,229.06 " fill="none" id="CONTENT_MANAGEMENT-to-ADD_CONTENT" style="stroke:#181818;stroke-width:1.0;"/><polygon fill="#181818" points="284.09,231.62,293.9263,231.1225,288.5506,229.3611,290.312,223.9854,284.09,231.62" style="stroke:#181818;stroke-width:1.0;"/></g><!--MD5=[1edc9bc29ed43ce6541a04925f1a557a]
link CONTENT_MANAGEMENT to EDIT_CONTENT--><g id="link_CONTENT_MANAGEMENT_EDIT_CONTENT"><path d="M438.11,171.46 C430.2,187.73 419.76,209.19 411.38,226.42 " fill="none" id="CONTENT_MANAGEMENT-to-EDIT_CONTENT" style="stroke:#181818;stroke-width:1.0;"/><polygon fill="#181818" points="408.85,230.62,416.3881,224.2815,411.0401,226.1252,409.1964,220.7772,408.85,230.62" style="stroke:#181818;stroke-width:1.0;"/></g><!--MD5=[52ae7e7ec2420ed772a40f1efeb6e358]
link CONTENT_MANAGEMENT to DELETE_CONTENT--><g id="link_CONTENT_MANAGEMENT_DELETE_CONTENT"><path d="M477.15,171.46 C495.68,188.15 520.27,210.31 539.64,227.75 " fill="none" id="CONTENT_MANAGEMENT-to-DELETE_CONTENT" style="stroke:#181818;stroke-width:1.0;"/><polygon fill="#181818" points="542.94,230.62,538.9262,221.6261,539.2235,227.2752,533.5745,227.5725,542.94,230.62" style="stroke:#181818;stroke-width:1.0;"/></g><!--MD5=[349151000781baa9e2f4a97dc8514a16]
link CONTENT_MANAGEMENT to VIEW_CONTENT--><g id="link_CONTENT_MANAGEMENT_VIEW_CONTENT"><path d="M516.43,171.46 C563.45,188.78 626.45,211.98 674.55,229.69 " fill="none" id="CONTENT_MANAGEMENT-to-VIEW_CONTENT" style="stroke:#181818;stroke-width:1.0;"/><polygon fill="#181818" points="679.05,231.71,671.9839,224.8493,674.3573,229.9841,669.2225,232.3576,679.05,231.71" style="stroke:#181818;stroke-width:1.0;"/></g><!--MD5=[de06e7bc7f5375fc9ed0c9669e42a3e5]
link CONTENT_MANAGEMENT to SEARCH_FILTER_CONTENT--><g id="link_CONTENT_MANAGEMENT_SEARCH_FILTER_CONTENT"><path d="M548.38,168.4 C632.32,186.67 752.92,212.9 840.23,231.9 " fill="none" id="CONTENT_MANAGEMENT-to-SEARCH_FILTER_CONTENT" style="stroke:#181818;stroke-width:1.0;"/><polygon fill="#181818" points="844.93,233.14,836.9795,227.3271,840.0431,232.0826,835.2876,235.1462,844.93,233.14" style="stroke:#181818;stroke-width:1.0;"/></g><!--MD5=[5fd3d69b70d224f2dc800a2ffe01a16a]
link VIEW_CATALOG to *end--><g id="link_VIEW_CATALOG_*end"><path d="M102.68,282.37 C130.39,303.04 173.11,331.69 215,347 C306.48,380.43 425.32,385.31 467.92,385.94 " fill="none" id="VIEW_CATALOG-to-*end" style="stroke:#181818;stroke-width:1.0;"/><polygon fill="#181818" points="472.87,386.01,463.9163,381.9074,467.8703,385.9529,463.8249,389.9069,472.87,386.01" style="stroke:#181818;stroke-width:1.0;"/><path d="M220,317 L220,342 L280,342 L280,327 L270,317 L220,317 " fill="#FEFFDD" style="stroke:#181818;stroke-width:0.5;"/><path d="M270,317 L270,327 L280,327 L270,317 " fill="#FEFFDD" style="stroke:#181818;stroke-width:0.5;"/><text fill="#000000" font-family="sans-serif" font-size="13" lengthAdjust="spacing" textLength="39" x="226" y="334.077">Logout</text></g><!--MD5=[4f233f47378a841c917fae04c422030c]
link ADD_CONTENT to *end--><g id="link_ADD_CONTENT_*end"><path d="M258.58,282.49 C279.14,302.52 310.67,330.19 343,347 C385.14,368.91 440.95,379.62 467.98,383.8 " fill="none" id="ADD_CONTENT-to-*end" style="stroke:#181818;stroke-width:1.0;"/><polygon fill="#181818" points="472.9,384.69,464.5795,379.4203,467.9534,383.9609,463.4129,387.3348,472.9,384.69" style="stroke:#181818;stroke-width:1.0;"/><path d="M348,317 L348,342 L408,342 L408,327 L398,317 L348,317 " fill="#FEFFDD" style="stroke:#181818;stroke-width:0.5;"/><path d="M398,317 L398,327 L408,327 L398,317 " fill="#FEFFDD" style="stroke:#181818;stroke-width:0.5;"/><text fill="#000000" font-family="sans-serif" font-size="13" lengthAdjust="spacing" textLength="39" x="354" y="334.077">Logout</text></g><!--MD5=[72cc172a721888cbeef76b3c77a86ac8]
link EDIT_CONTENT to *end--><g id="link_EDIT_CONTENT_*end"><path d="M406.53,282.37 C414.47,301.05 426.9,326.94 442,347 C450.58,358.4 462.73,369.27 471.76,376.62 " fill="none" id="EDIT_CONTENT-to-*end" style="stroke:#181818;stroke-width:1.0;"/><polygon fill="#181818" points="475.41,380.33,470.8576,371.5964,471.4973,377.217,465.8767,377.8567,475.41,380.33" style="stroke:#181818;stroke-width:1.0;"/><path d="M447,317 L447,342 L507,342 L507,327 L497,317 L447,317 " fill="#FEFFDD" style="stroke:#181818;stroke-width:0.5;"/><path d="M497,317 L497,327 L507,327 L497,317 " fill="#FEFFDD" style="stroke:#181818;stroke-width:0.5;"/><text fill="#000000" font-family="sans-serif" font-size="13" lengthAdjust="spacing" textLength="39" x="453" y="334.077">Logout</text></g><!--MD5=[aefc2750a0656c54f57842bffd3988a2]
link DELETE_CONTENT to *end--><g id="link_DELETE_CONTENT_*end"><path d="M557.14,282.36 C546.49,300.57 531.1,325.87 516,347 C509.17,356.56 500.71,366.81 494.2,374.4 " fill="none" id="DELETE_CONTENT-to-*end" style="stroke:#181818;stroke-width:1.0;"/><polygon fill="#181818" points="490.44,377.76,499.3589,373.5824,493.7163,373.983,493.3157,368.3403,490.44,377.76" style="stroke:#181818;stroke-width:1.0;"/><path d="M544,317 L544,342 L604,342 L604,327 L594,317 L544,317 " fill="#FEFFDD" style="stroke:#181818;stroke-width:0.5;"/><path d="M594,317 L594,327 L604,327 L594,317 " fill="#FEFFDD" style="stroke:#181818;stroke-width:0.5;"/><text fill="#000000" font-family="sans-serif" font-size="13" lengthAdjust="spacing" textLength="39" x="550" y="334.077">Logout</text></g><!--MD5=[1e4ade3523ddd9ec2992c789957a5d02]
link VIEW_CONTENT to *end--><g id="link_VIEW_CONTENT_*end"><path d="M716.66,282.31 C691.55,302.09 653.72,329.51 617,347 C576.78,366.16 525.16,378.01 499.68,383.1 " fill="none" id="VIEW_CONTENT-to-*end" style="stroke:#181818;stroke-width:1.0;"/><polygon fill="#181818" points="495.07,384.19,504.6687,386.3956,499.9778,383.2341,503.1393,378.5432,495.07,384.19" style="stroke:#181818;stroke-width:1.0;"/><path d="M682,317 L682,342 L742,342 L742,327 L732,317 L682,317 " fill="#FEFFDD" style="stroke:#181818;stroke-width:0.5;"/><path d="M732,317 L732,327 L742,327 L732,317 " fill="#FEFFDD" style="stroke:#181818;stroke-width:0.5;"/><text fill="#000000" font-family="sans-serif" font-size="13" lengthAdjust="spacing" textLength="39" x="688" y="334.077">Logout</text></g><!--MD5=[89a1574c2a8029e73cbbbb24f7e1c74a]
link SEARCH_FILTER_CONTENT to *end--><g id="link_SEARCH_FILTER_CONTENT_*end"><path d="M906.85,282.44 C868.01,302.85 809.34,331.1 755,347 C660.84,374.55 542.35,383.03 499.97,385.28 " fill="none" id="SEARCH_FILTER_CONTENT-to-*end" style="stroke:#181818;stroke-width:1.0;"/><polygon fill="#181818" points="495.06,385.58,504.2541,389.1111,500.0534,385.3225,503.842,381.1217,495.06,385.58" style="stroke:#181818;stroke-width:1.0;"/><path d="M849,317 L849,342 L909,342 L909,327 L899,317 L849,317 " fill="#FEFFDD" style="stroke:#181818;stroke-width:0.5;"/><path d="M899,317 L899,327 L909,327 L899,317 " fill="#FEFFDD" style="stroke:#181818;stroke-width:0.5;"/><text fill="#000000" font-family="sans-serif" font-size="13" lengthAdjust="spacing" textLength="39" x="855" y="334.077">Logout</text></g><!--MD5=[247593ae659fe5f8000d30a6879962f9]
@startuml use-cases-context
[*] - -> CONTENT_MANAGEMENT
note on link
  Authenticaction
end note

CONTENT_MANAGEMENT - -> VIEW_CATALOG
CONTENT_MANAGEMENT - -> ADD_CONTENT
CONTENT_MANAGEMENT - -> EDIT_CONTENT
CONTENT_MANAGEMENT - -> DELETE_CONTENT
CONTENT_MANAGEMENT - -> VIEW_CONTENT
CONTENT_MANAGEMENT - -> SEARCH_FILTER_CONTENT

VIEW_CATALOG - -> [*]
note on link
  Logout
end note
ADD_CONTENT - -> [*]
note on link
  Logout
end note
EDIT_CONTENT - -> [*]
note on link
  Logout
end note
DELETE_CONTENT - -> [*]
note on link
  Logout
end note
VIEW_CONTENT - -> [*]
note on link
  Logout
end note
SEARCH_FILTER_CONTENT - -> [*]
note on link
  Logout
end note
@enduml

PlantUML version 1.2022.7(Mon Aug 22 12:01:30 ECT 2022)
(GPL source distribution)
Java Runtime: OpenJDK Runtime Environment
JVM: OpenJDK 64-Bit Server VM
Default Encoding: UTF-8
Language: en
Country: null
--></g></svg>