<?xml version="1.0" encoding="us-ascii" standalone="no"?><svg xmlns="http://www.w3.org/2000/svg" xmlns:xlink="http://www.w3.org/1999/xlink" contentStyleType="text/css" height="224px" preserveAspectRatio="none" style="width:218px;height:224px;background:#FFFFFF;" version="1.1" viewBox="0 0 218 224" width="218px" zoomAndPan="magnify"><defs/><g><!--cluster Authentication--><g id="cluster_Authentication"><rect fill="none" height="211" rx="2.5" ry="2.5" style="stroke:#181818;stroke-width:1.0;" width="132.54" x="80" y="7"/><text fill="#000000" font-family="sans-serif" font-size="14" font-weight="bold" lengthAdjust="spacing" textLength="102" x="95.27" y="22.0059">Authentication</text></g><g id="elem_Login"><ellipse cx="146.2692" cy="57.0049" fill="#F1F1F1" rx="36.6692" ry="15.0349" style="stroke:#181818;stroke-width:0.5;"/><text fill="#000000" font-family="sans-serif" font-size="14" lengthAdjust="spacing" textLength="35" x="125.7692" y="60.7579">Login</text></g><g id="elem_Register"><ellipse cx="146.2721" cy="121.998" fill="#F1F1F1" rx="50.2721" ry="15.218" style="stroke:#181818;stroke-width:0.5;"/><text fill="#000000" font-family="sans-serif" font-size="14" lengthAdjust="spacing" textLength="53" x="116.7721" y="125.7509">Register</text></g><g id="elem_Logout"><ellipse cx="146.2688" cy="187.0006" fill="#F1F1F1" rx="43.4688" ry="15.1406" style="stroke:#181818;stroke-width:0.5;"/><text fill="#000000" font-family="sans-serif" font-size="14" lengthAdjust="spacing" textLength="44" x="121.2688" y="190.7536">Logout</text></g><!--entity User--><g id="elem_User"><ellipse cx="21" cy="92.1" fill="#F1F1F1" rx="8" ry="8" style="stroke:#181818;stroke-width:0.5;"/><path d="M21,100.1 L21,127.1 M8,108.1 L34,108.1 M21,127.1 L8,142.1 M21,127.1 L34,142.1 " fill="none" style="stroke:#181818;stroke-width:0.5;"/><text fill="#000000" font-family="sans-serif" font-size="14" lengthAdjust="spacing" textLength="30" x="6" y="156.6059">User</text></g><!--link User to Login--><g id="link_User_Login"><path d="M36.47,111.5 C46.24,104.64 59.57,95.75 72,89 C87,80.85 104.5,73.15 118.64,67.34 " fill="none" id="User-Login" style="stroke:#181818;stroke-width:1.0;"/></g><!--link User to Register--><g id="link_User_Register"><path d="M36.14,122 C50.69,122 74.19,122 95.66,122 " fill="none" id="User-Register" style="stroke:#181818;stroke-width:1.0;"/></g><!--link User to Logout--><g id="link_User_Logout"><path d="M36.47,132.5 C46.24,139.36 59.57,148.25 72,155 C86.15,162.69 102.52,169.98 116.19,175.65 " fill="none" id="User-Logout" style="stroke:#181818;stroke-width:1.0;"/></g><!--SRC=[PSen2iCm44JHNgSON4M53-4-LS074CfQNZ1QM8qgaxlRIXVooyyxP2DeS2qxyLQNJBKQKgOvrYOUnagr789fwTobKdCQQC8PS3SKvXcFfnMjyVUzf6YZUFoZrXdnBNmk]--></g></svg>