<?xml version="1.0" encoding="us-ascii" standalone="no"?><svg xmlns="http://www.w3.org/2000/svg" xmlns:xlink="http://www.w3.org/1999/xlink" contentStyleType="text/css" height="320px" preserveAspectRatio="none" style="width:296px;height:320px;background:#FFFFFF;" version="1.1" viewBox="0 0 296 320" width="296px" zoomAndPan="magnify"><defs/><g><!--cluster Notifications--><g id="cluster_Notifications"><rect fill="none" height="307" rx="2.5" ry="2.5" style="stroke:#181818;stroke-width:1.0;" width="210.77" x="80" y="7"/><text fill="#000000" font-family="sans-serif" font-size="14" font-weight="bold" lengthAdjust="spacing" textLength="88" x="141.385" y="22.0059">Notifications</text></g><g id="elem_View notification"><ellipse cx="185.3936" cy="59.0047" fill="#F1F1F1" rx="75.0736" ry="17.4147" style="stroke:#181818;stroke-width:0.5;"/><text fill="#000000" font-family="sans-serif" font-size="14" lengthAdjust="spacing" textLength="102" x="131.3936" y="62.7577">View notification</text></g><g id="elem_View all notifications"><ellipse cx="185.3888" cy="131.0018" fill="#F1F1F1" rx="84.8588" ry="19.3718" style="stroke:#181818;stroke-width:0.5;"/><text fill="#000000" font-family="sans-serif" font-size="14" lengthAdjust="spacing" textLength="127" x="118.8888" y="134.7547">View all notifications</text></g><g id="elem_Delete notification"><ellipse cx="185.3914" cy="203.9963" fill="#F1F1F1" rx="79.2814" ry="18.2563" style="stroke:#181818;stroke-width:0.5;"/><text fill="#000000" font-family="sans-serif" font-size="14" lengthAdjust="spacing" textLength="113" x="125.8914" y="207.7493">Delete notification</text></g><g id="elem_Delete all notifications"><ellipse cx="185.3864" cy="277.9973" fill="#F1F1F1" rx="89.3864" ry="20.2773" style="stroke:#181818;stroke-width:0.5;"/><text fill="#000000" font-family="sans-serif" font-size="14" lengthAdjust="spacing" textLength="138" x="113.3864" y="281.7503">Delete all notifications</text></g><!--entity User--><g id="elem_User"><ellipse cx="21" cy="138.1" fill="#F1F1F1" rx="8" ry="8" style="stroke:#181818;stroke-width:0.5;"/><path d="M21,146.1 L21,173.1 M8,154.1 L34,154.1 M21,173.1 L8,188.1 M21,173.1 L34,188.1 " fill="none" style="stroke:#181818;stroke-width:0.5;"/><text fill="#000000" font-family="sans-serif" font-size="14" lengthAdjust="spacing" textLength="30" x="6" y="202.6059">User</text></g><!--link User to View notification--><g id="link_User_View notification"><path d="M36.49,137.31 C44.95,122.34 56.94,105.19 72,94 C87.33,82.6 106.46,74.86 124.56,69.62 " fill="none" id="User-View notification" style="stroke:#181818;stroke-width:1.0;"/></g><!--link User to View all notifications--><g id="link_User_View all notifications"><path d="M36.41,164.72 C56.05,160.24 92.41,151.96 124.17,144.72 " fill="none" id="User-View all notifications" style="stroke:#181818;stroke-width:1.0;"/></g><!--link User to Delete notification--><g id="link_User_Delete notification"><path d="M36.41,171.19 C56.67,175.69 94.73,184.12 127.17,191.32 " fill="none" id="User-Delete notification" style="stroke:#181818;stroke-width:1.0;"/></g><!--link User to Delete all notifications--><g id="link_User_Delete all notifications"><path d="M36.35,197 C44.91,211.69 57.04,228.75 72,240 C85.99,250.52 103.08,258.25 119.67,263.87 " fill="none" id="User-Delete all notifications" style="stroke:#181818;stroke-width:1.0;"/></g><!--SRC=[RSon2e0m40FGlLyHd7JeNpYxwLxgLG-E5je31_7VjPjACoQF20M59cJUTiNAcRnoYiPvJHbpeMngvU8cX6vAoe6zgwHqE0sUL0HhqIzC1-AB38tTYNnC-Q6HX9I-DnKqLUFikW40]--></g></svg>