<?xml version="1.0" encoding="us-ascii" standalone="no"?><svg xmlns="http://www.w3.org/2000/svg" xmlns:xlink="http://www.w3.org/1999/xlink" contentStyleType="text/css" height="1062px" preserveAspectRatio="none" style="width:807px;height:1062px;background:#FFFFFF;" version="1.1" viewBox="0 0 807 1062" width="807px" zoomAndPan="magnify"><defs/><g><!--class Flixxic--><g id="elem_Flixxic"><rect fill="#F1F1F1" height="48" id="Flixxic" rx="2.5" ry="2.5" style="stroke:#181818;stroke-width:0.5;" width="71" x="410.5" y="7"/><ellipse cx="425.5" cy="23" fill="#ADD1B2" rx="11" ry="11" style="stroke:#181818;stroke-width:1.0;"/><path d="M420.5,24.1563 C420.5,26.6563 422.6406,28.4688 425.5625,28.4688 C426.7969,28.4688 427.9688,28.1719 428.7188,27.6563 C429.3281,27.2344 429.6563,26.8125 429.6563,26.4063 C429.6563,25.9375 429.2344,25.5313 428.7344,25.5313 C428.5,25.5313 428.2813,25.6094 428.0781,25.8125 C427.6406,26.25 427.6406,26.25 427.4688,26.3438 C427.0156,26.5781 426.375,26.7188 425.6094,26.7188 C423.6094,26.7188 422.3281,25.7031 422.3281,24.125 L422.3281,23.0781 C422.3281,21.375 423.5469,20.1719 425.25,20.1719 C425.8281,20.1719 426.4063,20.3125 426.875,20.5625 C427.3438,20.8281 427.5156,21.0156 427.5781,21.375 C427.7031,22.0469 427.9531,22.2969 428.4844,22.2969 C428.7656,22.2969 429.0469,22.1563 429.2344,21.9375 C429.3594,21.7656 429.4063,21.5938 429.4063,21.1563 L429.4063,19.7969 C429.4063,19.375 429.3906,19.2344 429.2656,19.0625 C429.0938,18.8125 428.8125,18.6563 428.4844,18.6563 C428.1719,18.6563 427.9688,18.7656 427.75,19.0313 C426.5781,18.5313 426.1406,18.4219 425.1875,18.4219 C422.5156,18.4219 420.5,20.4375 420.5,23.0625 L420.5,24.1563 Z " fill="#000000"/><text fill="#000000" font-family="sans-serif" font-size="14" lengthAdjust="spacing" textLength="39" x="439.5" y="27.606">Flixxic</text><line style="stroke:#181818;stroke-width:0.5;" x1="411.5" x2="480.5" y1="39" y2="39"/><line style="stroke:#181818;stroke-width:0.5;" x1="411.5" x2="480.5" y1="47" y2="47"/></g><!--class User--><g id="elem_User"><rect fill="#F1F1F1" height="48" id="User" rx="2.5" ry="2.5" style="stroke:#181818;stroke-width:0.5;" width="62" x="524" y="132"/><ellipse cx="539" cy="148" fill="#ADD1B2" rx="11" ry="11" style="stroke:#181818;stroke-width:1.0;"/><path d="M534,149.1563 C534,151.6563 536.1406,153.4688 539.0625,153.4688 C540.2969,153.4688 541.4688,153.1719 542.2188,152.6563 C542.8281,152.2344 543.1563,151.8125 543.1563,151.4063 C543.1563,150.9375 542.7344,150.5313 542.2344,150.5313 C542,150.5313 541.7813,150.6094 541.5781,150.8125 C541.1406,151.25 541.1406,151.25 540.9688,151.3438 C540.5156,151.5781 539.875,151.7188 539.1094,151.7188 C537.1094,151.7188 535.8281,150.7031 535.8281,149.125 L535.8281,148.0781 C535.8281,146.375 537.0469,145.1719 538.75,145.1719 C539.3281,145.1719 539.9063,145.3125 540.375,145.5625 C540.8438,145.8281 541.0156,146.0156 541.0781,146.375 C541.2031,147.0469 541.4531,147.2969 541.9844,147.2969 C542.2656,147.2969 542.5469,147.1563 542.7344,146.9375 C542.8594,146.7656 542.9063,146.5938 542.9063,146.1563 L542.9063,144.7969 C542.9063,144.375 542.8906,144.2344 542.7656,144.0625 C542.5938,143.8125 542.3125,143.6563 541.9844,143.6563 C541.6719,143.6563 541.4688,143.7656 541.25,144.0313 C540.0781,143.5313 539.6406,143.4219 538.6875,143.4219 C536.0156,143.4219 534,145.4375 534,148.0625 L534,149.1563 Z " fill="#000000"/><text fill="#000000" font-family="sans-serif" font-size="14" lengthAdjust="spacing" textLength="30" x="553" y="152.606">User</text><line style="stroke:#181818;stroke-width:0.5;" x1="525" x2="585" y1="164" y2="164"/><line style="stroke:#181818;stroke-width:0.5;" x1="525" x2="585" y1="172" y2="172"/></g><!--class Content--><g id="elem_Content"><rect fill="#F1F1F1" height="48" id="Content" rx="2.5" ry="2.5" style="stroke:#181818;stroke-width:0.5;" width="82" x="262" y="132"/><ellipse cx="277" cy="148" fill="#ADD1B2" rx="11" ry="11" style="stroke:#181818;stroke-width:1.0;"/><path d="M272,149.1563 C272,151.6563 274.1406,153.4688 277.0625,153.4688 C278.2969,153.4688 279.4688,153.1719 280.2188,152.6563 C280.8281,152.2344 281.1563,151.8125 281.1563,151.4063 C281.1563,150.9375 280.7344,150.5313 280.2344,150.5313 C280,150.5313 279.7813,150.6094 279.5781,150.8125 C279.1406,151.25 279.1406,151.25 278.9688,151.3438 C278.5156,151.5781 277.875,151.7188 277.1094,151.7188 C275.1094,151.7188 273.8281,150.7031 273.8281,149.125 L273.8281,148.0781 C273.8281,146.375 275.0469,145.1719 276.75,145.1719 C277.3281,145.1719 277.9063,145.3125 278.375,145.5625 C278.8438,145.8281 279.0156,146.0156 279.0781,146.375 C279.2031,147.0469 279.4531,147.2969 279.9844,147.2969 C280.2656,147.2969 280.5469,147.1563 280.7344,146.9375 C280.8594,146.7656 280.9063,146.5938 280.9063,146.1563 L280.9063,144.7969 C280.9063,144.375 280.8906,144.2344 280.7656,144.0625 C280.5938,143.8125 280.3125,143.6563 279.9844,143.6563 C279.6719,143.6563 279.4688,143.7656 279.25,144.0313 C278.0781,143.5313 277.6406,143.4219 276.6875,143.4219 C274.0156,143.4219 272,145.4375 272,148.0625 L272,149.1563 Z " fill="#000000"/><text fill="#000000" font-family="sans-serif" font-size="14" lengthAdjust="spacing" textLength="50" x="291" y="152.606">Content</text><line style="stroke:#181818;stroke-width:0.5;" x1="263" x2="343" y1="164" y2="164"/><line style="stroke:#181818;stroke-width:0.5;" x1="263" x2="343" y1="172" y2="172"/></g><!--class NormalUser--><g id="elem_NormalUser"><rect fill="#F1F1F1" height="48" id="NormalUser" rx="2.5" ry="2.5" style="stroke:#181818;stroke-width:0.5;" width="108" x="501" y="257"/><ellipse cx="516" cy="273" fill="#ADD1B2" rx="11" ry="11" style="stroke:#181818;stroke-width:1.0;"/><path d="M511,274.1563 C511,276.6563 513.1406,278.4688 516.0625,278.4688 C517.2969,278.4688 518.4688,278.1719 519.2188,277.6563 C519.8281,277.2344 520.1563,276.8125 520.1563,276.4063 C520.1563,275.9375 519.7344,275.5313 519.2344,275.5313 C519,275.5313 518.7813,275.6094 518.5781,275.8125 C518.1406,276.25 518.1406,276.25 517.9688,276.3438 C517.5156,276.5781 516.875,276.7188 516.1094,276.7188 C514.1094,276.7188 512.8281,275.7031 512.8281,274.125 L512.8281,273.0781 C512.8281,271.375 514.0469,270.1719 515.75,270.1719 C516.3281,270.1719 516.9063,270.3125 517.375,270.5625 C517.8438,270.8281 518.0156,271.0156 518.0781,271.375 C518.2031,272.0469 518.4531,272.2969 518.9844,272.2969 C519.2656,272.2969 519.5469,272.1563 519.7344,271.9375 C519.8594,271.7656 519.9063,271.5938 519.9063,271.1563 L519.9063,269.7969 C519.9063,269.375 519.8906,269.2344 519.7656,269.0625 C519.5938,268.8125 519.3125,268.6563 518.9844,268.6563 C518.6719,268.6563 518.4688,268.7656 518.25,269.0313 C517.0781,268.5313 516.6406,268.4219 515.6875,268.4219 C513.0156,268.4219 511,270.4375 511,273.0625 L511,274.1563 Z " fill="#000000"/><text fill="#000000" font-family="sans-serif" font-size="14" lengthAdjust="spacing" textLength="76" x="530" y="277.606">NormalUser</text><line style="stroke:#181818;stroke-width:0.5;" x1="502" x2="608" y1="289" y2="289"/><line style="stroke:#181818;stroke-width:0.5;" x1="502" x2="608" y1="297" y2="297"/></g><!--class AdminUser--><g id="elem_AdminUser"><rect fill="#F1F1F1" height="48" id="AdminUser" rx="2.5" ry="2.5" style="stroke:#181818;stroke-width:0.5;" width="102" x="647" y="132"/><ellipse cx="662" cy="148" fill="#ADD1B2" rx="11" ry="11" style="stroke:#181818;stroke-width:1.0;"/><path d="M657,149.1563 C657,151.6563 659.1406,153.4688 662.0625,153.4688 C663.2969,153.4688 664.4688,153.1719 665.2188,152.6563 C665.8281,152.2344 666.1563,151.8125 666.1563,151.4063 C666.1563,150.9375 665.7344,150.5313 665.2344,150.5313 C665,150.5313 664.7813,150.6094 664.5781,150.8125 C664.1406,151.25 664.1406,151.25 663.9688,151.3438 C663.5156,151.5781 662.875,151.7188 662.1094,151.7188 C660.1094,151.7188 658.8281,150.7031 658.8281,149.125 L658.8281,148.0781 C658.8281,146.375 660.0469,145.1719 661.75,145.1719 C662.3281,145.1719 662.9063,145.3125 663.375,145.5625 C663.8438,145.8281 664.0156,146.0156 664.0781,146.375 C664.2031,147.0469 664.4531,147.2969 664.9844,147.2969 C665.2656,147.2969 665.5469,147.1563 665.7344,146.9375 C665.8594,146.7656 665.9063,146.5938 665.9063,146.1563 L665.9063,144.7969 C665.9063,144.375 665.8906,144.2344 665.7656,144.0625 C665.5938,143.8125 665.3125,143.6563 664.9844,143.6563 C664.6719,143.6563 664.4688,143.7656 664.25,144.0313 C663.0781,143.5313 662.6406,143.4219 661.6875,143.4219 C659.0156,143.4219 657,145.4375 657,148.0625 L657,149.1563 Z " fill="#000000"/><text fill="#000000" font-family="sans-serif" font-size="14" lengthAdjust="spacing" textLength="70" x="676" y="152.606">AdminUser</text><line style="stroke:#181818;stroke-width:0.5;" x1="648" x2="748" y1="164" y2="164"/><line style="stroke:#181818;stroke-width:0.5;" x1="648" x2="748" y1="172" y2="172"/></g><!--class ManagementProfile--><g id="elem_ManagementProfile"><rect fill="#F1F1F1" height="48" id="ManagementProfile" rx="2.5" ry="2.5" style="stroke:#181818;stroke-width:0.5;" width="156" x="644" y="257"/><ellipse cx="659" cy="273" fill="#ADD1B2" rx="11" ry="11" style="stroke:#181818;stroke-width:1.0;"/><path d="M654,274.1563 C654,276.6563 656.1406,278.4688 659.0625,278.4688 C660.2969,278.4688 661.4688,278.1719 662.2188,277.6563 C662.8281,277.2344 663.1563,276.8125 663.1563,276.4063 C663.1563,275.9375 662.7344,275.5313 662.2344,275.5313 C662,275.5313 661.7813,275.6094 661.5781,275.8125 C661.1406,276.25 661.1406,276.25 660.9688,276.3438 C660.5156,276.5781 659.875,276.7188 659.1094,276.7188 C657.1094,276.7188 655.8281,275.7031 655.8281,274.125 L655.8281,273.0781 C655.8281,271.375 657.0469,270.1719 658.75,270.1719 C659.3281,270.1719 659.9063,270.3125 660.375,270.5625 C660.8438,270.8281 661.0156,271.0156 661.0781,271.375 C661.2031,272.0469 661.4531,272.2969 661.9844,272.2969 C662.2656,272.2969 662.5469,272.1563 662.7344,271.9375 C662.8594,271.7656 662.9063,271.5938 662.9063,271.1563 L662.9063,269.7969 C662.9063,269.375 662.8906,269.2344 662.7656,269.0625 C662.5938,268.8125 662.3125,268.6563 661.9844,268.6563 C661.6719,268.6563 661.4688,268.7656 661.25,269.0313 C660.0781,268.5313 659.6406,268.4219 658.6875,268.4219 C656.0156,268.4219 654,270.4375 654,273.0625 L654,274.1563 Z " fill="#000000"/><text fill="#000000" font-family="sans-serif" font-size="14" lengthAdjust="spacing" textLength="124" x="673" y="277.606">ManagementProfile</text><line style="stroke:#181818;stroke-width:0.5;" x1="645" x2="799" y1="289" y2="289"/><line style="stroke:#181818;stroke-width:0.5;" x1="645" x2="799" y1="297" y2="297"/></g><!--class ManagementContent--><g id="elem_ManagementContent"><rect fill="#F1F1F1" height="48" id="ManagementContent" rx="2.5" ry="2.5" style="stroke:#181818;stroke-width:0.5;" width="166" x="615" y="7"/><ellipse cx="630" cy="23" fill="#ADD1B2" rx="11" ry="11" style="stroke:#181818;stroke-width:1.0;"/><path d="M625,24.1563 C625,26.6563 627.1406,28.4688 630.0625,28.4688 C631.2969,28.4688 632.4688,28.1719 633.2188,27.6563 C633.8281,27.2344 634.1563,26.8125 634.1563,26.4063 C634.1563,25.9375 633.7344,25.5313 633.2344,25.5313 C633,25.5313 632.7813,25.6094 632.5781,25.8125 C632.1406,26.25 632.1406,26.25 631.9688,26.3438 C631.5156,26.5781 630.875,26.7188 630.1094,26.7188 C628.1094,26.7188 626.8281,25.7031 626.8281,24.125 L626.8281,23.0781 C626.8281,21.375 628.0469,20.1719 629.75,20.1719 C630.3281,20.1719 630.9063,20.3125 631.375,20.5625 C631.8438,20.8281 632.0156,21.0156 632.0781,21.375 C632.2031,22.0469 632.4531,22.2969 632.9844,22.2969 C633.2656,22.2969 633.5469,22.1563 633.7344,21.9375 C633.8594,21.7656 633.9063,21.5938 633.9063,21.1563 L633.9063,19.7969 C633.9063,19.375 633.8906,19.2344 633.7656,19.0625 C633.5938,18.8125 633.3125,18.6563 632.9844,18.6563 C632.6719,18.6563 632.4688,18.7656 632.25,19.0313 C631.0781,18.5313 630.6406,18.4219 629.6875,18.4219 C627.0156,18.4219 625,20.4375 625,23.0625 L625,24.1563 Z " fill="#000000"/><text fill="#000000" font-family="sans-serif" font-size="14" lengthAdjust="spacing" textLength="134" x="644" y="27.606">ManagementContent</text><line style="stroke:#181818;stroke-width:0.5;" x1="616" x2="780" y1="39" y2="39"/><line style="stroke:#181818;stroke-width:0.5;" x1="616" x2="780" y1="47" y2="47"/></g><!--class Movie--><g id="elem_Movie"><rect fill="#F1F1F1" height="48" id="Movie" rx="2.5" ry="2.5" style="stroke:#181818;stroke-width:0.5;" width="70" x="298" y="507"/><ellipse cx="313" cy="523" fill="#ADD1B2" rx="11" ry="11" style="stroke:#181818;stroke-width:1.0;"/><path d="M308,524.1563 C308,526.6563 310.1406,528.4688 313.0625,528.4688 C314.2969,528.4688 315.4688,528.1719 316.2188,527.6563 C316.8281,527.2344 317.1563,526.8125 317.1563,526.4063 C317.1563,525.9375 316.7344,525.5313 316.2344,525.5313 C316,525.5313 315.7813,525.6094 315.5781,525.8125 C315.1406,526.25 315.1406,526.25 314.9688,526.3438 C314.5156,526.5781 313.875,526.7188 313.1094,526.7188 C311.1094,526.7188 309.8281,525.7031 309.8281,524.125 L309.8281,523.0781 C309.8281,521.375 311.0469,520.1719 312.75,520.1719 C313.3281,520.1719 313.9063,520.3125 314.375,520.5625 C314.8438,520.8281 315.0156,521.0156 315.0781,521.375 C315.2031,522.0469 315.4531,522.2969 315.9844,522.2969 C316.2656,522.2969 316.5469,522.1563 316.7344,521.9375 C316.8594,521.7656 316.9063,521.5938 316.9063,521.1563 L316.9063,519.7969 C316.9063,519.375 316.8906,519.2344 316.7656,519.0625 C316.5938,518.8125 316.3125,518.6563 315.9844,518.6563 C315.6719,518.6563 315.4688,518.7656 315.25,519.0313 C314.0781,518.5313 313.6406,518.4219 312.6875,518.4219 C310.0156,518.4219 308,520.4375 308,523.0625 L308,524.1563 Z " fill="#000000"/><text fill="#000000" font-family="sans-serif" font-size="14" lengthAdjust="spacing" textLength="38" x="327" y="527.606">Movie</text><line style="stroke:#181818;stroke-width:0.5;" x1="299" x2="367" y1="539" y2="539"/><line style="stroke:#181818;stroke-width:0.5;" x1="299" x2="367" y1="547" y2="547"/></g><!--class Serie--><g id="elem_Serie"><rect fill="#F1F1F1" height="48" id="Serie" rx="2.5" ry="2.5" style="stroke:#181818;stroke-width:0.5;" width="65" x="190.5" y="507"/><ellipse cx="205.5" cy="523" fill="#ADD1B2" rx="11" ry="11" style="stroke:#181818;stroke-width:1.0;"/><path d="M200.5,524.1563 C200.5,526.6563 202.6406,528.4688 205.5625,528.4688 C206.7969,528.4688 207.9688,528.1719 208.7188,527.6563 C209.3281,527.2344 209.6563,526.8125 209.6563,526.4063 C209.6563,525.9375 209.2344,525.5313 208.7344,525.5313 C208.5,525.5313 208.2813,525.6094 208.0781,525.8125 C207.6406,526.25 207.6406,526.25 207.4688,526.3438 C207.0156,526.5781 206.375,526.7188 205.6094,526.7188 C203.6094,526.7188 202.3281,525.7031 202.3281,524.125 L202.3281,523.0781 C202.3281,521.375 203.5469,520.1719 205.25,520.1719 C205.8281,520.1719 206.4063,520.3125 206.875,520.5625 C207.3438,520.8281 207.5156,521.0156 207.5781,521.375 C207.7031,522.0469 207.9531,522.2969 208.4844,522.2969 C208.7656,522.2969 209.0469,522.1563 209.2344,521.9375 C209.3594,521.7656 209.4063,521.5938 209.4063,521.1563 L209.4063,519.7969 C209.4063,519.375 209.3906,519.2344 209.2656,519.0625 C209.0938,518.8125 208.8125,518.6563 208.4844,518.6563 C208.1719,518.6563 207.9688,518.7656 207.75,519.0313 C206.5781,518.5313 206.1406,518.4219 205.1875,518.4219 C202.5156,518.4219 200.5,520.4375 200.5,523.0625 L200.5,524.1563 Z " fill="#000000"/><text fill="#000000" font-family="sans-serif" font-size="14" lengthAdjust="spacing" textLength="33" x="219.5" y="527.606">Serie</text><line style="stroke:#181818;stroke-width:0.5;" x1="191.5" x2="254.5" y1="539" y2="539"/><line style="stroke:#181818;stroke-width:0.5;" x1="191.5" x2="254.5" y1="547" y2="547"/></g><!--class Cast--><g id="elem_Cast"><rect fill="#F1F1F1" height="48" id="Cast" rx="2.5" ry="2.5" style="stroke:#181818;stroke-width:0.5;" width="61" x="185.5" y="257"/><ellipse cx="200.5" cy="273" fill="#ADD1B2" rx="11" ry="11" style="stroke:#181818;stroke-width:1.0;"/><path d="M195.5,274.1563 C195.5,276.6563 197.6406,278.4688 200.5625,278.4688 C201.7969,278.4688 202.9688,278.1719 203.7188,277.6563 C204.3281,277.2344 204.6563,276.8125 204.6563,276.4063 C204.6563,275.9375 204.2344,275.5313 203.7344,275.5313 C203.5,275.5313 203.2813,275.6094 203.0781,275.8125 C202.6406,276.25 202.6406,276.25 202.4688,276.3438 C202.0156,276.5781 201.375,276.7188 200.6094,276.7188 C198.6094,276.7188 197.3281,275.7031 197.3281,274.125 L197.3281,273.0781 C197.3281,271.375 198.5469,270.1719 200.25,270.1719 C200.8281,270.1719 201.4063,270.3125 201.875,270.5625 C202.3438,270.8281 202.5156,271.0156 202.5781,271.375 C202.7031,272.0469 202.9531,272.2969 203.4844,272.2969 C203.7656,272.2969 204.0469,272.1563 204.2344,271.9375 C204.3594,271.7656 204.4063,271.5938 204.4063,271.1563 L204.4063,269.7969 C204.4063,269.375 204.3906,269.2344 204.2656,269.0625 C204.0938,268.8125 203.8125,268.6563 203.4844,268.6563 C203.1719,268.6563 202.9688,268.7656 202.75,269.0313 C201.5781,268.5313 201.1406,268.4219 200.1875,268.4219 C197.5156,268.4219 195.5,270.4375 195.5,273.0625 L195.5,274.1563 Z " fill="#000000"/><text fill="#000000" font-family="sans-serif" font-size="14" lengthAdjust="spacing" textLength="29" x="214.5" y="277.606">Cast</text><line style="stroke:#181818;stroke-width:0.5;" x1="186.5" x2="245.5" y1="289" y2="289"/><line style="stroke:#181818;stroke-width:0.5;" x1="186.5" x2="245.5" y1="297" y2="297"/></g><!--class Comment--><g id="elem_Comment"><rect fill="#F1F1F1" height="48" id="Comment" rx="2.5" ry="2.5" style="stroke:#181818;stroke-width:0.5;" width="94" x="57" y="882"/><ellipse cx="72" cy="898" fill="#ADD1B2" rx="11" ry="11" style="stroke:#181818;stroke-width:1.0;"/><path d="M67,899.1563 C67,901.6563 69.1406,903.4688 72.0625,903.4688 C73.2969,903.4688 74.4688,903.1719 75.2188,902.6563 C75.8281,902.2344 76.1563,901.8125 76.1563,901.4063 C76.1563,900.9375 75.7344,900.5313 75.2344,900.5313 C75,900.5313 74.7813,900.6094 74.5781,900.8125 C74.1406,901.25 74.1406,901.25 73.9688,901.3438 C73.5156,901.5781 72.875,901.7188 72.1094,901.7188 C70.1094,901.7188 68.8281,900.7031 68.8281,899.125 L68.8281,898.0781 C68.8281,896.375 70.0469,895.1719 71.75,895.1719 C72.3281,895.1719 72.9063,895.3125 73.375,895.5625 C73.8438,895.8281 74.0156,896.0156 74.0781,896.375 C74.2031,897.0469 74.4531,897.2969 74.9844,897.2969 C75.2656,897.2969 75.5469,897.1563 75.7344,896.9375 C75.8594,896.7656 75.9063,896.5938 75.9063,896.1563 L75.9063,894.7969 C75.9063,894.375 75.8906,894.2344 75.7656,894.0625 C75.5938,893.8125 75.3125,893.6563 74.9844,893.6563 C74.6719,893.6563 74.4688,893.7656 74.25,894.0313 C73.0781,893.5313 72.6406,893.4219 71.6875,893.4219 C69.0156,893.4219 67,895.4375 67,898.0625 L67,899.1563 Z " fill="#000000"/><text fill="#000000" font-family="sans-serif" font-size="14" lengthAdjust="spacing" textLength="62" x="86" y="902.606">Comment</text><line style="stroke:#181818;stroke-width:0.5;" x1="58" x2="150" y1="914" y2="914"/><line style="stroke:#181818;stroke-width:0.5;" x1="58" x2="150" y1="922" y2="922"/></g><!--class Trailer--><g id="elem_Trailer"><rect fill="#F1F1F1" height="48" id="Trailer" rx="2.5" ry="2.5" style="stroke:#181818;stroke-width:0.5;" width="73" x="130.5" y="132"/><ellipse cx="145.5" cy="148" fill="#ADD1B2" rx="11" ry="11" style="stroke:#181818;stroke-width:1.0;"/><path d="M140.5,149.1563 C140.5,151.6563 142.6406,153.4688 145.5625,153.4688 C146.7969,153.4688 147.9688,153.1719 148.7188,152.6563 C149.3281,152.2344 149.6563,151.8125 149.6563,151.4063 C149.6563,150.9375 149.2344,150.5313 148.7344,150.5313 C148.5,150.5313 148.2813,150.6094 148.0781,150.8125 C147.6406,151.25 147.6406,151.25 147.4688,151.3438 C147.0156,151.5781 146.375,151.7188 145.6094,151.7188 C143.6094,151.7188 142.3281,150.7031 142.3281,149.125 L142.3281,148.0781 C142.3281,146.375 143.5469,145.1719 145.25,145.1719 C145.8281,145.1719 146.4063,145.3125 146.875,145.5625 C147.3438,145.8281 147.5156,146.0156 147.5781,146.375 C147.7031,147.0469 147.9531,147.2969 148.4844,147.2969 C148.7656,147.2969 149.0469,147.1563 149.2344,146.9375 C149.3594,146.7656 149.4063,146.5938 149.4063,146.1563 L149.4063,144.7969 C149.4063,144.375 149.3906,144.2344 149.2656,144.0625 C149.0938,143.8125 148.8125,143.6563 148.4844,143.6563 C148.1719,143.6563 147.9688,143.7656 147.75,144.0313 C146.5781,143.5313 146.1406,143.4219 145.1875,143.4219 C142.5156,143.4219 140.5,145.4375 140.5,148.0625 L140.5,149.1563 Z " fill="#000000"/><text fill="#000000" font-family="sans-serif" font-size="14" lengthAdjust="spacing" textLength="41" x="159.5" y="152.606">Trailer</text><line style="stroke:#181818;stroke-width:0.5;" x1="131.5" x2="202.5" y1="164" y2="164"/><line style="stroke:#181818;stroke-width:0.5;" x1="131.5" x2="202.5" y1="172" y2="172"/></g><!--class Storyline--><g id="elem_Storyline"><rect fill="#F1F1F1" height="48" id="Storyline" rx="2.5" ry="2.5" style="stroke:#181818;stroke-width:0.5;" width="87" x="402.5" y="132"/><ellipse cx="417.5" cy="148" fill="#ADD1B2" rx="11" ry="11" style="stroke:#181818;stroke-width:1.0;"/><path d="M412.5,149.1563 C412.5,151.6563 414.6406,153.4688 417.5625,153.4688 C418.7969,153.4688 419.9688,153.1719 420.7188,152.6563 C421.3281,152.2344 421.6563,151.8125 421.6563,151.4063 C421.6563,150.9375 421.2344,150.5313 420.7344,150.5313 C420.5,150.5313 420.2813,150.6094 420.0781,150.8125 C419.6406,151.25 419.6406,151.25 419.4688,151.3438 C419.0156,151.5781 418.375,151.7188 417.6094,151.7188 C415.6094,151.7188 414.3281,150.7031 414.3281,149.125 L414.3281,148.0781 C414.3281,146.375 415.5469,145.1719 417.25,145.1719 C417.8281,145.1719 418.4063,145.3125 418.875,145.5625 C419.3438,145.8281 419.5156,146.0156 419.5781,146.375 C419.7031,147.0469 419.9531,147.2969 420.4844,147.2969 C420.7656,147.2969 421.0469,147.1563 421.2344,146.9375 C421.3594,146.7656 421.4063,146.5938 421.4063,146.1563 L421.4063,144.7969 C421.4063,144.375 421.3906,144.2344 421.2656,144.0625 C421.0938,143.8125 420.8125,143.6563 420.4844,143.6563 C420.1719,143.6563 419.9688,143.7656 419.75,144.0313 C418.5781,143.5313 418.1406,143.4219 417.1875,143.4219 C414.5156,143.4219 412.5,145.4375 412.5,148.0625 L412.5,149.1563 Z " fill="#000000"/><text fill="#000000" font-family="sans-serif" font-size="14" lengthAdjust="spacing" textLength="55" x="431.5" y="152.606">Storyline</text><line style="stroke:#181818;stroke-width:0.5;" x1="403.5" x2="488.5" y1="164" y2="164"/><line style="stroke:#181818;stroke-width:0.5;" x1="403.5" x2="488.5" y1="172" y2="172"/></g><!--class Genre--><g id="elem_Genre"><rect fill="#F1F1F1" height="48" id="Genre" rx="2.5" ry="2.5" style="stroke:#181818;stroke-width:0.5;" width="72" x="267" y="7"/><ellipse cx="282" cy="23" fill="#ADD1B2" rx="11" ry="11" style="stroke:#181818;stroke-width:1.0;"/><path d="M277,24.1563 C277,26.6563 279.1406,28.4688 282.0625,28.4688 C283.2969,28.4688 284.4688,28.1719 285.2188,27.6563 C285.8281,27.2344 286.1563,26.8125 286.1563,26.4063 C286.1563,25.9375 285.7344,25.5313 285.2344,25.5313 C285,25.5313 284.7813,25.6094 284.5781,25.8125 C284.1406,26.25 284.1406,26.25 283.9688,26.3438 C283.5156,26.5781 282.875,26.7188 282.1094,26.7188 C280.1094,26.7188 278.8281,25.7031 278.8281,24.125 L278.8281,23.0781 C278.8281,21.375 280.0469,20.1719 281.75,20.1719 C282.3281,20.1719 282.9063,20.3125 283.375,20.5625 C283.8438,20.8281 284.0156,21.0156 284.0781,21.375 C284.2031,22.0469 284.4531,22.2969 284.9844,22.2969 C285.2656,22.2969 285.5469,22.1563 285.7344,21.9375 C285.8594,21.7656 285.9063,21.5938 285.9063,21.1563 L285.9063,19.7969 C285.9063,19.375 285.8906,19.2344 285.7656,19.0625 C285.5938,18.8125 285.3125,18.6563 284.9844,18.6563 C284.6719,18.6563 284.4688,18.7656 284.25,19.0313 C283.0781,18.5313 282.6406,18.4219 281.6875,18.4219 C279.0156,18.4219 277,20.4375 277,23.0625 L277,24.1563 Z " fill="#000000"/><text fill="#000000" font-family="sans-serif" font-size="14" lengthAdjust="spacing" textLength="40" x="296" y="27.606">Genre</text><line style="stroke:#181818;stroke-width:0.5;" x1="268" x2="338" y1="39" y2="39"/><line style="stroke:#181818;stroke-width:0.5;" x1="268" x2="338" y1="47" y2="47"/></g><!--class Review--><g id="elem_Review"><rect fill="#F1F1F1" height="48" id="Review" rx="2.5" ry="2.5" style="stroke:#181818;stroke-width:0.5;" width="78" x="187" y="882"/><ellipse cx="202" cy="898" fill="#ADD1B2" rx="11" ry="11" style="stroke:#181818;stroke-width:1.0;"/><path d="M197,899.1563 C197,901.6563 199.1406,903.4688 202.0625,903.4688 C203.2969,903.4688 204.4688,903.1719 205.2188,902.6563 C205.8281,902.2344 206.1563,901.8125 206.1563,901.4063 C206.1563,900.9375 205.7344,900.5313 205.2344,900.5313 C205,900.5313 204.7813,900.6094 204.5781,900.8125 C204.1406,901.25 204.1406,901.25 203.9688,901.3438 C203.5156,901.5781 202.875,901.7188 202.1094,901.7188 C200.1094,901.7188 198.8281,900.7031 198.8281,899.125 L198.8281,898.0781 C198.8281,896.375 200.0469,895.1719 201.75,895.1719 C202.3281,895.1719 202.9063,895.3125 203.375,895.5625 C203.8438,895.8281 204.0156,896.0156 204.0781,896.375 C204.2031,897.0469 204.4531,897.2969 204.9844,897.2969 C205.2656,897.2969 205.5469,897.1563 205.7344,896.9375 C205.8594,896.7656 205.9063,896.5938 205.9063,896.1563 L205.9063,894.7969 C205.9063,894.375 205.8906,894.2344 205.7656,894.0625 C205.5938,893.8125 205.3125,893.6563 204.9844,893.6563 C204.6719,893.6563 204.4688,893.7656 204.25,894.0313 C203.0781,893.5313 202.6406,893.4219 201.6875,893.4219 C199.0156,893.4219 197,895.4375 197,898.0625 L197,899.1563 Z " fill="#000000"/><text fill="#000000" font-family="sans-serif" font-size="14" lengthAdjust="spacing" textLength="46" x="216" y="902.606">Review</text><line style="stroke:#181818;stroke-width:0.5;" x1="188" x2="264" y1="914" y2="914"/><line style="stroke:#181818;stroke-width:0.5;" x1="188" x2="264" y1="922" y2="922"/></g><!--class Actor--><g id="elem_Actor"><rect fill="#F1F1F1" height="48" id="Actor" rx="2.5" ry="2.5" style="stroke:#181818;stroke-width:0.5;" width="65" x="183.5" y="382"/><ellipse cx="198.5" cy="398" fill="#ADD1B2" rx="11" ry="11" style="stroke:#181818;stroke-width:1.0;"/><path d="M193.5,399.1563 C193.5,401.6563 195.6406,403.4688 198.5625,403.4688 C199.7969,403.4688 200.9688,403.1719 201.7188,402.6563 C202.3281,402.2344 202.6563,401.8125 202.6563,401.4063 C202.6563,400.9375 202.2344,400.5313 201.7344,400.5313 C201.5,400.5313 201.2813,400.6094 201.0781,400.8125 C200.6406,401.25 200.6406,401.25 200.4688,401.3438 C200.0156,401.5781 199.375,401.7188 198.6094,401.7188 C196.6094,401.7188 195.3281,400.7031 195.3281,399.125 L195.3281,398.0781 C195.3281,396.375 196.5469,395.1719 198.25,395.1719 C198.8281,395.1719 199.4063,395.3125 199.875,395.5625 C200.3438,395.8281 200.5156,396.0156 200.5781,396.375 C200.7031,397.0469 200.9531,397.2969 201.4844,397.2969 C201.7656,397.2969 202.0469,397.1563 202.2344,396.9375 C202.3594,396.7656 202.4063,396.5938 202.4063,396.1563 L202.4063,394.7969 C202.4063,394.375 202.3906,394.2344 202.2656,394.0625 C202.0938,393.8125 201.8125,393.6563 201.4844,393.6563 C201.1719,393.6563 200.9688,393.7656 200.75,394.0313 C199.5781,393.5313 199.1406,393.4219 198.1875,393.4219 C195.5156,393.4219 193.5,395.4375 193.5,398.0625 L193.5,399.1563 Z " fill="#000000"/><text fill="#000000" font-family="sans-serif" font-size="14" lengthAdjust="spacing" textLength="33" x="212.5" y="402.606">Actor</text><line style="stroke:#181818;stroke-width:0.5;" x1="184.5" x2="247.5" y1="414" y2="414"/><line style="stroke:#181818;stroke-width:0.5;" x1="184.5" x2="247.5" y1="422" y2="422"/></g><!--class Season--><g id="elem_Season"><rect fill="#F1F1F1" height="48" id="Season" rx="2.5" ry="2.5" style="stroke:#181818;stroke-width:0.5;" width="80" x="183" y="632"/><ellipse cx="198" cy="648" fill="#ADD1B2" rx="11" ry="11" style="stroke:#181818;stroke-width:1.0;"/><path d="M193,649.1563 C193,651.6563 195.1406,653.4688 198.0625,653.4688 C199.2969,653.4688 200.4688,653.1719 201.2188,652.6563 C201.8281,652.2344 202.1563,651.8125 202.1563,651.4063 C202.1563,650.9375 201.7344,650.5313 201.2344,650.5313 C201,650.5313 200.7813,650.6094 200.5781,650.8125 C200.1406,651.25 200.1406,651.25 199.9688,651.3438 C199.5156,651.5781 198.875,651.7188 198.1094,651.7188 C196.1094,651.7188 194.8281,650.7031 194.8281,649.125 L194.8281,648.0781 C194.8281,646.375 196.0469,645.1719 197.75,645.1719 C198.3281,645.1719 198.9063,645.3125 199.375,645.5625 C199.8438,645.8281 200.0156,646.0156 200.0781,646.375 C200.2031,647.0469 200.4531,647.2969 200.9844,647.2969 C201.2656,647.2969 201.5469,647.1563 201.7344,646.9375 C201.8594,646.7656 201.9063,646.5938 201.9063,646.1563 L201.9063,644.7969 C201.9063,644.375 201.8906,644.2344 201.7656,644.0625 C201.5938,643.8125 201.3125,643.6563 200.9844,643.6563 C200.6719,643.6563 200.4688,643.7656 200.25,644.0313 C199.0781,643.5313 198.6406,643.4219 197.6875,643.4219 C195.0156,643.4219 193,645.4375 193,648.0625 L193,649.1563 Z " fill="#000000"/><text fill="#000000" font-family="sans-serif" font-size="14" lengthAdjust="spacing" textLength="48" x="212" y="652.606">Season</text><line style="stroke:#181818;stroke-width:0.5;" x1="184" x2="262" y1="664" y2="664"/><line style="stroke:#181818;stroke-width:0.5;" x1="184" x2="262" y1="672" y2="672"/></g><!--class Episode--><g id="elem_Episode"><rect fill="#F1F1F1" height="48" id="Episode" rx="2.5" ry="2.5" style="stroke:#181818;stroke-width:0.5;" width="83" x="126.5" y="757"/><ellipse cx="141.5" cy="773" fill="#ADD1B2" rx="11" ry="11" style="stroke:#181818;stroke-width:1.0;"/><path d="M136.5,774.1563 C136.5,776.6563 138.6406,778.4688 141.5625,778.4688 C142.7969,778.4688 143.9688,778.1719 144.7188,777.6563 C145.3281,777.2344 145.6563,776.8125 145.6563,776.4063 C145.6563,775.9375 145.2344,775.5313 144.7344,775.5313 C144.5,775.5313 144.2813,775.6094 144.0781,775.8125 C143.6406,776.25 143.6406,776.25 143.4688,776.3438 C143.0156,776.5781 142.375,776.7188 141.6094,776.7188 C139.6094,776.7188 138.3281,775.7031 138.3281,774.125 L138.3281,773.0781 C138.3281,771.375 139.5469,770.1719 141.25,770.1719 C141.8281,770.1719 142.4063,770.3125 142.875,770.5625 C143.3438,770.8281 143.5156,771.0156 143.5781,771.375 C143.7031,772.0469 143.9531,772.2969 144.4844,772.2969 C144.7656,772.2969 145.0469,772.1563 145.2344,771.9375 C145.3594,771.7656 145.4063,771.5938 145.4063,771.1563 L145.4063,769.7969 C145.4063,769.375 145.3906,769.2344 145.2656,769.0625 C145.0938,768.8125 144.8125,768.6563 144.4844,768.6563 C144.1719,768.6563 143.9688,768.7656 143.75,769.0313 C142.5781,768.5313 142.1406,768.4219 141.1875,768.4219 C138.5156,768.4219 136.5,770.4375 136.5,773.0625 L136.5,774.1563 Z " fill="#000000"/><text fill="#000000" font-family="sans-serif" font-size="14" lengthAdjust="spacing" textLength="51" x="155.5" y="777.606">Episode</text><line style="stroke:#181818;stroke-width:0.5;" x1="127.5" x2="208.5" y1="789" y2="789"/><line style="stroke:#181818;stroke-width:0.5;" x1="127.5" x2="208.5" y1="797" y2="797"/></g><!--class Reply--><g id="elem_Reply"><rect fill="#F1F1F1" height="48" id="Reply" rx="2.5" ry="2.5" style="stroke:#181818;stroke-width:0.5;" width="68" x="7" y="1007"/><ellipse cx="22" cy="1023" fill="#ADD1B2" rx="11" ry="11" style="stroke:#181818;stroke-width:1.0;"/><path d="M17,1024.1563 C17,1026.6563 19.1406,1028.4688 22.0625,1028.4688 C23.2969,1028.4688 24.4688,1028.1719 25.2188,1027.6563 C25.8281,1027.2344 26.1563,1026.8125 26.1563,1026.4063 C26.1563,1025.9375 25.7344,1025.5313 25.2344,1025.5313 C25,1025.5313 24.7813,1025.6094 24.5781,1025.8125 C24.1406,1026.25 24.1406,1026.25 23.9688,1026.3438 C23.5156,1026.5781 22.875,1026.7188 22.1094,1026.7188 C20.1094,1026.7188 18.8281,1025.7031 18.8281,1024.125 L18.8281,1023.0781 C18.8281,1021.375 20.0469,1020.1719 21.75,1020.1719 C22.3281,1020.1719 22.9063,1020.3125 23.375,1020.5625 C23.8438,1020.8281 24.0156,1021.0156 24.0781,1021.375 C24.2031,1022.0469 24.4531,1022.2969 24.9844,1022.2969 C25.2656,1022.2969 25.5469,1022.1563 25.7344,1021.9375 C25.8594,1021.7656 25.9063,1021.5938 25.9063,1021.1563 L25.9063,1019.7969 C25.9063,1019.375 25.8906,1019.2344 25.7656,1019.0625 C25.5938,1018.8125 25.3125,1018.6563 24.9844,1018.6563 C24.6719,1018.6563 24.4688,1018.7656 24.25,1019.0313 C23.0781,1018.5313 22.6406,1018.4219 21.6875,1018.4219 C19.0156,1018.4219 17,1020.4375 17,1023.0625 L17,1024.1563 Z " fill="#000000"/><text fill="#000000" font-family="sans-serif" font-size="14" lengthAdjust="spacing" textLength="36" x="36" y="1027.606">Reply</text><line style="stroke:#181818;stroke-width:0.5;" x1="8" x2="74" y1="1039" y2="1039"/><line style="stroke:#181818;stroke-width:0.5;" x1="8" x2="74" y1="1047" y2="1047"/></g><!--class LikeOrDislike--><g id="elem_LikeOrDislike"><rect fill="#F1F1F1" height="48" id="LikeOrDislike" rx="2.5" ry="2.5" style="stroke:#181818;stroke-width:0.5;" width="115" x="109.5" y="1007"/><ellipse cx="124.5" cy="1023" fill="#ADD1B2" rx="11" ry="11" style="stroke:#181818;stroke-width:1.0;"/><path d="M119.5,1024.1563 C119.5,1026.6563 121.6406,1028.4688 124.5625,1028.4688 C125.7969,1028.4688 126.9688,1028.1719 127.7188,1027.6563 C128.3281,1027.2344 128.6563,1026.8125 128.6563,1026.4063 C128.6563,1025.9375 128.2344,1025.5313 127.7344,1025.5313 C127.5,1025.5313 127.2813,1025.6094 127.0781,1025.8125 C126.6406,1026.25 126.6406,1026.25 126.4688,1026.3438 C126.0156,1026.5781 125.375,1026.7188 124.6094,1026.7188 C122.6094,1026.7188 121.3281,1025.7031 121.3281,1024.125 L121.3281,1023.0781 C121.3281,1021.375 122.5469,1020.1719 124.25,1020.1719 C124.8281,1020.1719 125.4063,1020.3125 125.875,1020.5625 C126.3438,1020.8281 126.5156,1021.0156 126.5781,1021.375 C126.7031,1022.0469 126.9531,1022.2969 127.4844,1022.2969 C127.7656,1022.2969 128.0469,1022.1563 128.2344,1021.9375 C128.3594,1021.7656 128.4063,1021.5938 128.4063,1021.1563 L128.4063,1019.7969 C128.4063,1019.375 128.3906,1019.2344 128.2656,1019.0625 C128.0938,1018.8125 127.8125,1018.6563 127.4844,1018.6563 C127.1719,1018.6563 126.9688,1018.7656 126.75,1019.0313 C125.5781,1018.5313 125.1406,1018.4219 124.1875,1018.4219 C121.5156,1018.4219 119.5,1020.4375 119.5,1023.0625 L119.5,1024.1563 Z " fill="#000000"/><text fill="#000000" font-family="sans-serif" font-size="14" lengthAdjust="spacing" textLength="83" x="138.5" y="1027.606">LikeOrDislike</text><line style="stroke:#181818;stroke-width:0.5;" x1="110.5" x2="223.5" y1="1039" y2="1039"/><line style="stroke:#181818;stroke-width:0.5;" x1="110.5" x2="223.5" y1="1047" y2="1047"/></g><!--link Flixxic to User--><g id="link_Flixxic_User"><path codeLine="10" d="M475.96,65.8 C491.31,83.13 509.95,104.16 525.27,121.45 " fill="none" id="Flixxic-User" style="stroke:#181818;stroke-width:1.0;"/><polygon fill="#181818" points="467.76,56.42,468.7429,63.5638,475.7152,65.4042,474.7323,58.2604,467.76,56.42" style="stroke:#181818;stroke-width:1.0;"/><polygon fill="#181818" points="533.32,130.66,530.3484,121.2701,530.0054,126.9166,524.3589,126.5736,533.32,130.66" style="stroke:#181818;stroke-width:1.0;"/><line style="stroke:#181818;stroke-width:1.0;" x1="530.0054" x2="524.695" y1="126.9166" y2="120.935"/><text fill="#000000" font-family="sans-serif" font-size="13" lengthAdjust="spacing" textLength="24" x="509" y="98.077">1..N</text></g><!--link Flixxic to Content--><g id="link_Flixxic_Content"><path codeLine="11" d="M408.36,64.37 C387.44,82.37 361.47,104.7 340.56,122.7 " fill="none" id="Flixxic-Content" style="stroke:#181818;stroke-width:1.0;"/><polygon fill="#181818" points="417.77,55.42,410.6132,56.3031,408.6757,63.249,415.8325,62.3659,417.77,55.42" style="stroke:#181818;stroke-width:1.0;"/><polygon fill="#181818" points="331.13,131.66,340.5584,128.8129,334.917,128.3952,335.3347,122.7538,331.13,131.66" style="stroke:#181818;stroke-width:1.0;"/><line style="stroke:#181818;stroke-width:1.0;" x1="334.917" x2="340.99" y1="128.3952" y2="123.185"/><text fill="#000000" font-family="sans-serif" font-size="13" lengthAdjust="spacing" textLength="24" x="385" y="98.077">1..N</text></g><!--reverse link User to NormalUser--><g id="link_User_NormalUser"><path codeLine="13" d="M555,201.24 C555,219.98 555,241.04 555,256.66 " fill="none" id="User-backto-NormalUser" style="stroke:#181818;stroke-width:1.0;"/><polygon fill="none" points="548,201.42,555,181.42,562,201.42,548,201.42" style="stroke:#181818;stroke-width:1.0;"/><text fill="#000000" font-family="sans-serif" font-size="13" lengthAdjust="spacing" textLength="24" x="556" y="223.077">1..N</text></g><!--reverse link User to AdminUser--><g id="link_User_AdminUser"><path codeLine="14" d="M606.98,156 C619.94,156 633.82,156 646.74,156 " fill="none" id="User-backto-AdminUser" style="stroke:#181818;stroke-width:1.0;"/><polygon fill="none" points="607.38,163,587.38,156,607.38,149,607.38,163" style="stroke:#181818;stroke-width:1.0;"/><text fill="#000000" font-family="sans-serif" font-size="13" lengthAdjust="spacing" textLength="24" x="604.5" y="149.077">1..N</text></g><!--link NormalUser to ManagementProfile--><g id="link_NormalUser_ManagementProfile"><path codeLine="16" d="M609.47,281 C618.94,281 628.4,281 637.86,281 " fill="none" id="NormalUser-to-ManagementProfile" style="stroke:#181818;stroke-width:1.0;"/><polygon fill="#181818" points="642.76,281,633.76,277,637.76,281,633.76,285,642.76,281" style="stroke:#181818;stroke-width:1.0;"/></g><!--reverse link ManagementContent to AdminUser--><g id="link_ManagementContent_AdminUser"><path codeLine="17" d="M698,61.29 C698,82.82 698,111.68 698,131.66 " fill="none" id="ManagementContent-backto-AdminUser" style="stroke:#181818;stroke-width:1.0;"/><polygon fill="#181818" points="698,56.42,694,65.42,698,61.42,702,65.42,698,56.42" style="stroke:#181818;stroke-width:1.0;"/></g><!--reverse link Content to Movie--><g id="link_Content_Movie"><path codeLine="19" d="M325.67,199.51 C326.97,203 328.1,206.52 329,210 C356.78,317.88 343.5,453.07 336.43,506.61 " fill="none" id="Content-backto-Movie" style="stroke:#181818;stroke-width:1.0;"/><polygon fill="none" points="318.92,202.58,317.08,181.47,331.68,196.82,318.92,202.58" style="stroke:#181818;stroke-width:1.0;"/><text fill="#000000" font-family="sans-serif" font-size="13" lengthAdjust="spacing" textLength="24" x="347" y="348.077">1..N</text></g><!--link Serie to Content--><g id="link_Serie_Content"><path codeLine="20" d="M255.98,507.59 C265.73,499.2 275.31,488.79 281,477 C303.92,429.5 304.97,277.12 303.96,201.05 " fill="none" id="Serie-to-Content" style="stroke:#181818;stroke-width:1.0;"/><polygon fill="none" points="296.95,201.21,303.6,181.1,310.94,200.98,296.95,201.21" style="stroke:#181818;stroke-width:1.0;"/><text fill="#000000" font-family="sans-serif" font-size="13" lengthAdjust="spacing" textLength="24" x="304" y="348.077">1..N</text></g><!--link Content to Cast--><g id="link_Content_Cast"><path codeLine="21" d="M268.95,190.41 C263.31,196.67 257.76,203.34 253,210 C245.38,220.64 238.32,233.04 232.44,244.43 " fill="none" id="Content-Cast" style="stroke:#181818;stroke-width:1.0;"/><polygon fill="#181818" points="277.39,181.33,270.3689,182.9743,269.1862,190.0877,276.2074,188.4435,277.39,181.33" style="stroke:#181818;stroke-width:1.0;"/><polygon fill="#181818" points="226.35,255.7,233.931,249.4129,228.5707,251.2202,226.7634,245.8598,226.35,255.7" style="stroke:#181818;stroke-width:1.0;"/><line style="stroke:#181818;stroke-width:1.0;" x1="228.5707" x2="232.135" y1="251.2202" y2="244.06"/><text fill="#000000" font-family="sans-serif" font-size="13" lengthAdjust="spacing" textLength="22" x="254" y="223.077">1..1</text></g><!--link Content to Comment--><g id="link_Content_Comment"><path codeLine="22" d="M248.53,176.05 C169.92,204.34 34,256.64 34,280 C34,280 34,280 34,782 C34,815.36 53.69,847.94 72.19,871.17 " fill="none" id="Content-Comment" style="stroke:#181818;stroke-width:1.0;"/><polygon fill="none" points="260.56,171.39,253.5643,169.6405,249.2588,175.4252,256.2545,177.1747,260.56,171.39" style="stroke:#181818;stroke-width:1.0;"/><polygon fill="#181818" points="81.08,880.79,78.3579,871.3248,77.8656,876.9602,72.2302,876.4678,81.08,880.79" style="stroke:#181818;stroke-width:1.0;"/><line style="stroke:#181818;stroke-width:1.0;" x1="77.8656" x2="72.735" y1="876.9602" y2="870.825"/><text fill="#000000" font-family="sans-serif" font-size="13" lengthAdjust="spacing" textLength="24" x="35" y="535.577">0..N</text></g><!--link Trailer to Content--><g id="link_Trailer_Content"><path codeLine="23" d="M217.39,156 C227.34,156 237.84,156 247.94,156 " fill="none" id="Trailer-Content" style="stroke:#181818;stroke-width:1.0;"/><polygon fill="#181818" points="204.8,156,213.8,160,209.8,156,213.8,152,204.8,156" style="stroke:#181818;stroke-width:1.0;"/><line style="stroke:#181818;stroke-width:1.0;" x1="209.8" x2="217.8" y1="156" y2="156"/><polygon fill="#181818" points="260.85,156,254.85,152,248.85,156,254.85,160,260.85,156" style="stroke:#181818;stroke-width:1.0;"/><text fill="#000000" font-family="sans-serif" font-size="13" lengthAdjust="spacing" textLength="22" x="221.75" y="149.077">1..1</text></g><!--link Content to Storyline--><g id="link_Content_Storyline"><path codeLine="24" d="M358.02,156 C367.97,156 378.38,156 388.4,156 " fill="none" id="Content-Storyline" style="stroke:#181818;stroke-width:1.0;"/><polygon fill="#181818" points="345.36,156,351.36,160,357.36,156,351.36,152,345.36,156" style="stroke:#181818;stroke-width:1.0;"/><polygon fill="#181818" points="401.24,156,392.24,152,396.24,156,392.24,160,401.24,156" style="stroke:#181818;stroke-width:1.0;"/><line style="stroke:#181818;stroke-width:1.0;" x1="396.24" x2="388.24" y1="156" y2="156"/><text fill="#000000" font-family="sans-serif" font-size="13" lengthAdjust="spacing" textLength="22" x="362.25" y="149.077">1..1</text></g><!--link Genre to Content--><g id="link_Genre_Content"><path codeLine="25" d="M303,69.3 C303,84.68 303,102.46 303,117.83 " fill="none" id="Genre-Content" style="stroke:#181818;stroke-width:1.0;"/><polygon fill="#181818" points="303,56.42,299,65.42,303,61.42,307,65.42,303,56.42" style="stroke:#181818;stroke-width:1.0;"/><line style="stroke:#181818;stroke-width:1.0;" x1="303" x2="303" y1="61.42" y2="69.42"/><polygon fill="#181818" points="303,130.66,307,124.66,303,118.66,299,124.66,303,130.66" style="stroke:#181818;stroke-width:1.0;"/><text fill="#000000" font-family="sans-serif" font-size="13" lengthAdjust="spacing" textLength="24" x="304" y="98.077">1..N</text></g><!--link Content to Review--><g id="link_Content_Review"><path codeLine="26" d="M357.14,178.26 C397.26,197.96 445,231.59 445,280 C445,280 445,280 445,782 C445,857.87 343.85,887.43 279.03,898.58 " fill="none" id="Content-Review" style="stroke:#181818;stroke-width:1.0;"/><polygon fill="none" points="345.45,172.34,349.2017,178.4983,356.3292,177.4038,352.5776,171.2455,345.45,172.34" style="stroke:#181818;stroke-width:1.0;"/><polygon fill="#181818" points="266.41,900.75,275.9266,903.2865,271.3479,899.9645,274.6699,895.3858,266.41,900.75" style="stroke:#181818;stroke-width:1.0;"/><line style="stroke:#181818;stroke-width:1.0;" x1="271.3479" x2="279.245" y1="899.9645" y2="898.705"/><text fill="#000000" font-family="sans-serif" font-size="13" lengthAdjust="spacing" textLength="24" x="446" y="535.577">0..N</text></g><!--link Cast to Actor--><g id="link_Cast_Actor"><path codeLine="28" d="M216,319.3 C216,334.68 216,352.46 216,367.83 " fill="none" id="Cast-Actor" style="stroke:#181818;stroke-width:1.0;"/><polygon fill="#181818" points="216,306.42,212,312.42,216,318.42,220,312.42,216,306.42" style="stroke:#181818;stroke-width:1.0;"/><polygon fill="#181818" points="216,380.66,220,371.66,216,375.66,212,371.66,216,380.66" style="stroke:#181818;stroke-width:1.0;"/><line style="stroke:#181818;stroke-width:1.0;" x1="216" x2="216" y1="375.66" y2="367.66"/><text fill="#000000" font-family="sans-serif" font-size="13" lengthAdjust="spacing" textLength="24" x="217" y="348.077">1..N</text></g><!--link Actor to Movie--><g id="link_Actor_Movie"><path codeLine="30" d="M247.88,440.52 C264.55,458.04 284.89,479.42 301.5,496.89 " fill="none" id="Actor-Movie" style="stroke:#181818;stroke-width:1.0;"/><polygon fill="none" points="239.28,431.42,240.5179,438.5241,247.5516,440.1137,246.3137,433.0097,239.28,431.42" style="stroke:#181818;stroke-width:1.0;"/><polygon fill="#181818" points="309.8,505.66,306.5013,496.38,306.3563,502.035,300.7013,501.89,309.8,505.66" style="stroke:#181818;stroke-width:1.0;"/><line style="stroke:#181818;stroke-width:1.0;" x1="306.3563" x2="300.84" y1="502.035" y2="496.245"/><text fill="#000000" font-family="sans-serif" font-size="13" lengthAdjust="spacing" textLength="24" x="283" y="473.077">1..N</text></g><!--link Actor to Serie--><g id="link_Actor_Serie"><path codeLine="31" d="M189.28,442.56 C184.12,453.43 181.32,465.54 185,477 C187.04,483.34 190.14,489.56 193.72,495.38 " fill="none" id="Actor-Serie" style="stroke:#181818;stroke-width:1.0;"/><polygon fill="none" points="196.17,431.49,189.7215,434.7175,190.2206,441.9114,196.6691,438.6838,196.17,431.49" style="stroke:#181818;stroke-width:1.0;"/><polygon fill="#181818" points="201.52,505.69,199.6993,496.0109,198.6797,501.5751,193.1155,500.5554,201.52,505.69" style="stroke:#181818;stroke-width:1.0;"/><line style="stroke:#181818;stroke-width:1.0;" x1="198.6797" x2="194.135" y1="501.5751" y2="494.995"/><text fill="#000000" font-family="sans-serif" font-size="13" lengthAdjust="spacing" textLength="24" x="186" y="473.077">1..N</text></g><!--link Serie to Season--><g id="link_Serie_Season"><path codeLine="33" d="M223,569.3 C223,584.68 223,602.46 223,617.83 " fill="none" id="Serie-Season" style="stroke:#181818;stroke-width:1.0;"/><polygon fill="#181818" points="223,556.42,219,562.42,223,568.42,227,562.42,223,556.42" style="stroke:#181818;stroke-width:1.0;"/><polygon fill="#181818" points="223,630.66,227,621.66,223,625.66,219,621.66,223,630.66" style="stroke:#181818;stroke-width:1.0;"/><line style="stroke:#181818;stroke-width:1.0;" x1="223" x2="223" y1="625.66" y2="617.66"/><text fill="#000000" font-family="sans-serif" font-size="13" lengthAdjust="spacing" textLength="24" x="224" y="598.077">1..N</text></g><!--link Season to Episode--><g id="link_Season_Episode"><path codeLine="35" d="M206.85,693.13 C199.68,709.16 191.26,727.97 184.1,743.99 " fill="none" id="Season-Episode" style="stroke:#181818;stroke-width:1.0;"/><polygon fill="#181818" points="212.53,681.42,206.4297,685.2654,207.6331,692.3754,213.7333,688.53,212.53,681.42" style="stroke:#181818;stroke-width:1.0;"/><polygon fill="#181818" points="178.44,755.66,185.7615,749.0725,180.4783,751.0943,178.4565,745.8112,178.44,755.66" style="stroke:#181818;stroke-width:1.0;"/><line style="stroke:#181818;stroke-width:1.0;" x1="180.4783" x2="183.745" y1="751.0943" y2="743.795"/><text fill="#000000" font-family="sans-serif" font-size="13" lengthAdjust="spacing" textLength="24" x="200" y="723.077">1..N</text></g><!--link Episode to Comment--><g id="link_Episode_Comment"><path codeLine="37" d="M149.35,817.83 C140.91,834.07 130.95,853.21 122.52,869.41 " fill="none" id="Episode-Comment" style="stroke:#181818;stroke-width:1.0;"/><polygon fill="none" points="155.81,806.42,149.4936,809.8989,150.2754,817.0675,156.5919,813.5886,155.81,806.42" style="stroke:#181818;stroke-width:1.0;"/><polygon fill="#181818" points="116.14,880.66,123.8432,874.5232,118.4483,876.2247,116.7468,870.8299,116.14,880.66" style="stroke:#181818;stroke-width:1.0;"/><line style="stroke:#181818;stroke-width:1.0;" x1="118.4483" x2="122.145" y1="876.2247" y2="869.13"/><text fill="#000000" font-family="sans-serif" font-size="13" lengthAdjust="spacing" textLength="24" x="141" y="848.077">0..N</text></g><!--link Episode to Review--><g id="link_Episode_Review"><path codeLine="38" d="M184.9,817.83 C192.55,834.07 201.58,853.21 209.22,869.41 " fill="none" id="Episode-Review" style="stroke:#181818;stroke-width:1.0;"/><polygon fill="none" points="179.05,806.42,177.9905,813.5528,184.1672,817.2742,185.2267,810.1414,179.05,806.42" style="stroke:#181818;stroke-width:1.0;"/><polygon fill="#181818" points="215,880.66,214.7802,870.8136,212.8678,876.1374,207.544,874.2251,215,880.66" style="stroke:#181818;stroke-width:1.0;"/><line style="stroke:#181818;stroke-width:1.0;" x1="212.8678" x2="209.455" y1="876.1374" y2="868.9"/><text fill="#000000" font-family="sans-serif" font-size="13" lengthAdjust="spacing" textLength="24" x="202" y="848.077">0..N</text></g><!--link Episode to Cast--><g id="link_Episode_Cast"><path codeLine="39" d="M150.6,743.88 C140.6,719.83 130,687.22 130,657 C130,405 130,405 130,405 C130,369.82 153.92,337.53 176.53,314.87 " fill="none" id="Episode-Cast" style="stroke:#181818;stroke-width:1.0;"/><polygon fill="none" points="156.18,755.62,157.4388,748.5196,151.3688,744.6267,150.11,751.7271,156.18,755.62" style="stroke:#181818;stroke-width:1.0;"/><polygon fill="#181818" points="185.4,306.47,176.1251,309.7832,181.7804,309.9194,181.6441,315.5746,185.4,306.47" style="stroke:#181818;stroke-width:1.0;"/><line style="stroke:#181818;stroke-width:1.0;" x1="181.7804" x2="175.99" y1="309.9194" y2="315.435"/><text fill="#000000" font-family="sans-serif" font-size="13" lengthAdjust="spacing" textLength="22" x="131" y="535.577">1..1</text></g><!--link Comment to Reply--><g id="link_Comment_Reply"><path codeLine="41" d="M85.65,942.83 C77.33,959.07 67.53,978.21 59.23,994.41 " fill="none" id="Comment-Reply" style="stroke:#181818;stroke-width:1.0;"/><polygon fill="none" points="92,931.42,85.7042,934.936,86.5282,942.0999,92.8241,938.5839,92,931.42" style="stroke:#181818;stroke-width:1.0;"/><polygon fill="#181818" points="52.95,1005.66,60.6138,999.474,55.2299,1001.2101,53.4939,995.8262,52.95,1005.66" style="stroke:#181818;stroke-width:1.0;"/><line style="stroke:#181818;stroke-width:1.0;" x1="55.2299" x2="58.88" y1="1001.2101" y2="994.095"/><text fill="#000000" font-family="sans-serif" font-size="13" lengthAdjust="spacing" textLength="24" x="78" y="973.077">0..N</text></g><!--link Comment to LikeOrDislike--><g id="link_Comment_LikeOrDislike"><path codeLine="42" d="M122.35,942.83 C130.67,959.07 140.47,978.21 148.77,994.41 " fill="none" id="Comment-LikeOrDislike" style="stroke:#181818;stroke-width:1.0;"/><polygon fill="none" points="116,931.42,115.1759,938.5839,121.4718,942.0999,122.2958,934.936,116,931.42" style="stroke:#181818;stroke-width:1.0;"/><polygon fill="#181818" points="155.05,1005.66,154.5061,995.8262,152.7701,1001.2101,147.3862,999.474,155.05,1005.66" style="stroke:#181818;stroke-width:1.0;"/><line style="stroke:#181818;stroke-width:1.0;" x1="152.7701" x2="149.12" y1="1001.2101" y2="994.095"/><text fill="#000000" font-family="sans-serif" font-size="13" lengthAdjust="spacing" textLength="24" x="141" y="973.077">0..N</text></g><!--SRC=[VL9DJy8m6BxtLvIJGZOYLs982A8NsGpWGI-asLwmiMkNhYea_dYxTXljFZojUP-FFi_RZL8uKWxuVRsD3_lu44ThV3UTpj2e1MoMqLk9H0sYgRLYvYggkH7CIW6wmJMMI20ALYBBHK4L5VoMC1RWd4WLu8J8b7B2gBgCiPxZIHWk33PtCMtNjNajG0PuGpWvGGPSlKXnf0m2DyqOeKT6psUQMETICtS9FhmIN6addu5A4Rx_3KCS2PaHrZMf6PAUFbI8bsb6UPU5hd9SKHVT_AXHu_0hznXLF8IgWmsr4TyK_9iSN5lW7SWXXgrDYcjd_MbGOPUIPMOfxd_X630ubaNsakZqijTdqjJTAI4lJFyN0ppJ-0cu7CXh4cr1D_vf1K9b2zjdcUXRMhitCollMPY3zYmBcPdrtW4f1E_WvT0IrZajHDfsgAR_RTIZz5RqJTgFXYhRsY1dbywREOHd-WcnVA05qmUV-0S0]--></g></svg>