<?xml version="1.0" encoding="UTF-8" standalone="no"?><svg xmlns="http://www.w3.org/2000/svg" xmlns:xlink="http://www.w3.org/1999/xlink" contentStyleType="text/css" height="937px" preserveAspectRatio="none" style="width:1592px;height:937px;background:#FFFFFF;" version="1.1" viewBox="0 0 1592 937" width="1592px" zoomAndPan="magnify"><defs/><g><!--MD5=[a55cc72cea049776bdaa0e97a32af70e]
class Flixxic--><g id="elem_Flixxic"><rect fill="#F1F1F1" height="48" id="Flixxic" rx="2.5" ry="2.5" style="stroke:#181818;stroke-width:0.5;" width="71" x="677.5" y="7"/><ellipse cx="692.5" cy="23" fill="#ADD1B2" rx="11" ry="11" style="stroke:#181818;stroke-width:1.0;"/><path d="M687.5,24.1563 C687.5,26.6563 689.6406,28.4688 692.5625,28.4688 C693.7969,28.4688 694.9688,28.1719 695.7188,27.6563 C696.3281,27.2344 696.6563,26.8125 696.6563,26.4063 C696.6563,25.9375 696.2344,25.5313 695.7344,25.5313 C695.5,25.5313 695.2813,25.6094 695.0781,25.8125 C694.6406,26.25 694.6406,26.25 694.4688,26.3438 C694.0156,26.5781 693.375,26.7188 692.6094,26.7188 C690.6094,26.7188 689.3281,25.7031 689.3281,24.125 L689.3281,23.0781 C689.3281,21.375 690.5469,20.1719 692.25,20.1719 C692.8281,20.1719 693.4063,20.3125 693.875,20.5625 C694.3438,20.8281 694.5156,21.0156 694.5781,21.375 C694.7031,22.0469 694.9531,22.2969 695.4844,22.2969 C695.7656,22.2969 696.0469,22.1563 696.2344,21.9375 C696.3594,21.7656 696.4063,21.5938 696.4063,21.1563 L696.4063,19.7969 C696.4063,19.375 696.3906,19.2344 696.2656,19.0625 C696.0938,18.8125 695.8125,18.6563 695.4844,18.6563 C695.1719,18.6563 694.9688,18.7656 694.75,19.0313 C693.5781,18.5313 693.1406,18.4219 692.1875,18.4219 C689.5156,18.4219 687.5,20.4375 687.5,23.0625 L687.5,24.1563 Z " fill="#000000"/><text fill="#000000" font-family="sans-serif" font-size="14" lengthAdjust="spacing" textLength="39" x="706.5" y="27.606">Flixxic</text><line style="stroke:#181818;stroke-width:0.5;" x1="678.5" x2="747.5" y1="39" y2="39"/><line style="stroke:#181818;stroke-width:0.5;" x1="678.5" x2="747.5" y1="47" y2="47"/></g><!--MD5=[3fd616f346a44cd59a91eb10b19e157c]
class User--><g id="elem_User"><rect fill="#F1F1F1" height="48" id="User" rx="2.5" ry="2.5" style="stroke:#181818;stroke-width:0.5;" width="62" x="448" y="132"/><ellipse cx="463" cy="148" fill="#ADD1B2" rx="11" ry="11" style="stroke:#181818;stroke-width:1.0;"/><path d="M458,149.1563 C458,151.6563 460.1406,153.4688 463.0625,153.4688 C464.2969,153.4688 465.4688,153.1719 466.2188,152.6563 C466.8281,152.2344 467.1563,151.8125 467.1563,151.4063 C467.1563,150.9375 466.7344,150.5313 466.2344,150.5313 C466,150.5313 465.7813,150.6094 465.5781,150.8125 C465.1406,151.25 465.1406,151.25 464.9688,151.3438 C464.5156,151.5781 463.875,151.7188 463.1094,151.7188 C461.1094,151.7188 459.8281,150.7031 459.8281,149.125 L459.8281,148.0781 C459.8281,146.375 461.0469,145.1719 462.75,145.1719 C463.3281,145.1719 463.9063,145.3125 464.375,145.5625 C464.8438,145.8281 465.0156,146.0156 465.0781,146.375 C465.2031,147.0469 465.4531,147.2969 465.9844,147.2969 C466.2656,147.2969 466.5469,147.1563 466.7344,146.9375 C466.8594,146.7656 466.9063,146.5938 466.9063,146.1563 L466.9063,144.7969 C466.9063,144.375 466.8906,144.2344 466.7656,144.0625 C466.5938,143.8125 466.3125,143.6563 465.9844,143.6563 C465.6719,143.6563 465.4688,143.7656 465.25,144.0313 C464.0781,143.5313 463.6406,143.4219 462.6875,143.4219 C460.0156,143.4219 458,145.4375 458,148.0625 L458,149.1563 Z " fill="#000000"/><text fill="#000000" font-family="sans-serif" font-size="14" lengthAdjust="spacing" textLength="30" x="477" y="152.606">User</text><line style="stroke:#181818;stroke-width:0.5;" x1="449" x2="509" y1="164" y2="164"/><line style="stroke:#181818;stroke-width:0.5;" x1="449" x2="509" y1="172" y2="172"/></g><!--MD5=[fd7366e9f96236d9aa60dcc04f2b83e5]
class Content--><g id="elem_Content"><rect fill="#F1F1F1" height="48" id="Content" rx="2.5" ry="2.5" style="stroke:#181818;stroke-width:0.5;" width="82" x="964" y="132"/><ellipse cx="979" cy="148" fill="#ADD1B2" rx="11" ry="11" style="stroke:#181818;stroke-width:1.0;"/><path d="M974,149.1563 C974,151.6563 976.1406,153.4688 979.0625,153.4688 C980.2969,153.4688 981.4688,153.1719 982.2188,152.6563 C982.8281,152.2344 983.1563,151.8125 983.1563,151.4063 C983.1563,150.9375 982.7344,150.5313 982.2344,150.5313 C982,150.5313 981.7813,150.6094 981.5781,150.8125 C981.1406,151.25 981.1406,151.25 980.9688,151.3438 C980.5156,151.5781 979.875,151.7188 979.1094,151.7188 C977.1094,151.7188 975.8281,150.7031 975.8281,149.125 L975.8281,148.0781 C975.8281,146.375 977.0469,145.1719 978.75,145.1719 C979.3281,145.1719 979.9063,145.3125 980.375,145.5625 C980.8438,145.8281 981.0156,146.0156 981.0781,146.375 C981.2031,147.0469 981.4531,147.2969 981.9844,147.2969 C982.2656,147.2969 982.5469,147.1563 982.7344,146.9375 C982.8594,146.7656 982.9063,146.5938 982.9063,146.1563 L982.9063,144.7969 C982.9063,144.375 982.8906,144.2344 982.7656,144.0625 C982.5938,143.8125 982.3125,143.6563 981.9844,143.6563 C981.6719,143.6563 981.4688,143.7656 981.25,144.0313 C980.0781,143.5313 979.6406,143.4219 978.6875,143.4219 C976.0156,143.4219 974,145.4375 974,148.0625 L974,149.1563 Z " fill="#000000"/><text fill="#000000" font-family="sans-serif" font-size="14" lengthAdjust="spacing" textLength="50" x="993" y="152.606">Content</text><line style="stroke:#181818;stroke-width:0.5;" x1="965" x2="1045" y1="164" y2="164"/><line style="stroke:#181818;stroke-width:0.5;" x1="965" x2="1045" y1="172" y2="172"/></g><!--MD5=[121330b00a863f09dfc695730d4d9fa4]
class NormalUser--><g id="elem_NormalUser"><rect fill="#F1F1F1" height="48" id="NormalUser" rx="2.5" ry="2.5" style="stroke:#181818;stroke-width:0.5;" width="108" x="244" y="257"/><ellipse cx="259" cy="273" fill="#ADD1B2" rx="11" ry="11" style="stroke:#181818;stroke-width:1.0;"/><path d="M254,274.1563 C254,276.6563 256.1406,278.4688 259.0625,278.4688 C260.2969,278.4688 261.4688,278.1719 262.2188,277.6563 C262.8281,277.2344 263.1563,276.8125 263.1563,276.4063 C263.1563,275.9375 262.7344,275.5313 262.2344,275.5313 C262,275.5313 261.7813,275.6094 261.5781,275.8125 C261.1406,276.25 261.1406,276.25 260.9688,276.3438 C260.5156,276.5781 259.875,276.7188 259.1094,276.7188 C257.1094,276.7188 255.8281,275.7031 255.8281,274.125 L255.8281,273.0781 C255.8281,271.375 257.0469,270.1719 258.75,270.1719 C259.3281,270.1719 259.9063,270.3125 260.375,270.5625 C260.8438,270.8281 261.0156,271.0156 261.0781,271.375 C261.2031,272.0469 261.4531,272.2969 261.9844,272.2969 C262.2656,272.2969 262.5469,272.1563 262.7344,271.9375 C262.8594,271.7656 262.9063,271.5938 262.9063,271.1563 L262.9063,269.7969 C262.9063,269.375 262.8906,269.2344 262.7656,269.0625 C262.5938,268.8125 262.3125,268.6563 261.9844,268.6563 C261.6719,268.6563 261.4688,268.7656 261.25,269.0313 C260.0781,268.5313 259.6406,268.4219 258.6875,268.4219 C256.0156,268.4219 254,270.4375 254,273.0625 L254,274.1563 Z " fill="#000000"/><text fill="#000000" font-family="sans-serif" font-size="14" lengthAdjust="spacing" textLength="76" x="273" y="277.606">NormalUser</text><line style="stroke:#181818;stroke-width:0.5;" x1="245" x2="351" y1="289" y2="289"/><line style="stroke:#181818;stroke-width:0.5;" x1="245" x2="351" y1="297" y2="297"/></g><!--MD5=[b5b9fe6137fa780f712b03145b11f121]
class AdminUser--><g id="elem_AdminUser"><rect fill="#F1F1F1" height="48" id="AdminUser" rx="2.5" ry="2.5" style="stroke:#181818;stroke-width:0.5;" width="102" x="79" y="257"/><ellipse cx="94" cy="273" fill="#ADD1B2" rx="11" ry="11" style="stroke:#181818;stroke-width:1.0;"/><path d="M89,274.1563 C89,276.6563 91.1406,278.4688 94.0625,278.4688 C95.2969,278.4688 96.4688,278.1719 97.2188,277.6563 C97.8281,277.2344 98.1563,276.8125 98.1563,276.4063 C98.1563,275.9375 97.7344,275.5313 97.2344,275.5313 C97,275.5313 96.7813,275.6094 96.5781,275.8125 C96.1406,276.25 96.1406,276.25 95.9688,276.3438 C95.5156,276.5781 94.875,276.7188 94.1094,276.7188 C92.1094,276.7188 90.8281,275.7031 90.8281,274.125 L90.8281,273.0781 C90.8281,271.375 92.0469,270.1719 93.75,270.1719 C94.3281,270.1719 94.9063,270.3125 95.375,270.5625 C95.8438,270.8281 96.0156,271.0156 96.0781,271.375 C96.2031,272.0469 96.4531,272.2969 96.9844,272.2969 C97.2656,272.2969 97.5469,272.1563 97.7344,271.9375 C97.8594,271.7656 97.9063,271.5938 97.9063,271.1563 L97.9063,269.7969 C97.9063,269.375 97.8906,269.2344 97.7656,269.0625 C97.5938,268.8125 97.3125,268.6563 96.9844,268.6563 C96.6719,268.6563 96.4688,268.7656 96.25,269.0313 C95.0781,268.5313 94.6406,268.4219 93.6875,268.4219 C91.0156,268.4219 89,270.4375 89,273.0625 L89,274.1563 Z " fill="#000000"/><text fill="#000000" font-family="sans-serif" font-size="14" lengthAdjust="spacing" textLength="70" x="108" y="277.606">AdminUser</text><line style="stroke:#181818;stroke-width:0.5;" x1="80" x2="180" y1="289" y2="289"/><line style="stroke:#181818;stroke-width:0.5;" x1="80" x2="180" y1="297" y2="297"/></g><!--MD5=[7056ad14e84f1e7c54036b8712233158]
class ManagementProfile--><g id="elem_ManagementProfile"><rect fill="#F1F1F1" height="48" id="ManagementProfile" rx="2.5" ry="2.5" style="stroke:#181818;stroke-width:0.5;" width="156" x="208" y="382"/><ellipse cx="223" cy="398" fill="#ADD1B2" rx="11" ry="11" style="stroke:#181818;stroke-width:1.0;"/><path d="M218,399.1563 C218,401.6563 220.1406,403.4688 223.0625,403.4688 C224.2969,403.4688 225.4688,403.1719 226.2188,402.6563 C226.8281,402.2344 227.1563,401.8125 227.1563,401.4063 C227.1563,400.9375 226.7344,400.5313 226.2344,400.5313 C226,400.5313 225.7813,400.6094 225.5781,400.8125 C225.1406,401.25 225.1406,401.25 224.9688,401.3438 C224.5156,401.5781 223.875,401.7188 223.1094,401.7188 C221.1094,401.7188 219.8281,400.7031 219.8281,399.125 L219.8281,398.0781 C219.8281,396.375 221.0469,395.1719 222.75,395.1719 C223.3281,395.1719 223.9063,395.3125 224.375,395.5625 C224.8438,395.8281 225.0156,396.0156 225.0781,396.375 C225.2031,397.0469 225.4531,397.2969 225.9844,397.2969 C226.2656,397.2969 226.5469,397.1563 226.7344,396.9375 C226.8594,396.7656 226.9063,396.5938 226.9063,396.1563 L226.9063,394.7969 C226.9063,394.375 226.8906,394.2344 226.7656,394.0625 C226.5938,393.8125 226.3125,393.6563 225.9844,393.6563 C225.6719,393.6563 225.4688,393.7656 225.25,394.0313 C224.0781,393.5313 223.6406,393.4219 222.6875,393.4219 C220.0156,393.4219 218,395.4375 218,398.0625 L218,399.1563 Z " fill="#000000"/><text fill="#000000" font-family="sans-serif" font-size="14" lengthAdjust="spacing" textLength="124" x="237" y="402.606">ManagementProfile</text><line style="stroke:#181818;stroke-width:0.5;" x1="209" x2="363" y1="414" y2="414"/><line style="stroke:#181818;stroke-width:0.5;" x1="209" x2="363" y1="422" y2="422"/></g><!--MD5=[7e588230149e81322f0e14f952b60282]
class ManagementContent--><g id="elem_ManagementContent"><rect fill="#F1F1F1" height="48" id="ManagementContent" rx="2.5" ry="2.5" style="stroke:#181818;stroke-width:0.5;" width="166" x="7" y="382"/><ellipse cx="22" cy="398" fill="#ADD1B2" rx="11" ry="11" style="stroke:#181818;stroke-width:1.0;"/><path d="M17,399.1563 C17,401.6563 19.1406,403.4688 22.0625,403.4688 C23.2969,403.4688 24.4688,403.1719 25.2188,402.6563 C25.8281,402.2344 26.1563,401.8125 26.1563,401.4063 C26.1563,400.9375 25.7344,400.5313 25.2344,400.5313 C25,400.5313 24.7813,400.6094 24.5781,400.8125 C24.1406,401.25 24.1406,401.25 23.9688,401.3438 C23.5156,401.5781 22.875,401.7188 22.1094,401.7188 C20.1094,401.7188 18.8281,400.7031 18.8281,399.125 L18.8281,398.0781 C18.8281,396.375 20.0469,395.1719 21.75,395.1719 C22.3281,395.1719 22.9063,395.3125 23.375,395.5625 C23.8438,395.8281 24.0156,396.0156 24.0781,396.375 C24.2031,397.0469 24.4531,397.2969 24.9844,397.2969 C25.2656,397.2969 25.5469,397.1563 25.7344,396.9375 C25.8594,396.7656 25.9063,396.5938 25.9063,396.1563 L25.9063,394.7969 C25.9063,394.375 25.8906,394.2344 25.7656,394.0625 C25.5938,393.8125 25.3125,393.6563 24.9844,393.6563 C24.6719,393.6563 24.4688,393.7656 24.25,394.0313 C23.0781,393.5313 22.6406,393.4219 21.6875,393.4219 C19.0156,393.4219 17,395.4375 17,398.0625 L17,399.1563 Z " fill="#000000"/><text fill="#000000" font-family="sans-serif" font-size="14" lengthAdjust="spacing" textLength="134" x="36" y="402.606">ManagementContent</text><line style="stroke:#181818;stroke-width:0.5;" x1="8" x2="172" y1="414" y2="414"/><line style="stroke:#181818;stroke-width:0.5;" x1="8" x2="172" y1="422" y2="422"/></g><!--MD5=[e69084ab16b022bdbef99762ea85e9d6]
class Movie--><g id="elem_Movie"><rect fill="#F1F1F1" height="48" id="Movie" rx="2.5" ry="2.5" style="stroke:#181818;stroke-width:0.5;" width="70" x="852" y="882"/><ellipse cx="867" cy="898" fill="#ADD1B2" rx="11" ry="11" style="stroke:#181818;stroke-width:1.0;"/><path d="M862,899.1563 C862,901.6563 864.1406,903.4688 867.0625,903.4688 C868.2969,903.4688 869.4688,903.1719 870.2188,902.6563 C870.8281,902.2344 871.1563,901.8125 871.1563,901.4063 C871.1563,900.9375 870.7344,900.5313 870.2344,900.5313 C870,900.5313 869.7813,900.6094 869.5781,900.8125 C869.1406,901.25 869.1406,901.25 868.9688,901.3438 C868.5156,901.5781 867.875,901.7188 867.1094,901.7188 C865.1094,901.7188 863.8281,900.7031 863.8281,899.125 L863.8281,898.0781 C863.8281,896.375 865.0469,895.1719 866.75,895.1719 C867.3281,895.1719 867.9063,895.3125 868.375,895.5625 C868.8438,895.8281 869.0156,896.0156 869.0781,896.375 C869.2031,897.0469 869.4531,897.2969 869.9844,897.2969 C870.2656,897.2969 870.5469,897.1563 870.7344,896.9375 C870.8594,896.7656 870.9063,896.5938 870.9063,896.1563 L870.9063,894.7969 C870.9063,894.375 870.8906,894.2344 870.7656,894.0625 C870.5938,893.8125 870.3125,893.6563 869.9844,893.6563 C869.6719,893.6563 869.4688,893.7656 869.25,894.0313 C868.0781,893.5313 867.6406,893.4219 866.6875,893.4219 C864.0156,893.4219 862,895.4375 862,898.0625 L862,899.1563 Z " fill="#000000"/><text fill="#000000" font-family="sans-serif" font-size="14" lengthAdjust="spacing" textLength="38" x="881" y="902.606">Movie</text><line style="stroke:#181818;stroke-width:0.5;" x1="853" x2="921" y1="914" y2="914"/><line style="stroke:#181818;stroke-width:0.5;" x1="853" x2="921" y1="922" y2="922"/></g><!--MD5=[dd6ce28cd78ac308772935dc050a9e14]
class Serie--><g id="elem_Serie"><rect fill="#F1F1F1" height="48" id="Serie" rx="2.5" ry="2.5" style="stroke:#181818;stroke-width:0.5;" width="65" x="1319.5" y="257"/><ellipse cx="1334.5" cy="273" fill="#ADD1B2" rx="11" ry="11" style="stroke:#181818;stroke-width:1.0;"/><path d="M1329.5,274.1563 C1329.5,276.6563 1331.6406,278.4688 1334.5625,278.4688 C1335.7969,278.4688 1336.9688,278.1719 1337.7188,277.6563 C1338.3281,277.2344 1338.6563,276.8125 1338.6563,276.4063 C1338.6563,275.9375 1338.2344,275.5313 1337.7344,275.5313 C1337.5,275.5313 1337.2813,275.6094 1337.0781,275.8125 C1336.6406,276.25 1336.6406,276.25 1336.4688,276.3438 C1336.0156,276.5781 1335.375,276.7188 1334.6094,276.7188 C1332.6094,276.7188 1331.3281,275.7031 1331.3281,274.125 L1331.3281,273.0781 C1331.3281,271.375 1332.5469,270.1719 1334.25,270.1719 C1334.8281,270.1719 1335.4063,270.3125 1335.875,270.5625 C1336.3438,270.8281 1336.5156,271.0156 1336.5781,271.375 C1336.7031,272.0469 1336.9531,272.2969 1337.4844,272.2969 C1337.7656,272.2969 1338.0469,272.1563 1338.2344,271.9375 C1338.3594,271.7656 1338.4063,271.5938 1338.4063,271.1563 L1338.4063,269.7969 C1338.4063,269.375 1338.3906,269.2344 1338.2656,269.0625 C1338.0938,268.8125 1337.8125,268.6563 1337.4844,268.6563 C1337.1719,268.6563 1336.9688,268.7656 1336.75,269.0313 C1335.5781,268.5313 1335.1406,268.4219 1334.1875,268.4219 C1331.5156,268.4219 1329.5,270.4375 1329.5,273.0625 L1329.5,274.1563 Z " fill="#000000"/><text fill="#000000" font-family="sans-serif" font-size="14" lengthAdjust="spacing" textLength="33" x="1348.5" y="277.606">Serie</text><line style="stroke:#181818;stroke-width:0.5;" x1="1320.5" x2="1383.5" y1="289" y2="289"/><line style="stroke:#181818;stroke-width:0.5;" x1="1320.5" x2="1383.5" y1="297" y2="297"/></g><!--MD5=[b8828fe7ac3f9c4eb842b546e8e5efdc]
class Cast--><g id="elem_Cast"><rect fill="#F1F1F1" height="48" id="Cast" rx="2.5" ry="2.5" style="stroke:#181818;stroke-width:0.5;" width="61" x="1321.5" y="632"/><ellipse cx="1336.5" cy="648" fill="#ADD1B2" rx="11" ry="11" style="stroke:#181818;stroke-width:1.0;"/><path d="M1331.5,649.1563 C1331.5,651.6563 1333.6406,653.4688 1336.5625,653.4688 C1337.7969,653.4688 1338.9688,653.1719 1339.7188,652.6563 C1340.3281,652.2344 1340.6563,651.8125 1340.6563,651.4063 C1340.6563,650.9375 1340.2344,650.5313 1339.7344,650.5313 C1339.5,650.5313 1339.2813,650.6094 1339.0781,650.8125 C1338.6406,651.25 1338.6406,651.25 1338.4688,651.3438 C1338.0156,651.5781 1337.375,651.7188 1336.6094,651.7188 C1334.6094,651.7188 1333.3281,650.7031 1333.3281,649.125 L1333.3281,648.0781 C1333.3281,646.375 1334.5469,645.1719 1336.25,645.1719 C1336.8281,645.1719 1337.4063,645.3125 1337.875,645.5625 C1338.3438,645.8281 1338.5156,646.0156 1338.5781,646.375 C1338.7031,647.0469 1338.9531,647.2969 1339.4844,647.2969 C1339.7656,647.2969 1340.0469,647.1563 1340.2344,646.9375 C1340.3594,646.7656 1340.4063,646.5938 1340.4063,646.1563 L1340.4063,644.7969 C1340.4063,644.375 1340.3906,644.2344 1340.2656,644.0625 C1340.0938,643.8125 1339.8125,643.6563 1339.4844,643.6563 C1339.1719,643.6563 1338.9688,643.7656 1338.75,644.0313 C1337.5781,643.5313 1337.1406,643.4219 1336.1875,643.4219 C1333.5156,643.4219 1331.5,645.4375 1331.5,648.0625 L1331.5,649.1563 Z " fill="#000000"/><text fill="#000000" font-family="sans-serif" font-size="14" lengthAdjust="spacing" textLength="29" x="1350.5" y="652.606">Cast</text><line style="stroke:#181818;stroke-width:0.5;" x1="1322.5" x2="1381.5" y1="664" y2="664"/><line style="stroke:#181818;stroke-width:0.5;" x1="1322.5" x2="1381.5" y1="672" y2="672"/></g><!--MD5=[042fa140da40c49659127f611bcff931]
class Comment--><g id="elem_Comment"><rect fill="#F1F1F1" height="48" id="Comment" rx="2.5" ry="2.5" style="stroke:#181818;stroke-width:0.5;" width="94" x="1048" y="632"/><ellipse cx="1063" cy="648" fill="#ADD1B2" rx="11" ry="11" style="stroke:#181818;stroke-width:1.0;"/><path d="M1058,649.1563 C1058,651.6563 1060.1406,653.4688 1063.0625,653.4688 C1064.2969,653.4688 1065.4688,653.1719 1066.2188,652.6563 C1066.8281,652.2344 1067.1563,651.8125 1067.1563,651.4063 C1067.1563,650.9375 1066.7344,650.5313 1066.2344,650.5313 C1066,650.5313 1065.7813,650.6094 1065.5781,650.8125 C1065.1406,651.25 1065.1406,651.25 1064.9688,651.3438 C1064.5156,651.5781 1063.875,651.7188 1063.1094,651.7188 C1061.1094,651.7188 1059.8281,650.7031 1059.8281,649.125 L1059.8281,648.0781 C1059.8281,646.375 1061.0469,645.1719 1062.75,645.1719 C1063.3281,645.1719 1063.9063,645.3125 1064.375,645.5625 C1064.8438,645.8281 1065.0156,646.0156 1065.0781,646.375 C1065.2031,647.0469 1065.4531,647.2969 1065.9844,647.2969 C1066.2656,647.2969 1066.5469,647.1563 1066.7344,646.9375 C1066.8594,646.7656 1066.9063,646.5938 1066.9063,646.1563 L1066.9063,644.7969 C1066.9063,644.375 1066.8906,644.2344 1066.7656,644.0625 C1066.5938,643.8125 1066.3125,643.6563 1065.9844,643.6563 C1065.6719,643.6563 1065.4688,643.7656 1065.25,644.0313 C1064.0781,643.5313 1063.6406,643.4219 1062.6875,643.4219 C1060.0156,643.4219 1058,645.4375 1058,648.0625 L1058,649.1563 Z " fill="#000000"/><text fill="#000000" font-family="sans-serif" font-size="14" lengthAdjust="spacing" textLength="62" x="1077" y="652.606">Comment</text><line style="stroke:#181818;stroke-width:0.5;" x1="1049" x2="1141" y1="664" y2="664"/><line style="stroke:#181818;stroke-width:0.5;" x1="1049" x2="1141" y1="672" y2="672"/></g><!--MD5=[e65e6d38455b41cf3bfbebe5b46c38ff]
class Trailer--><g id="elem_Trailer"><rect fill="#F1F1F1" height="48" id="Trailer" rx="2.5" ry="2.5" style="stroke:#181818;stroke-width:0.5;" width="73" x="911.5" y="257"/><ellipse cx="926.5" cy="273" fill="#ADD1B2" rx="11" ry="11" style="stroke:#181818;stroke-width:1.0;"/><path d="M921.5,274.1563 C921.5,276.6563 923.6406,278.4688 926.5625,278.4688 C927.7969,278.4688 928.9688,278.1719 929.7188,277.6563 C930.3281,277.2344 930.6563,276.8125 930.6563,276.4063 C930.6563,275.9375 930.2344,275.5313 929.7344,275.5313 C929.5,275.5313 929.2813,275.6094 929.0781,275.8125 C928.6406,276.25 928.6406,276.25 928.4688,276.3438 C928.0156,276.5781 927.375,276.7188 926.6094,276.7188 C924.6094,276.7188 923.3281,275.7031 923.3281,274.125 L923.3281,273.0781 C923.3281,271.375 924.5469,270.1719 926.25,270.1719 C926.8281,270.1719 927.4063,270.3125 927.875,270.5625 C928.3438,270.8281 928.5156,271.0156 928.5781,271.375 C928.7031,272.0469 928.9531,272.2969 929.4844,272.2969 C929.7656,272.2969 930.0469,272.1563 930.2344,271.9375 C930.3594,271.7656 930.4063,271.5938 930.4063,271.1563 L930.4063,269.7969 C930.4063,269.375 930.3906,269.2344 930.2656,269.0625 C930.0938,268.8125 929.8125,268.6563 929.4844,268.6563 C929.1719,268.6563 928.9688,268.7656 928.75,269.0313 C927.5781,268.5313 927.1406,268.4219 926.1875,268.4219 C923.5156,268.4219 921.5,270.4375 921.5,273.0625 L921.5,274.1563 Z " fill="#000000"/><text fill="#000000" font-family="sans-serif" font-size="14" lengthAdjust="spacing" textLength="41" x="940.5" y="277.606">Trailer</text><line style="stroke:#181818;stroke-width:0.5;" x1="912.5" x2="983.5" y1="289" y2="289"/><line style="stroke:#181818;stroke-width:0.5;" x1="912.5" x2="983.5" y1="297" y2="297"/></g><!--MD5=[d0be506cc2ab3204f4e33df649ab84a7]
class Storyline--><g id="elem_Storyline"><rect fill="#F1F1F1" height="48" id="Storyline" rx="2.5" ry="2.5" style="stroke:#181818;stroke-width:0.5;" width="87" x="1019.5" y="257"/><ellipse cx="1034.5" cy="273" fill="#ADD1B2" rx="11" ry="11" style="stroke:#181818;stroke-width:1.0;"/><path d="M1029.5,274.1563 C1029.5,276.6563 1031.6406,278.4688 1034.5625,278.4688 C1035.7969,278.4688 1036.9688,278.1719 1037.7188,277.6563 C1038.3281,277.2344 1038.6563,276.8125 1038.6563,276.4063 C1038.6563,275.9375 1038.2344,275.5313 1037.7344,275.5313 C1037.5,275.5313 1037.2813,275.6094 1037.0781,275.8125 C1036.6406,276.25 1036.6406,276.25 1036.4688,276.3438 C1036.0156,276.5781 1035.375,276.7188 1034.6094,276.7188 C1032.6094,276.7188 1031.3281,275.7031 1031.3281,274.125 L1031.3281,273.0781 C1031.3281,271.375 1032.5469,270.1719 1034.25,270.1719 C1034.8281,270.1719 1035.4063,270.3125 1035.875,270.5625 C1036.3438,270.8281 1036.5156,271.0156 1036.5781,271.375 C1036.7031,272.0469 1036.9531,272.2969 1037.4844,272.2969 C1037.7656,272.2969 1038.0469,272.1563 1038.2344,271.9375 C1038.3594,271.7656 1038.4063,271.5938 1038.4063,271.1563 L1038.4063,269.7969 C1038.4063,269.375 1038.3906,269.2344 1038.2656,269.0625 C1038.0938,268.8125 1037.8125,268.6563 1037.4844,268.6563 C1037.1719,268.6563 1036.9688,268.7656 1036.75,269.0313 C1035.5781,268.5313 1035.1406,268.4219 1034.1875,268.4219 C1031.5156,268.4219 1029.5,270.4375 1029.5,273.0625 L1029.5,274.1563 Z " fill="#000000"/><text fill="#000000" font-family="sans-serif" font-size="14" lengthAdjust="spacing" textLength="55" x="1048.5" y="277.606">Storyline</text><line style="stroke:#181818;stroke-width:0.5;" x1="1020.5" x2="1105.5" y1="289" y2="289"/><line style="stroke:#181818;stroke-width:0.5;" x1="1020.5" x2="1105.5" y1="297" y2="297"/></g><!--MD5=[f375b3d0fae4d15774812e930c824519]
class Genre--><g id="elem_Genre"><rect fill="#F1F1F1" height="48" id="Genre" rx="2.5" ry="2.5" style="stroke:#181818;stroke-width:0.5;" width="72" x="1141" y="257"/><ellipse cx="1156" cy="273" fill="#ADD1B2" rx="11" ry="11" style="stroke:#181818;stroke-width:1.0;"/><path d="M1151,274.1563 C1151,276.6563 1153.1406,278.4688 1156.0625,278.4688 C1157.2969,278.4688 1158.4688,278.1719 1159.2188,277.6563 C1159.8281,277.2344 1160.1563,276.8125 1160.1563,276.4063 C1160.1563,275.9375 1159.7344,275.5313 1159.2344,275.5313 C1159,275.5313 1158.7813,275.6094 1158.5781,275.8125 C1158.1406,276.25 1158.1406,276.25 1157.9688,276.3438 C1157.5156,276.5781 1156.875,276.7188 1156.1094,276.7188 C1154.1094,276.7188 1152.8281,275.7031 1152.8281,274.125 L1152.8281,273.0781 C1152.8281,271.375 1154.0469,270.1719 1155.75,270.1719 C1156.3281,270.1719 1156.9063,270.3125 1157.375,270.5625 C1157.8438,270.8281 1158.0156,271.0156 1158.0781,271.375 C1158.2031,272.0469 1158.4531,272.2969 1158.9844,272.2969 C1159.2656,272.2969 1159.5469,272.1563 1159.7344,271.9375 C1159.8594,271.7656 1159.9063,271.5938 1159.9063,271.1563 L1159.9063,269.7969 C1159.9063,269.375 1159.8906,269.2344 1159.7656,269.0625 C1159.5938,268.8125 1159.3125,268.6563 1158.9844,268.6563 C1158.6719,268.6563 1158.4688,268.7656 1158.25,269.0313 C1157.0781,268.5313 1156.6406,268.4219 1155.6875,268.4219 C1153.0156,268.4219 1151,270.4375 1151,273.0625 L1151,274.1563 Z " fill="#000000"/><text fill="#000000" font-family="sans-serif" font-size="14" lengthAdjust="spacing" textLength="40" x="1170" y="277.606">Genre</text><line style="stroke:#181818;stroke-width:0.5;" x1="1142" x2="1212" y1="289" y2="289"/><line style="stroke:#181818;stroke-width:0.5;" x1="1142" x2="1212" y1="297" y2="297"/></g><!--MD5=[eb0e8f8ddfdc21c3fdb48447501fec67]
class Review--><g id="elem_Review"><rect fill="#F1F1F1" height="48" id="Review" rx="2.5" ry="2.5" style="stroke:#181818;stroke-width:0.5;" width="78" x="1468" y="632"/><ellipse cx="1483" cy="648" fill="#ADD1B2" rx="11" ry="11" style="stroke:#181818;stroke-width:1.0;"/><path d="M1478,649.1563 C1478,651.6563 1480.1406,653.4688 1483.0625,653.4688 C1484.2969,653.4688 1485.4688,653.1719 1486.2188,652.6563 C1486.8281,652.2344 1487.1563,651.8125 1487.1563,651.4063 C1487.1563,650.9375 1486.7344,650.5313 1486.2344,650.5313 C1486,650.5313 1485.7813,650.6094 1485.5781,650.8125 C1485.1406,651.25 1485.1406,651.25 1484.9688,651.3438 C1484.5156,651.5781 1483.875,651.7188 1483.1094,651.7188 C1481.1094,651.7188 1479.8281,650.7031 1479.8281,649.125 L1479.8281,648.0781 C1479.8281,646.375 1481.0469,645.1719 1482.75,645.1719 C1483.3281,645.1719 1483.9063,645.3125 1484.375,645.5625 C1484.8438,645.8281 1485.0156,646.0156 1485.0781,646.375 C1485.2031,647.0469 1485.4531,647.2969 1485.9844,647.2969 C1486.2656,647.2969 1486.5469,647.1563 1486.7344,646.9375 C1486.8594,646.7656 1486.9063,646.5938 1486.9063,646.1563 L1486.9063,644.7969 C1486.9063,644.375 1486.8906,644.2344 1486.7656,644.0625 C1486.5938,643.8125 1486.3125,643.6563 1485.9844,643.6563 C1485.6719,643.6563 1485.4688,643.7656 1485.25,644.0313 C1484.0781,643.5313 1483.6406,643.4219 1482.6875,643.4219 C1480.0156,643.4219 1478,645.4375 1478,648.0625 L1478,649.1563 Z " fill="#000000"/><text fill="#000000" font-family="sans-serif" font-size="14" lengthAdjust="spacing" textLength="46" x="1497" y="652.606">Review</text><line style="stroke:#181818;stroke-width:0.5;" x1="1469" x2="1545" y1="664" y2="664"/><line style="stroke:#181818;stroke-width:0.5;" x1="1469" x2="1545" y1="672" y2="672"/></g><!--MD5=[3507a60a1befbc7906f5a024a4f6351d]
class Favorite--><g id="elem_Favorite"><rect fill="#F1F1F1" height="48" id="Favorite" rx="2.5" ry="2.5" style="stroke:#181818;stroke-width:0.5;" width="84" x="721" y="257"/><ellipse cx="736" cy="273" fill="#ADD1B2" rx="11" ry="11" style="stroke:#181818;stroke-width:1.0;"/><path d="M731,274.1563 C731,276.6563 733.1406,278.4688 736.0625,278.4688 C737.2969,278.4688 738.4688,278.1719 739.2188,277.6563 C739.8281,277.2344 740.1563,276.8125 740.1563,276.4063 C740.1563,275.9375 739.7344,275.5313 739.2344,275.5313 C739,275.5313 738.7813,275.6094 738.5781,275.8125 C738.1406,276.25 738.1406,276.25 737.9688,276.3438 C737.5156,276.5781 736.875,276.7188 736.1094,276.7188 C734.1094,276.7188 732.8281,275.7031 732.8281,274.125 L732.8281,273.0781 C732.8281,271.375 734.0469,270.1719 735.75,270.1719 C736.3281,270.1719 736.9063,270.3125 737.375,270.5625 C737.8438,270.8281 738.0156,271.0156 738.0781,271.375 C738.2031,272.0469 738.4531,272.2969 738.9844,272.2969 C739.2656,272.2969 739.5469,272.1563 739.7344,271.9375 C739.8594,271.7656 739.9063,271.5938 739.9063,271.1563 L739.9063,269.7969 C739.9063,269.375 739.8906,269.2344 739.7656,269.0625 C739.5938,268.8125 739.3125,268.6563 738.9844,268.6563 C738.6719,268.6563 738.4688,268.7656 738.25,269.0313 C737.0781,268.5313 736.6406,268.4219 735.6875,268.4219 C733.0156,268.4219 731,270.4375 731,273.0625 L731,274.1563 Z " fill="#000000"/><text fill="#000000" font-family="sans-serif" font-size="14" lengthAdjust="spacing" textLength="52" x="750" y="277.606">Favorite</text><line style="stroke:#181818;stroke-width:0.5;" x1="722" x2="804" y1="289" y2="289"/><line style="stroke:#181818;stroke-width:0.5;" x1="722" x2="804" y1="297" y2="297"/></g><!--MD5=[03706fba2c7adfb4aab6ea0e8294e1c0]
class WatchLater--><g id="elem_WatchLater"><rect fill="#F1F1F1" height="48" id="WatchLater" rx="2.5" ry="2.5" style="stroke:#181818;stroke-width:0.5;" width="105" x="469.5" y="257"/><ellipse cx="484.5" cy="273" fill="#ADD1B2" rx="11" ry="11" style="stroke:#181818;stroke-width:1.0;"/><path d="M479.5,274.1563 C479.5,276.6563 481.6406,278.4688 484.5625,278.4688 C485.7969,278.4688 486.9688,278.1719 487.7188,277.6563 C488.3281,277.2344 488.6563,276.8125 488.6563,276.4063 C488.6563,275.9375 488.2344,275.5313 487.7344,275.5313 C487.5,275.5313 487.2813,275.6094 487.0781,275.8125 C486.6406,276.25 486.6406,276.25 486.4688,276.3438 C486.0156,276.5781 485.375,276.7188 484.6094,276.7188 C482.6094,276.7188 481.3281,275.7031 481.3281,274.125 L481.3281,273.0781 C481.3281,271.375 482.5469,270.1719 484.25,270.1719 C484.8281,270.1719 485.4063,270.3125 485.875,270.5625 C486.3438,270.8281 486.5156,271.0156 486.5781,271.375 C486.7031,272.0469 486.9531,272.2969 487.4844,272.2969 C487.7656,272.2969 488.0469,272.1563 488.2344,271.9375 C488.3594,271.7656 488.4063,271.5938 488.4063,271.1563 L488.4063,269.7969 C488.4063,269.375 488.3906,269.2344 488.2656,269.0625 C488.0938,268.8125 487.8125,268.6563 487.4844,268.6563 C487.1719,268.6563 486.9688,268.7656 486.75,269.0313 C485.5781,268.5313 485.1406,268.4219 484.1875,268.4219 C481.5156,268.4219 479.5,270.4375 479.5,273.0625 L479.5,274.1563 Z " fill="#000000"/><text fill="#000000" font-family="sans-serif" font-size="14" lengthAdjust="spacing" textLength="73" x="498.5" y="277.606">WatchLater</text><line style="stroke:#181818;stroke-width:0.5;" x1="470.5" x2="573.5" y1="289" y2="289"/><line style="stroke:#181818;stroke-width:0.5;" x1="470.5" x2="573.5" y1="297" y2="297"/></g><!--MD5=[7bff1aba3b0d0725284345139f4478e9]
class History--><g id="elem_History"><rect fill="#F1F1F1" height="48" id="History" rx="2.5" ry="2.5" style="stroke:#181818;stroke-width:0.5;" width="76" x="610" y="257"/><ellipse cx="625" cy="273" fill="#ADD1B2" rx="11" ry="11" style="stroke:#181818;stroke-width:1.0;"/><path d="M620,274.1563 C620,276.6563 622.1406,278.4688 625.0625,278.4688 C626.2969,278.4688 627.4688,278.1719 628.2188,277.6563 C628.8281,277.2344 629.1563,276.8125 629.1563,276.4063 C629.1563,275.9375 628.7344,275.5313 628.2344,275.5313 C628,275.5313 627.7813,275.6094 627.5781,275.8125 C627.1406,276.25 627.1406,276.25 626.9688,276.3438 C626.5156,276.5781 625.875,276.7188 625.1094,276.7188 C623.1094,276.7188 621.8281,275.7031 621.8281,274.125 L621.8281,273.0781 C621.8281,271.375 623.0469,270.1719 624.75,270.1719 C625.3281,270.1719 625.9063,270.3125 626.375,270.5625 C626.8438,270.8281 627.0156,271.0156 627.0781,271.375 C627.2031,272.0469 627.4531,272.2969 627.9844,272.2969 C628.2656,272.2969 628.5469,272.1563 628.7344,271.9375 C628.8594,271.7656 628.9063,271.5938 628.9063,271.1563 L628.9063,269.7969 C628.9063,269.375 628.8906,269.2344 628.7656,269.0625 C628.5938,268.8125 628.3125,268.6563 627.9844,268.6563 C627.6719,268.6563 627.4688,268.7656 627.25,269.0313 C626.0781,268.5313 625.6406,268.4219 624.6875,268.4219 C622.0156,268.4219 620,270.4375 620,273.0625 L620,274.1563 Z " fill="#000000"/><text fill="#000000" font-family="sans-serif" font-size="14" lengthAdjust="spacing" textLength="44" x="639" y="277.606">History</text><line style="stroke:#181818;stroke-width:0.5;" x1="611" x2="685" y1="289" y2="289"/><line style="stroke:#181818;stroke-width:0.5;" x1="611" x2="685" y1="297" y2="297"/></g><!--MD5=[44201db48fb57df1a9c7f5b6b15426b0]
class Actor--><g id="elem_Actor"><rect fill="#F1F1F1" height="48" id="Actor" rx="2.5" ry="2.5" style="stroke:#181818;stroke-width:0.5;" width="65" x="1195.5" y="757"/><ellipse cx="1210.5" cy="773" fill="#ADD1B2" rx="11" ry="11" style="stroke:#181818;stroke-width:1.0;"/><path d="M1205.5,774.1563 C1205.5,776.6563 1207.6406,778.4688 1210.5625,778.4688 C1211.7969,778.4688 1212.9688,778.1719 1213.7188,777.6563 C1214.3281,777.2344 1214.6563,776.8125 1214.6563,776.4063 C1214.6563,775.9375 1214.2344,775.5313 1213.7344,775.5313 C1213.5,775.5313 1213.2813,775.6094 1213.0781,775.8125 C1212.6406,776.25 1212.6406,776.25 1212.4688,776.3438 C1212.0156,776.5781 1211.375,776.7188 1210.6094,776.7188 C1208.6094,776.7188 1207.3281,775.7031 1207.3281,774.125 L1207.3281,773.0781 C1207.3281,771.375 1208.5469,770.1719 1210.25,770.1719 C1210.8281,770.1719 1211.4063,770.3125 1211.875,770.5625 C1212.3438,770.8281 1212.5156,771.0156 1212.5781,771.375 C1212.7031,772.0469 1212.9531,772.2969 1213.4844,772.2969 C1213.7656,772.2969 1214.0469,772.1563 1214.2344,771.9375 C1214.3594,771.7656 1214.4063,771.5938 1214.4063,771.1563 L1214.4063,769.7969 C1214.4063,769.375 1214.3906,769.2344 1214.2656,769.0625 C1214.0938,768.8125 1213.8125,768.6563 1213.4844,768.6563 C1213.1719,768.6563 1212.9688,768.7656 1212.75,769.0313 C1211.5781,768.5313 1211.1406,768.4219 1210.1875,768.4219 C1207.5156,768.4219 1205.5,770.4375 1205.5,773.0625 L1205.5,774.1563 Z " fill="#000000"/><text fill="#000000" font-family="sans-serif" font-size="14" lengthAdjust="spacing" textLength="33" x="1224.5" y="777.606">Actor</text><line style="stroke:#181818;stroke-width:0.5;" x1="1196.5" x2="1259.5" y1="789" y2="789"/><line style="stroke:#181818;stroke-width:0.5;" x1="1196.5" x2="1259.5" y1="797" y2="797"/></g><!--MD5=[2916714cae8f0462c1096d4fd55ce4c3]
class Season--><g id="elem_Season"><rect fill="#F1F1F1" height="48" id="Season" rx="2.5" ry="2.5" style="stroke:#181818;stroke-width:0.5;" width="80" x="1312" y="382"/><ellipse cx="1327" cy="398" fill="#ADD1B2" rx="11" ry="11" style="stroke:#181818;stroke-width:1.0;"/><path d="M1322,399.1563 C1322,401.6563 1324.1406,403.4688 1327.0625,403.4688 C1328.2969,403.4688 1329.4688,403.1719 1330.2188,402.6563 C1330.8281,402.2344 1331.1563,401.8125 1331.1563,401.4063 C1331.1563,400.9375 1330.7344,400.5313 1330.2344,400.5313 C1330,400.5313 1329.7813,400.6094 1329.5781,400.8125 C1329.1406,401.25 1329.1406,401.25 1328.9688,401.3438 C1328.5156,401.5781 1327.875,401.7188 1327.1094,401.7188 C1325.1094,401.7188 1323.8281,400.7031 1323.8281,399.125 L1323.8281,398.0781 C1323.8281,396.375 1325.0469,395.1719 1326.75,395.1719 C1327.3281,395.1719 1327.9063,395.3125 1328.375,395.5625 C1328.8438,395.8281 1329.0156,396.0156 1329.0781,396.375 C1329.2031,397.0469 1329.4531,397.2969 1329.9844,397.2969 C1330.2656,397.2969 1330.5469,397.1563 1330.7344,396.9375 C1330.8594,396.7656 1330.9063,396.5938 1330.9063,396.1563 L1330.9063,394.7969 C1330.9063,394.375 1330.8906,394.2344 1330.7656,394.0625 C1330.5938,393.8125 1330.3125,393.6563 1329.9844,393.6563 C1329.6719,393.6563 1329.4688,393.7656 1329.25,394.0313 C1328.0781,393.5313 1327.6406,393.4219 1326.6875,393.4219 C1324.0156,393.4219 1322,395.4375 1322,398.0625 L1322,399.1563 Z " fill="#000000"/><text fill="#000000" font-family="sans-serif" font-size="14" lengthAdjust="spacing" textLength="48" x="1341" y="402.606">Season</text><line style="stroke:#181818;stroke-width:0.5;" x1="1313" x2="1391" y1="414" y2="414"/><line style="stroke:#181818;stroke-width:0.5;" x1="1313" x2="1391" y1="422" y2="422"/></g><!--MD5=[89f1af135d226d270851fb7756972918]
class Episode--><g id="elem_Episode"><rect fill="#F1F1F1" height="48" id="Episode" rx="2.5" ry="2.5" style="stroke:#181818;stroke-width:0.5;" width="83" x="1310.5" y="507"/><ellipse cx="1325.5" cy="523" fill="#ADD1B2" rx="11" ry="11" style="stroke:#181818;stroke-width:1.0;"/><path d="M1320.5,524.1563 C1320.5,526.6563 1322.6406,528.4688 1325.5625,528.4688 C1326.7969,528.4688 1327.9688,528.1719 1328.7188,527.6563 C1329.3281,527.2344 1329.6563,526.8125 1329.6563,526.4063 C1329.6563,525.9375 1329.2344,525.5313 1328.7344,525.5313 C1328.5,525.5313 1328.2813,525.6094 1328.0781,525.8125 C1327.6406,526.25 1327.6406,526.25 1327.4688,526.3438 C1327.0156,526.5781 1326.375,526.7188 1325.6094,526.7188 C1323.6094,526.7188 1322.3281,525.7031 1322.3281,524.125 L1322.3281,523.0781 C1322.3281,521.375 1323.5469,520.1719 1325.25,520.1719 C1325.8281,520.1719 1326.4063,520.3125 1326.875,520.5625 C1327.3438,520.8281 1327.5156,521.0156 1327.5781,521.375 C1327.7031,522.0469 1327.9531,522.2969 1328.4844,522.2969 C1328.7656,522.2969 1329.0469,522.1563 1329.2344,521.9375 C1329.3594,521.7656 1329.4063,521.5938 1329.4063,521.1563 L1329.4063,519.7969 C1329.4063,519.375 1329.3906,519.2344 1329.2656,519.0625 C1329.0938,518.8125 1328.8125,518.6563 1328.4844,518.6563 C1328.1719,518.6563 1327.9688,518.7656 1327.75,519.0313 C1326.5781,518.5313 1326.1406,518.4219 1325.1875,518.4219 C1322.5156,518.4219 1320.5,520.4375 1320.5,523.0625 L1320.5,524.1563 Z " fill="#000000"/><text fill="#000000" font-family="sans-serif" font-size="14" lengthAdjust="spacing" textLength="51" x="1339.5" y="527.606">Episode</text><line style="stroke:#181818;stroke-width:0.5;" x1="1311.5" x2="1392.5" y1="539" y2="539"/><line style="stroke:#181818;stroke-width:0.5;" x1="1311.5" x2="1392.5" y1="547" y2="547"/></g><!--MD5=[cb90de322b018cbf647714665a308163]
class Reply--><g id="elem_Reply"><rect fill="#F1F1F1" height="48" id="Reply" rx="2.5" ry="2.5" style="stroke:#181818;stroke-width:0.5;" width="68" x="919" y="757"/><ellipse cx="934" cy="773" fill="#ADD1B2" rx="11" ry="11" style="stroke:#181818;stroke-width:1.0;"/><path d="M929,774.1563 C929,776.6563 931.1406,778.4688 934.0625,778.4688 C935.2969,778.4688 936.4688,778.1719 937.2188,777.6563 C937.8281,777.2344 938.1563,776.8125 938.1563,776.4063 C938.1563,775.9375 937.7344,775.5313 937.2344,775.5313 C937,775.5313 936.7813,775.6094 936.5781,775.8125 C936.1406,776.25 936.1406,776.25 935.9688,776.3438 C935.5156,776.5781 934.875,776.7188 934.1094,776.7188 C932.1094,776.7188 930.8281,775.7031 930.8281,774.125 L930.8281,773.0781 C930.8281,771.375 932.0469,770.1719 933.75,770.1719 C934.3281,770.1719 934.9063,770.3125 935.375,770.5625 C935.8438,770.8281 936.0156,771.0156 936.0781,771.375 C936.2031,772.0469 936.4531,772.2969 936.9844,772.2969 C937.2656,772.2969 937.5469,772.1563 937.7344,771.9375 C937.8594,771.7656 937.9063,771.5938 937.9063,771.1563 L937.9063,769.7969 C937.9063,769.375 937.8906,769.2344 937.7656,769.0625 C937.5938,768.8125 937.3125,768.6563 936.9844,768.6563 C936.6719,768.6563 936.4688,768.7656 936.25,769.0313 C935.0781,768.5313 934.6406,768.4219 933.6875,768.4219 C931.0156,768.4219 929,770.4375 929,773.0625 L929,774.1563 Z " fill="#000000"/><text fill="#000000" font-family="sans-serif" font-size="14" lengthAdjust="spacing" textLength="36" x="948" y="777.606">Reply</text><line style="stroke:#181818;stroke-width:0.5;" x1="920" x2="986" y1="789" y2="789"/><line style="stroke:#181818;stroke-width:0.5;" x1="920" x2="986" y1="797" y2="797"/></g><!--MD5=[70d6def7afea61e891dd06c1b3770541]
class LikeOrDislike--><g id="elem_LikeOrDislike"><rect fill="#F1F1F1" height="48" id="LikeOrDislike" rx="2.5" ry="2.5" style="stroke:#181818;stroke-width:0.5;" width="115" x="1037.5" y="757"/><ellipse cx="1052.5" cy="773" fill="#ADD1B2" rx="11" ry="11" style="stroke:#181818;stroke-width:1.0;"/><path d="M1047.5,774.1563 C1047.5,776.6563 1049.6406,778.4688 1052.5625,778.4688 C1053.7969,778.4688 1054.9688,778.1719 1055.7188,777.6563 C1056.3281,777.2344 1056.6563,776.8125 1056.6563,776.4063 C1056.6563,775.9375 1056.2344,775.5313 1055.7344,775.5313 C1055.5,775.5313 1055.2813,775.6094 1055.0781,775.8125 C1054.6406,776.25 1054.6406,776.25 1054.4688,776.3438 C1054.0156,776.5781 1053.375,776.7188 1052.6094,776.7188 C1050.6094,776.7188 1049.3281,775.7031 1049.3281,774.125 L1049.3281,773.0781 C1049.3281,771.375 1050.5469,770.1719 1052.25,770.1719 C1052.8281,770.1719 1053.4063,770.3125 1053.875,770.5625 C1054.3438,770.8281 1054.5156,771.0156 1054.5781,771.375 C1054.7031,772.0469 1054.9531,772.2969 1055.4844,772.2969 C1055.7656,772.2969 1056.0469,772.1563 1056.2344,771.9375 C1056.3594,771.7656 1056.4063,771.5938 1056.4063,771.1563 L1056.4063,769.7969 C1056.4063,769.375 1056.3906,769.2344 1056.2656,769.0625 C1056.0938,768.8125 1055.8125,768.6563 1055.4844,768.6563 C1055.1719,768.6563 1054.9688,768.7656 1054.75,769.0313 C1053.5781,768.5313 1053.1406,768.4219 1052.1875,768.4219 C1049.5156,768.4219 1047.5,770.4375 1047.5,773.0625 L1047.5,774.1563 Z " fill="#000000"/><text fill="#000000" font-family="sans-serif" font-size="14" lengthAdjust="spacing" textLength="83" x="1066.5" y="777.606">LikeOrDislike</text><line style="stroke:#181818;stroke-width:0.5;" x1="1038.5" x2="1151.5" y1="789" y2="789"/><line style="stroke:#181818;stroke-width:0.5;" x1="1038.5" x2="1151.5" y1="797" y2="797"/></g><!--MD5=[76b5e19c9337179d2d7ae334371d68c8]
class Notification--><g id="elem_Notification"><rect fill="#F1F1F1" height="48" id="Notification" rx="2.5" ry="2.5" style="stroke:#181818;stroke-width:0.5;" width="102" x="686" y="507"/><ellipse cx="701" cy="523" fill="#ADD1B2" rx="11" ry="11" style="stroke:#181818;stroke-width:1.0;"/><path d="M696,524.1563 C696,526.6563 698.1406,528.4688 701.0625,528.4688 C702.2969,528.4688 703.4688,528.1719 704.2188,527.6563 C704.8281,527.2344 705.1563,526.8125 705.1563,526.4063 C705.1563,525.9375 704.7344,525.5313 704.2344,525.5313 C704,525.5313 703.7813,525.6094 703.5781,525.8125 C703.1406,526.25 703.1406,526.25 702.9688,526.3438 C702.5156,526.5781 701.875,526.7188 701.1094,526.7188 C699.1094,526.7188 697.8281,525.7031 697.8281,524.125 L697.8281,523.0781 C697.8281,521.375 699.0469,520.1719 700.75,520.1719 C701.3281,520.1719 701.9063,520.3125 702.375,520.5625 C702.8438,520.8281 703.0156,521.0156 703.0781,521.375 C703.2031,522.0469 703.4531,522.2969 703.9844,522.2969 C704.2656,522.2969 704.5469,522.1563 704.7344,521.9375 C704.8594,521.7656 704.9063,521.5938 704.9063,521.1563 L704.9063,519.7969 C704.9063,519.375 704.8906,519.2344 704.7656,519.0625 C704.5938,518.8125 704.3125,518.6563 703.9844,518.6563 C703.6719,518.6563 703.4688,518.7656 703.25,519.0313 C702.0781,518.5313 701.6406,518.4219 700.6875,518.4219 C698.0156,518.4219 696,520.4375 696,523.0625 L696,524.1563 Z " fill="#000000"/><text fill="#000000" font-family="sans-serif" font-size="14" lengthAdjust="spacing" textLength="70" x="715" y="527.606">Notification</text><line style="stroke:#181818;stroke-width:0.5;" x1="687" x2="787" y1="539" y2="539"/><line style="stroke:#181818;stroke-width:0.5;" x1="687" x2="787" y1="547" y2="547"/></g><!--MD5=[304ccc459c5eccbdff63b945f930f67c]
link Flixxic to User--><g id="link_Flixxic_User"><path codeLine="10" d="M665.5927,56.4022 C665.5927,56.4022 562.93,110.88 522.44,132.17 " fill="none" id="Flixxic-User" style="stroke:#181818;stroke-width:1.0;"/><polygon fill="#181818" points="511.29,138.55,521.1174,137.9,515.7151,136.2222,517.3929,130.8199,511.29,138.55" style="stroke:#181818;stroke-width:1.0;"/><line style="stroke:#181818;stroke-width:1.0;" x1="515.7151" x2="522.8" y1="136.2222" y2="132.5"/><polygon fill="#181818" points="676.21,50.81,669.0373,50.067,665.5927,56.4022,672.7654,57.1452,676.21,50.81" style="stroke:#181818;stroke-width:1.0;"/><text fill="#000000" font-family="sans-serif" font-size="13" lengthAdjust="spacing" textLength="24" x="612" y="98.077">1..N</text></g><!--MD5=[3d8d6fb6986552b3660ce39b356d1260]
link Flixxic to Content--><g id="link_Flixxic_Content"><path codeLine="11" d="M760.8589,51.7385 C760.8589,51.7385 896.69,109.37 950.92,132.22 " fill="none" id="Flixxic-Content" style="stroke:#181818;stroke-width:1.0;"/><polygon fill="#181818" points="962.72,137.61,955.9756,130.4327,958.1113,135.6709,952.8731,137.8067,962.72,137.61" style="stroke:#181818;stroke-width:1.0;"/><line style="stroke:#181818;stroke-width:1.0;" x1="958.1113" x2="950.745" y1="135.6709" y2="132.565"/><polygon fill="#181818" points="749.8,47.08,753.7766,53.0955,760.8589,51.7385,756.8823,45.7229,749.8,47.08" style="stroke:#181818;stroke-width:1.0;"/><text fill="#000000" font-family="sans-serif" font-size="13" lengthAdjust="spacing" textLength="24" x="878" y="98.077">1..N</text></g><!--MD5=[38add4012e22041d0062975d04f99682]
reverse link User to NormalUser--><g id="link_User_NormalUser"><path codeLine="13" d="M428.4,175.72 C407.78,184.54 384.3,196.18 365,210 C346.53,223.22 328.91,241.96 316.38,256.73 " fill="none" id="User-backto-NormalUser" style="stroke:#181818;stroke-width:1.0;"/><polygon fill="none" points="425.64,168.88,446.8,167.86,430.89,181.86,425.64,168.88" style="stroke:#181818;stroke-width:1.0;"/><text fill="#000000" font-family="sans-serif" font-size="13" lengthAdjust="spacing" textLength="24" x="366" y="223.077">1..N</text></g><!--MD5=[7a2eed9d74747c9012ccb21e8d8b7a17]
reverse link User to AdminUser--><g id="link_User_AdminUser"><path codeLine="14" d="M427.82,172.22 C394.39,182.39 349.89,196.36 311,210 C266.81,225.5 217.24,244.8 181.17,259.21 " fill="none" id="User-backto-AdminUser" style="stroke:#181818;stroke-width:1.0;"/><polygon fill="none" points="425.36,165.35,446.53,166.28,429.41,178.76,425.36,165.35" style="stroke:#181818;stroke-width:1.0;"/><text fill="#000000" font-family="sans-serif" font-size="13" lengthAdjust="spacing" textLength="24" x="312" y="223.077">1..N</text></g><!--MD5=[024f38dbfcc1c7b5bf298a580ec403c9]
link NormalUser to ManagementProfile--><g id="link_NormalUser_ManagementProfile"><path codeLine="16" d="M295.71,305.42 C293.76,325.43 290.95,354.3 288.85,375.8 " fill="none" id="NormalUser-to-ManagementProfile" style="stroke:#181818;stroke-width:1.0;"/><polygon fill="#181818" points="288.28,380.66,293.1362,372.0916,288.7662,375.6837,285.1741,371.3137,288.28,380.66" style="stroke:#181818;stroke-width:1.0;"/></g><!--MD5=[22b2408ffd94a9def971da5dd5de809a]
link AdminUser to ManagementContent--><g id="link_AdminUser_ManagementContent"><path codeLine="17" d="M122.38,305.42 C115.85,325.52 106.41,354.54 99.4,376.08 " fill="none" id="AdminUser-to-ManagementContent" style="stroke:#181818;stroke-width:1.0;"/><polygon fill="#181818" points="97.59,380.66,104.1714,373.333,99.1325,375.9039,96.5617,370.865,97.59,380.66" style="stroke:#181818;stroke-width:1.0;"/></g><!--MD5=[3da0896250c8294108a99a5355ea8619]
reverse link Content to Movie--><g id="link_Content_Movie"><path codeLine="19" d="M944.71,179.75 C904.13,199.42 858,232.28 858,280 C858,280 858,280 858,782 C858,817.54 869.61,857.36 878.14,881.8 " fill="none" id="Content-backto-Movie" style="stroke:#181818;stroke-width:1.0;"/><polygon fill="none" points="941.55,173.05,962.66,171.27,947.27,185.83,941.55,173.05" style="stroke:#181818;stroke-width:1.0;"/><text fill="#000000" font-family="sans-serif" font-size="13" lengthAdjust="spacing" textLength="24" x="859" y="535.577">1..N</text></g><!--MD5=[c21a427f2ddc7102a1c3d05d458f0b76]
reverse link Content to Serie--><g id="link_Content_Serie"><path codeLine="20" d="M1067.34,156.75 C1128.41,159.1 1222.19,169.81 1292,210 C1311.42,221.18 1327.54,241.07 1338.17,256.79 " fill="none" id="Content-backto-Serie" style="stroke:#181818;stroke-width:1.0;"/><polygon fill="none" points="1067.25,163.72,1047.43,156.22,1067.6,149.73,1067.25,163.72" style="stroke:#181818;stroke-width:1.0;"/><text fill="#000000" font-family="sans-serif" font-size="13" lengthAdjust="spacing" textLength="24" x="1314" y="223.077">1..N</text></g><!--MD5=[8a6f7229d5085b94a7a8ef560199acbb]
link Content to Cast--><g id="link_Content_Cast"><path codeLine="21" d="M1059.2039,160.0012 C1059.2039,160.0012 1465,197 1465,280 C1465,280 1465,280 1465,532 C1465,564.61 1463.35,576.52 1443,602 C1430.54,617.6 1412.16,629.53 1395.17,638.09 " fill="none" id="Content-Cast" style="stroke:#181818;stroke-width:1.0;"/><polygon fill="#181818" points="1383.58,643.98,1393.4269,643.7844,1388.1078,641.859,1390.0332,636.5399,1383.58,643.98" style="stroke:#181818;stroke-width:1.0;"/><line style="stroke:#181818;stroke-width:1.0;" x1="1388.1078" x2="1395.35" y1="641.859" y2="638.47"/><polygon fill="#181818" points="1047.23,159.21,1052.9532,163.5969,1059.2039,160.0012,1053.4807,155.6143,1047.23,159.21" style="stroke:#181818;stroke-width:1.0;"/><text fill="#000000" font-family="sans-serif" font-size="13" lengthAdjust="spacing" textLength="22" x="1466" y="410.577">1..1</text></g><!--MD5=[53f151fa8452c5b1d154e4cab5b25088]
link Content to Comment--><g id="link_Content_Comment"><path codeLine="22" d="M1058.9913,163.4949 C1058.9913,163.4949 1194.34,198.23 1231,257 C1249.83,287.19 1230.77,304.18 1213,335 C1201.08,355.68 1196.63,360.16 1187,382 C1150.78,464.17 1120.11,565.36 1105.03,618.48 " fill="none" id="Content-Comment" style="stroke:#181818;stroke-width:1.0;"/><polygon fill="#181818" points="1101.28,630.82,1107.5643,623.2366,1102.6318,626.0062,1099.8622,621.0737,1101.28,630.82" style="stroke:#181818;stroke-width:1.0;"/><line style="stroke:#181818;stroke-width:1.0;" x1="1102.6318" x2="1104.79" y1="626.0062" y2="618.31"/><polygon fill="none" points="1047.16,161.49,1052.4074,166.4362,1058.9913,163.4949,1053.744,158.5487,1047.16,161.49" style="stroke:#181818;stroke-width:1.0;"/><text fill="#000000" font-family="sans-serif" font-size="13" lengthAdjust="spacing" textLength="24" x="1188" y="410.577">0..N</text></g><!--MD5=[af6340d3a35e8295d522efa4aa0655f6]
link Content to Trailer--><g id="link_Content_Trailer"><path codeLine="23" d="M989.1029,192.3117 C989.1029,192.3117 972.11,227.97 964.69,243.99 " fill="none" id="Content-Trailer" style="stroke:#181818;stroke-width:1.0;"/><polygon fill="#181818" points="958.82,255.66,966.2348,249.1777,960.9233,251.1239,958.9771,245.8124,958.82,255.66" style="stroke:#181818;stroke-width:1.0;"/><line style="stroke:#181818;stroke-width:1.0;" x1="960.9233" x2="964.28" y1="251.1239" y2="243.865"/><polygon fill="#181818" points="994.14,181.42,987.9909,185.1868,989.1029,192.3117,995.252,188.5448,994.14,181.42" style="stroke:#181818;stroke-width:1.0;"/><text fill="#000000" font-family="sans-serif" font-size="13" lengthAdjust="spacing" textLength="22" x="981" y="223.077">1..1</text></g><!--MD5=[bce9aadea264624282c17cea8af14b2c]
link Content to Storyline--><g id="link_Content_Storyline"><path codeLine="24" d="M1021.1672,192.2742 C1021.1672,192.2742 1038.58,228.21 1046.22,244.41 " fill="none" id="Content-Storyline" style="stroke:#181818;stroke-width:1.0;"/><polygon fill="#181818" points="1052,255.66,1051.7802,245.8136,1049.8678,251.1374,1044.544,249.2251,1052,255.66" style="stroke:#181818;stroke-width:1.0;"/><line style="stroke:#181818;stroke-width:1.0;" x1="1049.8678" x2="1046.455" y1="251.1374" y2="243.9"/><polygon fill="#181818" points="1016.05,181.42,1014.9905,188.5528,1021.1672,192.2742,1022.2267,185.1414,1016.05,181.42" style="stroke:#181818;stroke-width:1.0;"/><text fill="#000000" font-family="sans-serif" font-size="13" lengthAdjust="spacing" textLength="22" x="1038" y="223.077">1..1</text></g><!--MD5=[a3760420b842e483e25b1b7d15b7ed4a]
link Content to Genre--><g id="link_Content_Genre"><path codeLine="25" d="M1048.5159,187.4073 C1048.5159,187.4073 1107.29,230.15 1133.05,248.57 " fill="none" id="Content-Genre" style="stroke:#181818;stroke-width:1.0;"/><polygon fill="#181818" points="1143.37,256.66,1138.3822,248.1675,1139.305,253.7486,1133.724,254.6715,1143.37,256.66" style="stroke:#181818;stroke-width:1.0;"/><line style="stroke:#181818;stroke-width:1.0;" x1="1139.305" x2="1132.79" y1="253.7486" y2="249.1"/><polygon fill="#181818" points="1038.76,180.42,1041.3088,187.1656,1048.5159,187.4073,1045.9671,180.6617,1038.76,180.42" style="stroke:#181818;stroke-width:1.0;"/><text fill="#000000" font-family="sans-serif" font-size="13" lengthAdjust="spacing" textLength="24" x="1102" y="223.077">1..N</text></g><!--MD5=[883f87fdb5bffdd8201fc5591fcc64ab]
link Content to Review--><g id="link_Content_Review"><path codeLine="26" d="M1059.1879,157.5841 C1059.1879,157.5841 1559,178.44 1559,280 C1559,280 1559,280 1559,532 C1559,563.44 1544.41,596.09 1530.68,619.85 " fill="none" id="Content-Review" style="stroke:#181818;stroke-width:1.0;"/><polygon fill="#181818" points="1523.45,630.73,1531.5465,625.1223,1526.0499,626.4591,1524.7131,620.9625,1523.45,630.73" style="stroke:#181818;stroke-width:1.0;"/><line style="stroke:#181818;stroke-width:1.0;" x1="1526.0499" x2="1530.205" y1="626.4591" y2="619.625"/><polygon fill="none" points="1047.19,157.36,1053.1142,161.4714,1059.1879,157.5841,1053.2637,153.4728,1047.19,157.36" style="stroke:#181818;stroke-width:1.0;"/><text fill="#000000" font-family="sans-serif" font-size="13" lengthAdjust="spacing" textLength="24" x="1560" y="410.577">0..N</text></g><!--MD5=[6ebef87861e7f2e97ff89af914483be5]
link Content to Favorite--><g id="link_Content_Favorite"><path codeLine="27" d="M950.8712,160.4249 C950.8712,160.4249 847.99,178.73 806,210 C794.16,218.82 784.87,231.95 777.99,244.46 " fill="none" id="Content-Favorite" style="stroke:#181818;stroke-width:1.0;"/><polygon fill="#181818" points="771.92,255.59,779.5288,249.3365,774.1605,251.1201,772.3769,245.7517,771.92,255.59" style="stroke:#181818;stroke-width:1.0;"/><line style="stroke:#181818;stroke-width:1.0;" x1="774.1605" x2="777.74" y1="251.1201" y2="243.96"/><polygon fill="none" points="962.8,159.12,956.4006,155.7962,950.8712,160.4249,957.2706,163.7487,962.8,159.12" style="stroke:#181818;stroke-width:1.0;"/><text fill="#000000" font-family="sans-serif" font-size="13" lengthAdjust="spacing" textLength="24" x="807" y="223.077">0..N</text></g><!--MD5=[86e9ec08fa492e8baabc35a0a1f56fb0]
link Content to WatchLater--><g id="link_Content_WatchLater"><path codeLine="28" d="M950.6542,162.3724 C950.6542,162.3724 780.54,184.62 692,210 C654.92,220.63 614.96,236.82 583.11,250.96 " fill="none" id="Content-WatchLater" style="stroke:#181818;stroke-width:1.0;"/><polygon fill="#181818" points="571.44,256.66,581.2887,256.6095,575.9986,254.6059,578.0022,249.3157,571.44,256.66" style="stroke:#181818;stroke-width:1.0;"/><line style="stroke:#181818;stroke-width:1.0;" x1="575.9986" x2="583.29" y1="254.6059" y2="251.33"/><polygon fill="none" points="962.58,161.04,956.173,157.7309,950.6542,162.3724,957.0612,165.6815,962.58,161.04" style="stroke:#181818;stroke-width:1.0;"/><text fill="#000000" font-family="sans-serif" font-size="13" lengthAdjust="spacing" textLength="24" x="693" y="223.077">0..N</text></g><!--MD5=[b9ca6d59cfc86b26afa278a25c37a47a]
link Content to History--><g id="link_Content_History"><path codeLine="29" d="M950.818,162.7506 C950.818,162.7506 820.45,183.87 757,210 C733.12,219.83 708.74,234.93 689.1,248.59 " fill="none" id="Content-History" style="stroke:#181818;stroke-width:1.0;"/><polygon fill="#181818" points="678.84,256.63,688.4891,254.6563,682.9094,253.7248,683.8408,248.1452,678.84,256.63" style="stroke:#181818;stroke-width:1.0;"/><line style="stroke:#181818;stroke-width:1.0;" x1="682.9094" x2="689.415" y1="253.7248" y2="249.075"/><polygon fill="none" points="962.72,161.22,956.2588,158.018,950.818,162.7506,957.2792,165.9526,962.72,161.22" style="stroke:#181818;stroke-width:1.0;"/><text fill="#000000" font-family="sans-serif" font-size="13" lengthAdjust="spacing" textLength="24" x="758" y="223.077">0..N</text></g><!--MD5=[8a03b2db0a1f91f5793fdc749be997b8]
link Cast to Actor--><g id="link_Cast_Actor"><path codeLine="31" d="M1318.8618,689.8723 C1318.8618,689.8723 1279.12,729.29 1261.43,746.84 " fill="none" id="Cast-Actor" style="stroke:#181818;stroke-width:1.0;"/><polygon fill="#181818" points="1252.53,755.66,1261.7361,752.1602,1256.0792,752.1382,1256.1012,746.4814,1252.53,755.66" style="stroke:#181818;stroke-width:1.0;"/><line style="stroke:#181818;stroke-width:1.0;" x1="1256.0792" x2="1261.755" y1="752.1382" y2="746.51"/><polygon fill="#181818" points="1327.38,681.42,1320.3035,682.8067,1318.8618,689.8723,1325.9383,688.4855,1327.38,681.42" style="stroke:#181818;stroke-width:1.0;"/><text fill="#000000" font-family="sans-serif" font-size="13" lengthAdjust="spacing" textLength="24" x="1298" y="723.077">1..N</text></g><!--MD5=[cb3313f609cd2bf95a382227b77d204f]
link Actor to Movie--><g id="link_Actor_Movie"><path codeLine="33" d="M1183.0876,799.6093 C1183.0876,799.6093 1173.98,803.51 1170,805 C1088.18,835.66 992.14,869.06 935.6,888.45 " fill="none" id="Actor-Movie" style="stroke:#181818;stroke-width:1.0;"/><polygon fill="#181818" points="923.45,892.96,933.2597,893.8371,928.1817,891.3443,930.6746,886.2663,923.45,892.96" style="stroke:#181818;stroke-width:1.0;"/><line style="stroke:#181818;stroke-width:1.0;" x1="928.1817" x2="935.75" y1="891.3443" y2="888.745"/><polygon fill="none" points="1194.26,795.23,1187.2141,793.6955,1183.0876,799.6093,1190.1336,801.1438,1194.26,795.23" style="stroke:#181818;stroke-width:1.0;"/><text fill="#000000" font-family="sans-serif" font-size="13" lengthAdjust="spacing" textLength="24" x="1085" y="848.077">1..N</text></g><!--MD5=[6e018e73226f952721afc97e01e9f201]
link Actor to Serie--><g id="link_Actor_Serie"><path codeLine="34" d="M1229.1975,743.7216 C1229.1975,743.7216 1246.13,508.29 1295,382 C1303.77,359.33 1317.08,335.62 1328.63,316.99 " fill="none" id="Actor-Serie" style="stroke:#181818;stroke-width:1.0;"/><polygon fill="#181818" points="1336.08,306.25,1327.8771,311.701,1333.3985,310.4701,1334.6293,315.9914,1336.08,306.25" style="stroke:#181818;stroke-width:1.0;"/><line style="stroke:#181818;stroke-width:1.0;" x1="1333.3985" x2="1329.11" y1="310.4701" y2="317.23"/><polygon fill="none" points="1228.67,755.71,1232.9299,749.8916,1229.1975,743.7216,1224.9376,749.54,1228.67,755.71" style="stroke:#181818;stroke-width:1.0;"/><text fill="#000000" font-family="sans-serif" font-size="13" lengthAdjust="spacing" textLength="24" x="1259" y="535.577">1..N</text></g><!--MD5=[88b9314d330548da52e101a75a12ece2]
link Serie to Season--><g id="link_Serie_Season"><path codeLine="36" d="M1352,318.42 C1352,318.42 1352,352.46 1352,367.83 " fill="none" id="Serie-Season" style="stroke:#181818;stroke-width:1.0;"/><polygon fill="#181818" points="1352,380.66,1356,371.66,1352,375.66,1348,371.66,1352,380.66" style="stroke:#181818;stroke-width:1.0;"/><line style="stroke:#181818;stroke-width:1.0;" x1="1352" x2="1352" y1="375.66" y2="367.66"/><polygon fill="#181818" points="1352,306.42,1348,312.42,1352,318.42,1356,312.42,1352,306.42" style="stroke:#181818;stroke-width:1.0;"/><text fill="#000000" font-family="sans-serif" font-size="13" lengthAdjust="spacing" textLength="24" x="1353" y="348.077">1..N</text></g><!--MD5=[4d548d6d5149e0dc4380066bbbe7ebb9]
link Season to Episode--><g id="link_Season_Episode"><path codeLine="38" d="M1352,443.42 C1352,443.42 1352,477.46 1352,492.83 " fill="none" id="Season-Episode" style="stroke:#181818;stroke-width:1.0;"/><polygon fill="#181818" points="1352,505.66,1356,496.66,1352,500.66,1348,496.66,1352,505.66" style="stroke:#181818;stroke-width:1.0;"/><line style="stroke:#181818;stroke-width:1.0;" x1="1352" x2="1352" y1="500.66" y2="492.66"/><polygon fill="#181818" points="1352,431.42,1348,437.42,1352,443.42,1356,437.42,1352,431.42" style="stroke:#181818;stroke-width:1.0;"/><text fill="#000000" font-family="sans-serif" font-size="13" lengthAdjust="spacing" textLength="24" x="1353" y="473.077">1..N</text></g><!--MD5=[d30ed7686b745d34f77374e3d7e67bf8]
link Episode to Comment--><g id="link_Episode_Comment"><path codeLine="40" d="M1298.311,557.2105 C1298.311,557.2105 1197.88,605.76 1154.69,626.43 " fill="none" id="Episode-Comment" style="stroke:#181818;stroke-width:1.0;"/><polygon fill="#181818" points="1143.08,632.47,1152.9249,632.192,1147.5899,630.3112,1149.4708,624.9762,1143.08,632.47" style="stroke:#181818;stroke-width:1.0;"/><line style="stroke:#181818;stroke-width:1.0;" x1="1147.5899" x2="1154.805" y1="630.3112" y2="626.855"/><polygon fill="none" points="1309.14,552.04,1302.002,551.0156,1298.311,557.2105,1305.449,558.2349,1309.14,552.04" style="stroke:#181818;stroke-width:1.0;"/><text fill="#000000" font-family="sans-serif" font-size="13" lengthAdjust="spacing" textLength="24" x="1239" y="598.077">0..N</text></g><!--MD5=[65cda50f19ae9a906f9337e8b102dc0a]
link Episode to Review--><g id="link_Episode_Review"><path codeLine="41" d="M1391.9187,562.8809 C1391.9187,562.8809 1443.98,604.99 1466.86,623.15 " fill="none" id="Episode-Review" style="stroke:#181818;stroke-width:1.0;"/><polygon fill="#181818" points="1476.59,631.66,1472.028,622.9314,1472.6739,628.5513,1467.054,629.1972,1476.59,631.66" style="stroke:#181818;stroke-width:1.0;"/><line style="stroke:#181818;stroke-width:1.0;" x1="1472.6739" x2="1466.41" y1="628.5513" y2="623.585"/><polygon fill="none" points="1382.52,555.42,1384.7324,562.2833,1391.9187,562.8809,1389.7063,556.0176,1382.52,555.42" style="stroke:#181818;stroke-width:1.0;"/><text fill="#000000" font-family="sans-serif" font-size="13" lengthAdjust="spacing" textLength="24" x="1439" y="598.077">0..N</text></g><!--MD5=[24c7bd950fecb3a5d25aab16c3c745f0]
link Episode to Cast--><g id="link_Episode_Cast"><path codeLine="42" d="M1349.7302,568.4518 C1349.7302,568.4518 1349.15,579.86 1349,585 C1348.7,595.7 1348.96,607.32 1349.43,617.95 " fill="none" id="Episode-Cast" style="stroke:#181818;stroke-width:1.0;"/><polygon fill="#181818" points="1350.17,630.67,1353.6792,621.4675,1349.9006,625.6773,1345.6908,621.8986,1350.17,630.67" style="stroke:#181818;stroke-width:1.0;"/><line style="stroke:#181818;stroke-width:1.0;" x1="1349.9006" x2="1349.47" y1="625.6773" y2="617.695"/><polygon fill="none" points="1350.39,556.47,1346.0662,562.241,1349.7302,568.4518,1354.0541,562.6809,1350.39,556.47" style="stroke:#181818;stroke-width:1.0;"/><text fill="#000000" font-family="sans-serif" font-size="13" lengthAdjust="spacing" textLength="22" x="1350" y="598.077">1..1</text></g><!--MD5=[bc88e45fd2ebc467efe219166ddfa0f5]
link Comment to Reply--><g id="link_Comment_Reply"><path codeLine="44" d="M1057.89,688.2772 C1057.89,688.2772 1011.06,729.71 990.29,747.7 " fill="none" id="Comment-Reply" style="stroke:#181818;stroke-width:1.0;"/><polygon fill="#181818" points="980.94,756.66,990.3616,753.7905,984.7192,753.3862,985.1235,747.7438,980.94,756.66" style="stroke:#181818;stroke-width:1.0;"/><line style="stroke:#181818;stroke-width:1.0;" x1="984.7192" x2="990.77" y1="753.3862" y2="748.15"/><polygon fill="none" points="1066.96,680.42,1059.8059,681.3252,1057.89,688.2772,1065.044,687.3719,1066.96,680.42" style="stroke:#181818;stroke-width:1.0;"/><text fill="#000000" font-family="sans-serif" font-size="13" lengthAdjust="spacing" textLength="24" x="1033" y="723.077">0..N</text></g><!--MD5=[0f1ccbd2ea78d901228f8b81fd47c388]
link Comment to LikeOrDislike--><g id="link_Comment_LikeOrDislike"><path codeLine="45" d="M1095,693.42 C1095,693.42 1095,727.46 1095,742.83 " fill="none" id="Comment-LikeOrDislike" style="stroke:#181818;stroke-width:1.0;"/><polygon fill="#181818" points="1095,755.66,1099,746.66,1095,750.66,1091,746.66,1095,755.66" style="stroke:#181818;stroke-width:1.0;"/><line style="stroke:#181818;stroke-width:1.0;" x1="1095" x2="1095" y1="750.66" y2="742.66"/><polygon fill="none" points="1095,681.42,1091,687.42,1095,693.42,1099,687.42,1095,681.42" style="stroke:#181818;stroke-width:1.0;"/><text fill="#000000" font-family="sans-serif" font-size="13" lengthAdjust="spacing" textLength="24" x="1096" y="723.077">0..N</text></g><!--MD5=[2e2e530a658308b38e0151c4d25adf6b]
link User to Notification--><g id="link_User_Notification"><path codeLine="47" d="M466.24,180.5 C451.66,210.74 432.24,264.22 452,305 C499.29,402.59 611.71,470.62 680.38,504.75 " fill="none" id="User-to-Notification" style="stroke:#181818;stroke-width:1.0;stroke-dasharray:7.0,7.0;"/><polygon fill="#181818" points="684.65,507.35,678.3503,499.7795,680.1665,505.1368,674.8091,506.9531,684.65,507.35" style="stroke:#181818;stroke-width:1.0;"/><text fill="#000000" font-family="sans-serif" font-size="13" lengthAdjust="spacing" textLength="24" x="481" y="348.077">0..N</text></g><!--MD5=[7c2617532a94409584d52ee7a062d051]
link User to Favorite--><g id="link_User_Favorite"><path codeLine="48" d="M510.42,174.97 C542.09,192.91 588.93,218.94 608,227 C649.17,244.41 661.82,242.21 704,257 C707.62,258.27 711.36,259.62 715.1,261.01 " fill="none" id="User-to-Favorite" style="stroke:#181818;stroke-width:1.0;stroke-dasharray:7.0,7.0;"/><polygon fill="#181818" points="719.59,263.07,712.5675,256.1646,714.9084,261.3144,709.7585,263.6552,719.59,263.07" style="stroke:#181818;stroke-width:1.0;"/><text fill="#000000" font-family="sans-serif" font-size="13" lengthAdjust="spacing" textLength="24" x="609" y="223.077">0..N</text></g><!--MD5=[4512a29f40636d0344f810dc54509c85]
link User to WatchLater--><g id="link_User_WatchLater"><path codeLine="49" d="M473.51,180.41 C471.33,194.37 470.47,212.19 476,227 C479.45,236.25 485.33,244.95 491.74,252.52 " fill="none" id="User-to-WatchLater" style="stroke:#181818;stroke-width:1.0;stroke-dasharray:7.0,7.0;"/><polygon fill="#181818" points="494.35,255.61,491.3782,246.2202,491.0353,251.8667,485.3888,251.5238,494.35,255.61" style="stroke:#181818;stroke-width:1.0;"/><text fill="#000000" font-family="sans-serif" font-size="13" lengthAdjust="spacing" textLength="24" x="477" y="223.077">0..N</text></g><!--MD5=[9aecce486f7bede5d8dc488e17d94ab5]
link User to History--><g id="link_User_History"><path codeLine="50" d="M496.41,180.5 C508.13,195.17 524.57,213.73 542,227 C560.93,241.42 584.4,253.63 604.43,262.68 " fill="none" id="User-to-History" style="stroke:#181818;stroke-width:1.0;stroke-dasharray:7.0,7.0;"/><polygon fill="#181818" points="608.71,265.03,602.1251,257.7061,604.1451,262.99,598.8612,265.01,608.71,265.03" style="stroke:#181818;stroke-width:1.0;"/><text fill="#000000" font-family="sans-serif" font-size="13" lengthAdjust="spacing" textLength="24" x="543" y="223.077">0..N</text></g><!--MD5=[3e83e3e13dfbf3b9f2e149c21beb940f]
link Notification to Comment--><g id="link_Notification_Comment"><path codeLine="52" d="M800.6381,553.5213 C800.6381,553.5213 969.6,611.92 1034.3,634.15 " fill="none" id="Notification-Comment" style="stroke:#181818;stroke-width:1.0;"/><polygon fill="#181818" points="1046.52,638.69,1039.3118,631.9787,1041.7922,637.0628,1036.7082,639.5432,1046.52,638.69" style="stroke:#181818;stroke-width:1.0;"/><line style="stroke:#181818;stroke-width:1.0;" x1="1041.7922" x2="1034.22" y1="637.0628" y2="634.46"/><polygon fill="none" points="789.29,549.62,793.6636,555.3534,800.6381,553.5213,796.2645,547.788,789.29,549.62" style="stroke:#181818;stroke-width:1.0;"/><text fill="#000000" font-family="sans-serif" font-size="13" lengthAdjust="spacing" textLength="22" x="939" y="598.077">0..1</text></g><!--MD5=[fd34a1dae9a123b94c395165af4e767e]
link Notification to Reply--><g id="link_Notification_Reply"><path codeLine="53" d="M765.1977,565.3821 C765.1977,565.3821 882.32,698.85 923.57,746.21 " fill="none" id="Notification-Reply" style="stroke:#181818;stroke-width:1.0;"/><polygon fill="#181818" points="932.58,755.55,929.6813,746.1374,929.2945,751.781,923.6509,751.3942,932.58,755.55" style="stroke:#181818;stroke-width:1.0;"/><line style="stroke:#181818;stroke-width:1.0;" x1="929.2945" x2="924.04" y1="751.781" y2="745.75"/><polygon fill="none" points="757.32,556.33,758.2415,563.482,765.1977,565.3821,764.2762,558.2302,757.32,556.33" style="stroke:#181818;stroke-width:1.0;"/><text fill="#000000" font-family="sans-serif" font-size="13" lengthAdjust="spacing" textLength="22" x="864" y="660.577">0..1</text></g><!--MD5=[a63509d13c893b812b134e3cd66d3210]
@startuml domain-model

!define ZERO_TO_ONE 0..1
!define ZERO_TO_MANY 0..N
!define ONE_TO_ONE 1..1
!define ONE_TO_MANY 1..N

' !define createComposition(all, part, cardinality) all *- -> part: cardinality
' createComposition(User, ManagementProfile, ONE_TO_MANY)

Flixxic *- -> User: ONE_TO_MANY
Flixxic *- -> Content: ONE_TO_MANY

User <|- - NormalUser: ONE_TO_MANY
User <|- - AdminUser: ONE_TO_MANY

NormalUser - -> ManagementProfile
AdminUser - -> ManagementContent

Content <|- - Movie: ONE_TO_MANY
Content <|- - Serie: ONE_TO_MANY
Content *- -> Cast: ONE_TO_ONE
Content o- -> Comment: ZERO_TO_MANY
Content *- -> Trailer: ONE_TO_ONE
Content *- -> Storyline: ONE_TO_ONE
Content *- -> Genre: ONE_TO_MANY
Content o- -> Review: ZERO_TO_MANY
Content o- -> Favorite: ZERO_TO_MANY
Content o- -> WatchLater: ZERO_TO_MANY
Content o- -> History: ZERO_TO_MANY

Cast *- -> Actor: ONE_TO_MANY

Actor o- -> Movie: ONE_TO_MANY
Actor o- -> Serie: ONE_TO_MANY

Serie *- -> Season: ONE_TO_MANY

Season *- -> Episode: ONE_TO_MANY

Episode o- -> Comment: ZERO_TO_MANY
Episode o- -> Review: ZERO_TO_MANY
Episode o- -> Cast: ONE_TO_ONE

Comment o- -> Reply: ZERO_TO_MANY
Comment o- -> LikeOrDislike: ZERO_TO_MANY

User ..> Notification: ZERO_TO_MANY
User ..> Favorite: ZERO_TO_MANY
User ..> WatchLater: ZERO_TO_MANY
User ..> History: ZERO_TO_MANY

Notification o- -> Comment: ZERO_TO_ONE
Notification o- -> Reply: ZERO_TO_ONE


@enduml

@startuml domain-model



Flixxic *- -> User: 1..N
Flixxic *- -> Content: 1..N

User <|- - NormalUser: 1..N
User <|- - AdminUser: 1..N

NormalUser - -> ManagementProfile
AdminUser - -> ManagementContent

Content <|- - Movie: 1..N
Content <|- - Serie: 1..N
Content *- -> Cast: 1..1
Content o- -> Comment: 0..N
Content *- -> Trailer: 1..1
Content *- -> Storyline: 1..1
Content *- -> Genre: 1..N
Content o- -> Review: 0..N
Content o- -> Favorite: 0..N
Content o- -> WatchLater: 0..N
Content o- -> History: 0..N

Cast *- -> Actor: 1..N

Actor o- -> Movie: 1..N
Actor o- -> Serie: 1..N

Serie *- -> Season: 1..N

Season *- -> Episode: 1..N

Episode o- -> Comment: 0..N
Episode o- -> Review: 0..N
Episode o- -> Cast: 1..1

Comment o- -> Reply: 0..N
Comment o- -> LikeOrDislike: 0..N

User ..> Notification: 0..N
User ..> Favorite: 0..N
User ..> WatchLater: 0..N
User ..> History: 0..N

Notification o- -> Comment: 0..1
Notification o- -> Reply: 0..1


@enduml

PlantUML version 1.2022.7(Mon Aug 22 12:01:30 ECT 2022)
(GPL source distribution)
Java Runtime: OpenJDK Runtime Environment
JVM: OpenJDK 64-Bit Server VM
Default Encoding: UTF-8
Language: en
Country: null
--></g></svg>