<?xml version="1.0" encoding="UTF-8" standalone="no"?><svg xmlns="http://www.w3.org/2000/svg" xmlns:xlink="http://www.w3.org/1999/xlink" contentStyleType="text/css" height="513px" preserveAspectRatio="none" style="width:269px;height:513px;background:#FFFFFF;" version="1.1" viewBox="0 0 269 513" width="269px" zoomAndPan="magnify"><defs/><g><!--MD5=[46e38b22ff7587cd32936eb8d39a4dde]
cluster Comments--><g id="cluster_Comments"><rect fill="none" height="500" rx="2.5" ry="2.5" style="stroke:#181818;stroke-width:1.0;" width="183.65" x="80" y="7"/><text fill="#000000" font-family="sans-serif" font-size="14" font-weight="bold" lengthAdjust="spacing" textLength="73" x="135.325" y="22.0059">Comments</text></g><g id="elem_View comments"><ellipse cx="171.8275" cy="58.9955" fill="#F1F1F1" rx="74.3275" ry="17.2655" style="stroke:#181818;stroke-width:0.5;"/><text fill="#000000" font-family="sans-serif" font-size="14" lengthAdjust="spacing" textLength="100" x="118.8275" y="62.7485">View comments</text></g><g id="elem_Add comment"><ellipse cx="171.8296" cy="127.9979" fill="#F1F1F1" rx="69.9896" ry="16.3979" style="stroke:#181818;stroke-width:0.5;"/><text fill="#000000" font-family="sans-serif" font-size="14" lengthAdjust="spacing" textLength="88" x="124.8296" y="131.7509">Add comment</text></g><g id="elem_Edit comment"><ellipse cx="171.8298" cy="195.998" fill="#F1F1F1" rx="69.6398" ry="16.328" style="stroke:#181818;stroke-width:0.5;"/><text fill="#000000" font-family="sans-serif" font-size="14" lengthAdjust="spacing" textLength="87" x="125.3298" y="199.7509">Edit comment</text></g><g id="elem_Delete comment"><ellipse cx="171.8259" cy="264.9952" fill="#F1F1F1" rx="75.8259" ry="17.5652" style="stroke:#181818;stroke-width:0.5;"/><text fill="#000000" font-family="sans-serif" font-size="14" lengthAdjust="spacing" textLength="104" x="116.8259" y="268.7481">Delete comment</text></g><g id="elem_Reply comment"><ellipse cx="171.8267" cy="335.0013" fill="#F1F1F1" rx="73.9567" ry="17.1913" style="stroke:#181818;stroke-width:0.5;"/><text fill="#000000" font-family="sans-serif" font-size="14" lengthAdjust="spacing" textLength="99" x="119.3267" y="338.7543">Reply comment</text></g><g id="elem_Like comment"><ellipse cx="171.8314" cy="403.9983" fill="#F1F1F1" rx="70.3414" ry="16.4683" style="stroke:#181818;stroke-width:0.5;"/><text fill="#000000" font-family="sans-serif" font-size="14" lengthAdjust="spacing" textLength="89" x="124.3314" y="407.7512">Like comment</text></g><g id="elem_Dislike comment"><ellipse cx="171.8259" cy="472.9952" fill="#F1F1F1" rx="75.8259" ry="17.5652" style="stroke:#181818;stroke-width:0.5;"/><text fill="#000000" font-family="sans-serif" font-size="14" lengthAdjust="spacing" textLength="104" x="116.8259" y="476.7481">Dislike comment</text></g><!--MD5=[fee662a292a0353a69bd162820bae93b]
entity User--><g id="elem_User"><ellipse cx="21" cy="235.1" fill="#F1F1F1" rx="8" ry="8" style="stroke:#181818;stroke-width:0.5;"/><path d="M21,243.1 L21,270.1 M8,251.1 L34,251.1 M21,270.1 L8,285.1 M21,270.1 L34,285.1 " fill="none" style="stroke:#181818;stroke-width:0.5;"/><text fill="#000000" font-family="sans-serif" font-size="14" lengthAdjust="spacing" textLength="30" x="6" y="299.6059">User</text></g><!--MD5=[b360d446c2c7a2c796008bb96ebd4231]
link User to View comments--><g id="link_User_View comments"><path d="M23.44,226.42 C26.9,188.13 37.89,130.07 72,94 C82.82,82.56 97.61,74.86 112.45,69.67 " fill="none" id="User-View comments" style="stroke:#181818;stroke-width:1.0;"/></g><!--MD5=[179f02c9783727fd9f8f9e4ddd1c3f9d]
link User to Add comment--><g id="link_User_Add comment"><path d="M32.72,226.16 C40.46,204.62 52.96,178.87 72,162 C84.49,150.93 100.77,143.42 116.5,138.35 " fill="none" id="User-Add comment" style="stroke:#181818;stroke-width:1.0;"/></g><!--MD5=[1666731f9bb5b5e2795f528938805ac2]
link User to Edit comment--><g id="link_User_Edit comment"><path d="M36.19,253.45 C45.85,246.01 59.16,236.54 72,230 C88.98,221.35 108.65,214.08 125.96,208.51 " fill="none" id="User-Edit comment" style="stroke:#181818;stroke-width:1.0;"/></g><!--MD5=[37bcc1dd74280f69f2f9b2cb634d2e95]
link User to Delete comment--><g id="link_User_Delete comment"><path d="M36.27,265 C50.31,265 72.89,265 95.57,265 " fill="none" id="User-Delete comment" style="stroke:#181818;stroke-width:1.0;"/></g><!--MD5=[f2d02a4d774c5e388b3c170b58a7e6aa]
link User to Reply comment--><g id="link_User_Reply comment"><path d="M36.21,276.51 C45.88,283.94 59.19,293.4 72,300 C88.51,308.5 107.55,315.78 124.48,321.47 " fill="none" id="User-Reply comment" style="stroke:#181818;stroke-width:1.0;"/></g><!--MD5=[efa3e622e33533844858ea6feaaf2a50]
link User to Like comment--><g id="link_User_Like comment"><path d="M32.27,303.82 C39.93,325.92 52.5,352.59 72,370 C84.38,381.06 100.54,388.55 116.19,393.62 " fill="none" id="User-Like comment" style="stroke:#181818;stroke-width:1.0;"/></g><!--MD5=[39f4a89bc62105e8f9c03ba14eb4b10a]
link User to Dislike comment--><g id="link_User_Dislike comment"><path d="M23.28,303.66 C26.6,342.39 37.47,401.37 72,438 C82.55,449.19 96.9,456.81 111.4,461.99 " fill="none" id="User-Dislike comment" style="stroke:#181818;stroke-width:1.0;"/></g><!--MD5=[114b88c2438da27f1b34f058330ebd88]
@startuml comments
left to right direction
actor User
    rectangle "Comments" {
        User - - (View comments)    
        User - - (Add comment)   
        User - - (Edit comment)
        User - - (Delete comment)
        User - - (Reply comment)
        User - - (Like comment)
        User - - (Dislike comment)         
    }
@enduml

PlantUML version 1.2022.7(Mon Aug 22 12:01:30 ECT 2022)
(GPL source distribution)
Java Runtime: OpenJDK Runtime Environment
JVM: OpenJDK 64-Bit Server VM
Default Encoding: UTF-8
Language: en
Country: null
--></g></svg>