<?xml version="1.0" encoding="us-ascii" standalone="no"?><svg xmlns="http://www.w3.org/2000/svg" xmlns:xlink="http://www.w3.org/1999/xlink" contentStyleType="text/css" height="305px" preserveAspectRatio="none" style="width:279px;height:305px;background:#FFFFFF;" version="1.1" viewBox="0 0 279 305" width="279px" zoomAndPan="magnify"><defs/><g><!--cluster Favorites--><g id="cluster_Favorites"><rect fill="none" height="292" rx="2.5" ry="2.5" style="stroke:#181818;stroke-width:1.0;" width="193.7" x="80" y="7"/><text fill="#000000" font-family="sans-serif" font-size="14" font-weight="bold" lengthAdjust="spacing" textLength="64" x="144.85" y="22.0059">Favorites</text></g><g id="elem_View favorites"><ellipse cx="176.8496" cy="57.9979" fill="#F1F1F1" rx="69.9896" ry="16.3979" style="stroke:#181818;stroke-width:0.5;"/><text fill="#000000" font-family="sans-serif" font-size="14" lengthAdjust="spacing" textLength="88" x="129.8496" y="61.7509">View favorites</text></g><g id="elem_Add to favorite"><ellipse cx="176.8477" cy="126.0015" fill="#F1F1F1" rx="71.4077" ry="16.6815" style="stroke:#181818;stroke-width:0.5;"/><text fill="#000000" font-family="sans-serif" font-size="14" lengthAdjust="spacing" textLength="92" x="127.8477" y="129.7545">Add to favorite</text></g><g id="elem_Delete favorite"><ellipse cx="176.8477" cy="194.0015" fill="#F1F1F1" rx="71.4077" ry="16.6815" style="stroke:#181818;stroke-width:0.5;"/><text fill="#000000" font-family="sans-serif" font-size="14" lengthAdjust="spacing" textLength="92" x="127.8477" y="197.7545">Delete favorite</text></g><g id="elem_Delete all favorites"><ellipse cx="176.8515" cy="264.0003" fill="#F1F1F1" rx="80.8515" ry="18.5703" style="stroke:#181818;stroke-width:0.5;"/><text fill="#000000" font-family="sans-serif" font-size="14" lengthAdjust="spacing" textLength="117" x="115.3515" y="267.7533">Delete all favorites</text></g><!--entity User--><g id="elem_User"><ellipse cx="21" cy="130.1" fill="#F1F1F1" rx="8" ry="8" style="stroke:#181818;stroke-width:0.5;"/><path d="M21,138.1 L21,165.1 M8,146.1 L34,146.1 M21,165.1 L8,180.1 M21,165.1 L34,180.1 " fill="none" style="stroke:#181818;stroke-width:0.5;"/><text fill="#000000" font-family="sans-serif" font-size="14" lengthAdjust="spacing" textLength="30" x="6" y="194.6059">User</text></g><!--link User to View favorites--><g id="link_User_View favorites"><path d="M36.43,132.91 C45.09,118.94 57.28,102.65 72,92 C86.83,81.26 105.24,73.79 122.41,68.65 " fill="none" id="User-View favorites" style="stroke:#181818;stroke-width:1.0;"/></g><!--link User to Add to favorite--><g id="link_User_Add to favorite"><path d="M36.47,156.8 C56.3,152.42 92.94,144.32 123.68,137.53 " fill="none" id="User-Add to favorite" style="stroke:#181818;stroke-width:1.0;"/></g><!--link User to Delete favorite--><g id="link_User_Delete favorite"><path d="M36.47,163.2 C56.3,167.58 92.94,175.68 123.68,182.47 " fill="none" id="User-Delete favorite" style="stroke:#181818;stroke-width:1.0;"/></g><!--link User to Delete all favorites--><g id="link_User_Delete all favorites"><path d="M36.3,186.66 C44.99,200.66 57.26,217.13 72,228 C85.67,238.08 102.39,245.5 118.38,250.89 " fill="none" id="User-Delete all favorites" style="stroke:#181818;stroke-width:1.0;"/></g><!--SRC=[oqbDAr4eoLSeoapFA558oInAJIx9pC_ZIamkoIzI22rEBU9I00AGS69UUawgWf9RObb-KMP9Qh6IGZLO3WH02XLqTHKqmZ9JonNIO4eqGNAOYXnJKa1smfHfOgfmISr9BKabGaLYJWwQTN0hQm40]--></g></svg>