<?xml version="1.0" encoding="us-ascii" standalone="no"?><svg xmlns="http://www.w3.org/2000/svg" xmlns:xlink="http://www.w3.org/1999/xlink" contentStyleType="text/css" height="302px" preserveAspectRatio="none" style="width:270px;height:302px;background:#FFFFFF;" version="1.1" viewBox="0 0 270 302" width="270px" zoomAndPan="magnify"><defs/><g><!--cluster History--><g id="cluster_History"><rect fill="none" height="289" rx="2.5" ry="2.5" style="stroke:#181818;stroke-width:1.0;" width="184.41" x="80" y="7"/><text fill="#000000" font-family="sans-serif" font-size="14" font-weight="bold" lengthAdjust="spacing" textLength="49" x="147.705" y="22.0059">History</text></g><g id="elem_View history"><ellipse cx="172.1954" cy="57.9951" fill="#F1F1F1" rx="65.9254" ry="15.5851" style="stroke:#181818;stroke-width:0.5;"/><text fill="#000000" font-family="sans-serif" font-size="14" lengthAdjust="spacing" textLength="76" x="131.1954" y="61.7481">View history</text></g><g id="elem_Search history"><ellipse cx="172.2004" cy="125.0001" fill="#F1F1F1" rx="71.0504" ry="16.6101" style="stroke:#181818;stroke-width:0.5;"/><text fill="#000000" font-family="sans-serif" font-size="14" lengthAdjust="spacing" textLength="91" x="123.7004" y="128.7531">Search history</text></g><g id="elem_Delete history"><ellipse cx="172.1998" cy="192.998" fill="#F1F1F1" rx="69.6398" ry="16.328" style="stroke:#181818;stroke-width:0.5;"/><text fill="#000000" font-family="sans-serif" font-size="14" lengthAdjust="spacing" textLength="87" x="125.6998" y="196.7509">Delete history</text></g><g id="elem_Delete all history"><ellipse cx="172.2042" cy="262.0008" fill="#F1F1F1" rx="76.2042" ry="17.6408" style="stroke:#181818;stroke-width:0.5;"/><text fill="#000000" font-family="sans-serif" font-size="14" lengthAdjust="spacing" textLength="105" x="116.7042" y="265.7538">Delete all history</text></g><!--entity User--><g id="elem_User"><ellipse cx="21" cy="129.1" fill="#F1F1F1" rx="8" ry="8" style="stroke:#181818;stroke-width:0.5;"/><path d="M21,137.1 L21,164.1 M8,145.1 L34,145.1 M21,164.1 L8,179.1 M21,164.1 L34,179.1 " fill="none" style="stroke:#181818;stroke-width:0.5;"/><text fill="#000000" font-family="sans-serif" font-size="14" lengthAdjust="spacing" textLength="30" x="6" y="193.6059">User</text></g><!--link User to View history--><g id="link_User_View history"><path d="M36.45,131.93 C45.12,117.98 57.31,101.69 72,91 C86.46,80.48 104.48,73.17 121.18,68.16 " fill="none" id="User-View history" style="stroke:#181818;stroke-width:1.0;"/></g><!--link User to Search history--><g id="link_User_Search history"><path d="M36.31,155.74 C55.49,151.37 90.56,143.38 120.13,136.64 " fill="none" id="User-Search history" style="stroke:#181818;stroke-width:1.0;"/></g><!--link User to Delete history--><g id="link_User_Delete history"><path d="M36.31,162.26 C55.71,166.68 91.36,174.81 121.14,181.59 " fill="none" id="User-Delete history" style="stroke:#181818;stroke-width:1.0;"/></g><!--link User to Delete all history--><g id="link_User_Delete all history"><path d="M36.32,185.63 C45.02,199.62 57.29,216.09 72,227 C85.35,236.9 101.75,244.18 117.33,249.46 " fill="none" id="User-Delete all history" style="stroke:#181818;stroke-width:1.0;"/></g><!--SRC=[oqbDAr4eoLSeoapFA558oInAJIx9pC_ZIamkoIzI22rEBU9I00AGS69UUawgWf97PZ5Ggb99eHei0m8WPGgwkWeQOPcfvGeP40MQ81bC9S6fYKN96N15c0fSKdDIIr89AqZCoK6n2cvTBG00]--></g></svg>