<?xml version="1.0" encoding="us-ascii" standalone="no"?><svg xmlns="http://www.w3.org/2000/svg" xmlns:xlink="http://www.w3.org/1999/xlink" contentStyleType="text/css" height="295px" preserveAspectRatio="none" style="width:256px;height:295px;background:#FFFFFF;" version="1.1" viewBox="0 0 256 295" width="256px" zoomAndPan="magnify"><defs/><g><!--cluster Reviews--><g id="cluster_Reviews"><rect fill="none" height="282" rx="2.5" ry="2.5" style="stroke:#181818;stroke-width:1.0;" width="170.58" x="80" y="7"/><text fill="#000000" font-family="sans-serif" font-size="14" font-weight="bold" lengthAdjust="spacing" textLength="57" x="136.79" y="22.0059">Reviews</text></g><g id="elem_View reviews"><ellipse cx="165.29" cy="58.004" fill="#F1F1F1" rx="67.92" ry="15.984" style="stroke:#181818;stroke-width:0.5;"/><text fill="#000000" font-family="sans-serif" font-size="14" lengthAdjust="spacing" textLength="82" x="121.29" y="61.757">View reviews</text></g><g id="elem_Add review"><ellipse cx="165.2883" cy="123.9989" fill="#F1F1F1" rx="63.1283" ry="15.3189" style="stroke:#181818;stroke-width:0.5;"/><text fill="#000000" font-family="sans-serif" font-size="14" lengthAdjust="spacing" textLength="70" x="127.2883" y="127.7519">Add review</text></g><g id="elem_Edit review"><ellipse cx="165.2919" cy="190.0041" fill="#F1F1F1" rx="62.3719" ry="15.3141" style="stroke:#181818;stroke-width:0.5;"/><text fill="#000000" font-family="sans-serif" font-size="14" lengthAdjust="spacing" textLength="69" x="127.7919" y="193.7571">Edit review</text></g><g id="elem_Delete review"><ellipse cx="165.2918" cy="256.9984" fill="#F1F1F1" rx="69.2918" ry="16.2584" style="stroke:#181818;stroke-width:0.5;"/><text fill="#000000" font-family="sans-serif" font-size="14" lengthAdjust="spacing" textLength="86" x="119.2918" y="260.7513">Delete review</text></g><!--entity User--><g id="elem_User"><ellipse cx="21" cy="127.1" fill="#F1F1F1" rx="8" ry="8" style="stroke:#181818;stroke-width:0.5;"/><path d="M21,135.1 L21,162.1 M8,143.1 L34,143.1 M21,162.1 L8,177.1 M21,162.1 L34,177.1 " fill="none" style="stroke:#181818;stroke-width:0.5;"/><text fill="#000000" font-family="sans-serif" font-size="14" lengthAdjust="spacing" textLength="30" x="6" y="191.6059">User</text></g><!--link User to View reviews--><g id="link_User_View reviews"><path d="M36.5,131.19 C45.25,117.61 57.51,101.63 72,91 C85.03,81.44 101.1,74.43 116.16,69.39 " fill="none" id="User-View reviews" style="stroke:#181818;stroke-width:1.0;"/></g><!--link User to Add review--><g id="link_User_Add review"><path d="M36.43,153.65 C55.5,149.23 90.02,141.23 118.38,134.65 " fill="none" id="User-Add review" style="stroke:#181818;stroke-width:1.0;"/></g><!--link User to Edit review--><g id="link_User_Edit review"><path d="M36.43,160.35 C55.57,164.79 90.27,172.83 118.7,179.43 " fill="none" id="User-Edit review" style="stroke:#181818;stroke-width:1.0;"/></g><!--link User to Delete review--><g id="link_User_Delete review"><path d="M36.33,182.43 C45.11,196.06 57.45,212.22 72,223 C85.17,232.76 101.44,239.98 116.64,245.19 " fill="none" id="User-Delete review" style="stroke:#181818;stroke-width:1.0;"/></g><!--SRC=[oqbDAr4eoLSeoapFA558oInAJIx9pC_ZIamkoIzI22rEBU9I00AGS69UUawgWb9GQbbcQdcnaa8rM0O4GCeKT7KLDCA0Ca2rO0MQ81bC9OufAL0LE1IufcIMm5HWohgavgIMf2AR03Ub5W00]--></g></svg>