<?xml version="1.0" encoding="us-ascii" standalone="no"?><svg xmlns="http://www.w3.org/2000/svg" xmlns:xlink="http://www.w3.org/1999/xlink" contentStyleType="text/css" height="664px" preserveAspectRatio="none" style="width:300px;height:664px;background:#FFFFFF;" version="1.1" viewBox="0 0 300 664" width="300px" zoomAndPan="magnify"><defs/><g><!--cluster View--><g id="cluster_View"><rect fill="none" height="93" rx="2.5" ry="2.5" style="stroke:#181818;stroke-width:1.0;" width="214.12" x="80" y="7"/><text fill="#000000" font-family="sans-serif" font-size="14" font-weight="bold" lengthAdjust="spacing" textLength="32" x="171.06" y="22.0059">View</text></g><!--cluster Search--><g id="cluster_Search"><rect fill="none" height="85" rx="2.5" ry="2.5" style="stroke:#181818;stroke-width:1.0;" width="177.7" x="98.21" y="124"/><text fill="#000000" font-family="sans-serif" font-size="14" font-weight="bold" lengthAdjust="spacing" textLength="47" x="163.56" y="139.0059">Search</text></g><!--cluster Filter--><g id="cluster_Filter"><rect fill="none" height="425" rx="2.5" ry="2.5" style="stroke:#181818;stroke-width:1.0;" width="204.98" x="84.57" y="233"/><text fill="#000000" font-family="sans-serif" font-size="14" font-weight="bold" lengthAdjust="spacing" textLength="35" x="169.56" y="248.0059">Filter</text></g><g id="elem_View details of content"><ellipse cx="187.0603" cy="63.0021" fill="#F1F1F1" rx="91.0603" ry="20.6121" style="stroke:#181818;stroke-width:0.5;"/><text fill="#000000" font-family="sans-serif" font-size="14" lengthAdjust="spacing" textLength="142" x="113.0603" y="66.755">View details of content</text></g><g id="elem_Search content"><ellipse cx="187.0642" cy="176.0008" fill="#F1F1F1" rx="72.8542" ry="16.9708" style="stroke:#181818;stroke-width:0.5;"/><text fill="#000000" font-family="sans-serif" font-size="14" lengthAdjust="spacing" textLength="96" x="136.0642" y="179.7538">Search content</text></g><g id="elem_Filter content"><ellipse cx="187.0599" cy="284.002" fill="#F1F1F1" rx="68.2599" ry="16.052" style="stroke:#181818;stroke-width:0.5;"/><text fill="#000000" font-family="sans-serif" font-size="14" lengthAdjust="spacing" textLength="83" x="142.5599" y="287.755">Filter content</text></g><g id="elem_View all"><ellipse cx="187.0621" cy="349.9977" fill="#F1F1F1" rx="46.4921" ry="15.1777" style="stroke:#181818;stroke-width:0.5;"/><text fill="#000000" font-family="sans-serif" font-size="14" lengthAdjust="spacing" textLength="48" x="160.0621" y="353.7507">View all</text></g><g id="elem_View by genre"><ellipse cx="187.065" cy="416.999" fill="#F1F1F1" rx="70.695" ry="16.539" style="stroke:#181818;stroke-width:0.5;"/><text fill="#000000" font-family="sans-serif" font-size="14" lengthAdjust="spacing" textLength="90" x="139.065" y="420.752">View by genre</text></g><g id="elem_View by year"><ellipse cx="187.0622" cy="483.9964" fill="#F1F1F1" rx="67.5822" ry="15.9164" style="stroke:#181818;stroke-width:0.5;"/><text fill="#000000" font-family="sans-serif" font-size="14" lengthAdjust="spacing" textLength="81" x="143.5622" y="487.7494">View by year</text></g><g id="elem_View by rating"><ellipse cx="187.0614" cy="550.9983" fill="#F1F1F1" rx="70.3414" ry="16.4683" style="stroke:#181818;stroke-width:0.5;"/><text fill="#000000" font-family="sans-serif" font-size="14" lengthAdjust="spacing" textLength="89" x="139.5614" y="554.7512">View by rating</text></g><g id="elem_View by content type"><ellipse cx="187.0617" cy="621.9983" fill="#F1F1F1" rx="86.4917" ry="19.6983" style="stroke:#181818;stroke-width:0.5;"/><text fill="#000000" font-family="sans-serif" font-size="14" lengthAdjust="spacing" textLength="131" x="118.5617" y="625.7513">View by content type</text></g><!--entity User--><g id="elem_User"><ellipse cx="21" cy="354.1" fill="#F1F1F1" rx="8" ry="8" style="stroke:#181818;stroke-width:0.5;"/><path d="M21,362.1 L21,389.1 M8,370.1 L34,370.1 M21,389.1 L8,404.1 M21,389.1 L34,404.1 " fill="none" style="stroke:#181818;stroke-width:0.5;"/><text fill="#000000" font-family="sans-serif" font-size="14" lengthAdjust="spacing" textLength="30" x="6" y="418.6059">User</text></g><!--link User to View details of content--><g id="link_User_View details of content"><path d="M21.52,345.22 C22.68,294.64 31.02,205.3 72,143 C89.81,115.92 120.23,95.27 145.17,81.74 " fill="none" id="User-View details of content" style="stroke:#181818;stroke-width:1.0;"/></g><!--link User to Search content--><g id="link_User_Search content"><path d="M29.94,345.28 C37.22,317.12 50.24,279.32 72,252 C93.5,225.01 127.23,204.21 152.45,191.25 " fill="none" id="User-Search content" style="stroke:#181818;stroke-width:1.0;"/></g><!--link User to Filter content--><g id="link_User_Filter content"><path d="M36.37,357.1 C45.01,343.29 57.2,327.25 72,317 C88.86,305.32 109.85,297.74 129.2,292.83 " fill="none" id="User-Filter content" style="stroke:#181818;stroke-width:1.0;"/></g><!--link User to View all--><g id="link_User_View all"><path d="M36.27,381.04 C60.75,375.97 111.54,365.44 147.17,358.06 " fill="none" id="User-View all" style="stroke:#181818;stroke-width:1.0;"/></g><!--link User to View by genre--><g id="link_User_View by genre"><path d="M36.27,386.87 C57.48,391.14 98.43,399.37 132.16,406.16 " fill="none" id="User-View by genre" style="stroke:#181818;stroke-width:1.0;"/></g><!--link User to View by year--><g id="link_User_View by year"><path d="M36.37,410.9 C45.01,424.71 57.2,440.75 72,451 C88.95,462.74 110.06,470.34 129.5,475.25 " fill="none" id="User-View by year" style="stroke:#181818;stroke-width:1.0;"/></g><!--link User to View by rating--><g id="link_User_View by rating"><path d="M27.11,422.66 C33.01,452.36 45.57,492.35 72,517 C86.28,530.32 105.56,538.43 124.2,543.38 " fill="none" id="User-View by rating" style="stroke:#181818;stroke-width:1.0;"/></g><!--link User to View by content type--><g id="link_User_View by content type"><path d="M27.08,422.52 C34.61,474.06 50.24,561.66 72,585 C83.36,597.18 98.76,605.36 114.56,610.85 " fill="none" id="User-View by content type" style="stroke:#181818;stroke-width:1.0;"/></g><!--SRC=[TOv13e8m44NtFSKFArrm3Iz0T3-MeJJKbWoJcCPmTq4CHeN5RFxB-_C3DmfD4EzQHUs5hVeKpT3vs9FG3JtPZXnNcWDZnXHTO4DMa-0yi1YpfYWkdky57W3CT2-EiiHXpb6paWy3KWERedBKenc_z8f9RBjLi93LczcFU_91MRRSXNn-_Y-Z4BRYQuRZABp3yhHf1mcfZsu7leT0SpzLZqy0]--></g></svg>