<?xml version="1.0" encoding="us-ascii" standalone="no"?><svg xmlns="http://www.w3.org/2000/svg" xmlns:xlink="http://www.w3.org/1999/xlink" contentStyleType="text/css" height="317px" preserveAspectRatio="none" style="width:291px;height:317px;background:#FFFFFF;" version="1.1" viewBox="0 0 291 317" width="291px" zoomAndPan="magnify"><defs/><g><!--cluster Watch later--><g id="cluster_Watch later"><rect fill="none" height="304" rx="2.5" ry="2.5" style="stroke:#181818;stroke-width:1.0;" width="205.8" x="80" y="7"/><text fill="#000000" font-family="sans-serif" font-size="14" font-weight="bold" lengthAdjust="spacing" textLength="77" x="144.4" y="22.0059">Watch later</text></g><g id="elem_View watch later"><ellipse cx="182.899" cy="58.9998" fill="#F1F1F1" rx="75.449" ry="17.4898" style="stroke:#181818;stroke-width:0.5;"/><text fill="#000000" font-family="sans-serif" font-size="14" lengthAdjust="spacing" textLength="103" x="128.399" y="62.7528">View watch later</text></g><g id="elem_Add to watch later"><ellipse cx="182.9021" cy="130.0044" fill="#F1F1F1" rx="79.6721" ry="18.3344" style="stroke:#181818;stroke-width:0.5;"/><text fill="#000000" font-family="sans-serif" font-size="14" lengthAdjust="spacing" textLength="114" x="122.9021" y="133.7574">Add to watch later</text></g><g id="elem_Delete watch later"><ellipse cx="182.9021" cy="202.0044" fill="#F1F1F1" rx="79.6721" ry="18.3344" style="stroke:#181818;stroke-width:0.5;"/><text fill="#000000" font-family="sans-serif" font-size="14" lengthAdjust="spacing" textLength="114" x="122.9021" y="205.7574">Delete watch later</text></g><g id="elem_Delete all watch later"><ellipse cx="182.9024" cy="275.0005" fill="#F1F1F1" rx="86.9024" ry="19.7805" style="stroke:#181818;stroke-width:0.5;"/><text fill="#000000" font-family="sans-serif" font-size="14" lengthAdjust="spacing" textLength="132" x="113.9024" y="278.7534">Delete all watch later</text></g><!--entity User--><g id="elem_User"><ellipse cx="21" cy="136.1" fill="#F1F1F1" rx="8" ry="8" style="stroke:#181818;stroke-width:0.5;"/><path d="M21,144.1 L21,171.1 M8,152.1 L34,152.1 M21,171.1 L8,186.1 M21,171.1 L34,186.1 " fill="none" style="stroke:#181818;stroke-width:0.5;"/><text fill="#000000" font-family="sans-serif" font-size="14" lengthAdjust="spacing" textLength="30" x="6" y="200.6059">User</text></g><!--link User to View watch later--><g id="link_User_View watch later"><path d="M36.48,136.54 C45.01,121.9 57.06,105.03 72,94 C86.98,82.94 105.58,75.29 123.19,70.04 " fill="none" id="User-View watch later" style="stroke:#181818;stroke-width:1.0;"/></g><!--link User to Add to watch later--><g id="link_User_Add to watch later"><path d="M36.47,162.74 C56.31,158.28 93.08,150 124.68,142.88 " fill="none" id="User-Add to watch later" style="stroke:#181818;stroke-width:1.0;"/></g><!--link User to Delete watch later--><g id="link_User_Delete watch later"><path d="M36.47,169.26 C56.31,173.72 93.08,182 124.68,189.12 " fill="none" id="User-Delete watch later" style="stroke:#181818;stroke-width:1.0;"/></g><!--link User to Delete all watch later--><g id="link_User_Delete all watch later"><path d="M36.35,195 C44.91,209.7 57.03,226.76 72,238 C85.68,248.28 102.39,255.81 118.62,261.29 " fill="none" id="User-Delete all watch later" style="stroke:#181818;stroke-width:1.0;"/></g><!--SRC=[ZSsn2i9040JGFbynfD8Y7o7a5uprSZSc1qiEreKKuh_hfb3Xcamvys2KTuTNM9aNHox6vAMkdIIlXkk3rk6Jg6MTbUXlucc1YjDwFFSr4XJ3WDDKk67xeNEiBRla7B__i4KZbSvZI5IRs-_rwmq0]--></g></svg>