<?xml version="1.0" encoding="UTF-8" standalone="no"?><svg xmlns="http://www.w3.org/2000/svg" xmlns:xlink="http://www.w3.org/1999/xlink" contentStyleType="text/css" height="742px" preserveAspectRatio="none" style="width:1485px;height:742px;background:#FFFFFF;" version="1.1" viewBox="0 0 1485 742" width="1485px" zoomAndPan="magnify"><defs/><g><ellipse cx="944.5" cy="16" fill="#222222" rx="10" ry="10" style="stroke:none;stroke-width:1.0;"/><g id="INITIAL"><rect fill="#F1F1F1" height="50" rx="12.5" ry="12.5" style="stroke:#181818;stroke-width:0.5;" width="68" x="910.5" y="121"/><line style="stroke:#181818;stroke-width:0.5;" x1="910.5" x2="978.5" y1="147.7999" y2="147.7999"/><text fill="#000000" font-family="sans-serif" font-size="14" lengthAdjust="spacing" textLength="48" x="920.5" y="139.0059">INITIAL</text></g><g id="VIEW_HOME"><rect fill="#F1F1F1" height="50" rx="12.5" ry="12.5" style="stroke:#181818;stroke-width:0.5;" width="105" x="564" y="313.5"/><line style="stroke:#181818;stroke-width:0.5;" x1="564" x2="669" y1="340.2999" y2="340.2999"/><text fill="#000000" font-family="sans-serif" font-size="14" lengthAdjust="spacing" textLength="85" x="574" y="331.5059">VIEW_HOME</text></g><g id="VIEW_CATALOG"><rect fill="#F1F1F1" height="50" rx="12.5" ry="12.5" style="stroke:#181818;stroke-width:0.5;" width="130" x="775.5" y="232.5"/><line style="stroke:#181818;stroke-width:0.5;" x1="775.5" x2="905.5" y1="259.2999" y2="259.2999"/><text fill="#000000" font-family="sans-serif" font-size="14" lengthAdjust="spacing" textLength="110" x="785.5" y="250.5059">VIEW_CATALOG</text></g><g id="VIEW_LIBRARY"><rect fill="#F1F1F1" height="50" rx="12.5" ry="12.5" style="stroke:#181818;stroke-width:0.5;" width="122" x="286.5" y="232.5"/><line style="stroke:#181818;stroke-width:0.5;" x1="286.5" x2="408.5" y1="259.2999" y2="259.2999"/><text fill="#000000" font-family="sans-serif" font-size="14" lengthAdjust="spacing" textLength="102" x="296.5" y="250.5059">VIEW_LIBRARY</text></g><g id="VIEW_NOTIFICATIONS"><rect fill="#F1F1F1" height="50" rx="12.5" ry="12.5" style="stroke:#181818;stroke-width:0.5;" width="172" x="1068.5" y="232.5"/><line style="stroke:#181818;stroke-width:0.5;" x1="1068.5" x2="1240.5" y1="259.2999" y2="259.2999"/><text fill="#000000" font-family="sans-serif" font-size="14" lengthAdjust="spacing" textLength="152" x="1078.5" y="250.5059">VIEW_NOTIFICATIONS</text></g><g id="PROFILE_MANAGEMENT"><rect fill="#F1F1F1" height="50" rx="12.5" ry="12.5" style="stroke:#181818;stroke-width:0.5;" width="188" x="1290.5" y="490.5"/><line style="stroke:#181818;stroke-width:0.5;" x1="1290.5" x2="1478.5" y1="517.2999" y2="517.2999"/><text fill="#000000" font-family="sans-serif" font-size="14" lengthAdjust="spacing" textLength="168" x="1300.5" y="508.5059">PROFILE_MANAGEMENT</text></g><g id="SEARCH_CONTENT"><rect fill="#F1F1F1" height="50" rx="12.5" ry="12.5" style="stroke:#181818;stroke-width:0.5;" width="153" x="900" y="313.5"/><line style="stroke:#181818;stroke-width:0.5;" x1="900" x2="1053" y1="340.2999" y2="340.2999"/><text fill="#000000" font-family="sans-serif" font-size="14" lengthAdjust="spacing" textLength="133" x="910" y="331.5059">SEARCH_CONTENT</text></g><g id="VIEW_CONTENT"><rect fill="#F1F1F1" height="50" rx="12.5" ry="12.5" style="stroke:#181818;stroke-width:0.5;" width="131" x="515" y="571"/><line style="stroke:#181818;stroke-width:0.5;" x1="515" x2="646" y1="597.7999" y2="597.7999"/><text fill="#000000" font-family="sans-serif" font-size="14" lengthAdjust="spacing" textLength="111" x="525" y="589.0059">VIEW_CONTENT</text></g><ellipse cx="1193.5" cy="726" fill="none" rx="10" ry="10" style="stroke:#222222;stroke-width:1.0;"/><ellipse cx="1194" cy="726.5" fill="#222222" rx="6" ry="6" style="stroke:none;stroke-width:1.0;"/><g id="SEARCH_FILTER_CONTENT"><rect fill="#F1F1F1" height="50" rx="12.5" ry="12.5" style="stroke:#181818;stroke-width:0.5;" width="210" x="724.5" y="402"/><line style="stroke:#181818;stroke-width:0.5;" x1="724.5" x2="934.5" y1="428.7999" y2="428.7999"/><text fill="#000000" font-family="sans-serif" font-size="14" lengthAdjust="spacing" textLength="190" x="734.5" y="420.0059">SEARCH_FILTER_CONTENT</text></g><g id="VIEW_WATCH_LATER"><rect fill="#F1F1F1" height="50" rx="12.5" ry="12.5" style="stroke:#181818;stroke-width:0.5;" width="167" x="167" y="402"/><line style="stroke:#181818;stroke-width:0.5;" x1="167" x2="334" y1="428.7999" y2="428.7999"/><text fill="#000000" font-family="sans-serif" font-size="14" lengthAdjust="spacing" textLength="147" x="177" y="420.0059">VIEW_WATCH_LATER</text></g><g id="VIEW_FAVORITES"><rect fill="#F1F1F1" height="50" rx="12.5" ry="12.5" style="stroke:#181818;stroke-width:0.5;" width="142" x="368.5" y="402"/><line style="stroke:#181818;stroke-width:0.5;" x1="368.5" x2="510.5" y1="428.7999" y2="428.7999"/><text fill="#000000" font-family="sans-serif" font-size="14" lengthAdjust="spacing" textLength="122" x="378.5" y="420.0059">VIEW_FAVORITES</text></g><g id="VIEW_HISTORY"><rect fill="#F1F1F1" height="50" rx="12.5" ry="12.5" style="stroke:#181818;stroke-width:0.5;" width="125" x="7" y="402"/><line style="stroke:#181818;stroke-width:0.5;" x1="7" x2="132" y1="428.7999" y2="428.7999"/><text fill="#000000" font-family="sans-serif" font-size="14" lengthAdjust="spacing" textLength="105" x="17" y="420.0059">VIEW_HISTORY</text></g><g id="VIEW_COMMENTS"><rect fill="#F1F1F1" height="50" rx="12.5" ry="12.5" style="stroke:#181818;stroke-width:0.5;" width="145" x="1121" y="490.5"/><line style="stroke:#181818;stroke-width:0.5;" x1="1121" x2="1266" y1="517.2999" y2="517.2999"/><text fill="#000000" font-family="sans-serif" font-size="14" lengthAdjust="spacing" textLength="125" x="1131" y="508.5059">VIEW_COMMENTS</text></g><!--MD5=[06c3f2024f4ea60966e79307ee69ec5f]
link *start to INITIAL--><g id="link_*start_INITIAL"><path d="M944.5,26.21 C944.5,44.45 944.5,85.94 944.5,114.71 " fill="none" id="*start-to-INITIAL" style="stroke:#181818;stroke-width:1.0;"/><polygon fill="#181818" points="944.5,119.64,948.5,110.64,944.5,114.64,940.5,110.64,944.5,119.64" style="stroke:#181818;stroke-width:1.0;"/><path d="M949.5,61 L949.5,86 L1060.5,86 L1060.5,71 L1050.5,61 L949.5,61 " fill="#FEFFDD" style="stroke:#181818;stroke-width:0.5;"/><path d="M1050.5,61 L1050.5,71 L1060.5,71 L1050.5,61 " fill="#FEFFDD" style="stroke:#181818;stroke-width:0.5;"/><text fill="#000000" font-family="sans-serif" font-size="13" lengthAdjust="spacing" textLength="90" x="955.5" y="78.077">Authenticaction</text></g><!--MD5=[cbdf93eae801da9c7375e3c6f5895bcf]
link INITIAL to VIEW_HOME--><g id="link_INITIAL_VIEW_HOME"><path d="M910.3,159.95 C871.95,175.06 808.44,201.84 757.5,232 C718.42,255.14 677.21,286.95 649.51,309.57 " fill="none" id="INITIAL-to-VIEW_HOME" style="stroke:#181818;stroke-width:1.0;"/><polygon fill="#181818" points="646.18,313.12,655.6723,310.4938,650.0421,309.9445,650.5914,304.3143,646.18,313.12" style="stroke:#181818;stroke-width:1.0;"/></g><!--MD5=[5e446c20a160ca41f1b1c86948678ccf]
link INITIAL to VIEW_CATALOG--><g id="link_INITIAL_VIEW_CATALOG"><path d="M921.42,171.3 C905.4,188.17 884,210.7 867.24,228.35 " fill="none" id="INITIAL-to-VIEW_CATALOG" style="stroke:#181818;stroke-width:1.0;"/><polygon fill="#181818" points="864.52,231.27,873.6164,227.4944,867.9615,227.6429,867.813,221.988,864.52,231.27" style="stroke:#181818;stroke-width:1.0;"/></g><!--MD5=[b97113046af4880aca2550e0d8ec4d0c]
link INITIAL to VIEW_LIBRARY--><g id="link_INITIAL_VIEW_LIBRARY"><path d="M910.05,152.92 C853.38,162.69 736.92,182.93 638.5,201 C561.56,215.12 473.33,232.06 414.38,243.47 " fill="none" id="INITIAL-to-VIEW_LIBRARY" style="stroke:#181818;stroke-width:1.0;"/><polygon fill="#181818" points="409.77,244.56,419.3687,246.7656,414.6778,243.6041,417.8393,238.9132,409.77,244.56" style="stroke:#181818;stroke-width:1.0;"/></g><!--MD5=[957d1ca70ab978a8d42758169ff73680]
link INITIAL to VIEW_NOTIFICATIONS--><g id="link_INITIAL_VIEW_NOTIFICATIONS"><path d="M978.71,164.84 C1012.3,182.35 1063.98,209.3 1102.63,229.45 " fill="none" id="INITIAL-to-VIEW_NOTIFICATIONS" style="stroke:#181818;stroke-width:1.0;"/><polygon fill="#181818" points="1106.75,232.13,1100.6159,224.4246,1102.3156,229.8201,1096.9201,231.5197,1106.75,232.13" style="stroke:#181818;stroke-width:1.0;"/></g><!--MD5=[3ac27e40cab0006003bed05562712171]
link INITIAL to PROFILE_MANAGEMENT--><g id="link_INITIAL_PROFILE_MANAGEMENT"><path d="M978.86,147.44 C1064.53,150.67 1286.32,172.79 1364.5,313 C1394.77,367.29 1392.77,442.7 1388.63,484.17 " fill="none" id="INITIAL-to-PROFILE_MANAGEMENT" style="stroke:#181818;stroke-width:1.0;"/><polygon fill="#181818" points="1388.01,489.03,1392.9391,480.5033,1388.5386,484.058,1384.984,479.6575,1388.01,489.03" style="stroke:#181818;stroke-width:1.0;"/><path d="M1348.5,237 L1348.5,278 L1460.5,278 L1460.5,247 L1450.5,237 L1348.5,237 " fill="#FEFFDD" style="stroke:#181818;stroke-width:0.5;"/><path d="M1450.5,237 L1450.5,247 L1460.5,247 L1450.5,237 " fill="#FEFFDD" style="stroke:#181818;stroke-width:0.5;"/><text fill="#000000" font-family="sans-serif" font-size="13" lengthAdjust="spacing" textLength="87" x="1354.5" y="254.077">Edit profile and</text><text fill="#000000" font-family="sans-serif" font-size="13" lengthAdjust="spacing" textLength="46" x="1354.5" y="269.677">security</text></g><!--MD5=[ef2d970ac0306e0731bd465c0e7a3fdd]
link INITIAL to SEARCH_CONTENT--><g id="link_INITIAL_SEARCH_CONTENT"><path d="M948.55,171.13 C954.38,205.81 965.12,269.74 971.45,307.45 " fill="none" id="INITIAL-to-SEARCH_CONTENT" style="stroke:#181818;stroke-width:1.0;"/><polygon fill="#181818" points="972.43,312.27,974.8825,302.7314,971.6011,307.3392,966.9933,304.0577,972.43,312.27" style="stroke:#181818;stroke-width:1.0;"/></g><!--MD5=[57a7e4c26e580c1c3d12a0eb128dd905]
link SEARCH_CONTENT to VIEW_CONTENT--><g id="link_SEARCH_CONTENT_VIEW_CONTENT"><path d="M979.04,363.71 C982.05,406.58 981.33,495.57 930.5,541 C890.52,576.73 742.55,588.84 652.3,592.93 " fill="none" id="SEARCH_CONTENT-to-VIEW_CONTENT" style="stroke:#181818;stroke-width:1.0;"/><polygon fill="#181818" points="647.44,593.19,656.6133,596.7748,652.4348,592.9617,656.2479,588.7832,647.44,593.19" style="stroke:#181818;stroke-width:1.0;"/><path d="M984.5,406.5 L984.5,447.5 L1110.5,447.5 L1110.5,416.5 L1100.5,406.5 L984.5,406.5 " fill="#FEFFDD" style="stroke:#181818;stroke-width:0.5;"/><path d="M1100.5,406.5 L1100.5,416.5 L1110.5,416.5 L1100.5,406.5 " fill="#FEFFDD" style="stroke:#181818;stroke-width:0.5;"/><text fill="#000000" font-family="sans-serif" font-size="13" lengthAdjust="spacing" textLength="87" x="990.5" y="423.577">Input search or</text><text fill="#000000" font-family="sans-serif" font-size="13" lengthAdjust="spacing" textLength="105" x="990.5" y="439.177">select from recent</text></g><!--MD5=[8bf00b88d52675ba2952aeb491a383da]
link PROFILE_MANAGEMENT to *end--><g id="link_PROFILE_MANAGEMENT_*end"><path d="M1362.22,540.83 C1320.95,585.88 1234.09,680.69 1204.02,713.52 " fill="none" id="PROFILE_MANAGEMENT-to-*end" style="stroke:#181818;stroke-width:1.0;"/><polygon fill="#181818" points="1201,716.9,1210.0343,712.978,1204.3825,713.2178,1204.1427,707.566,1201,716.9" style="stroke:#181818;stroke-width:1.0;"/><path d="M1337.5,583.5 L1337.5,608.5 L1397.5,608.5 L1397.5,593.5 L1387.5,583.5 L1337.5,583.5 " fill="#FEFFDD" style="stroke:#181818;stroke-width:0.5;"/><path d="M1387.5,583.5 L1387.5,593.5 L1397.5,593.5 L1387.5,583.5 " fill="#FEFFDD" style="stroke:#181818;stroke-width:0.5;"/><text fill="#000000" font-family="sans-serif" font-size="13" lengthAdjust="spacing" textLength="39" x="1343.5" y="600.577">Logout</text></g><!--MD5=[4ab2ec0f0ffc7ae1755547d57dd73dbc]
link VIEW_CATALOG to SEARCH_FILTER_CONTENT--><g id="link_VIEW_CATALOG_SEARCH_FILTER_CONTENT"><path d="M838.9,282.86 C836.94,312.75 833.61,363.45 831.48,395.8 " fill="none" id="VIEW_CATALOG-to-SEARCH_FILTER_CONTENT" style="stroke:#181818;stroke-width:1.0;"/><polygon fill="#181818" points="831.1,400.61,835.6815,391.8917,831.4279,395.6208,827.6988,391.3671,831.1,400.61" style="stroke:#181818;stroke-width:1.0;"/></g><!--MD5=[e62dd9fce207b907f52c73ade2d61961]
link VIEW_LIBRARY to VIEW_WATCH_LATER--><g id="link_VIEW_LIBRARY_VIEW_WATCH_LATER"><path d="M333.4,282.86 C315.94,313 286.23,364.29 267.53,396.6 " fill="none" id="VIEW_LIBRARY-to-VIEW_WATCH_LATER" style="stroke:#181818;stroke-width:1.0;"/><polygon fill="#181818" points="264.62,400.61,272.585,394.817,267.1207,396.2803,265.6574,390.8159,264.62,400.61" style="stroke:#181818;stroke-width:1.0;"/></g><!--MD5=[8c2a0a38bc7ef473e158a0bf69033890]
link VIEW_LIBRARY to VIEW_FAVORITES--><g id="link_VIEW_LIBRARY_VIEW_FAVORITES"><path d="M360.88,282.86 C377.43,313 405.61,364.29 423.35,396.6 " fill="none" id="VIEW_LIBRARY-to-VIEW_FAVORITES" style="stroke:#181818;stroke-width:1.0;"/><polygon fill="#181818" points="426.11,400.61,425.285,390.7958,423.7037,396.2271,418.2724,394.6458,426.11,400.61" style="stroke:#181818;stroke-width:1.0;"/></g><!--MD5=[c7e13dc7a442993010386eeacb482e6d]
link VIEW_LIBRARY to VIEW_HISTORY--><g id="link_VIEW_LIBRARY_VIEW_HISTORY"><path d="M307.08,282.86 C256.02,313.62 168.39,366.41 115.03,398.57 " fill="none" id="VIEW_LIBRARY-to-VIEW_HISTORY" style="stroke:#181818;stroke-width:1.0;"/><polygon fill="#181818" points="110.97,401.61,120.7406,400.3711,115.2473,399.0207,116.5978,393.5274,110.97,401.61" style="stroke:#181818;stroke-width:1.0;"/></g><!--MD5=[497647a55170da3e49c8290dc5ea1ac0]
link VIEW_HOME to VIEW_CONTENT--><g id="link_VIEW_HOME_VIEW_CONTENT"><path d="M606.56,363.81 C603.15,373.11 599.65,383.91 597.5,394 C584.77,453.74 581.5,525.38 580.7,564.98 " fill="none" id="VIEW_HOME-to-VIEW_CONTENT" style="stroke:#181818;stroke-width:1.0;"/><polygon fill="#181818" points="580.6,569.58,584.7537,560.6499,580.6857,564.5807,576.7549,560.5128,580.6,569.58" style="stroke:#181818;stroke-width:1.0;"/><path d="M602.5,399 L602.5,455 L701.5,455 L701.5,409 L691.5,399 L602.5,399 " fill="#FEFFDD" style="stroke:#181818;stroke-width:0.5;"/><path d="M691.5,399 L691.5,409 L701.5,409 L691.5,399 " fill="#FEFFDD" style="stroke:#181818;stroke-width:0.5;"/><text fill="#000000" font-family="sans-serif" font-size="13" lengthAdjust="spacing" textLength="78" x="608.5" y="416.077">New releases</text><text fill="#000000" font-family="sans-serif" font-size="13" lengthAdjust="spacing" textLength="42" x="608.5" y="431.677">Movies</text><text fill="#000000" font-family="sans-serif" font-size="13" lengthAdjust="spacing" textLength="37" x="608.5" y="447.277">Series</text></g><!--MD5=[9c87c6f4a1c7639039fbcffef30c4184]
link VIEW_NOTIFICATIONS to VIEW_COMMENTS--><g id="link_VIEW_NOTIFICATIONS_VIEW_COMMENTS"><path d="M1158.17,282.58 C1165.33,329.56 1181.13,433.32 1188.95,484.6 " fill="none" id="VIEW_NOTIFICATIONS-to-VIEW_COMMENTS" style="stroke:#181818;stroke-width:1.0;"/><polygon fill="#181818" points="1189.81,489.29,1192.428,479.7955,1189.0669,484.3455,1184.5168,480.9844,1189.81,489.29" style="stroke:#181818;stroke-width:1.0;"/><path d="M1174.5,318 L1174.5,359 L1351.5,359 L1351.5,328 L1341.5,318 L1174.5,318 " fill="#FEFFDD" style="stroke:#181818;stroke-width:0.5;"/><path d="M1341.5,318 L1341.5,328 L1351.5,328 L1341.5,318 " fill="#FEFFDD" style="stroke:#181818;stroke-width:0.5;"/><text fill="#000000" font-family="sans-serif" font-size="13" lengthAdjust="spacing" textLength="85" x="1180.5" y="335.077">View replies or</text><text fill="#000000" font-family="sans-serif" font-size="13" lengthAdjust="spacing" textLength="152" x="1180.5" y="350.677">like/dislike of commentary</text></g><!--MD5=[696fc1403c7b6c0cd65261196d35425c]
link VIEW_COMMENTS to *end--><g id="link_VIEW_COMMENTS_*end"><path d="M1193.5,540.83 C1193.5,584.49 1193.5,674.91 1193.5,710.32 " fill="none" id="VIEW_COMMENTS-to-*end" style="stroke:#181818;stroke-width:1.0;"/><polygon fill="#181818" points="1193.5,714.9,1197.5,705.9,1193.5,709.9,1189.5,705.9,1193.5,714.9" style="stroke:#181818;stroke-width:1.0;"/><path d="M1198.5,583.5 L1198.5,608.5 L1258.5,608.5 L1258.5,593.5 L1248.5,583.5 L1198.5,583.5 " fill="#FEFFDD" style="stroke:#181818;stroke-width:0.5;"/><path d="M1248.5,583.5 L1248.5,593.5 L1258.5,593.5 L1248.5,583.5 " fill="#FEFFDD" style="stroke:#181818;stroke-width:0.5;"/><text fill="#000000" font-family="sans-serif" font-size="13" lengthAdjust="spacing" textLength="39" x="1204.5" y="600.577">Logout</text></g><!--MD5=[faa76b416ee09bbea5e799f83c014583]
link SEARCH_FILTER_CONTENT to VIEW_CONTENT--><g id="link_SEARCH_FILTER_CONTENT_VIEW_CONTENT"><path d="M793.03,452.46 C747.32,483.12 669.2,535.51 621.47,567.52 " fill="none" id="SEARCH_FILTER_CONTENT-to-VIEW_CONTENT" style="stroke:#181818;stroke-width:1.0;"/><polygon fill="#181818" points="617.67,570.74,627.3706,569.0374,621.8192,567.95,622.9066,562.3987,617.67,570.74" style="stroke:#181818;stroke-width:1.0;"/><path d="M739.5,495 L739.5,536 L917.5,536 L917.5,505 L907.5,495 L739.5,495 " fill="#FEFFDD" style="stroke:#181818;stroke-width:0.5;"/><path d="M907.5,495 L907.5,505 L917.5,505 L907.5,495 " fill="#FEFFDD" style="stroke:#181818;stroke-width:0.5;"/><text fill="#000000" font-family="sans-serif" font-size="13" lengthAdjust="spacing" textLength="157" x="745.5" y="512.077">By content (movie or serie)</text><text fill="#000000" font-family="sans-serif" font-size="13" lengthAdjust="spacing" textLength="109" x="745.5" y="527.677">year, genre, rating.</text></g><!--MD5=[4b7825eb7fdf7d81c8c36f4e5ae3f4c0]
link VIEW_WATCH_LATER to VIEW_CONTENT--><g id="link_VIEW_WATCH_LATER_VIEW_CONTENT"><path d="M298.84,452.46 C359.7,483.26 463.91,536 527.07,567.96 " fill="none" id="VIEW_WATCH_LATER-to-VIEW_CONTENT" style="stroke:#181818;stroke-width:1.0;"/><polygon fill="#181818" points="531.3,570.61,525.078,562.9754,526.8394,568.3511,521.4637,570.1125,531.3,570.61" style="stroke:#181818;stroke-width:1.0;"/></g><!--MD5=[607ff5418fc3ff5bf00fec36f2666d50]
link VIEW_FAVORITES to VIEW_CONTENT--><g id="link_VIEW_FAVORITES_VIEW_CONTENT"><path d="M460,452.28 C485.59,482.58 529.27,534.32 556.42,566.48 " fill="none" id="VIEW_FAVORITES-to-VIEW_CONTENT" style="stroke:#181818;stroke-width:1.0;"/><polygon fill="#181818" points="559.97,569.69,557.2085,560.2362,556.7396,565.8736,551.1023,565.4048,559.97,569.69" style="stroke:#181818;stroke-width:1.0;"/></g><!--MD5=[5caeac3ab9e1c3a0dc568cd3730e454e]
link VIEW_HISTORY to VIEW_CONTENT--><g id="link_VIEW_HISTORY_VIEW_CONTENT"><path d="M130.15,452.45 C136.67,455.03 143.22,457.58 149.5,460 C246.35,497.27 269.41,510.15 368.5,541 C414.74,555.4 467.51,568.85 508.83,578.72 " fill="none" id="VIEW_HISTORY-to-VIEW_CONTENT" style="stroke:#181818;stroke-width:1.0;"/><polygon fill="#181818" points="513.58,580.09,505.7481,574.1183,508.7154,578.9345,503.8992,581.9018,513.58,580.09" style="stroke:#181818;stroke-width:1.0;"/></g><!--MD5=[1e4ade3523ddd9ec2992c789957a5d02]
link VIEW_CONTENT to *end--><g id="link_VIEW_CONTENT_*end"><path d="M646.39,610.76 C785.95,639.9 1104.57,706.43 1178.14,721.79 " fill="none" id="VIEW_CONTENT-to-*end" style="stroke:#181818;stroke-width:1.0;"/><polygon fill="#181818" points="1182.76,722.97,1174.7576,717.2287,1177.8638,721.9565,1173.136,725.0627,1182.76,722.97" style="stroke:#181818;stroke-width:1.0;"/><path d="M999.5,656 L999.5,681 L1059.5,681 L1059.5,666 L1049.5,656 L999.5,656 " fill="#FEFFDD" style="stroke:#181818;stroke-width:0.5;"/><path d="M1049.5,656 L1049.5,666 L1059.5,666 L1049.5,656 " fill="#FEFFDD" style="stroke:#181818;stroke-width:0.5;"/><text fill="#000000" font-family="sans-serif" font-size="13" lengthAdjust="spacing" textLength="39" x="1005.5" y="673.077">Logout</text></g><!--MD5=[243cba6ca894b450ea56ffb463bf3e31]
@startuml context
[*] - -> INITIAL
note on link
  Authenticaction
end note

INITIAL - -> VIEW_HOME
INITIAL - -> VIEW_CATALOG
INITIAL - -> VIEW_LIBRARY
INITIAL - -> VIEW_NOTIFICATIONS
INITIAL - -> PROFILE_MANAGEMENT 
note on link
  Edit profile and 
  security  
end note
INITIAL - -> SEARCH_CONTENT
SEARCH_CONTENT - -> VIEW_CONTENT
note on link
  Input search or
  select from recent
end note

PROFILE_MANAGEMENT - -> [*]
note on link
  Logout
end note


VIEW_CATALOG - -> SEARCH_FILTER_CONTENT

VIEW_LIBRARY - -> VIEW_WATCH_LATER
VIEW_LIBRARY - -> VIEW_FAVORITES
VIEW_LIBRARY - -> VIEW_HISTORY

VIEW_HOME - -> VIEW_CONTENT
note on link
  New releases
  Movies
  Series
end note

VIEW_NOTIFICATIONS - -> VIEW_COMMENTS
note on link
  View replies or
  like/dislike of commentary 
end note

VIEW_COMMENTS - -> [*]
note on link
  Logout
end note

SEARCH_FILTER_CONTENT - -> VIEW_CONTENT
note on link
  By content (movie or serie)
  year, genre, rating.
end note

VIEW_WATCH_LATER - -> VIEW_CONTENT
VIEW_FAVORITES - -> VIEW_CONTENT
VIEW_HISTORY - -> VIEW_CONTENT

VIEW_CONTENT - -> [*]
note on link
  Logout
end note
@enduml

PlantUML version 1.2022.7(Mon Aug 22 12:01:30 ECT 2022)
(GPL source distribution)
Java Runtime: OpenJDK Runtime Environment
JVM: OpenJDK 64-Bit Server VM
Default Encoding: UTF-8
Language: en
Country: null
--></g></svg>