<?xml version="1.0" encoding="UTF-8" standalone="no"?><svg xmlns="http://www.w3.org/2000/svg" xmlns:xlink="http://www.w3.org/1999/xlink" contentStyleType="text/css" height="548px" preserveAspectRatio="none" style="width:893px;height:548px;background:#FFFFFF;" version="1.1" viewBox="0 0 893 548" width="893px" zoomAndPan="magnify"><defs/><g><ellipse cx="423" cy="16" fill="#222222" rx="10" ry="10" style="stroke:none;stroke-width:1.0;"/><g id="AUTHENTICATION"><rect fill="#F1F1F1" height="50" rx="12.5" ry="12.5" style="stroke:#181818;stroke-width:0.5;" width="143" x="351.5" y="87.5"/><line style="stroke:#181818;stroke-width:0.5;" x1="351.5" x2="494.5" y1="114.2999" y2="114.2999"/><text fill="#000000" font-family="sans-serif" font-size="14" lengthAdjust="spacing" textLength="123" x="361.5" y="105.5059">AUTHENTICATION</text></g><g id="OPENED_FLIXXIC"><rect fill="#F1F1F1" height="50" rx="12.5" ry="12.5" style="stroke:#181818;stroke-width:0.5;" width="139" x="353.5" y="254.5"/><line style="stroke:#181818;stroke-width:0.5;" x1="353.5" x2="492.5" y1="281.2999" y2="281.2999"/><text fill="#000000" font-family="sans-serif" font-size="14" lengthAdjust="spacing" textLength="119" x="363.5" y="272.5059">OPENED_FLIXXIC</text></g><g id="CONTENT_INTERACTION"><rect fill="#F1F1F1" height="50" rx="12.5" ry="12.5" style="stroke:#181818;stroke-width:0.5;" width="191" x="527.5" y="254.5"/><line style="stroke:#181818;stroke-width:0.5;" x1="527.5" x2="718.5" y1="281.2999" y2="281.2999"/><text fill="#000000" font-family="sans-serif" font-size="14" lengthAdjust="spacing" textLength="171" x="537.5" y="272.5059">CONTENT_INTERACTION</text></g><g id="PROFILE_MANAGEMENT"><rect fill="#F1F1F1" height="50" rx="12.5" ry="12.5" style="stroke:#181818;stroke-width:0.5;" width="188" x="7" y="254.5"/><line style="stroke:#181818;stroke-width:0.5;" x1="7" x2="195" y1="281.2999" y2="281.2999"/><text fill="#000000" font-family="sans-serif" font-size="14" lengthAdjust="spacing" textLength="168" x="17" y="272.5059">PROFILE_MANAGEMENT</text></g><g id="elem_logout"><polygon fill="#F1F1F1" points="423,421,435,433,423,445,411,433,423,421" style="stroke:#181818;stroke-width:0.5;"/></g><ellipse cx="423" cy="532" fill="none" rx="10" ry="10" style="stroke:#222222;stroke-width:1.0;"/><ellipse cx="423.5" cy="532.5" fill="#222222" rx="6" ry="6" style="stroke:none;stroke-width:1.0;"/><!--MD5=[1e3bdf202a25adfebfa2664c5c686ea2]
link *start to AUTHENTICATION--><g id="link_*start_AUTHENTICATION"><path d="M423,26.41 C423,39.1 423,62.31 423,81.28 " fill="none" id="*start-to-AUTHENTICATION" style="stroke:#181818;stroke-width:1.0;"/><polygon fill="#181818" points="423,86.02,427,77.02,423,81.02,419,77.02,423,86.02" style="stroke:#181818;stroke-width:1.0;"/></g><!--MD5=[8a93a48e7e7146dd51d620cf7b3d7b34]
link AUTHENTICATION to OPENED_FLIXXIC--><g id="link_AUTHENTICATION_OPENED_FLIXXIC"><path d="M423,137.85 C423,167.21 423,216.59 423,248.34 " fill="none" id="AUTHENTICATION-to-OPENED_FLIXXIC" style="stroke:#181818;stroke-width:1.0;"/><polygon fill="#181818" points="423,253.05,427,244.05,423,248.05,419,244.05,423,253.05" style="stroke:#181818;stroke-width:1.0;"/><text fill="#000000" font-family="sans-serif" font-size="13" lengthAdjust="spacing" textLength="31" x="424" y="181.077">Login</text></g><!--MD5=[bd15abb913a5b9ad9a716c867755dbee]
link OPENED_FLIXXIC to CONTENT_INTERACTION--><g id="link_OPENED_FLIXXIC_CONTENT_INTERACTION"><path d="M492.92,279.5 C502.39,279.5 511.86,279.5 521.32,279.5 " fill="none" id="OPENED_FLIXXIC-to-CONTENT_INTERACTION" style="stroke:#181818;stroke-width:1.0;"/><polygon fill="#181818" points="526.22,279.5,517.22,275.5,521.22,279.5,517.22,283.5,526.22,279.5" style="stroke:#181818;stroke-width:1.0;"/></g><!--MD5=[a0a0817a25e09e61bf6f9d3f9bab9b20]
reverse link PROFILE_MANAGEMENT to OPENED_FLIXXIC--><g id="link_PROFILE_MANAGEMENT_OPENED_FLIXXIC"><path d="M201.19,279.5 C251.86,279.5 302.52,279.5 353.19,279.5 " fill="none" id="PROFILE_MANAGEMENT-backto-OPENED_FLIXXIC" style="stroke:#181818;stroke-width:1.0;"/><polygon fill="#181818" points="196.34,279.5,205.34,283.5,201.34,279.5,205.34,275.5,196.34,279.5" style="stroke:#181818;stroke-width:1.0;"/></g><!--MD5=[a055305320a23256d70c8e13861e07bf]
link CONTENT_INTERACTION to CONTENT_INTERACTION--><g id="link_CONTENT_INTERACTION_CONTENT_INTERACTION"><path d="M718.89,260.84 C739,262.77 753.5,268.99 753.5,279.5 C753.5,288.94 741.8,294.92 724.83,297.44 " fill="none" id="CONTENT_INTERACTION-to-CONTENT_INTERACTION" style="stroke:#181818;stroke-width:1.0;"/><polygon fill="#181818" points="719.89,298.16,729.3044,301.0528,724.854,297.5609,728.3459,293.1104,719.89,298.16" style="stroke:#181818;stroke-width:1.0;"/><path d="M758.5,220 L758.5,339 L886.5,339 L886.5,230 L876.5,220 L758.5,220 " fill="#FEFFDD" style="stroke:#181818;stroke-width:0.5;"/><path d="M876.5,220 L876.5,230 L886.5,230 L876.5,220 " fill="#FEFFDD" style="stroke:#181818;stroke-width:0.5;"/><ellipse cx="770" cy="233.1" fill="#000000" rx="2.5" ry="2.5" style="stroke:#000000;stroke-width:0.0;"/><text fill="#000000" font-family="sans-serif" font-size="13" lengthAdjust="spacing" textLength="75" x="776.5" y="237.077">View content</text><ellipse cx="770" cy="248.7" fill="#000000" rx="2.5" ry="2.5" style="stroke:#000000;stroke-width:0.0;"/><text fill="#000000" font-family="sans-serif" font-size="13" lengthAdjust="spacing" textLength="63" x="776.5" y="252.677">Comments</text><ellipse cx="770" cy="264.3" fill="#000000" rx="2.5" ry="2.5" style="stroke:#000000;stroke-width:0.0;"/><text fill="#000000" font-family="sans-serif" font-size="13" lengthAdjust="spacing" textLength="49" x="776.5" y="268.277">Reviews</text><ellipse cx="770" cy="279.9001" fill="#000000" rx="2.5" ry="2.5" style="stroke:#000000;stroke-width:0.0;"/><text fill="#000000" font-family="sans-serif" font-size="13" lengthAdjust="spacing" textLength="95" x="776.5" y="283.8771">Search and filter</text><ellipse cx="770" cy="295.5001" fill="#000000" rx="2.5" ry="2.5" style="stroke:#000000;stroke-width:0.0;"/><text fill="#000000" font-family="sans-serif" font-size="13" lengthAdjust="spacing" textLength="66" x="776.5" y="299.4771">Watch later</text><ellipse cx="770" cy="311.1001" fill="#000000" rx="2.5" ry="2.5" style="stroke:#000000;stroke-width:0.0;"/><text fill="#000000" font-family="sans-serif" font-size="13" lengthAdjust="spacing" textLength="54" x="776.5" y="315.0771">Favorites</text><ellipse cx="770" cy="326.7001" fill="#000000" rx="2.5" ry="2.5" style="stroke:#000000;stroke-width:0.0;"/><text fill="#000000" font-family="sans-serif" font-size="13" lengthAdjust="spacing" textLength="41" x="776.5" y="330.6771">History</text></g><!--MD5=[7cac6750cc2eeac2222bb54e73301a2c]
link AUTHENTICATION to AUTHENTICATION--><g id="link_AUTHENTICATION_AUTHENTICATION"><path d="M494.93,102.07 C514.54,102.6 529.5,106.07 529.5,112.5 C529.5,118.27 517.43,121.67 500.75,122.68 " fill="none" id="AUTHENTICATION-to-AUTHENTICATION" style="stroke:#181818;stroke-width:1.0;"/><polygon fill="#181818" points="495.93,122.93,505.093,126.541,500.9254,122.7159,504.7505,118.5483,495.93,122.93" style="stroke:#181818;stroke-width:1.0;"/><path d="M534.5,92 L534.5,133 L615.5,133 L615.5,102 L605.5,92 L534.5,92 " fill="#FEFFDD" style="stroke:#181818;stroke-width:0.5;"/><path d="M605.5,92 L605.5,102 L615.5,102 L605.5,92 " fill="#FEFFDD" style="stroke:#181818;stroke-width:0.5;"/><ellipse cx="546" cy="105.1" fill="#000000" rx="2.5" ry="2.5" style="stroke:#000000;stroke-width:0.0;"/><text fill="#000000" font-family="sans-serif" font-size="13" lengthAdjust="spacing" textLength="31" x="552.5" y="109.077">Login</text><ellipse cx="546" cy="120.7" fill="#000000" rx="2.5" ry="2.5" style="stroke:#000000;stroke-width:0.0;"/><text fill="#000000" font-family="sans-serif" font-size="13" lengthAdjust="spacing" textLength="48" x="552.5" y="124.677">Register</text></g><!--MD5=[b835415b5b60a9dbc50c2cab32413b83]
link PROFILE_MANAGEMENT to PROFILE_MANAGEMENT--><g id="link_PROFILE_MANAGEMENT_PROFILE_MANAGEMENT"><path d="M195.5,260.81 C215.53,262.71 230,268.94 230,279.5 C230,288.99 218.32,294.98 201.42,297.48 " fill="none" id="PROFILE_MANAGEMENT-to-PROFILE_MANAGEMENT" style="stroke:#181818;stroke-width:1.0;"/><polygon fill="#181818" points="196.5,298.19,205.9144,301.0828,201.464,297.5909,204.9559,293.1404,196.5,298.19" style="stroke:#181818;stroke-width:1.0;"/><path d="M235,259 L235,300 L330,300 L330,269 L320,259 L235,259 " fill="#FEFFDD" style="stroke:#181818;stroke-width:0.5;"/><path d="M320,259 L320,269 L330,269 L320,259 " fill="#FEFFDD" style="stroke:#181818;stroke-width:0.5;"/><ellipse cx="246.5" cy="272.1" fill="#000000" rx="2.5" ry="2.5" style="stroke:#000000;stroke-width:0.0;"/><text fill="#000000" font-family="sans-serif" font-size="13" lengthAdjust="spacing" textLength="62" x="253" y="276.077">Edit profile</text><ellipse cx="246.5" cy="287.7" fill="#000000" rx="2.5" ry="2.5" style="stroke:#000000;stroke-width:0.0;"/><text fill="#000000" font-family="sans-serif" font-size="13" lengthAdjust="spacing" textLength="48" x="253" y="291.677">Security</text></g><!--MD5=[cac4be4de250e31e43952093beaf08c3]
link CONTENT_INTERACTION to logout--><g id="link_CONTENT_INTERACTION_logout"><path d="M590.87,304.84 C545.15,339.47 463.59,401.25 434.06,423.62 " fill="none" id="CONTENT_INTERACTION-to-logout" style="stroke:#181818;stroke-width:1.0;"/><polygon fill="#181818" points="430.48,427.09,440.066,424.8298,434.4611,424.0649,435.2259,418.46,430.48,427.09" style="stroke:#181818;stroke-width:1.0;"/></g><!--MD5=[6df7ea0a6b43b35df3e5ee88b0dde7a7]
link PROFILE_MANAGEMENT to logout--><g id="link_PROFILE_MANAGEMENT_logout"><path d="M152.73,304.84 C228.96,340.7 367.04,405.67 409.93,425.85 " fill="none" id="PROFILE_MANAGEMENT-to-logout" style="stroke:#181818;stroke-width:1.0;"/><polygon fill="#181818" points="414.12,428.29,407.6764,420.8415,409.5949,426.1631,404.2733,428.0816,414.12,428.29" style="stroke:#181818;stroke-width:1.0;"/></g><!--MD5=[b5444ff0a1cb1db238836b934281553b]
link OPENED_FLIXXIC to logout--><g id="link_OPENED_FLIXXIC_logout"><path d="M419.42,304.66 C416.58,327.07 413.48,361.31 416,391 C416.74,399.72 418.35,409.36 419.83,417.11 " fill="none" id="OPENED_FLIXXIC-to-logout" style="stroke:#181818;stroke-width:1.0;"/><polygon fill="#181818" points="420.93,421.61,423.1034,412.004,419.9577,416.7055,415.2562,413.5597,420.93,421.61" style="stroke:#181818;stroke-width:1.0;"/></g><!--MD5=[6a9214561abce99594fc3043caf74619]
reverse link OPENED_FLIXXIC to logout--><g id="link_OPENED_FLIXXIC_logout"><path d="M423,310.49 C423,344.2 423,397.26 423,420.48 " fill="none" id="OPENED_FLIXXIC-backto-logout" style="stroke:#181818;stroke-width:1.0;"/><polygon fill="#181818" points="423,305.84,419,314.84,423,310.84,427,314.84,423,305.84" style="stroke:#181818;stroke-width:1.0;"/><text fill="#000000" font-family="sans-serif" font-size="13" lengthAdjust="spacing" textLength="31" x="424" y="387.077">Login</text></g><!--MD5=[7eba9e1f5a505d6e95b4634a0ff1d65b]
link logout to *end--><g id="link_logout_*end"><path d="M423,445.51 C423,462.99 423,496.25 423,515.73 " fill="none" id="logout-to-*end" style="stroke:#181818;stroke-width:1.0;"/><polygon fill="#181818" points="423,520.54,427,511.54,423,515.54,419,511.54,423,520.54" style="stroke:#181818;stroke-width:1.0;"/><text fill="#000000" font-family="sans-serif" font-size="13" lengthAdjust="spacing" textLength="39" x="424" y="488.077">Logout</text></g><!--MD5=[d3c132d2d7d4b91374da32b4a2c1f10e]
@startuml use-cases-context-v2

[*] - -> AUTHENTICATION

AUTHENTICATION - -> OPENED_FLIXXIC: Login
OPENED_FLIXXIC -right-> CONTENT_INTERACTION
OPENED_FLIXXIC -left-> PROFILE_MANAGEMENT

CONTENT_INTERACTION - -> CONTENT_INTERACTION
note on link
  * View content
  * Comments
  * Reviews
  * Search and filter
  * Watch later
  * Favorites
  * History
end note


AUTHENTICATION - -> AUTHENTICATION
note on link
  * Login
  * Register
end note

PROFILE_MANAGEMENT - -> PROFILE_MANAGEMENT
note on link
  * Edit profile
  * Security  
end note

state logout <<choice>>


CONTENT_INTERACTION - -> logout
PROFILE_MANAGEMENT - -> logout

OPENED_FLIXXIC - -> logout
logout - -> [*]: Logout
logout -left-> OPENED_FLIXXIC: Login
@enduml

PlantUML version 1.2022.7(Mon Aug 22 12:01:30 ECT 2022)
(GPL source distribution)
Java Runtime: OpenJDK Runtime Environment
JVM: OpenJDK 64-Bit Server VM
Default Encoding: UTF-8
Language: en
Country: null
--></g></svg>