<?xml version="1.0" encoding="UTF-8" standalone="no"?><svg xmlns="http://www.w3.org/2000/svg" xmlns:xlink="http://www.w3.org/1999/xlink" contentStyleType="text/css" height="548px" preserveAspectRatio="none" style="width:869px;height:548px;background:#FFFFFF;" version="1.1" viewBox="0 0 869 548" width="869px" zoomAndPan="magnify"><defs/><g><ellipse cx="411" cy="16" fill="#222222" rx="10" ry="10" style="stroke:none;stroke-width:1.0;"/><g id="AUTHENTICATION"><rect fill="#F1F1F1" height="50" rx="12.5" ry="12.5" style="stroke:#181818;stroke-width:0.5;" width="143" x="339.5" y="87.5"/><line style="stroke:#181818;stroke-width:0.5;" x1="339.5" x2="482.5" y1="114.2999" y2="114.2999"/><text fill="#000000" font-family="sans-serif" font-size="14" lengthAdjust="spacing" textLength="123" x="349.5" y="105.5059">AUTHENTICATION</text></g><g id="OPENED_FLIXXIC"><rect fill="#F1F1F1" height="50" rx="12.5" ry="12.5" style="stroke:#181818;stroke-width:0.5;" width="139" x="341.5" y="254.5"/><line style="stroke:#181818;stroke-width:0.5;" x1="341.5" x2="480.5" y1="281.2999" y2="281.2999"/><text fill="#000000" font-family="sans-serif" font-size="14" lengthAdjust="spacing" textLength="119" x="351.5" y="272.5059">OPENED_FLIXXIC</text></g><g id="CONTENT_INTERACTION"><rect fill="#F1F1F1" height="50" rx="12.5" ry="12.5" style="stroke:#181818;stroke-width:0.5;" width="191" x="515.5" y="254.5"/><line style="stroke:#181818;stroke-width:0.5;" x1="515.5" x2="706.5" y1="281.2999" y2="281.2999"/><text fill="#000000" font-family="sans-serif" font-size="14" lengthAdjust="spacing" textLength="171" x="525.5" y="272.5059">CONTENT_INTERACTION</text></g><g id="PROFILE_MANAGEMENT"><rect fill="#F1F1F1" height="50" rx="12.5" ry="12.5" style="stroke:#181818;stroke-width:0.5;" width="188" x="7" y="254.5"/><line style="stroke:#181818;stroke-width:0.5;" x1="7" x2="195" y1="281.2999" y2="281.2999"/><text fill="#000000" font-family="sans-serif" font-size="14" lengthAdjust="spacing" textLength="168" x="17" y="272.5059">PROFILE_MANAGEMENT</text></g><g id="elem_logout"><polygon fill="#F1F1F1" points="411,421,423,433,411,445,399,433,411,421" style="stroke:#181818;stroke-width:0.5;"/></g><ellipse cx="411" cy="532" fill="none" rx="10" ry="10" style="stroke:#222222;stroke-width:1.0;"/><ellipse cx="411.5" cy="532.5" fill="#222222" rx="6" ry="6" style="stroke:none;stroke-width:1.0;"/><!--MD5=[1e3bdf202a25adfebfa2664c5c686ea2]
link *start to AUTHENTICATION--><g id="link_*start_AUTHENTICATION"><path d="M411,26.41 C411,39.1 411,62.31 411,81.28 " fill="none" id="*start-to-AUTHENTICATION" style="stroke:#181818;stroke-width:1.0;"/><polygon fill="#181818" points="411,86.02,415,77.02,411,81.02,407,77.02,411,86.02" style="stroke:#181818;stroke-width:1.0;"/></g><!--MD5=[8a93a48e7e7146dd51d620cf7b3d7b34]
link AUTHENTICATION to OPENED_FLIXXIC--><g id="link_AUTHENTICATION_OPENED_FLIXXIC"><path d="M411,137.85 C411,167.21 411,216.59 411,248.34 " fill="none" id="AUTHENTICATION-to-OPENED_FLIXXIC" style="stroke:#181818;stroke-width:1.0;"/><polygon fill="#181818" points="411,253.05,415,244.05,411,248.05,407,244.05,411,253.05" style="stroke:#181818;stroke-width:1.0;"/><text fill="#000000" font-family="sans-serif" font-size="13" lengthAdjust="spacing" textLength="31" x="412" y="181.077">Login</text></g><!--MD5=[bd15abb913a5b9ad9a716c867755dbee]
link OPENED_FLIXXIC to CONTENT_INTERACTION--><g id="link_OPENED_FLIXXIC_CONTENT_INTERACTION"><path d="M480.92,279.5 C490.39,279.5 499.86,279.5 509.32,279.5 " fill="none" id="OPENED_FLIXXIC-to-CONTENT_INTERACTION" style="stroke:#181818;stroke-width:1.0;"/><polygon fill="#181818" points="514.22,279.5,505.22,275.5,509.22,279.5,505.22,283.5,514.22,279.5" style="stroke:#181818;stroke-width:1.0;"/></g><!--MD5=[a0a0817a25e09e61bf6f9d3f9bab9b20]
reverse link PROFILE_MANAGEMENT to OPENED_FLIXXIC--><g id="link_PROFILE_MANAGEMENT_OPENED_FLIXXIC"><path d="M201.43,279.5 C247.99,279.5 294.55,279.5 341.12,279.5 " fill="none" id="PROFILE_MANAGEMENT-backto-OPENED_FLIXXIC" style="stroke:#181818;stroke-width:1.0;"/><polygon fill="#181818" points="196.45,279.5,205.45,283.5,201.45,279.5,205.45,275.5,196.45,279.5" style="stroke:#181818;stroke-width:1.0;"/></g><!--MD5=[a055305320a23256d70c8e13861e07bf]
link CONTENT_INTERACTION to CONTENT_INTERACTION--><g id="link_CONTENT_INTERACTION_CONTENT_INTERACTION"><path d="M706.89,260.84 C727,262.77 741.5,268.99 741.5,279.5 C741.5,288.94 729.8,294.92 712.83,297.44 " fill="none" id="CONTENT_INTERACTION-to-CONTENT_INTERACTION" style="stroke:#181818;stroke-width:1.0;"/><polygon fill="#181818" points="707.89,298.16,717.3044,301.0528,712.854,297.5609,716.3459,293.1104,707.89,298.16" style="stroke:#181818;stroke-width:1.0;"/><path d="M746.5,220 L746.5,339 L862.5,339 L862.5,230 L852.5,220 L746.5,220 " fill="#FEFFDD" style="stroke:#181818;stroke-width:0.5;"/><path d="M852.5,220 L852.5,230 L862.5,230 L852.5,220 " fill="#FEFFDD" style="stroke:#181818;stroke-width:0.5;"/><text fill="#000000" font-family="sans-serif" font-size="13" lengthAdjust="spacing" textLength="75" x="752.5" y="237.077">View content</text><text fill="#000000" font-family="sans-serif" font-size="13" lengthAdjust="spacing" textLength="63" x="752.5" y="252.677">Comments</text><text fill="#000000" font-family="sans-serif" font-size="13" lengthAdjust="spacing" textLength="49" x="752.5" y="268.277">Reviews</text><text fill="#000000" font-family="sans-serif" font-size="13" lengthAdjust="spacing" textLength="95" x="752.5" y="283.8771">Search and filter</text><text fill="#000000" font-family="sans-serif" font-size="13" lengthAdjust="spacing" textLength="66" x="752.5" y="299.4771">Watch later</text><text fill="#000000" font-family="sans-serif" font-size="13" lengthAdjust="spacing" textLength="54" x="752.5" y="315.0771">Favorites</text><text fill="#000000" font-family="sans-serif" font-size="13" lengthAdjust="spacing" textLength="41" x="752.5" y="330.6771">History</text></g><!--MD5=[7cac6750cc2eeac2222bb54e73301a2c]
link AUTHENTICATION to AUTHENTICATION--><g id="link_AUTHENTICATION_AUTHENTICATION"><path d="M482.93,102.07 C502.54,102.6 517.5,106.07 517.5,112.5 C517.5,118.27 505.43,121.67 488.75,122.68 " fill="none" id="AUTHENTICATION-to-AUTHENTICATION" style="stroke:#181818;stroke-width:1.0;"/><polygon fill="#181818" points="483.93,122.93,493.093,126.541,488.9254,122.7159,492.7505,118.5483,483.93,122.93" style="stroke:#181818;stroke-width:1.0;"/><path d="M522.5,92 L522.5,133 L591.5,133 L591.5,102 L581.5,92 L522.5,92 " fill="#FEFFDD" style="stroke:#181818;stroke-width:0.5;"/><path d="M581.5,92 L581.5,102 L591.5,102 L581.5,92 " fill="#FEFFDD" style="stroke:#181818;stroke-width:0.5;"/><text fill="#000000" font-family="sans-serif" font-size="13" lengthAdjust="spacing" textLength="31" x="528.5" y="109.077">Login</text><text fill="#000000" font-family="sans-serif" font-size="13" lengthAdjust="spacing" textLength="48" x="528.5" y="124.677">Register</text></g><!--MD5=[b835415b5b60a9dbc50c2cab32413b83]
link PROFILE_MANAGEMENT to PROFILE_MANAGEMENT--><g id="link_PROFILE_MANAGEMENT_PROFILE_MANAGEMENT"><path d="M195.5,260.81 C215.53,262.71 230,268.94 230,279.5 C230,288.99 218.32,294.98 201.42,297.48 " fill="none" id="PROFILE_MANAGEMENT-to-PROFILE_MANAGEMENT" style="stroke:#181818;stroke-width:1.0;"/><polygon fill="#181818" points="196.5,298.19,205.9144,301.0828,201.464,297.5909,204.9559,293.1404,196.5,298.19" style="stroke:#181818;stroke-width:1.0;"/><path d="M235,259 L235,300 L318,300 L318,269 L308,259 L235,259 " fill="#FEFFDD" style="stroke:#181818;stroke-width:0.5;"/><path d="M308,259 L308,269 L318,269 L308,259 " fill="#FEFFDD" style="stroke:#181818;stroke-width:0.5;"/><text fill="#000000" font-family="sans-serif" font-size="13" lengthAdjust="spacing" textLength="62" x="241" y="276.077">Edit profile</text><text fill="#000000" font-family="sans-serif" font-size="13" lengthAdjust="spacing" textLength="48" x="241" y="291.677">Security</text></g><!--MD5=[cac4be4de250e31e43952093beaf08c3]
link CONTENT_INTERACTION to logout--><g id="link_CONTENT_INTERACTION_logout"><path d="M578.87,304.84 C533.15,339.47 451.59,401.25 422.06,423.62 " fill="none" id="CONTENT_INTERACTION-to-logout" style="stroke:#181818;stroke-width:1.0;"/><polygon fill="#181818" points="418.48,427.09,428.066,424.8298,422.4611,424.0649,423.2259,418.46,418.48,427.09" style="stroke:#181818;stroke-width:1.0;"/></g><!--MD5=[6df7ea0a6b43b35df3e5ee88b0dde7a7]
link PROFILE_MANAGEMENT to logout--><g id="link_PROFILE_MANAGEMENT_logout"><path d="M150.81,304.84 C224.04,340.63 356.59,405.41 398.17,425.73 " fill="none" id="PROFILE_MANAGEMENT-to-logout" style="stroke:#181818;stroke-width:1.0;"/><polygon fill="#181818" points="402.41,428.29,396.0814,420.7436,397.9181,426.0939,392.5677,427.9306,402.41,428.29" style="stroke:#181818;stroke-width:1.0;"/></g><!--MD5=[b5444ff0a1cb1db238836b934281553b]
link OPENED_FLIXXIC to logout--><g id="link_OPENED_FLIXXIC_logout"><path d="M407.42,304.66 C404.58,327.07 401.48,361.31 404,391 C404.74,399.72 406.35,409.36 407.83,417.11 " fill="none" id="OPENED_FLIXXIC-to-logout" style="stroke:#181818;stroke-width:1.0;"/><polygon fill="#181818" points="408.93,421.61,411.1034,412.004,407.9577,416.7055,403.2562,413.5597,408.93,421.61" style="stroke:#181818;stroke-width:1.0;"/></g><!--MD5=[6a9214561abce99594fc3043caf74619]
reverse link OPENED_FLIXXIC to logout--><g id="link_OPENED_FLIXXIC_logout"><path d="M411,310.49 C411,344.2 411,397.26 411,420.48 " fill="none" id="OPENED_FLIXXIC-backto-logout" style="stroke:#181818;stroke-width:1.0;"/><polygon fill="#181818" points="411,305.84,407,314.84,411,310.84,415,314.84,411,305.84" style="stroke:#181818;stroke-width:1.0;"/><text fill="#000000" font-family="sans-serif" font-size="13" lengthAdjust="spacing" textLength="31" x="412" y="387.077">Login</text></g><!--MD5=[7eba9e1f5a505d6e95b4634a0ff1d65b]
link logout to *end--><g id="link_logout_*end"><path d="M411,445.51 C411,462.99 411,496.25 411,515.73 " fill="none" id="logout-to-*end" style="stroke:#181818;stroke-width:1.0;"/><polygon fill="#181818" points="411,520.54,415,511.54,411,515.54,407,511.54,411,520.54" style="stroke:#181818;stroke-width:1.0;"/><text fill="#000000" font-family="sans-serif" font-size="13" lengthAdjust="spacing" textLength="39" x="412" y="488.077">Logout</text></g><!--MD5=[bb599a703ff72f2474d9d77d41a3f742]
@startuml use-cases-context-v2

[*] - -> AUTHENTICATION

AUTHENTICATION - -> OPENED_FLIXXIC: Login
OPENED_FLIXXIC -right-> CONTENT_INTERACTION
OPENED_FLIXXIC -left-> PROFILE_MANAGEMENT

CONTENT_INTERACTION - -> CONTENT_INTERACTION
note on link
  View content
  Comments
  Reviews
  Search and filter
  Watch later
  Favorites
  History
end note


AUTHENTICATION - -> AUTHENTICATION
note on link
  Login
  Register
end note

PROFILE_MANAGEMENT - -> PROFILE_MANAGEMENT
note on link
  Edit profile
  Security  
end note

state logout <<choice>>


CONTENT_INTERACTION - -> logout
PROFILE_MANAGEMENT - -> logout

OPENED_FLIXXIC - -> logout
logout - -> [*]: Logout
logout -left-> OPENED_FLIXXIC: Login
@enduml

PlantUML version 1.2022.7(Mon Aug 22 12:01:30 ECT 2022)
(GPL source distribution)
Java Runtime: OpenJDK Runtime Environment
JVM: OpenJDK 64-Bit Server VM
Default Encoding: UTF-8
Language: en
Country: null
--></g></svg>