<?xml version="1.0" encoding="UTF-8" standalone="no"?><svg xmlns="http://www.w3.org/2000/svg" xmlns:xlink="http://www.w3.org/1999/xlink" contentStyleType="text/css" height="2331px" preserveAspectRatio="none" style="width:1323px;height:2331px;background:#FFFFFF;" version="1.1" viewBox="0 0 1323 2331" width="1323px" zoomAndPan="magnify"><defs/><g><ellipse cx="655.14" cy="16" fill="#222222" rx="10" ry="10" style="stroke:none;stroke-width:1.0;"/><g id="CONTENT_MANAGEMENT"><rect fill="#F1F1F1" height="50" rx="12.5" ry="12.5" style="stroke:#181818;stroke-width:0.5;" width="196" x="557.14" y="513.9"/><line style="stroke:#181818;stroke-width:0.5;" x1="557.14" x2="753.14" y1="540.6999" y2="540.6999"/><text fill="#000000" font-family="sans-serif" font-size="14" lengthAdjust="spacing" textLength="176" x="567.14" y="531.9059">CONTENT_MANAGEMENT</text></g><g id="elem_union"><polygon fill="#F1F1F1" points="687.14,2221.6,699.14,2233.6,687.14,2245.6,675.14,2233.6,687.14,2221.6" style="stroke:#181818;stroke-width:0.5;"/></g><ellipse cx="687.14" cy="2315.6" fill="none" rx="10" ry="10" style="stroke:#222222;stroke-width:1.0;"/><ellipse cx="687.64" cy="2316.1" fill="#222222" rx="6" ry="6" style="stroke:none;stroke-width:1.0;"/><path d="M198.47,1051.8 L675.81,1051.8 A12.5,12.5 0 0 1 688.31,1064.3 L688.31,1078.5999 L185.97,1078.5999 L185.97,1064.3 A12.5,12.5 0 0 1 198.47,1051.8 " fill="#F1F1F1" style="stroke:#F1F1F1;stroke-width:1.0;"/><rect fill="none" height="1109.7999" rx="12.5" ry="12.5" style="stroke:#181818;stroke-width:0.5;" width="502.34" x="185.97" y="1051.8"/><line style="stroke:#181818;stroke-width:0.5;" x1="185.97" x2="688.31" y1="1078.5999" y2="1078.5999"/><text fill="#000000" font-family="sans-serif" font-size="14" lengthAdjust="spacing" textLength="105" x="384.64" y="1069.8059">ADD_CONTENT</text><g id="ADD_CONTENT.ACS1"><rect fill="#F1F1F1" height="50" rx="12.5" ry="12.5" style="stroke:#181818;stroke-width:0.5;" width="50" x="544.2" y="1146.5999"/><line style="stroke:#181818;stroke-width:0.5;" x1="544.2" x2="594.2" y1="1173.3999" y2="1173.3999"/><text fill="#000000" font-family="sans-serif" font-size="14" lengthAdjust="spacing" textLength="4" x="567.2" y="1164.6059"> </text></g><g id="ADD_CONTENT.ACS2"><rect fill="#F1F1F1" height="50" rx="12.5" ry="12.5" style="stroke:#181818;stroke-width:0.5;" width="50" x="243.2" y="1549.5999"/><line style="stroke:#181818;stroke-width:0.5;" x1="243.2" x2="293.2" y1="1576.3999" y2="1576.3999"/><text fill="#000000" font-family="sans-serif" font-size="14" lengthAdjust="spacing" textLength="4" x="266.2" y="1567.6059"> </text></g><g id="ADD_CONTENT.ACS3"><rect fill="#F1F1F1" height="50" rx="12.5" ry="12.5" style="stroke:#181818;stroke-width:0.5;" width="50" x="454.2" y="1617.5999"/><line style="stroke:#181818;stroke-width:0.5;" x1="454.2" x2="504.2" y1="1644.3999" y2="1644.3999"/><text fill="#000000" font-family="sans-serif" font-size="14" lengthAdjust="spacing" textLength="4" x="477.2" y="1635.6059"> </text></g><g id="ADD_CONTENT.ACS4"><rect fill="#F1F1F1" height="50" rx="12.5" ry="12.5" style="stroke:#181818;stroke-width:0.5;" width="50" x="299.2" y="1983.5999"/><line style="stroke:#181818;stroke-width:0.5;" x1="299.2" x2="349.2" y1="2010.3999" y2="2010.3999"/><text fill="#000000" font-family="sans-serif" font-size="14" lengthAdjust="spacing" textLength="4" x="322.2" y="2001.6059"> </text></g><g id="elem_ACSC1"><polygon fill="#F1F1F1" points="470.2,1298.5999,482.2,1310.5999,470.2,1322.5999,458.2,1310.5999,470.2,1298.5999" style="stroke:#181818;stroke-width:0.5;"/></g><g id="elem_ACSC2"><polygon fill="#F1F1F1" points="268.2,1685.5999,280.2,1697.5999,268.2,1709.5999,256.2,1697.5999,268.2,1685.5999" style="stroke:#181818;stroke-width:0.5;"/></g><g id="elem_ACSC3"><polygon fill="#F1F1F1" points="470.2,2070.5999,482.2,2082.5999,470.2,2094.5999,458.2,2082.5999,470.2,2070.5999" style="stroke:#181818;stroke-width:0.5;"/></g><ellipse cx="569.2" cy="1099.5999" fill="#222222" rx="10" ry="10" style="stroke:none;stroke-width:1.0;"/><ellipse cx="470.2" cy="2141.5999" fill="none" rx="10" ry="10" style="stroke:#222222;stroke-width:1.0;"/><ellipse cx="470.7" cy="2142.0999" fill="#222222" rx="6" ry="6" style="stroke:none;stroke-width:1.0;"/><!--MD5=[b3141f9168e18fb96e209c9ea3e64182]
link *start*ADD_CONTENT to ACS1--><g id="link_*start*ADD_CONTENT_ACS1"><path d="M569.2,1110.0399 C569.2,1117.8499 569.2,1129.3899 569.2,1140.3099 " fill="none" id="*start*ADD_CONTENT-to-ACS1" style="stroke:#181818;stroke-width:1.0;"/><polygon fill="#181818" points="569.2,1145.2799,573.2,1136.2799,569.2,1140.2799,565.2,1136.2799,569.2,1145.2799" style="stroke:#181818;stroke-width:1.0;"/></g><!--MD5=[1d37679425ed7d798427d92215535fcc]
link ACS1 to ACSC1--><g id="link_ACS1_ACSC1"><path d="M543.88,1184.2899 C530.79,1191.4399 515.45,1201.6999 505.2,1214.5999 C486.17,1238.5399 476.84,1273.8299 472.81,1293.9699 " fill="none" id="ACS1-to-ACSC1" style="stroke:#181818;stroke-width:1.0;"/><polygon fill="#181818" points="471.73,1298.7099,477.3315,1290.6091,472.6583,1293.7969,469.4706,1289.1237,471.73,1298.7099" style="stroke:#181818;stroke-width:1.0;"/><path d="M510.2,1219.5999 L510.2,1275.5999 L649.2,1275.5999 L649.2,1229.5999 L639.2,1219.5999 L510.2,1219.5999 " fill="#FEFFDD" style="stroke:#181818;stroke-width:0.5;"/><path d="M639.2,1219.5999 L639.2,1229.5999 L649.2,1229.5999 L639.2,1219.5999 " fill="#FEFFDD" style="stroke:#181818;stroke-width:0.5;"/><text fill="#000000" font-family="sans-serif" font-size="13" font-weight="bold" lengthAdjust="spacing" textLength="110" x="520.2" y="1236.6769">System allows to:</text><text fill="#000000" font-family="sans-serif" font-size="13" lengthAdjust="spacing" textLength="57" x="516.2" y="1252.277">- Use API</text><text fill="#000000" font-family="sans-serif" font-size="13" lengthAdjust="spacing" textLength="60" x="516.2" y="1267.877">- Manually</text></g><!--MD5=[f44f0678449f39ff85d33440daf6af7a]
link ACSC1 to ACS2--><g id="link_ACSC1_ACS2"><path d="M458.3,1311.3899 C418.94,1310.9899 294.07,1311.9999 269.2,1340.5999 C219.73,1397.4699 241.74,1494.9799 257.39,1543.8499 " fill="none" id="ACSC1-to-ACS2" style="stroke:#181818;stroke-width:1.0;"/><polygon fill="#181818" points="259.16,1548.2799,260.1618,1538.4821,257.6046,1543.528,252.5587,1540.9708,259.16,1548.2799" style="stroke:#181818;stroke-width:1.0;"/><path d="M274.2,1345.5999 L274.2,1526.5999 L443.2,1526.5999 L443.2,1355.5999 L433.2,1345.5999 L274.2,1345.5999 " fill="#FEFFDD" style="stroke:#181818;stroke-width:0.5;"/><path d="M433.2,1345.5999 L433.2,1355.5999 L443.2,1355.5999 L433.2,1345.5999 " fill="#FEFFDD" style="stroke:#181818;stroke-width:0.5;"/><text fill="#000000" font-family="sans-serif" font-size="13" font-weight="bold" lengthAdjust="spacing" textLength="60" x="284.2" y="1362.6769">Manually:</text><text fill="#000000" font-family="sans-serif" font-size="13" lengthAdjust="spacing" textLength="80" x="348.2" y="1362.6769">                    </text><text fill="#000000" font-family="sans-serif" font-size="13" lengthAdjust="spacing" textLength="42" x="280.2" y="1378.277">- Name</text><text fill="#000000" font-family="sans-serif" font-size="13" lengthAdjust="spacing" textLength="35" x="280.2" y="1393.877">- Year</text><text fill="#000000" font-family="sans-serif" font-size="13" lengthAdjust="spacing" textLength="31" x="280.2" y="1409.477">- Age</text><text fill="#000000" font-family="sans-serif" font-size="13" lengthAdjust="spacing" textLength="59" x="280.2" y="1425.077">- Storyline</text><text fill="#000000" font-family="sans-serif" font-size="13" lengthAdjust="spacing" textLength="50" x="280.2" y="1440.677">- Genres</text><text fill="#000000" font-family="sans-serif" font-size="13" lengthAdjust="spacing" textLength="46" x="280.2" y="1456.277">- Actors</text><text fill="#000000" font-family="sans-serif" font-size="13" lengthAdjust="spacing" textLength="44" x="280.2" y="1471.877">- Trailer</text><text fill="#000000" font-family="sans-serif" font-size="13" lengthAdjust="spacing" textLength="46" x="280.2" y="1487.477">- Poster</text><text fill="#000000" font-family="sans-serif" font-size="13" lengthAdjust="spacing" textLength="45" x="280.2" y="1503.0771">- Rating</text><text fill="#000000" font-family="sans-serif" font-size="13" lengthAdjust="spacing" textLength="56" x="280.2" y="1518.6771">- Duration</text></g><!--MD5=[b60803962aebe6a940c70bdadff3ed75]
link ACSC1 to ACS3--><g id="link_ACSC1_ACS3"><path d="M469.97,1323.0599 C469.4,1355.6799 468.12,1451.8299 471.2,1531.5999 C472.24,1558.6499 474.57,1589.3699 476.45,1611.4499 " fill="none" id="ACSC1-to-ACS3" style="stroke:#181818;stroke-width:1.0;"/><polygon fill="#181818" points="476.94,1616.1599,480.1545,1606.8504,476.5118,1611.1783,472.1839,1607.5356,476.94,1616.1599" style="stroke:#181818;stroke-width:1.0;"/><path d="M476.2,1408.0999 L476.2,1464.0999 L649.2,1464.0999 L649.2,1418.0999 L639.2,1408.0999 L476.2,1408.0999 " fill="#FEFFDD" style="stroke:#181818;stroke-width:0.5;"/><path d="M639.2,1408.0999 L639.2,1418.0999 L649.2,1418.0999 L639.2,1408.0999 " fill="#FEFFDD" style="stroke:#181818;stroke-width:0.5;"/><text fill="#000000" font-family="sans-serif" font-size="13" font-weight="bold" lengthAdjust="spacing" textLength="53" x="486.2" y="1425.1769">Use API:</text><text fill="#000000" font-family="sans-serif" font-size="13" lengthAdjust="spacing" textLength="124" x="498.2" y="1440.777">- Insert content name</text><text fill="#000000" font-family="sans-serif" font-size="13" lengthAdjust="spacing" textLength="136" x="498.2" y="1456.377">- Select type of content</text></g><!--MD5=[fccc786fb716862dcf855c0c568b0bcc]
link ACS2 to ACSC2--><g id="link_ACS2_ACSC2"><path d="M268.2,1600.0899 C268.2,1623.4899 268.2,1658.1999 268.2,1678.9999 " fill="none" id="ACS2-to-ACSC2" style="stroke:#181818;stroke-width:1.0;"/><polygon fill="#181818" points="268.2,1683.9699,272.2,1674.9699,268.2,1678.9699,264.2,1674.9699,268.2,1683.9699" style="stroke:#181818;stroke-width:1.0;"/><path d="M273.2,1630.0999 L273.2,1655.0999 L344.2,1655.0999 L344.2,1640.0999 L334.2,1630.0999 L273.2,1630.0999 " fill="#FEFFDD" style="stroke:#181818;stroke-width:0.5;"/><path d="M334.2,1630.0999 L334.2,1640.0999 L344.2,1640.0999 L334.2,1630.0999 " fill="#FEFFDD" style="stroke:#181818;stroke-width:0.5;"/><text fill="#000000" font-family="sans-serif" font-size="13" lengthAdjust="spacing" textLength="50" x="279.2" y="1647.1769">Is serie?</text></g><!--MD5=[bc8c32f95d614e36d24d9022d932c3a6]
link ACSC2 to ACS4--><g id="link_ACSC2_ACS4"><path d="M262.92,1704.7799 C258.55,1710.3399 252.67,1718.9399 250.2,1727.5999 C221.19,1829.3199 196.97,1874.1899 250.2,1965.5999 C259.55,1981.6599 277.57,1992.0699 293.49,1998.5199 " fill="none" id="ACSC2-to-ACS4" style="stroke:#181818;stroke-width:1.0;"/><polygon fill="#181818" points="297.8,2000.5499,290.8215,1993.6,293.1296,1998.7646,287.965,2001.0727,297.8,2000.5499" style="stroke:#181818;stroke-width:1.0;"/><path d="M255.2,1732.5999 L255.2,1960.5999 L432.2,1960.5999 L432.2,1742.5999 L422.2,1732.5999 L255.2,1732.5999 " fill="#FEFFDD" style="stroke:#181818;stroke-width:0.5;"/><path d="M422.2,1732.5999 L422.2,1742.5999 L432.2,1742.5999 L422.2,1732.5999 " fill="#FEFFDD" style="stroke:#181818;stroke-width:0.5;"/><text fill="#000000" font-family="sans-serif" font-size="13" font-weight="bold" lengthAdjust="spacing" textLength="80" x="265.2" y="1749.6769">Deatils serie:</text><text fill="#000000" font-family="sans-serif" font-size="13" lengthAdjust="spacing" textLength="121" x="261.2" y="1765.277">- Number of seasons</text><text fill="#000000" font-family="sans-serif" font-size="13" lengthAdjust="spacing" textLength="124" x="261.2" y="1780.877">- Number of episodes</text><text fill="#000000" font-family="sans-serif" font-size="13" lengthAdjust="spacing" textLength="144" x="261.2" y="1796.477">- Details of each episode</text><text fill="#000000" font-family="sans-serif" font-size="13" lengthAdjust="spacing" textLength="42" x="277.2" y="1812.077">- Name</text><text fill="#000000" font-family="sans-serif" font-size="13" lengthAdjust="spacing" textLength="35" x="277.2" y="1827.677">- Year</text><text fill="#000000" font-family="sans-serif" font-size="13" lengthAdjust="spacing" textLength="31" x="277.2" y="1843.277">- Age</text><text fill="#000000" font-family="sans-serif" font-size="13" lengthAdjust="spacing" textLength="59" x="277.2" y="1858.877">- Storyline</text><text fill="#000000" font-family="sans-serif" font-size="13" lengthAdjust="spacing" textLength="50" x="277.2" y="1874.477">- Genres</text><text fill="#000000" font-family="sans-serif" font-size="13" lengthAdjust="spacing" textLength="46" x="277.2" y="1890.0771">- Actors</text><text fill="#000000" font-family="sans-serif" font-size="13" lengthAdjust="spacing" textLength="44" x="277.2" y="1905.6771">- Trailer</text><text fill="#000000" font-family="sans-serif" font-size="13" lengthAdjust="spacing" textLength="46" x="277.2" y="1921.2771">- Poster</text><text fill="#000000" font-family="sans-serif" font-size="13" lengthAdjust="spacing" textLength="45" x="277.2" y="1936.8771">- Rating</text><text fill="#000000" font-family="sans-serif" font-size="13" lengthAdjust="spacing" textLength="56" x="277.2" y="1952.4771">- Duration</text></g><!--MD5=[c23b10c79d12f3c856b721a76909d2e3]
link ACSC2 to ACSC3--><g id="link_ACSC2_ACSC3"><path d="M279.56,1698.8199 C313.93,1699.7499 415.76,1704.4399 437.2,1727.5999 C483.11,1777.1899 474.62,2000.9599 471.21,2064.6399 " fill="none" id="ACSC2-to-ACSC3" style="stroke:#181818;stroke-width:1.0;"/><polygon fill="#181818" points="470.88,2069.6199,475.3633,2060.8507,471.1518,2064.6273,467.3752,2060.4158,470.88,2069.6199" style="stroke:#181818;stroke-width:1.0;"/></g><!--MD5=[abe166a273c4ba907359f97241cc50ee]
link ACS3 to ACSC3--><g id="link_ACS3_ACSC3"><path d="M480.31,1667.6399 C482.94,1730.8599 488.38,1906.9099 475.2,2052.5999 C474.79,2057.0799 474.07,2061.8999 473.31,2066.3099 " fill="none" id="ACS3-to-ACSC3" style="stroke:#181818;stroke-width:1.0;"/><polygon fill="#181818" points="472.26,2070.9799,477.8387,2062.8634,473.1745,2066.0643,469.9737,2061.4001,472.26,2070.9799" style="stroke:#181818;stroke-width:1.0;"/></g><!--MD5=[e051f35b3234d5b1c11d74dfabd6536e]
link ACS4 to ACSC3--><g id="link_ACS4_ACSC3"><path d="M349.63,2022.1399 C381.09,2037.6599 433.44,2063.4699 457.45,2075.3099 " fill="none" id="ACS4-to-ACSC3" style="stroke:#181818;stroke-width:1.0;"/><polygon fill="#181818" points="461.66,2077.8799,455.3409,2070.3256,457.1708,2075.6782,451.8182,2077.5082,461.66,2077.8799" style="stroke:#181818;stroke-width:1.0;"/></g><!--MD5=[f99c0f37739126df2dfc9725616f1115]
link ACSC3 to *end*ADD_CONTENT--><g id="link_ACSC3_*end*ADD_CONTENT"><path d="M470.2,2095.1299 C470.2,2103.8899 470.2,2115.9999 470.2,2125.5199 " fill="none" id="ACSC3-to-*end*ADD_CONTENT" style="stroke:#181818;stroke-width:1.0;"/><polygon fill="#181818" points="470.2,2130.3399,474.2,2121.3399,470.2,2125.3399,466.2,2121.3399,470.2,2130.3399" style="stroke:#181818;stroke-width:1.0;"/></g><!--MD5=[9ba8c4202eabdb843aad9f8e32d518c9]
link ACSC3 to ACS1--><g id="link_ACSC3_ACS1"><path d="M480.29,2080.1999 C520.64,2074.3099 668.2,2050.0199 668.2,2009.5999 C668.2,1309.5999 668.2,1309.5999 668.2,1309.5999 C668.2,1266.9199 679.31,1249.1099 654.2,1214.5999 C641.29,1196.8699 618.8,1186.2199 600.2,1180.0799 " fill="none" id="ACSC3-to-ACS1" style="stroke:#181818;stroke-width:1.0;"/><polygon fill="#181818" points="595.56,1178.3199,602.9461,1184.8349,600.3299,1179.8194,605.3453,1177.2032,595.56,1178.3199" style="stroke:#181818;stroke-width:1.0;"/></g><path d="M735.8,1315.3 L1140.47,1315.3 A12.5,12.5 0 0 1 1152.97,1327.8 L1152.97,1342.0999 L723.3,1342.0999 L723.3,1327.8 A12.5,12.5 0 0 1 735.8,1315.3 " fill="#F1F1F1" style="stroke:#F1F1F1;stroke-width:1.0;"/><rect fill="none" height="582.7999" rx="12.5" ry="12.5" style="stroke:#181818;stroke-width:0.5;" width="429.67" x="723.3" y="1315.3"/><line style="stroke:#181818;stroke-width:0.5;" x1="723.3" x2="1152.97" y1="1342.0999" y2="1342.0999"/><text fill="#000000" font-family="sans-serif" font-size="14" lengthAdjust="spacing" textLength="130" x="873.135" y="1333.3059">DELETE_CONTENT</text><g id="DELETE_CONTENT.DCS1"><rect fill="#F1F1F1" height="50" rx="12.5" ry="12.5" style="stroke:#181818;stroke-width:0.5;" width="50" x="960.43" y="1410.0999"/><line style="stroke:#181818;stroke-width:0.5;" x1="960.43" x2="1010.43" y1="1436.8999" y2="1436.8999"/><text fill="#000000" font-family="sans-serif" font-size="14" lengthAdjust="spacing" textLength="4" x="983.43" y="1428.1059"> </text></g><g id="DELETE_CONTENT.DCS2"><rect fill="#F1F1F1" height="50" rx="12.5" ry="12.5" style="stroke:#181818;stroke-width:0.5;" width="50" x="744.43" y="1720.0999"/><line style="stroke:#181818;stroke-width:0.5;" x1="744.43" x2="794.43" y1="1746.8999" y2="1746.8999"/><text fill="#000000" font-family="sans-serif" font-size="14" lengthAdjust="spacing" textLength="4" x="767.43" y="1738.1059"> </text></g><g id="DELETE_CONTENT.DCS3"><rect fill="#F1F1F1" height="50" rx="12.5" ry="12.5" style="stroke:#181818;stroke-width:0.5;" width="50" x="842.43" y="1720.0999"/><line style="stroke:#181818;stroke-width:0.5;" x1="842.43" x2="892.43" y1="1746.8999" y2="1746.8999"/><text fill="#000000" font-family="sans-serif" font-size="14" lengthAdjust="spacing" textLength="4" x="865.43" y="1738.1059"> </text></g><g id="elem_DCSC1"><polygon fill="#F1F1F1" points="867.43,1562.0999,879.43,1574.0999,867.43,1586.0999,855.43,1574.0999,867.43,1562.0999" style="stroke:#181818;stroke-width:0.5;"/></g><g id="elem_DCSC2"><polygon fill="#F1F1F1" points="867.43,1807.0999,879.43,1819.0999,867.43,1831.0999,855.43,1819.0999,867.43,1807.0999" style="stroke:#181818;stroke-width:0.5;"/></g><ellipse cx="985.43" cy="1363.0999" fill="#222222" rx="10" ry="10" style="stroke:none;stroke-width:1.0;"/><ellipse cx="867.43" cy="1878.0999" fill="none" rx="10" ry="10" style="stroke:#222222;stroke-width:1.0;"/><ellipse cx="867.93" cy="1878.5999" fill="#222222" rx="6" ry="6" style="stroke:none;stroke-width:1.0;"/><!--MD5=[a3976961cdfc47de0f81ee0d324dc09a]
link *start*DELETE_CONTENT to DCS1--><g id="link_*start*DELETE_CONTENT_DCS1"><path d="M985.43,1373.5399 C985.43,1381.3499 985.43,1392.8899 985.43,1403.8099 " fill="none" id="*start*DELETE_CONTENT-to-DCS1" style="stroke:#181818;stroke-width:1.0;"/><polygon fill="#181818" points="985.43,1408.7799,989.43,1399.7799,985.43,1403.7799,981.43,1399.7799,985.43,1408.7799" style="stroke:#181818;stroke-width:1.0;"/></g><!--MD5=[3f70db49714d46c62b66cd94df8993d6]
link DCS1 to DCSC1--><g id="link_DCS1_DCSC1"><path d="M960.29,1457.5399 C953.29,1463.9099 945.85,1471.0699 939.43,1478.0999 C913.68,1506.3299 887.62,1543.2599 875.09,1561.6499 " fill="none" id="DCS1-to-DCSC1" style="stroke:#181818;stroke-width:1.0;"/><polygon fill="#181818" points="871.93,1565.3199,880.2837,1560.1031,874.7298,1561.1773,873.6556,1555.6234,871.93,1565.3199" style="stroke:#181818;stroke-width:1.0;"/><path d="M944.43,1483.0999 L944.43,1539.0999 L1083.43,1539.0999 L1083.43,1493.0999 L1073.43,1483.0999 L944.43,1483.0999 " fill="#FEFFDD" style="stroke:#181818;stroke-width:0.5;"/><path d="M1073.43,1483.0999 L1073.43,1493.0999 L1083.43,1493.0999 L1073.43,1483.0999 " fill="#FEFFDD" style="stroke:#181818;stroke-width:0.5;"/><text fill="#000000" font-family="sans-serif" font-size="13" font-weight="bold" lengthAdjust="spacing" textLength="110" x="954.43" y="1500.1769">System allows to:</text><text fill="#000000" font-family="sans-serif" font-size="13" lengthAdjust="spacing" textLength="49" x="950.43" y="1515.777">- Search</text><text fill="#000000" font-family="sans-serif" font-size="13" lengthAdjust="spacing" textLength="37" x="950.43" y="1531.377">- Filter</text></g><!--MD5=[06002ea0e7898fc9ec84c2339fff4be4]
link DCSC1 to DCS2--><g id="link_DCSC1_DCS2"><path d="M857.28,1576.2399 C832.6,1579.2499 770.61,1588.2599 758.43,1604.0999 C734.3,1635.4899 745.21,1683.3899 756.42,1714.2199 " fill="none" id="DCSC1-to-DCS2" style="stroke:#181818;stroke-width:1.0;"/><polygon fill="#181818" points="758.51,1718.7799,759.0853,1708.9479,756.7497,1714.1,751.5975,1711.7644,758.51,1718.7799" style="stroke:#181818;stroke-width:1.0;"/><path d="M763.43,1632.5999 L763.43,1673.5999 L858.43,1673.5999 L858.43,1642.5999 L848.43,1632.5999 L763.43,1632.5999 " fill="#FEFFDD" style="stroke:#181818;stroke-width:0.5;"/><path d="M848.43,1632.5999 L848.43,1642.5999 L858.43,1642.5999 L848.43,1632.5999 " fill="#FEFFDD" style="stroke:#181818;stroke-width:0.5;"/><text fill="#000000" font-family="sans-serif" font-size="13" font-weight="bold" lengthAdjust="spacing" textLength="47" x="773.43" y="1649.6769">Search:</text><text fill="#000000" font-family="sans-serif" font-size="13" lengthAdjust="spacing" textLength="42" x="769.43" y="1665.277">- Name</text></g><!--MD5=[e85354f58e5e1e6fd2d676aa4eedc625]
link DCSC1 to DCS3--><g id="link_DCSC1_DCS3"><path d="M867.43,1586.7199 C867.43,1612.6199 867.43,1675.8399 867.43,1713.7999 " fill="none" id="DCSC1-to-DCS3" style="stroke:#181818;stroke-width:1.0;"/><polygon fill="#181818" points="867.43,1718.6599,871.43,1709.6599,867.43,1713.6599,863.43,1709.6599,867.43,1718.6599" style="stroke:#181818;stroke-width:1.0;"/><path d="M872.43,1609.0999 L872.43,1697.0999 L1082.43,1697.0999 L1082.43,1619.0999 L1072.43,1609.0999 L872.43,1609.0999 " fill="#FEFFDD" style="stroke:#181818;stroke-width:0.5;"/><path d="M1072.43,1609.0999 L1072.43,1619.0999 L1082.43,1619.0999 L1072.43,1609.0999 " fill="#FEFFDD" style="stroke:#181818;stroke-width:0.5;"/><text fill="#000000" font-family="sans-serif" font-size="13" font-weight="bold" lengthAdjust="spacing" textLength="36" x="882.43" y="1626.1769">Filter:</text><text fill="#000000" font-family="sans-serif" font-size="13" lengthAdjust="spacing" textLength="189" x="878.43" y="1641.777">- Type of content (movie, series)</text><text fill="#000000" font-family="sans-serif" font-size="13" lengthAdjust="spacing" textLength="43" x="878.43" y="1657.377">- Genre</text><text fill="#000000" font-family="sans-serif" font-size="13" lengthAdjust="spacing" textLength="45" x="878.43" y="1672.977">- Rating</text><text fill="#000000" font-family="sans-serif" font-size="13" lengthAdjust="spacing" textLength="35" x="878.43" y="1688.577">- Year</text></g><!--MD5=[17f7e0a17aa95c317a42bd479eb702c6]
link DCS2 to DCSC2--><g id="link_DCS2_DCSC2"><path d="M794.93,1764.8299 C814.9,1779.4999 841.7,1799.1999 856.49,1810.0599 " fill="none" id="DCS2-to-DCSC2" style="stroke:#181818;stroke-width:1.0;"/><polygon fill="#181818" points="860.02,1813.3799,855.1318,1804.8298,855.9893,1810.4212,850.3979,1811.2788,860.02,1813.3799" style="stroke:#181818;stroke-width:1.0;"/></g><!--MD5=[15004effc0704267013e4f008569baa7]
link DCS3 to DCSC2--><g id="link_DCS3_DCSC2"><path d="M867.43,1770.4799 C867.43,1780.4199 867.43,1791.6899 867.43,1800.7699 " fill="none" id="DCS3-to-DCSC2" style="stroke:#181818;stroke-width:1.0;"/><polygon fill="#181818" points="867.43,1805.6599,871.43,1796.6599,867.43,1800.6599,863.43,1796.6599,867.43,1805.6599" style="stroke:#181818;stroke-width:1.0;"/></g><!--MD5=[1f152ad487637c8846e5e987b99adbcc]
link DCSC2 to *end*DELETE_CONTENT--><g id="link_DCSC2_*end*DELETE_CONTENT"><path d="M867.43,1831.6299 C867.43,1840.3899 867.43,1852.4999 867.43,1862.0199 " fill="none" id="DCSC2-to-*end*DELETE_CONTENT" style="stroke:#181818;stroke-width:1.0;"/><polygon fill="#181818" points="867.43,1866.8399,871.43,1857.8399,867.43,1861.8399,863.43,1857.8399,867.43,1866.8399" style="stroke:#181818;stroke-width:1.0;"/></g><!--MD5=[d700204aab7b477654f817e16615b784]
link DCSC2 to DCS1--><g id="link_DCSC2_DCS1"><path d="M877.37,1816.5299 C913.67,1810.2199 1039.57,1782.9399 1088.43,1702.0999 C1139.94,1616.8999 1143.97,1560.7199 1088.43,1478.0999 C1072.48,1454.3599 1040.5,1444.0299 1016.39,1439.5399 " fill="none" id="DCSC2-to-DCS1" style="stroke:#181818;stroke-width:1.0;"/><polygon fill="#181818" points="1011.75,1438.5699,1019.9288,1444.0569,1016.6756,1439.429,1021.3034,1436.1758,1011.75,1438.5699" style="stroke:#181818;stroke-width:1.0;"/></g><path d="M909.4,86 L1284.87,86 A12.5,12.5 0 0 1 1297.37,98.5 L1297.37,112.7999 L896.9,112.7999 L896.9,98.5 A12.5,12.5 0 0 1 909.4,86 " fill="#F1F1F1" style="stroke:#F1F1F1;stroke-width:1.0;"/><rect fill="none" height="905.7999" rx="12.5" ry="12.5" style="stroke:#181818;stroke-width:0.5;" width="400.47" x="896.9" y="86"/><line style="stroke:#181818;stroke-width:0.5;" x1="896.9" x2="1297.37" y1="112.7999" y2="112.7999"/><text fill="#000000" font-family="sans-serif" font-size="14" lengthAdjust="spacing" textLength="108" x="1043.135" y="104.0059">EDIT_CONTENT</text><g id="EDIT_CONTENT.ECS1"><rect fill="#F1F1F1" height="50" rx="12.5" ry="12.5" style="stroke:#181818;stroke-width:0.5;" width="50" x="1134.03" y="180.7999"/><line style="stroke:#181818;stroke-width:0.5;" x1="1134.03" x2="1184.03" y1="207.5999" y2="207.5999"/><text fill="#000000" font-family="sans-serif" font-size="14" lengthAdjust="spacing" textLength="4" x="1157.03" y="198.8059"> </text></g><g id="EDIT_CONTENT.ECS2"><rect fill="#F1F1F1" height="50" rx="12.5" ry="12.5" style="stroke:#181818;stroke-width:0.5;" width="50" x="918.03" y="490.7999"/><line style="stroke:#181818;stroke-width:0.5;" x1="918.03" x2="968.03" y1="517.5999" y2="517.5999"/><text fill="#000000" font-family="sans-serif" font-size="14" lengthAdjust="spacing" textLength="4" x="941.03" y="508.8059"> </text></g><g id="EDIT_CONTENT.ECS3"><rect fill="#F1F1F1" height="50" rx="12.5" ry="12.5" style="stroke:#181818;stroke-width:0.5;" width="50" x="1016.03" y="490.7999"/><line style="stroke:#181818;stroke-width:0.5;" x1="1016.03" x2="1066.03" y1="517.5999" y2="517.5999"/><text fill="#000000" font-family="sans-serif" font-size="14" lengthAdjust="spacing" textLength="4" x="1039.03" y="508.8059"> </text></g><g id="EDIT_CONTENT.ECS4"><rect fill="#F1F1F1" height="50" rx="12.5" ry="12.5" style="stroke:#181818;stroke-width:0.5;" width="50" x="1143.03" y="813.7999"/><line style="stroke:#181818;stroke-width:0.5;" x1="1143.03" x2="1193.03" y1="840.5999" y2="840.5999"/><text fill="#000000" font-family="sans-serif" font-size="14" lengthAdjust="spacing" textLength="4" x="1166.03" y="831.8059"> </text></g><g id="elem_ECSC1"><polygon fill="#F1F1F1" points="1041.03,332.7999,1053.03,344.7999,1041.03,356.7999,1029.03,344.7999,1041.03,332.7999" style="stroke:#181818;stroke-width:0.5;"/></g><g id="elem_ECSC2"><polygon fill="#F1F1F1" points="1041.03,577.7999,1053.03,589.7999,1041.03,601.7999,1029.03,589.7999,1041.03,577.7999" style="stroke:#181818;stroke-width:0.5;"/></g><g id="elem_ECSC3"><polygon fill="#F1F1F1" points="1249.03,900.7999,1261.03,912.7999,1249.03,924.7999,1237.03,912.7999,1249.03,900.7999" style="stroke:#181818;stroke-width:0.5;"/></g><ellipse cx="1159.03" cy="133.7999" fill="#222222" rx="10" ry="10" style="stroke:none;stroke-width:1.0;"/><ellipse cx="1249.03" cy="971.7999" fill="none" rx="10" ry="10" style="stroke:#222222;stroke-width:1.0;"/><ellipse cx="1249.53" cy="972.2999" fill="#222222" rx="6" ry="6" style="stroke:none;stroke-width:1.0;"/><!--MD5=[069207fbd6ac0c07d268b96cfcbdcf4b]
link *start*EDIT_CONTENT to ECS1--><g id="link_*start*EDIT_CONTENT_ECS1"><path d="M1159.03,144.2399 C1159.03,152.0499 1159.03,163.5899 1159.03,174.5099 " fill="none" id="*start*EDIT_CONTENT-to-ECS1" style="stroke:#181818;stroke-width:1.0;"/><polygon fill="#181818" points="1159.03,179.4799,1163.03,170.4799,1159.03,174.4799,1155.03,170.4799,1159.03,179.4799" style="stroke:#181818;stroke-width:1.0;"/></g><!--MD5=[02a51aac6556aff66cf6acb1f7982cd4]
link ECS1 to ECSC1--><g id="link_ECS1_ECSC1"><path d="M1133.89,228.2399 C1126.89,234.6099 1119.45,241.7699 1113.03,248.7999 C1087.28,277.0299 1061.22,313.9599 1048.69,332.3499 " fill="none" id="ECS1-to-ECSC1" style="stroke:#181818;stroke-width:1.0;"/><polygon fill="#181818" points="1045.53,336.0199,1053.8837,330.8031,1048.3298,331.8773,1047.2556,326.3234,1045.53,336.0199" style="stroke:#181818;stroke-width:1.0;"/><path d="M1118.03,253.7999 L1118.03,309.7999 L1257.03,309.7999 L1257.03,263.7999 L1247.03,253.7999 L1118.03,253.7999 " fill="#FEFFDD" style="stroke:#181818;stroke-width:0.5;"/><path d="M1247.03,253.7999 L1247.03,263.7999 L1257.03,263.7999 L1247.03,253.7999 " fill="#FEFFDD" style="stroke:#181818;stroke-width:0.5;"/><text fill="#000000" font-family="sans-serif" font-size="13" font-weight="bold" lengthAdjust="spacing" textLength="110" x="1128.03" y="270.8769">System allows to:</text><text fill="#000000" font-family="sans-serif" font-size="13" lengthAdjust="spacing" textLength="49" x="1124.03" y="286.477">- Search</text><text fill="#000000" font-family="sans-serif" font-size="13" lengthAdjust="spacing" textLength="37" x="1124.03" y="302.077">- Filter</text></g><!--MD5=[eb8e8bd55c9d80542e2bb56074b84c44]
link ECSC1 to ECS2--><g id="link_ECSC1_ECS2"><path d="M1030.88,346.9399 C1006.2,349.9499 944.21,358.9599 932.03,374.7999 C907.9,406.1899 918.81,454.0899 930.02,484.9199 " fill="none" id="ECSC1-to-ECS2" style="stroke:#181818;stroke-width:1.0;"/><polygon fill="#181818" points="932.11,489.4799,932.6853,479.6479,930.3497,484.8,925.1975,482.4644,932.11,489.4799" style="stroke:#181818;stroke-width:1.0;"/><path d="M937.03,403.2999 L937.03,444.2999 L1032.03,444.2999 L1032.03,413.2999 L1022.03,403.2999 L937.03,403.2999 " fill="#FEFFDD" style="stroke:#181818;stroke-width:0.5;"/><path d="M1022.03,403.2999 L1022.03,413.2999 L1032.03,413.2999 L1022.03,403.2999 " fill="#FEFFDD" style="stroke:#181818;stroke-width:0.5;"/><text fill="#000000" font-family="sans-serif" font-size="13" font-weight="bold" lengthAdjust="spacing" textLength="47" x="947.03" y="420.3769">Search:</text><text fill="#000000" font-family="sans-serif" font-size="13" lengthAdjust="spacing" textLength="42" x="943.03" y="435.977">- Name</text></g><!--MD5=[24ebe52eabed86ecf8283042c7a9cd20]
link ECSC1 to ECS3--><g id="link_ECSC1_ECS3"><path d="M1041.03,357.4199 C1041.03,383.3199 1041.03,446.5399 1041.03,484.4999 " fill="none" id="ECSC1-to-ECS3" style="stroke:#181818;stroke-width:1.0;"/><polygon fill="#181818" points="1041.03,489.3599,1045.03,480.3599,1041.03,484.3599,1037.03,480.3599,1041.03,489.3599" style="stroke:#181818;stroke-width:1.0;"/><path d="M1046.03,379.7999 L1046.03,467.7999 L1256.03,467.7999 L1256.03,389.7999 L1246.03,379.7999 L1046.03,379.7999 " fill="#FEFFDD" style="stroke:#181818;stroke-width:0.5;"/><path d="M1246.03,379.7999 L1246.03,389.7999 L1256.03,389.7999 L1246.03,379.7999 " fill="#FEFFDD" style="stroke:#181818;stroke-width:0.5;"/><text fill="#000000" font-family="sans-serif" font-size="13" font-weight="bold" lengthAdjust="spacing" textLength="36" x="1056.03" y="396.8769">Filter:</text><text fill="#000000" font-family="sans-serif" font-size="13" lengthAdjust="spacing" textLength="189" x="1052.03" y="412.477">- Type of content (movie, series)</text><text fill="#000000" font-family="sans-serif" font-size="13" lengthAdjust="spacing" textLength="43" x="1052.03" y="428.077">- Genre</text><text fill="#000000" font-family="sans-serif" font-size="13" lengthAdjust="spacing" textLength="45" x="1052.03" y="443.677">- Rating</text><text fill="#000000" font-family="sans-serif" font-size="13" lengthAdjust="spacing" textLength="35" x="1052.03" y="459.277">- Year</text></g><!--MD5=[1c9f1c182bb9ef3f673a70ef6d6834bc]
link ECS2 to ECSC2--><g id="link_ECS2_ECSC2"><path d="M968.53,535.5299 C988.5,550.1999 1015.3,569.8999 1030.09,580.7599 " fill="none" id="ECS2-to-ECSC2" style="stroke:#181818;stroke-width:1.0;"/><polygon fill="#181818" points="1033.62,584.0799,1028.7318,575.5298,1029.5893,581.1212,1023.9979,581.9788,1033.62,584.0799" style="stroke:#181818;stroke-width:1.0;"/></g><!--MD5=[cd90fa54cd1ee0175e84894795add411]
link ECS3 to ECSC2--><g id="link_ECS3_ECSC2"><path d="M1041.03,541.1799 C1041.03,551.1199 1041.03,562.3899 1041.03,571.4699 " fill="none" id="ECS3-to-ECSC2" style="stroke:#181818;stroke-width:1.0;"/><polygon fill="#181818" points="1041.03,576.3599,1045.03,567.3599,1041.03,571.3599,1037.03,567.3599,1041.03,576.3599" style="stroke:#181818;stroke-width:1.0;"/></g><!--MD5=[d77a55650e479c7d019d3b886197eeef]
link ECSC2 to ECS4--><g id="link_ECSC2_ECS4"><path d="M1042.45,600.7099 C1047.33,632.0399 1065.82,730.7899 1113.03,795.7999 C1119.77,805.0699 1129.12,813.2699 1138.21,819.8999 " fill="none" id="ECSC2-to-ECS4" style="stroke:#181818;stroke-width:1.0;"/><polygon fill="#181818" points="1141.63,823.0299,1136.5863,814.5705,1137.546,820.1454,1131.9711,821.105,1141.63,823.0299" style="stroke:#181818;stroke-width:1.0;"/><path d="M1118.03,624.7999 L1118.03,790.7999 L1257.03,790.7999 L1257.03,634.7999 L1247.03,624.7999 L1118.03,624.7999 " fill="#FEFFDD" style="stroke:#181818;stroke-width:0.5;"/><path d="M1247.03,624.7999 L1247.03,634.7999 L1257.03,634.7999 L1247.03,624.7999 " fill="#FEFFDD" style="stroke:#181818;stroke-width:0.5;"/><text fill="#000000" font-family="sans-serif" font-size="13" font-weight="bold" lengthAdjust="spacing" textLength="110" x="1128.03" y="641.8769">System allows to:</text><text fill="#000000" font-family="sans-serif" font-size="13" lengthAdjust="spacing" textLength="42" x="1124.03" y="657.477">- Name</text><text fill="#000000" font-family="sans-serif" font-size="13" lengthAdjust="spacing" textLength="35" x="1124.03" y="673.077">- Year</text><text fill="#000000" font-family="sans-serif" font-size="13" lengthAdjust="spacing" textLength="59" x="1124.03" y="688.677">- Storyline</text><text fill="#000000" font-family="sans-serif" font-size="13" lengthAdjust="spacing" textLength="50" x="1124.03" y="704.277">- Genres</text><text fill="#000000" font-family="sans-serif" font-size="13" lengthAdjust="spacing" textLength="46" x="1124.03" y="719.877">- Actors</text><text fill="#000000" font-family="sans-serif" font-size="13" lengthAdjust="spacing" textLength="44" x="1124.03" y="735.477">- Trailer</text><text fill="#000000" font-family="sans-serif" font-size="13" lengthAdjust="spacing" textLength="46" x="1124.03" y="751.077">- Poster</text><text fill="#000000" font-family="sans-serif" font-size="13" lengthAdjust="spacing" textLength="35" x="1124.03" y="766.677">- Rate</text><text fill="#000000" font-family="sans-serif" font-size="13" lengthAdjust="spacing" textLength="56" x="1124.03" y="782.2771">- Duration</text></g><!--MD5=[8dbcf5aacb55c07df86667c31dd7b986]
link ECS4 to ECSC3--><g id="link_ECS4_ECSC3"><path d="M1193.22,862.1899 C1208.5,875.7699 1227.19,892.3799 1238.6,902.5199 " fill="none" id="ECS4-to-ECSC3" style="stroke:#181818;stroke-width:1.0;"/><polygon fill="#181818" points="1242.01,905.4399,1237.9238,896.4788,1238.2667,902.1252,1232.6202,902.4681,1242.01,905.4399" style="stroke:#181818;stroke-width:1.0;"/></g><!--MD5=[c993e1ddaa776e1e5658478717763089]
link ECSC3 to *end*EDIT_CONTENT--><g id="link_ECSC3_*end*EDIT_CONTENT"><path d="M1249.03,925.3299 C1249.03,934.0899 1249.03,946.1999 1249.03,955.7199 " fill="none" id="ECSC3-to-*end*EDIT_CONTENT" style="stroke:#181818;stroke-width:1.0;"/><polygon fill="#181818" points="1249.03,960.5399,1253.03,951.5399,1249.03,955.5399,1245.03,951.5399,1249.03,960.5399" style="stroke:#181818;stroke-width:1.0;"/></g><!--MD5=[9fa44dbad4bb40bd8d9894f66553b56f]
link ECSC3 to ECS1--><g id="link_ECSC3_ECS1"><path d="M1253.49,904.9699 C1261.16,892.5399 1276.03,865.1699 1276.03,839.7999 C1276.03,343.7999 1276.03,343.7999 1276.03,343.7999 C1276.03,301.1199 1288.37,282.3899 1262.03,248.7999 C1244.68,226.6599 1213.73,216.1199 1190.27,211.1499 " fill="none" id="ECSC3-to-ECS1" style="stroke:#181818;stroke-width:1.0;"/><polygon fill="#181818" points="1185.48,209.9999,1193.5335,215.6693,1190.3851,210.9695,1195.0848,207.8212,1185.48,209.9999" style="stroke:#181818;stroke-width:1.0;"/></g><!--MD5=[5b976f1c0cf0de97d5b06f127151238e]
link *start to CONTENT_MANAGEMENT--><g id="link_*start_CONTENT_MANAGEMENT"><path d="M655.14,26.49 C655.14,85.9 655.14,407.56 655.14,507.95 " fill="none" id="*start-to-CONTENT_MANAGEMENT" style="stroke:#181818;stroke-width:1.0;"/><polygon fill="#181818" points="655.14,512.69,659.14,503.69,655.14,507.69,651.14,503.69,655.14,512.69" style="stroke:#181818;stroke-width:1.0;"/></g><!--MD5=[a151b4679bf58c3499ea38e5fecfad87]
link CONTENT_MANAGEMENT to ADD_CONTENT--><g id="link_CONTENT_MANAGEMENT_ADD_CONTENT"><path d="M650.18,564.16 C636.15,632.73 594.45,836.59 551.63,1045.98 " fill="none" id="CONTENT_MANAGEMENT-to-ADD_CONTENT" style="stroke:#181818;stroke-width:1.0;"/><polygon fill="#181818" points="550.49,1050.55,556.2089,1042.5316,551.4898,1045.651,548.3704,1040.9319,550.49,1050.55" style="stroke:#181818;stroke-width:1.0;"/></g><!--MD5=[52ae7e7ec2420ed772a40f1efeb6e358]
link CONTENT_MANAGEMENT to DELETE_CONTENT--><g id="link_CONTENT_MANAGEMENT_DELETE_CONTENT"><path d="M661.58,564.16 C687.64,662.29 787.27,1037.52 859.49,1309.5 " fill="none" id="CONTENT_MANAGEMENT-to-DELETE_CONTENT" style="stroke:#181818;stroke-width:1.0;"/><polygon fill="#181818" points="860.98,1314.1,862.5367,1304.3749,859.697,1309.2674,854.8045,1306.4277,860.98,1314.1" style="stroke:#181818;stroke-width:1.0;"/></g><!--MD5=[1edc9bc29ed43ce6541a04925f1a557a]
link CONTENT_MANAGEMENT to EDIT_CONTENT--><g id="link_CONTENT_MANAGEMENT_EDIT_CONTENT"><path d="M753.55,538.9 C799.24,538.9 844.94,538.9 890.63,538.9 " fill="none" id="CONTENT_MANAGEMENT-to-EDIT_CONTENT" style="stroke:#181818;stroke-width:1.0;"/><polygon fill="#181818" points="895.49,538.9,886.49,534.9,890.49,538.9,886.49,542.9,895.49,538.9" style="stroke:#181818;stroke-width:1.0;"/></g><!--MD5=[fbf71e5ff603b9326d22dea1cc7be548]
link ADD_CONTENT to union--><g id="link_ADD_CONTENT_union"><path d="M658.83,2161.83 C668.96,2187.15 676.91,2207.04 681.78,2219.2 " fill="none" id="ADD_CONTENT-to-union" style="stroke:#181818;stroke-width:1.0;"/><polygon fill="#181818" points="683.91,2223.54,684.2814,2213.6981,682.053,2218.8976,676.8536,2216.6693,683.91,2223.54" style="stroke:#181818;stroke-width:1.0;"/></g><!--MD5=[de1c0af78f792126c1c4f165abbdaca9]
link DELETE_CONTENT to union--><g id="link_DELETE_CONTENT_union"><path d="M821.46,1898.2 C766.92,2033.96 710.16,2175.29 692.62,2218.95 " fill="none" id="DELETE_CONTENT-to-union" style="stroke:#181818;stroke-width:1.0;"/><polygon fill="#181818" points="690.41,2223.45,697.4664,2216.5793,692.267,2218.8076,690.0386,2213.6081,690.41,2223.45" style="stroke:#181818;stroke-width:1.0;"/></g><!--MD5=[cb04b5b46b07c04aca76b2fa5bc8e5da]
link EDIT_CONTENT to union--><g id="link_EDIT_CONTENT_union"><path d="M1184.21,991.88 C1253.27,1410.28 1316.25,1992.44 1170.14,2161.6 C1107.91,2233.65 782.96,2233.92 704.3,2232.91 " fill="none" id="EDIT_CONTENT-to-union" style="stroke:#181818;stroke-width:1.0;"/><polygon fill="#181818" points="699.66,2232.83,708.6019,2236.9582,704.6595,2232.9014,708.7162,2228.959,699.66,2232.83" style="stroke:#181818;stroke-width:1.0;"/></g><!--MD5=[579c1c469da73c5446fd0d518153c367]
link union to *end--><g id="link_union_*end"><path d="M687.14,2246.06 C687.14,2260.1 687.14,2283.92 687.14,2299.45 " fill="none" id="union-to-*end" style="stroke:#181818;stroke-width:1.0;"/><polygon fill="#181818" points="687.14,2304.16,691.14,2295.16,687.14,2299.16,683.14,2295.16,687.14,2304.16" style="stroke:#181818;stroke-width:1.0;"/></g><!--MD5=[f24e0c61a7d12bcb05c34b862536c652]
reverse link CONTENT_MANAGEMENT to union--><g id="link_CONTENT_MANAGEMENT_union"><path d="M612.35,567.37 C511.48,635.03 260.35,821.11 168.14,1051.8 C76.61,1280.81 6,1975.77 168.14,2161.6 C202.97,2201.52 604.33,2227.59 676.17,2231.95 " fill="none" id="CONTENT_MANAGEMENT-backto-union" style="stroke:#181818;stroke-width:1.0;"/><polygon fill="#181818" points="616.04,564.24,606.3367,565.9272,611.8863,567.0234,610.7901,572.573,616.04,564.24" style="stroke:#181818;stroke-width:1.0;"/></g><!--MD5=[13e6b998a6a626ebf0e55648564cd74c]
@startuml content-management
state ADD_CONTENT {
    state ACS1 as " "
    state ACS2 as " "    
    state ACS3 as " "    
    state ACS4 as " "    
    state ACSC1 <<choice>>   
    state ACSC2 <<choice>>   
    state ACSC3 <<choice>>   

    [*] - -> ACS1
    ACS1 - -> ACSC1 
    note on link 
        <b> System allows to: </b>
        - Use API
        - Manually
    end note
    ACSC1 - -> ACS2
    note on link 
        <b> Manually: </b>                    
        - Name    
        - Year 
        - Age
        - Storyline
        - Genres
        - Actors
        - Trailer
        - Poster
        - Rating
        - Duration              
    end note

    ACSC1 - -> ACS3 
    note on link
    <b> Use API: </b>
        - Insert content name
        - Select type of content
    end note       
    
    ACS2 - -> ACSC2    
    note on link 
        Is serie?
    end note

    ACSC2  - -> ACS4
    note on link 
        <b> Deatils serie: </b>
        - Number of seasons
        - Number of episodes        
        - Details of each episode
            - Name    
            - Year 
            - Age 
            - Storyline
            - Genres
            - Actors
            - Trailer
            - Poster
            - Rating
            - Duration   
    end note

    
    ACSC2 - -> ACSC3
    ACS3 - -> ACSC3
    ACS4 - -> ACSC3
    ACSC3 - -> [*]
    ACSC3 - -> ACS1    
}

state DELETE_CONTENT {
    state DCS1 as " "
    state DCS2 as " "    
    state DCS3 as " "    
    state DCSC1 <<choice>>   
    state DCSC2 <<choice>>   

    [*] - -> DCS1
    DCS1 - -> DCSC1 
    note on link 
        <b> System allows to: </b>
        - Search 
        - Filter
    end note

    DCSC1 - -> DCS2
    note on link 
        <b> Search: </b>
        - Name        
    end note

    DCSC1 - -> DCS3
    note on link 
        <b> Filter: </b>
        - Type of content (movie, series)
        - Genre
        - Rating
        - Year          
    end note

    DCS2 - -> DCSC2
    DCS3 - -> DCSC2
    DCSC2 - -> [*]
    DCSC2 - -> DCS1        
}

state EDIT_CONTENT {
    state ECS1 as " "
    state ECS2 as " "    
    state ECS3 as " "    
    state ECS4 as " "    
    state ECSC1 <<choice>>   
    state ECSC2 <<choice>>   
    state ECSC3 <<choice>>   

    [*] - -> ECS1
    ECS1 - -> ECSC1 
    note on link 
        <b> System allows to: </b>
        - Search 
        - Filter
    end note

    ECSC1 - -> ECS2
    note on link 
        <b> Search: </b>
        - Name        
    end note

    ECSC1 - -> ECS3
    note on link 
        <b> Filter: </b>
        - Type of content (movie, series)
        - Genre
        - Rating
        - Year          
    end note

    ECS2 - -> ECSC2
    ECS3 - -> ECSC2
    ECSC2 - -> ECS4
    note on link 
        <b> System allows to: </b>
        - Name
        - Year 
        - Storyline
        - Genres
        - Actors
        - Trailer
        - Poster
        - Rate
        - Duration   
    end note

    ECS4 - -> ECSC3
    ECSC3 - -> [*]
    ECSC3 - -> ECS1     
}

[*] - -> CONTENT_MANAGEMENT

CONTENT_MANAGEMENT - -> ADD_CONTENT
CONTENT_MANAGEMENT - -> DELETE_CONTENT
CONTENT_MANAGEMENT -right-> EDIT_CONTENT

state union <<choice>>
ADD_CONTENT - -> union 
DELETE_CONTENT - -> union 
EDIT_CONTENT - -> union 

union - -> [*]
union -left-> CONTENT_MANAGEMENT

@enduml

PlantUML version 1.2022.7(Mon Aug 22 12:01:30 ECT 2022)
(GPL source distribution)
Java Runtime: OpenJDK Runtime Environment
JVM: OpenJDK 64-Bit Server VM
Default Encoding: UTF-8
Language: en
Country: null
--></g></svg>