<?xml version="1.0" encoding="UTF-8" standalone="no"?><svg xmlns="http://www.w3.org/2000/svg" xmlns:xlink="http://www.w3.org/1999/xlink" contentStyleType="text/css" height="2331px" preserveAspectRatio="none" style="width:1304px;height:2331px;background:#FFFFFF;" version="1.1" viewBox="0 0 1304 2331" width="1304px" zoomAndPan="magnify"><defs/><g><ellipse cx="648" cy="16" fill="#222222" rx="10" ry="10" style="stroke:none;stroke-width:1.0;"/><g id="CONTENT_MANAGEMENT"><rect fill="#F1F1F1" height="50" rx="12.5" ry="12.5" style="stroke:#181818;stroke-width:0.5;" width="196" x="550" y="513.9"/><line style="stroke:#181818;stroke-width:0.5;" x1="550" x2="746" y1="540.6999" y2="540.6999"/><text fill="#000000" font-family="sans-serif" font-size="14" lengthAdjust="spacing" textLength="176" x="560" y="531.9059">CONTENT_MANAGEMENT</text></g><g id="elem_union"><polygon fill="#F1F1F1" points="681,2221.6,693,2233.6,681,2245.6,669,2233.6,681,2221.6" style="stroke:#181818;stroke-width:0.5;"/></g><ellipse cx="681" cy="2315.6" fill="none" rx="10" ry="10" style="stroke:#222222;stroke-width:1.0;"/><ellipse cx="681.5" cy="2316.1" fill="#222222" rx="6" ry="6" style="stroke:none;stroke-width:1.0;"/><path d="M198.38,1051.8 L671.61,1051.8 A12.5,12.5 0 0 1 684.11,1064.3 L684.11,1078.5999 L185.88,1078.5999 L185.88,1064.3 A12.5,12.5 0 0 1 198.38,1051.8 " fill="#F1F1F1" style="stroke:#F1F1F1;stroke-width:1.0;"/><rect fill="none" height="1109.7999" rx="12.5" ry="12.5" style="stroke:#181818;stroke-width:0.5;" width="498.23" x="185.88" y="1051.8"/><line style="stroke:#181818;stroke-width:0.5;" x1="185.88" x2="684.11" y1="1078.5999" y2="1078.5999"/><text fill="#000000" font-family="sans-serif" font-size="14" lengthAdjust="spacing" textLength="105" x="382.495" y="1069.8059">ADD_CONTENT</text><g id="ADD_CONTENT.ACS1"><rect fill="#F1F1F1" height="50" rx="12.5" ry="12.5" style="stroke:#181818;stroke-width:0.5;" width="50" x="540" y="1146.5999"/><line style="stroke:#181818;stroke-width:0.5;" x1="540" x2="590" y1="1173.3999" y2="1173.3999"/><text fill="#000000" font-family="sans-serif" font-size="14" lengthAdjust="spacing" textLength="4" x="563" y="1164.6059"> </text></g><g id="ADD_CONTENT.ACS2"><rect fill="#F1F1F1" height="50" rx="12.5" ry="12.5" style="stroke:#181818;stroke-width:0.5;" width="50" x="238" y="1549.5999"/><line style="stroke:#181818;stroke-width:0.5;" x1="238" x2="288" y1="1576.3999" y2="1576.3999"/><text fill="#000000" font-family="sans-serif" font-size="14" lengthAdjust="spacing" textLength="4" x="261" y="1567.6059"> </text></g><g id="ADD_CONTENT.ACS3"><rect fill="#F1F1F1" height="50" rx="12.5" ry="12.5" style="stroke:#181818;stroke-width:0.5;" width="50" x="447" y="1617.5999"/><line style="stroke:#181818;stroke-width:0.5;" x1="447" x2="497" y1="1644.3999" y2="1644.3999"/><text fill="#000000" font-family="sans-serif" font-size="14" lengthAdjust="spacing" textLength="4" x="470" y="1635.6059"> </text></g><g id="ADD_CONTENT.ACS4"><rect fill="#F1F1F1" height="50" rx="12.5" ry="12.5" style="stroke:#181818;stroke-width:0.5;" width="50" x="294" y="1983.5999"/><line style="stroke:#181818;stroke-width:0.5;" x1="294" x2="344" y1="2010.3999" y2="2010.3999"/><text fill="#000000" font-family="sans-serif" font-size="14" lengthAdjust="spacing" textLength="4" x="317" y="2001.6059"> </text></g><g id="elem_ACSC1"><polygon fill="#F1F1F1" points="465,1298.5999,477,1310.5999,465,1322.5999,453,1310.5999,465,1298.5999" style="stroke:#181818;stroke-width:0.5;"/></g><g id="elem_ACSC2"><polygon fill="#F1F1F1" points="263,1685.5999,275,1697.5999,263,1709.5999,251,1697.5999,263,1685.5999" style="stroke:#181818;stroke-width:0.5;"/></g><g id="elem_ACSC3"><polygon fill="#F1F1F1" points="461,2070.5999,473,2082.5999,461,2094.5999,449,2082.5999,461,2070.5999" style="stroke:#181818;stroke-width:0.5;"/></g><ellipse cx="565" cy="1099.5999" fill="#222222" rx="10" ry="10" style="stroke:none;stroke-width:1.0;"/><ellipse cx="461" cy="2141.5999" fill="none" rx="10" ry="10" style="stroke:#222222;stroke-width:1.0;"/><ellipse cx="461.5" cy="2142.0999" fill="#222222" rx="6" ry="6" style="stroke:none;stroke-width:1.0;"/><!--MD5=[b3141f9168e18fb96e209c9ea3e64182]
link *start*ADD_CONTENT to ACS1--><g id="link_*start*ADD_CONTENT_ACS1"><path d="M565,1110.0399 C565,1117.8499 565,1129.3899 565,1140.3099 " fill="none" id="*start*ADD_CONTENT-to-ACS1" style="stroke:#181818;stroke-width:1.0;"/><polygon fill="#181818" points="565,1145.2799,569,1136.2799,565,1140.2799,561,1136.2799,565,1145.2799" style="stroke:#181818;stroke-width:1.0;"/></g><!--MD5=[1d37679425ed7d798427d92215535fcc]
link ACS1 to ACSC1--><g id="link_ACS1_ACSC1"><path d="M539.73,1184.3299 C526.65,1191.4899 511.31,1201.7499 501,1214.5999 C481.8,1238.5399 472.07,1273.8199 467.8,1293.9699 " fill="none" id="ACS1-to-ACSC1" style="stroke:#181818;stroke-width:1.0;"/><polygon fill="#181818" points="466.65,1298.7099,472.3464,1290.6755,467.6361,1293.8081,464.5035,1289.0978,466.65,1298.7099" style="stroke:#181818;stroke-width:1.0;"/><path d="M506,1219.5999 L506,1275.5999 L645,1275.5999 L645,1229.5999 L635,1219.5999 L506,1219.5999 " fill="#FEFFDD" style="stroke:#181818;stroke-width:0.5;"/><path d="M635,1219.5999 L635,1229.5999 L645,1229.5999 L635,1219.5999 " fill="#FEFFDD" style="stroke:#181818;stroke-width:0.5;"/><text fill="#000000" font-family="sans-serif" font-size="13" font-weight="bold" lengthAdjust="spacing" textLength="110" x="516" y="1236.6769">System allows to:</text><ellipse cx="517.5" cy="1248.3" fill="#000000" rx="2.5" ry="2.5" style="stroke:#000000;stroke-width:0.0;"/><text fill="#000000" font-family="sans-serif" font-size="13" lengthAdjust="spacing" textLength="49" x="524" y="1252.277">Use API</text><ellipse cx="517.5" cy="1263.9" fill="#000000" rx="2.5" ry="2.5" style="stroke:#000000;stroke-width:0.0;"/><text fill="#000000" font-family="sans-serif" font-size="13" lengthAdjust="spacing" textLength="52" x="524" y="1267.877">Manually</text></g><!--MD5=[f44f0678449f39ff85d33440daf6af7a]
link ACSC1 to ACS2--><g id="link_ACSC1_ACS2"><path d="M453.1,1311.3899 C413.74,1310.9899 288.88,1311.9999 264,1340.5999 C214.54,1397.4699 236.54,1494.9799 252.19,1543.8499 " fill="none" id="ACSC1-to-ACS2" style="stroke:#181818;stroke-width:1.0;"/><polygon fill="#181818" points="253.96,1548.2799,254.953,1538.4813,252.4003,1543.5294,247.3522,1540.9767,253.96,1548.2799" style="stroke:#181818;stroke-width:1.0;"/><path d="M269,1345.5999 L269,1526.5999 L438,1526.5999 L438,1355.5999 L428,1345.5999 L269,1345.5999 " fill="#FEFFDD" style="stroke:#181818;stroke-width:0.5;"/><path d="M428,1345.5999 L428,1355.5999 L438,1355.5999 L428,1345.5999 " fill="#FEFFDD" style="stroke:#181818;stroke-width:0.5;"/><text fill="#000000" font-family="sans-serif" font-size="13" font-weight="bold" lengthAdjust="spacing" textLength="60" x="279" y="1362.6769">Manually:</text><text fill="#000000" font-family="sans-serif" font-size="13" lengthAdjust="spacing" textLength="80" x="343" y="1362.6769">                    </text><ellipse cx="280.5" cy="1374.3" fill="#000000" rx="2.5" ry="2.5" style="stroke:#000000;stroke-width:0.0;"/><text fill="#000000" font-family="sans-serif" font-size="13" lengthAdjust="spacing" textLength="34" x="287" y="1378.277">Name</text><ellipse cx="280.5" cy="1389.9" fill="#000000" rx="2.5" ry="2.5" style="stroke:#000000;stroke-width:0.0;"/><text fill="#000000" font-family="sans-serif" font-size="13" lengthAdjust="spacing" textLength="27" x="287" y="1393.877">Year</text><ellipse cx="280.5" cy="1405.5" fill="#000000" rx="2.5" ry="2.5" style="stroke:#000000;stroke-width:0.0;"/><text fill="#000000" font-family="sans-serif" font-size="13" lengthAdjust="spacing" textLength="23" x="287" y="1409.477">Age</text><ellipse cx="280.5" cy="1421.1" fill="#000000" rx="2.5" ry="2.5" style="stroke:#000000;stroke-width:0.0;"/><text fill="#000000" font-family="sans-serif" font-size="13" lengthAdjust="spacing" textLength="51" x="287" y="1425.077">Storyline</text><ellipse cx="280.5" cy="1436.7" fill="#000000" rx="2.5" ry="2.5" style="stroke:#000000;stroke-width:0.0;"/><text fill="#000000" font-family="sans-serif" font-size="13" lengthAdjust="spacing" textLength="42" x="287" y="1440.677">Genres</text><ellipse cx="280.5" cy="1452.3" fill="#000000" rx="2.5" ry="2.5" style="stroke:#000000;stroke-width:0.0;"/><text fill="#000000" font-family="sans-serif" font-size="13" lengthAdjust="spacing" textLength="38" x="287" y="1456.277">Actors</text><ellipse cx="280.5" cy="1467.9" fill="#000000" rx="2.5" ry="2.5" style="stroke:#000000;stroke-width:0.0;"/><text fill="#000000" font-family="sans-serif" font-size="13" lengthAdjust="spacing" textLength="36" x="287" y="1471.877">Trailer</text><ellipse cx="280.5" cy="1483.5001" fill="#000000" rx="2.5" ry="2.5" style="stroke:#000000;stroke-width:0.0;"/><text fill="#000000" font-family="sans-serif" font-size="13" lengthAdjust="spacing" textLength="38" x="287" y="1487.477">Poster</text><ellipse cx="280.5" cy="1499.1001" fill="#000000" rx="2.5" ry="2.5" style="stroke:#000000;stroke-width:0.0;"/><text fill="#000000" font-family="sans-serif" font-size="13" lengthAdjust="spacing" textLength="37" x="287" y="1503.0771">Rating</text><ellipse cx="280.5" cy="1514.7001" fill="#000000" rx="2.5" ry="2.5" style="stroke:#000000;stroke-width:0.0;"/><text fill="#000000" font-family="sans-serif" font-size="13" lengthAdjust="spacing" textLength="48" x="287" y="1518.6771">Duration</text></g><!--MD5=[b60803962aebe6a940c70bdadff3ed75]
link ACSC1 to ACS3--><g id="link_ACSC1_ACS3"><path d="M464.85,1323.0599 C464.47,1355.6699 463.64,1451.8099 466,1531.5999 C466.8,1558.6299 468.54,1589.3499 469.95,1611.4399 " fill="none" id="ACSC1-to-ACS3" style="stroke:#181818;stroke-width:1.0;"/><polygon fill="#181818" points="470.32,1616.1499,473.7459,1606.9161,470.0054,1611.1598,465.7617,1607.4194,470.32,1616.1499" style="stroke:#181818;stroke-width:1.0;"/><path d="M471,1408.0999 L471,1464.0999 L645,1464.0999 L645,1418.0999 L635,1408.0999 L471,1408.0999 " fill="#FEFFDD" style="stroke:#181818;stroke-width:0.5;"/><path d="M635,1408.0999 L635,1418.0999 L645,1418.0999 L635,1408.0999 " fill="#FEFFDD" style="stroke:#181818;stroke-width:0.5;"/><text fill="#000000" font-family="sans-serif" font-size="13" font-weight="bold" lengthAdjust="spacing" textLength="53" x="481" y="1425.1769">Use API:</text><text fill="#000000" font-family="sans-serif" font-size="13" lengthAdjust="spacing" textLength="125" x="493" y="1440.777">* Insert content name</text><text fill="#000000" font-family="sans-serif" font-size="13" lengthAdjust="spacing" textLength="137" x="493" y="1456.377">* Select type of content</text></g><!--MD5=[fccc786fb716862dcf855c0c568b0bcc]
link ACS2 to ACSC2--><g id="link_ACS2_ACSC2"><path d="M263,1600.0899 C263,1623.4899 263,1658.1999 263,1678.9999 " fill="none" id="ACS2-to-ACSC2" style="stroke:#181818;stroke-width:1.0;"/><polygon fill="#181818" points="263,1683.9699,267,1674.9699,263,1678.9699,259,1674.9699,263,1683.9699" style="stroke:#181818;stroke-width:1.0;"/><path d="M268,1630.0999 L268,1655.0999 L339,1655.0999 L339,1640.0999 L329,1630.0999 L268,1630.0999 " fill="#FEFFDD" style="stroke:#181818;stroke-width:0.5;"/><path d="M329,1630.0999 L329,1640.0999 L339,1640.0999 L329,1630.0999 " fill="#FEFFDD" style="stroke:#181818;stroke-width:0.5;"/><text fill="#000000" font-family="sans-serif" font-size="13" lengthAdjust="spacing" textLength="50" x="274" y="1647.1769">Is serie?</text></g><!--MD5=[bc8c32f95d614e36d24d9022d932c3a6]
link ACSC2 to ACS4--><g id="link_ACSC2_ACS4"><path d="M258.61,1705.4199 C255.24,1711.0999 250.85,1719.5299 249,1727.5999 C225.41,1830.7099 196.88,1873.5499 249,1965.5999 C257.46,1980.5399 273.58,1990.7399 288.23,1997.3499 " fill="none" id="ACSC2-to-ACS4" style="stroke:#181818;stroke-width:1.0;"/><polygon fill="#181818" points="292.54,1999.6199,285.8515,1992.3905,287.9465,1997.6452,282.6919,1999.7401,292.54,1999.6199" style="stroke:#181818;stroke-width:1.0;"/><path d="M254,1732.5999 L254,1960.5999 L423,1960.5999 L423,1742.5999 L413,1732.5999 L254,1732.5999 " fill="#FEFFDD" style="stroke:#181818;stroke-width:0.5;"/><path d="M413,1732.5999 L413,1742.5999 L423,1742.5999 L413,1732.5999 " fill="#FEFFDD" style="stroke:#181818;stroke-width:0.5;"/><text fill="#000000" font-family="sans-serif" font-size="13" font-weight="bold" lengthAdjust="spacing" textLength="80" x="264" y="1749.6769">Deatils serie:</text><ellipse cx="265.5" cy="1761.3" fill="#000000" rx="2.5" ry="2.5" style="stroke:#000000;stroke-width:0.0;"/><text fill="#000000" font-family="sans-serif" font-size="13" lengthAdjust="spacing" textLength="113" x="272" y="1765.277">Number of seasons</text><ellipse cx="265.5" cy="1776.9" fill="#000000" rx="2.5" ry="2.5" style="stroke:#000000;stroke-width:0.0;"/><text fill="#000000" font-family="sans-serif" font-size="13" lengthAdjust="spacing" textLength="116" x="272" y="1780.877">Number of episodes</text><ellipse cx="265.5" cy="1792.5" fill="#000000" rx="2.5" ry="2.5" style="stroke:#000000;stroke-width:0.0;"/><text fill="#000000" font-family="sans-serif" font-size="13" lengthAdjust="spacing" textLength="136" x="272" y="1796.477">Details of each episode</text><text fill="#000000" font-family="sans-serif" font-size="13" lengthAdjust="spacing" textLength="43" x="276" y="1812.077">* Name</text><text fill="#000000" font-family="sans-serif" font-size="13" lengthAdjust="spacing" textLength="36" x="276" y="1827.677">* Year</text><text fill="#000000" font-family="sans-serif" font-size="13" lengthAdjust="spacing" textLength="32" x="276" y="1843.277">* Age</text><text fill="#000000" font-family="sans-serif" font-size="13" lengthAdjust="spacing" textLength="60" x="276" y="1858.877">* Storyline</text><text fill="#000000" font-family="sans-serif" font-size="13" lengthAdjust="spacing" textLength="51" x="276" y="1874.477">* Genres</text><text fill="#000000" font-family="sans-serif" font-size="13" lengthAdjust="spacing" textLength="47" x="276" y="1890.0771">* Actors</text><text fill="#000000" font-family="sans-serif" font-size="13" lengthAdjust="spacing" textLength="45" x="276" y="1905.6771">* Trailer</text><text fill="#000000" font-family="sans-serif" font-size="13" lengthAdjust="spacing" textLength="47" x="276" y="1921.2771">* Poster</text><text fill="#000000" font-family="sans-serif" font-size="13" lengthAdjust="spacing" textLength="46" x="276" y="1936.8771">* Rating</text><text fill="#000000" font-family="sans-serif" font-size="13" lengthAdjust="spacing" textLength="57" x="276" y="1952.4771">* Duration</text></g><!--MD5=[c23b10c79d12f3c856b721a76909d2e3]
link ACSC2 to ACSC3--><g id="link_ACSC2_ACSC3"><path d="M274.1,1698.8699 C307.66,1699.9199 407.1,1704.9299 428,1727.5999 C473.81,1777.2799 465.4,2000.9899 462,2064.6499 " fill="none" id="ACSC2-to-ACSC3" style="stroke:#181818;stroke-width:1.0;"/><polygon fill="#181818" points="461.67,2069.6299,466.152,2060.86,461.941,2064.6373,458.1637,2060.4263,461.67,2069.6299" style="stroke:#181818;stroke-width:1.0;"/></g><!--MD5=[abe166a273c4ba907359f97241cc50ee]
link ACS3 to ACSC3--><g id="link_ACS3_ACSC3"><path d="M472.95,1667.6399 C475.18,1730.8599 479.54,1906.9399 466,2052.5999 C465.58,2057.0799 464.86,2061.8999 464.1,2066.3099 " fill="none" id="ACS3-to-ACSC3" style="stroke:#181818;stroke-width:1.0;"/><polygon fill="#181818" points="463.05,2070.9799,468.6287,2062.8634,463.9645,2066.0643,460.7637,2061.4001,463.05,2070.9799" style="stroke:#181818;stroke-width:1.0;"/></g><!--MD5=[e051f35b3234d5b1c11d74dfabd6536e]
link ACS4 to ACSC3--><g id="link_ACS4_ACSC3"><path d="M344.39,2022.4699 C374.96,2037.9799 425.11,2063.3999 448.39,2075.2099 " fill="none" id="ACS4-to-ACSC3" style="stroke:#181818;stroke-width:1.0;"/><polygon fill="#181818" points="452.45,2077.7699,446.228,2070.1354,447.9894,2075.511,442.6137,2077.2724,452.45,2077.7699" style="stroke:#181818;stroke-width:1.0;"/></g><!--MD5=[f99c0f37739126df2dfc9725616f1115]
link ACSC3 to *end*ADD_CONTENT--><g id="link_ACSC3_*end*ADD_CONTENT"><path d="M461,2095.1299 C461,2103.8899 461,2115.9999 461,2125.5199 " fill="none" id="ACSC3-to-*end*ADD_CONTENT" style="stroke:#181818;stroke-width:1.0;"/><polygon fill="#181818" points="461,2130.3399,465,2121.3399,461,2125.3399,457,2121.3399,461,2130.3399" style="stroke:#181818;stroke-width:1.0;"/></g><!--MD5=[9ba8c4202eabdb843aad9f8e32d518c9]
link ACSC3 to ACS1--><g id="link_ACSC3_ACS1"><path d="M471.35,2080.2499 C512.71,2074.5599 664,2050.9199 664,2009.5999 C664,1309.5999 664,1309.5999 664,1309.5999 C664,1266.9199 675.11,1249.1099 650,1214.5999 C637.1,1196.8699 614.61,1186.2199 596,1180.0799 " fill="none" id="ACSC3-to-ACS1" style="stroke:#181818;stroke-width:1.0;"/><polygon fill="#181818" points="591.36,1178.3199,598.7461,1184.8349,596.1299,1179.8194,601.1453,1177.2032,591.36,1178.3199" style="stroke:#181818;stroke-width:1.0;"/></g><path d="M732.09,1315.3 L1121.9,1315.3 A12.5,12.5 0 0 1 1134.4,1327.8 L1134.4,1342.0999 L719.59,1342.0999 L719.59,1327.8 A12.5,12.5 0 0 1 732.09,1315.3 " fill="#F1F1F1" style="stroke:#F1F1F1;stroke-width:1.0;"/><rect fill="none" height="582.7999" rx="12.5" ry="12.5" style="stroke:#181818;stroke-width:0.5;" width="414.81" x="719.59" y="1315.3"/><line style="stroke:#181818;stroke-width:0.5;" x1="719.59" x2="1134.4" y1="1342.0999" y2="1342.0999"/><text fill="#000000" font-family="sans-serif" font-size="14" lengthAdjust="spacing" textLength="130" x="861.995" y="1333.3059">DELETE_CONTENT</text><g id="DELETE_CONTENT.DCS1"><rect fill="#F1F1F1" height="50" rx="12.5" ry="12.5" style="stroke:#181818;stroke-width:0.5;" width="50" x="939.59" y="1410.0999"/><line style="stroke:#181818;stroke-width:0.5;" x1="939.59" x2="989.59" y1="1436.8999" y2="1436.8999"/><text fill="#000000" font-family="sans-serif" font-size="14" lengthAdjust="spacing" textLength="4" x="962.59" y="1428.1059"> </text></g><g id="DELETE_CONTENT.DCS2"><rect fill="#F1F1F1" height="50" rx="12.5" ry="12.5" style="stroke:#181818;stroke-width:0.5;" width="50" x="731.59" y="1720.0999"/><line style="stroke:#181818;stroke-width:0.5;" x1="731.59" x2="781.59" y1="1746.8999" y2="1746.8999"/><text fill="#000000" font-family="sans-serif" font-size="14" lengthAdjust="spacing" textLength="4" x="754.59" y="1738.1059"> </text></g><g id="DELETE_CONTENT.DCS3"><rect fill="#F1F1F1" height="50" rx="12.5" ry="12.5" style="stroke:#181818;stroke-width:0.5;" width="50" x="819.59" y="1720.0999"/><line style="stroke:#181818;stroke-width:0.5;" x1="819.59" x2="869.59" y1="1746.8999" y2="1746.8999"/><text fill="#000000" font-family="sans-serif" font-size="14" lengthAdjust="spacing" textLength="4" x="842.59" y="1738.1059"> </text></g><g id="elem_DCSC1"><polygon fill="#F1F1F1" points="844.59,1562.0999,856.59,1574.0999,844.59,1586.0999,832.59,1574.0999,844.59,1562.0999" style="stroke:#181818;stroke-width:0.5;"/></g><g id="elem_DCSC2"><polygon fill="#F1F1F1" points="844.59,1807.0999,856.59,1819.0999,844.59,1831.0999,832.59,1819.0999,844.59,1807.0999" style="stroke:#181818;stroke-width:0.5;"/></g><ellipse cx="964.59" cy="1363.0999" fill="#222222" rx="10" ry="10" style="stroke:none;stroke-width:1.0;"/><ellipse cx="844.59" cy="1878.0999" fill="none" rx="10" ry="10" style="stroke:#222222;stroke-width:1.0;"/><ellipse cx="845.09" cy="1878.5999" fill="#222222" rx="6" ry="6" style="stroke:none;stroke-width:1.0;"/><!--MD5=[a3976961cdfc47de0f81ee0d324dc09a]
link *start*DELETE_CONTENT to DCS1--><g id="link_*start*DELETE_CONTENT_DCS1"><path d="M964.59,1373.5399 C964.59,1381.3499 964.59,1392.8899 964.59,1403.8099 " fill="none" id="*start*DELETE_CONTENT-to-DCS1" style="stroke:#181818;stroke-width:1.0;"/><polygon fill="#181818" points="964.59,1408.7799,968.59,1399.7799,964.59,1403.7799,960.59,1399.7799,964.59,1408.7799" style="stroke:#181818;stroke-width:1.0;"/></g><!--MD5=[3f70db49714d46c62b66cd94df8993d6]
link DCS1 to DCSC1--><g id="link_DCS1_DCSC1"><path d="M939.35,1459.0799 C933.06,1465.1099 926.44,1471.7199 920.59,1478.0999 C894.24,1506.8499 866.37,1543.5499 852.87,1561.7699 " fill="none" id="DCS1-to-DCSC1" style="stroke:#181818;stroke-width:1.0;"/><polygon fill="#181818" points="849.46,1565.3999,858.0214,1560.5314,852.4279,1561.3761,851.5832,1555.7827,849.46,1565.3999" style="stroke:#181818;stroke-width:1.0;"/><path d="M925.59,1483.0999 L925.59,1539.0999 L1064.59,1539.0999 L1064.59,1493.0999 L1054.59,1483.0999 L925.59,1483.0999 " fill="#FEFFDD" style="stroke:#181818;stroke-width:0.5;"/><path d="M1054.59,1483.0999 L1054.59,1493.0999 L1064.59,1493.0999 L1054.59,1483.0999 " fill="#FEFFDD" style="stroke:#181818;stroke-width:0.5;"/><text fill="#000000" font-family="sans-serif" font-size="13" font-weight="bold" lengthAdjust="spacing" textLength="110" x="935.59" y="1500.1769">System allows to:</text><ellipse cx="937.09" cy="1511.8" fill="#000000" rx="2.5" ry="2.5" style="stroke:#000000;stroke-width:0.0;"/><text fill="#000000" font-family="sans-serif" font-size="13" lengthAdjust="spacing" textLength="41" x="943.59" y="1515.777">Search</text><ellipse cx="937.09" cy="1527.4" fill="#000000" rx="2.5" ry="2.5" style="stroke:#000000;stroke-width:0.0;"/><text fill="#000000" font-family="sans-serif" font-size="13" lengthAdjust="spacing" textLength="29" x="943.59" y="1531.377">Filter</text></g><!--MD5=[06002ea0e7898fc9ec84c2339fff4be4]
link DCSC1 to DCS2--><g id="link_DCSC1_DCS2"><path d="M832.76,1574.8699 C812.78,1575.2099 772.76,1579.1499 754.59,1604.0999 C731.42,1635.9099 738.36,1683.4899 746.59,1714.1599 " fill="none" id="DCSC1-to-DCS2" style="stroke:#181818;stroke-width:1.0;"/><polygon fill="#181818" points="748.13,1718.6899,749.5648,1708.9461,746.7866,1713.8738,741.859,1711.0956,748.13,1718.6899" style="stroke:#181818;stroke-width:1.0;"/><path d="M759.59,1632.5999 L759.59,1673.5999 L835.59,1673.5999 L835.59,1642.5999 L825.59,1632.5999 L759.59,1632.5999 " fill="#FEFFDD" style="stroke:#181818;stroke-width:0.5;"/><path d="M825.59,1632.5999 L825.59,1642.5999 L835.59,1642.5999 L825.59,1632.5999 " fill="#FEFFDD" style="stroke:#181818;stroke-width:0.5;"/><text fill="#000000" font-family="sans-serif" font-size="13" font-weight="bold" lengthAdjust="spacing" textLength="47" x="769.59" y="1649.6769">Search:</text><ellipse cx="771.09" cy="1661.3" fill="#000000" rx="2.5" ry="2.5" style="stroke:#000000;stroke-width:0.0;"/><text fill="#000000" font-family="sans-serif" font-size="13" lengthAdjust="spacing" textLength="34" x="777.59" y="1665.277">Name</text></g><!--MD5=[e85354f58e5e1e6fd2d676aa4eedc625]
link DCSC1 to DCS3--><g id="link_DCSC1_DCS3"><path d="M844.59,1586.7199 C844.59,1612.6199 844.59,1675.8399 844.59,1713.7999 " fill="none" id="DCSC1-to-DCS3" style="stroke:#181818;stroke-width:1.0;"/><polygon fill="#181818" points="844.59,1718.6599,848.59,1709.6599,844.59,1713.6599,840.59,1709.6599,844.59,1718.6599" style="stroke:#181818;stroke-width:1.0;"/><path d="M849.59,1609.0999 L849.59,1697.0999 L1063.59,1697.0999 L1063.59,1619.0999 L1053.59,1609.0999 L849.59,1609.0999 " fill="#FEFFDD" style="stroke:#181818;stroke-width:0.5;"/><path d="M1053.59,1609.0999 L1053.59,1619.0999 L1063.59,1619.0999 L1053.59,1609.0999 " fill="#FEFFDD" style="stroke:#181818;stroke-width:0.5;"/><text fill="#000000" font-family="sans-serif" font-size="13" font-weight="bold" lengthAdjust="spacing" textLength="36" x="859.59" y="1626.1769">Filter:</text><ellipse cx="861.09" cy="1637.8" fill="#000000" rx="2.5" ry="2.5" style="stroke:#000000;stroke-width:0.0;"/><text fill="#000000" font-family="sans-serif" font-size="13" lengthAdjust="spacing" textLength="181" x="867.59" y="1641.777">Type of content (movie, series)</text><ellipse cx="861.09" cy="1653.4" fill="#000000" rx="2.5" ry="2.5" style="stroke:#000000;stroke-width:0.0;"/><text fill="#000000" font-family="sans-serif" font-size="13" lengthAdjust="spacing" textLength="35" x="867.59" y="1657.377">Genre</text><ellipse cx="861.09" cy="1669" fill="#000000" rx="2.5" ry="2.5" style="stroke:#000000;stroke-width:0.0;"/><text fill="#000000" font-family="sans-serif" font-size="13" lengthAdjust="spacing" textLength="37" x="867.59" y="1672.977">Rating</text><ellipse cx="861.09" cy="1684.6" fill="#000000" rx="2.5" ry="2.5" style="stroke:#000000;stroke-width:0.0;"/><text fill="#000000" font-family="sans-serif" font-size="13" lengthAdjust="spacing" textLength="27" x="867.59" y="1688.577">Year</text></g><!--MD5=[17f7e0a17aa95c317a42bd479eb702c6]
link DCS2 to DCSC2--><g id="link_DCS2_DCSC2"><path d="M782.04,1766.9299 C799.25,1780.9999 821.09,1798.8699 833.89,1809.3399 " fill="none" id="DCS2-to-DCSC2" style="stroke:#181818;stroke-width:1.0;"/><polygon fill="#181818" points="837.47,1813.0899,833.0426,1804.2923,833.6021,1809.9214,827.973,1810.4809,837.47,1813.0899" style="stroke:#181818;stroke-width:1.0;"/></g><!--MD5=[15004effc0704267013e4f008569baa7]
link DCS3 to DCSC2--><g id="link_DCS3_DCSC2"><path d="M844.59,1770.4799 C844.59,1780.4199 844.59,1791.6899 844.59,1800.7699 " fill="none" id="DCS3-to-DCSC2" style="stroke:#181818;stroke-width:1.0;"/><polygon fill="#181818" points="844.59,1805.6599,848.59,1796.6599,844.59,1800.6599,840.59,1796.6599,844.59,1805.6599" style="stroke:#181818;stroke-width:1.0;"/></g><!--MD5=[1f152ad487637c8846e5e987b99adbcc]
link DCSC2 to *end*DELETE_CONTENT--><g id="link_DCSC2_*end*DELETE_CONTENT"><path d="M844.59,1831.6299 C844.59,1840.3899 844.59,1852.4999 844.59,1862.0199 " fill="none" id="DCSC2-to-*end*DELETE_CONTENT" style="stroke:#181818;stroke-width:1.0;"/><polygon fill="#181818" points="844.59,1866.8399,848.59,1857.8399,844.59,1861.8399,840.59,1857.8399,844.59,1866.8399" style="stroke:#181818;stroke-width:1.0;"/></g><!--MD5=[d700204aab7b477654f817e16615b784]
link DCSC2 to DCS1--><g id="link_DCSC2_DCS1"><path d="M854.69,1816.5999 C891.63,1810.5099 1019.73,1783.9099 1069.59,1702.0999 C1121.4,1617.0899 1125.4,1560.5399 1069.59,1478.0999 C1053.18,1453.8699 1020.29,1443.6199 995.67,1439.2799 " fill="none" id="DCSC2-to-DCS1" style="stroke:#181818;stroke-width:1.0;"/><polygon fill="#181818" points="990.92,1438.3499,999.1628,1443.7402,995.8554,1439.151,1000.4446,1435.8436,990.92,1438.3499" style="stroke:#181818;stroke-width:1.0;"/></g><path d="M899.77,86 L1260.22,86 A12.5,12.5 0 0 1 1272.72,98.5 L1272.72,112.7999 L887.27,112.7999 L887.27,98.5 A12.5,12.5 0 0 1 899.77,86 " fill="#F1F1F1" style="stroke:#F1F1F1;stroke-width:1.0;"/><rect fill="none" height="905.7999" rx="12.5" ry="12.5" style="stroke:#181818;stroke-width:0.5;" width="385.45" x="887.27" y="86"/><line style="stroke:#181818;stroke-width:0.5;" x1="887.27" x2="1272.72" y1="112.7999" y2="112.7999"/><text fill="#000000" font-family="sans-serif" font-size="14" lengthAdjust="spacing" textLength="108" x="1025.995" y="104.0059">EDIT_CONTENT</text><g id="EDIT_CONTENT.ECS1"><rect fill="#F1F1F1" height="50" rx="12.5" ry="12.5" style="stroke:#181818;stroke-width:0.5;" width="50" x="1107.27" y="180.7999"/><line style="stroke:#181818;stroke-width:0.5;" x1="1107.27" x2="1157.27" y1="207.5999" y2="207.5999"/><text fill="#000000" font-family="sans-serif" font-size="14" lengthAdjust="spacing" textLength="4" x="1130.27" y="198.8059"> </text></g><g id="EDIT_CONTENT.ECS2"><rect fill="#F1F1F1" height="50" rx="12.5" ry="12.5" style="stroke:#181818;stroke-width:0.5;" width="50" x="899.27" y="490.7999"/><line style="stroke:#181818;stroke-width:0.5;" x1="899.27" x2="949.27" y1="517.5999" y2="517.5999"/><text fill="#000000" font-family="sans-serif" font-size="14" lengthAdjust="spacing" textLength="4" x="922.27" y="508.8059"> </text></g><g id="EDIT_CONTENT.ECS3"><rect fill="#F1F1F1" height="50" rx="12.5" ry="12.5" style="stroke:#181818;stroke-width:0.5;" width="50" x="987.27" y="490.7999"/><line style="stroke:#181818;stroke-width:0.5;" x1="987.27" x2="1037.27" y1="517.5999" y2="517.5999"/><text fill="#000000" font-family="sans-serif" font-size="14" lengthAdjust="spacing" textLength="4" x="1010.27" y="508.8059"> </text></g><g id="EDIT_CONTENT.ECS4"><rect fill="#F1F1F1" height="50" rx="12.5" ry="12.5" style="stroke:#181818;stroke-width:0.5;" width="50" x="1118.27" y="813.7999"/><line style="stroke:#181818;stroke-width:0.5;" x1="1118.27" x2="1168.27" y1="840.5999" y2="840.5999"/><text fill="#000000" font-family="sans-serif" font-size="14" lengthAdjust="spacing" textLength="4" x="1141.27" y="831.8059"> </text></g><g id="elem_ECSC1"><polygon fill="#F1F1F1" points="1012.27,332.7999,1024.27,344.7999,1012.27,356.7999,1000.27,344.7999,1012.27,332.7999" style="stroke:#181818;stroke-width:0.5;"/></g><g id="elem_ECSC2"><polygon fill="#F1F1F1" points="1012.27,577.7999,1024.27,589.7999,1012.27,601.7999,1000.27,589.7999,1012.27,577.7999" style="stroke:#181818;stroke-width:0.5;"/></g><g id="elem_ECSC3"><polygon fill="#F1F1F1" points="1224.27,900.7999,1236.27,912.7999,1224.27,924.7999,1212.27,912.7999,1224.27,900.7999" style="stroke:#181818;stroke-width:0.5;"/></g><ellipse cx="1132.27" cy="133.7999" fill="#222222" rx="10" ry="10" style="stroke:none;stroke-width:1.0;"/><ellipse cx="1224.27" cy="971.7999" fill="none" rx="10" ry="10" style="stroke:#222222;stroke-width:1.0;"/><ellipse cx="1224.77" cy="972.2999" fill="#222222" rx="6" ry="6" style="stroke:none;stroke-width:1.0;"/><!--MD5=[069207fbd6ac0c07d268b96cfcbdcf4b]
link *start*EDIT_CONTENT to ECS1--><g id="link_*start*EDIT_CONTENT_ECS1"><path d="M1132.27,144.2399 C1132.27,152.0499 1132.27,163.5899 1132.27,174.5099 " fill="none" id="*start*EDIT_CONTENT-to-ECS1" style="stroke:#181818;stroke-width:1.0;"/><polygon fill="#181818" points="1132.27,179.4799,1136.27,170.4799,1132.27,174.4799,1128.27,170.4799,1132.27,179.4799" style="stroke:#181818;stroke-width:1.0;"/></g><!--MD5=[02a51aac6556aff66cf6acb1f7982cd4]
link ECS1 to ECSC1--><g id="link_ECS1_ECSC1"><path d="M1107.03,229.7799 C1100.74,235.8099 1094.12,242.4199 1088.27,248.7999 C1061.92,277.5499 1034.05,314.2499 1020.55,332.4699 " fill="none" id="ECS1-to-ECSC1" style="stroke:#181818;stroke-width:1.0;"/><polygon fill="#181818" points="1017.14,336.0999,1025.7014,331.2314,1020.1079,332.0761,1019.2632,326.4827,1017.14,336.0999" style="stroke:#181818;stroke-width:1.0;"/><path d="M1093.27,253.7999 L1093.27,309.7999 L1232.27,309.7999 L1232.27,263.7999 L1222.27,253.7999 L1093.27,253.7999 " fill="#FEFFDD" style="stroke:#181818;stroke-width:0.5;"/><path d="M1222.27,253.7999 L1222.27,263.7999 L1232.27,263.7999 L1222.27,253.7999 " fill="#FEFFDD" style="stroke:#181818;stroke-width:0.5;"/><text fill="#000000" font-family="sans-serif" font-size="13" font-weight="bold" lengthAdjust="spacing" textLength="110" x="1103.27" y="270.8769">System allows to:</text><ellipse cx="1104.77" cy="282.5" fill="#000000" rx="2.5" ry="2.5" style="stroke:#000000;stroke-width:0.0;"/><text fill="#000000" font-family="sans-serif" font-size="13" lengthAdjust="spacing" textLength="41" x="1111.27" y="286.477">Search</text><ellipse cx="1104.77" cy="298.1" fill="#000000" rx="2.5" ry="2.5" style="stroke:#000000;stroke-width:0.0;"/><text fill="#000000" font-family="sans-serif" font-size="13" lengthAdjust="spacing" textLength="29" x="1111.27" y="302.077">Filter</text></g><!--MD5=[eb8e8bd55c9d80542e2bb56074b84c44]
link ECSC1 to ECS2--><g id="link_ECSC1_ECS2"><path d="M1000.44,345.5699 C980.46,345.9099 940.44,349.8499 922.27,374.7999 C899.1,406.6099 906.04,454.1899 914.27,484.8599 " fill="none" id="ECSC1-to-ECS2" style="stroke:#181818;stroke-width:1.0;"/><polygon fill="#181818" points="915.81,489.3899,917.2448,479.6461,914.4666,484.5738,909.539,481.7956,915.81,489.3899" style="stroke:#181818;stroke-width:1.0;"/><path d="M927.27,403.2999 L927.27,444.2999 L1003.27,444.2999 L1003.27,413.2999 L993.27,403.2999 L927.27,403.2999 " fill="#FEFFDD" style="stroke:#181818;stroke-width:0.5;"/><path d="M993.27,403.2999 L993.27,413.2999 L1003.27,413.2999 L993.27,403.2999 " fill="#FEFFDD" style="stroke:#181818;stroke-width:0.5;"/><text fill="#000000" font-family="sans-serif" font-size="13" font-weight="bold" lengthAdjust="spacing" textLength="47" x="937.27" y="420.3769">Search:</text><ellipse cx="938.77" cy="432" fill="#000000" rx="2.5" ry="2.5" style="stroke:#000000;stroke-width:0.0;"/><text fill="#000000" font-family="sans-serif" font-size="13" lengthAdjust="spacing" textLength="34" x="945.27" y="435.977">Name</text></g><!--MD5=[24ebe52eabed86ecf8283042c7a9cd20]
link ECSC1 to ECS3--><g id="link_ECSC1_ECS3"><path d="M1012.27,357.4199 C1012.27,383.3199 1012.27,446.5399 1012.27,484.4999 " fill="none" id="ECSC1-to-ECS3" style="stroke:#181818;stroke-width:1.0;"/><polygon fill="#181818" points="1012.27,489.3599,1016.27,480.3599,1012.27,484.3599,1008.27,480.3599,1012.27,489.3599" style="stroke:#181818;stroke-width:1.0;"/><path d="M1017.27,379.7999 L1017.27,467.7999 L1231.27,467.7999 L1231.27,389.7999 L1221.27,379.7999 L1017.27,379.7999 " fill="#FEFFDD" style="stroke:#181818;stroke-width:0.5;"/><path d="M1221.27,379.7999 L1221.27,389.7999 L1231.27,389.7999 L1221.27,379.7999 " fill="#FEFFDD" style="stroke:#181818;stroke-width:0.5;"/><text fill="#000000" font-family="sans-serif" font-size="13" font-weight="bold" lengthAdjust="spacing" textLength="36" x="1027.27" y="396.8769">Filter:</text><ellipse cx="1028.77" cy="408.5" fill="#000000" rx="2.5" ry="2.5" style="stroke:#000000;stroke-width:0.0;"/><text fill="#000000" font-family="sans-serif" font-size="13" lengthAdjust="spacing" textLength="181" x="1035.27" y="412.477">Type of content (movie, series)</text><ellipse cx="1028.77" cy="424.1" fill="#000000" rx="2.5" ry="2.5" style="stroke:#000000;stroke-width:0.0;"/><text fill="#000000" font-family="sans-serif" font-size="13" lengthAdjust="spacing" textLength="35" x="1035.27" y="428.077">Genre</text><ellipse cx="1028.77" cy="439.7" fill="#000000" rx="2.5" ry="2.5" style="stroke:#000000;stroke-width:0.0;"/><text fill="#000000" font-family="sans-serif" font-size="13" lengthAdjust="spacing" textLength="37" x="1035.27" y="443.677">Rating</text><ellipse cx="1028.77" cy="455.3" fill="#000000" rx="2.5" ry="2.5" style="stroke:#000000;stroke-width:0.0;"/><text fill="#000000" font-family="sans-serif" font-size="13" lengthAdjust="spacing" textLength="27" x="1035.27" y="459.277">Year</text></g><!--MD5=[1c9f1c182bb9ef3f673a70ef6d6834bc]
link ECS2 to ECSC2--><g id="link_ECS2_ECSC2"><path d="M949.72,537.6299 C966.93,551.6999 988.77,569.5699 1001.57,580.0399 " fill="none" id="ECS2-to-ECSC2" style="stroke:#181818;stroke-width:1.0;"/><polygon fill="#181818" points="1005.15,583.7899,1000.7226,574.9923,1001.2821,580.6214,995.653,581.1809,1005.15,583.7899" style="stroke:#181818;stroke-width:1.0;"/></g><!--MD5=[cd90fa54cd1ee0175e84894795add411]
link ECS3 to ECSC2--><g id="link_ECS3_ECSC2"><path d="M1012.27,541.1799 C1012.27,551.1199 1012.27,562.3899 1012.27,571.4699 " fill="none" id="ECS3-to-ECSC2" style="stroke:#181818;stroke-width:1.0;"/><polygon fill="#181818" points="1012.27,576.3599,1016.27,567.3599,1012.27,571.3599,1008.27,567.3599,1012.27,576.3599" style="stroke:#181818;stroke-width:1.0;"/></g><!--MD5=[d77a55650e479c7d019d3b886197eeef]
link ECSC2 to ECS4--><g id="link_ECSC2_ECS4"><path d="M1013.91,600.7099 C1019.51,632.0499 1040.19,730.7999 1088.27,795.7999 C1095.08,805.0099 1104.46,813.1899 1113.54,819.8299 " fill="none" id="ECSC2-to-ECS4" style="stroke:#181818;stroke-width:1.0;"/><polygon fill="#181818" points="1116.96,822.9599,1111.9361,814.4888,1112.8827,820.0659,1107.3056,821.0125,1116.96,822.9599" style="stroke:#181818;stroke-width:1.0;"/><path d="M1093.27,624.7999 L1093.27,790.7999 L1232.27,790.7999 L1232.27,634.7999 L1222.27,624.7999 L1093.27,624.7999 " fill="#FEFFDD" style="stroke:#181818;stroke-width:0.5;"/><path d="M1222.27,624.7999 L1222.27,634.7999 L1232.27,634.7999 L1222.27,624.7999 " fill="#FEFFDD" style="stroke:#181818;stroke-width:0.5;"/><text fill="#000000" font-family="sans-serif" font-size="13" font-weight="bold" lengthAdjust="spacing" textLength="110" x="1103.27" y="641.8769">System allows to:</text><ellipse cx="1104.77" cy="653.5" fill="#000000" rx="2.5" ry="2.5" style="stroke:#000000;stroke-width:0.0;"/><text fill="#000000" font-family="sans-serif" font-size="13" lengthAdjust="spacing" textLength="34" x="1111.27" y="657.477">Name</text><ellipse cx="1104.77" cy="669.1" fill="#000000" rx="2.5" ry="2.5" style="stroke:#000000;stroke-width:0.0;"/><text fill="#000000" font-family="sans-serif" font-size="13" lengthAdjust="spacing" textLength="27" x="1111.27" y="673.077">Year</text><ellipse cx="1104.77" cy="684.7" fill="#000000" rx="2.5" ry="2.5" style="stroke:#000000;stroke-width:0.0;"/><text fill="#000000" font-family="sans-serif" font-size="13" lengthAdjust="spacing" textLength="51" x="1111.27" y="688.677">Storyline</text><ellipse cx="1104.77" cy="700.3" fill="#000000" rx="2.5" ry="2.5" style="stroke:#000000;stroke-width:0.0;"/><text fill="#000000" font-family="sans-serif" font-size="13" lengthAdjust="spacing" textLength="42" x="1111.27" y="704.277">Genres</text><ellipse cx="1104.77" cy="715.9" fill="#000000" rx="2.5" ry="2.5" style="stroke:#000000;stroke-width:0.0;"/><text fill="#000000" font-family="sans-serif" font-size="13" lengthAdjust="spacing" textLength="38" x="1111.27" y="719.877">Actors</text><ellipse cx="1104.77" cy="731.5" fill="#000000" rx="2.5" ry="2.5" style="stroke:#000000;stroke-width:0.0;"/><text fill="#000000" font-family="sans-serif" font-size="13" lengthAdjust="spacing" textLength="36" x="1111.27" y="735.477">Trailer</text><ellipse cx="1104.77" cy="747.1" fill="#000000" rx="2.5" ry="2.5" style="stroke:#000000;stroke-width:0.0;"/><text fill="#000000" font-family="sans-serif" font-size="13" lengthAdjust="spacing" textLength="38" x="1111.27" y="751.077">Poster</text><ellipse cx="1104.77" cy="762.7001" fill="#000000" rx="2.5" ry="2.5" style="stroke:#000000;stroke-width:0.0;"/><text fill="#000000" font-family="sans-serif" font-size="13" lengthAdjust="spacing" textLength="27" x="1111.27" y="766.677">Rate</text><ellipse cx="1104.77" cy="778.3001" fill="#000000" rx="2.5" ry="2.5" style="stroke:#000000;stroke-width:0.0;"/><text fill="#000000" font-family="sans-serif" font-size="13" lengthAdjust="spacing" textLength="48" x="1111.27" y="782.2771">Duration</text></g><!--MD5=[8dbcf5aacb55c07df86667c31dd7b986]
link ECS4 to ECSC3--><g id="link_ECS4_ECSC3"><path d="M1168.45,862.1899 C1183.73,875.7699 1202.42,892.3799 1213.83,902.5199 " fill="none" id="ECS4-to-ECSC3" style="stroke:#181818;stroke-width:1.0;"/><polygon fill="#181818" points="1217.24,905.4399,1213.1729,896.4701,1213.5037,902.1172,1207.8566,902.4481,1217.24,905.4399" style="stroke:#181818;stroke-width:1.0;"/></g><!--MD5=[c993e1ddaa776e1e5658478717763089]
link ECSC3 to *end*EDIT_CONTENT--><g id="link_ECSC3_*end*EDIT_CONTENT"><path d="M1224.27,925.3299 C1224.27,934.0899 1224.27,946.1999 1224.27,955.7199 " fill="none" id="ECSC3-to-*end*EDIT_CONTENT" style="stroke:#181818;stroke-width:1.0;"/><polygon fill="#181818" points="1224.27,960.5399,1228.27,951.5399,1224.27,955.5399,1220.27,951.5399,1224.27,960.5399" style="stroke:#181818;stroke-width:1.0;"/></g><!--MD5=[9fa44dbad4bb40bd8d9894f66553b56f]
link ECSC3 to ECS1--><g id="link_ECSC3_ECS1"><path d="M1228.73,904.9699 C1236.4,892.5399 1251.27,865.1699 1251.27,839.7999 C1251.27,343.7999 1251.27,343.7999 1251.27,343.7999 C1251.27,301.1199 1263.72,282.2999 1237.27,248.7999 C1219.36,226.1199 1187.33,215.6299 1163.34,210.8199 " fill="none" id="ECSC3-to-ECS1" style="stroke:#181818;stroke-width:1.0;"/><polygon fill="#181818" points="1158.74,209.7699,1166.8408,215.3714,1163.6531,210.6983,1168.3262,207.5105,1158.74,209.7699" style="stroke:#181818;stroke-width:1.0;"/></g><!--MD5=[5b976f1c0cf0de97d5b06f127151238e]
link *start to CONTENT_MANAGEMENT--><g id="link_*start_CONTENT_MANAGEMENT"><path d="M648,26.49 C648,85.9 648,407.56 648,507.95 " fill="none" id="*start-to-CONTENT_MANAGEMENT" style="stroke:#181818;stroke-width:1.0;"/><polygon fill="#181818" points="648,512.69,652,503.69,648,507.69,644,503.69,648,512.69" style="stroke:#181818;stroke-width:1.0;"/></g><!--MD5=[a151b4679bf58c3499ea38e5fecfad87]
link CONTENT_MANAGEMENT to ADD_CONTENT--><g id="link_CONTENT_MANAGEMENT_ADD_CONTENT"><path d="M643.15,564.16 C629.45,632.7 588.74,836.38 546.92,1045.67 " fill="none" id="CONTENT_MANAGEMENT-to-ADD_CONTENT" style="stroke:#181818;stroke-width:1.0;"/><polygon fill="#181818" points="545.74,1050.55,551.4364,1042.5156,546.7261,1045.6482,543.5935,1040.9379,545.74,1050.55" style="stroke:#181818;stroke-width:1.0;"/></g><!--MD5=[52ae7e7ec2420ed772a40f1efeb6e358]
link CONTENT_MANAGEMENT to DELETE_CONTENT--><g id="link_CONTENT_MANAGEMENT_DELETE_CONTENT"><path d="M654.35,564.16 C680.03,662.29 778.26,1037.52 849.46,1309.5 " fill="none" id="CONTENT_MANAGEMENT-to-DELETE_CONTENT" style="stroke:#181818;stroke-width:1.0;"/><polygon fill="#181818" points="850.92,1314.1,852.5035,1304.3793,849.6503,1309.2639,844.7657,1306.4107,850.92,1314.1" style="stroke:#181818;stroke-width:1.0;"/></g><!--MD5=[1edc9bc29ed43ce6541a04925f1a557a]
link CONTENT_MANAGEMENT to EDIT_CONTENT--><g id="link_CONTENT_MANAGEMENT_EDIT_CONTENT"><path d="M746.29,538.9 C791.29,538.9 836.3,538.9 881.3,538.9 " fill="none" id="CONTENT_MANAGEMENT-to-EDIT_CONTENT" style="stroke:#181818;stroke-width:1.0;"/><polygon fill="#181818" points="886.07,538.9,877.07,534.9,881.07,538.9,877.07,542.9,886.07,538.9" style="stroke:#181818;stroke-width:1.0;"/></g><!--MD5=[fbf71e5ff603b9326d22dea1cc7be548]
link ADD_CONTENT to union--><g id="link_ADD_CONTENT_union"><path d="M653.13,2161.83 C663.1,2187.15 670.93,2207.04 675.72,2219.2 " fill="none" id="ADD_CONTENT-to-union" style="stroke:#181818;stroke-width:1.0;"/><polygon fill="#181818" points="677.82,2223.54,678.2279,2213.6996,675.9803,2218.8908,670.7891,2216.6432,677.82,2223.54" style="stroke:#181818;stroke-width:1.0;"/></g><!--MD5=[de1c0af78f792126c1c4f165abbdaca9]
link DELETE_CONTENT to union--><g id="link_DELETE_CONTENT_union"><path d="M812.64,1898.2 C759.19,2033.96 703.56,2175.29 686.37,2218.95 " fill="none" id="DELETE_CONTENT-to-union" style="stroke:#181818;stroke-width:1.0;"/><polygon fill="#181818" points="684.2,2223.45,691.2198,2216.5419,686.0322,2218.7978,683.7763,2213.6103,684.2,2223.45" style="stroke:#181818;stroke-width:1.0;"/></g><!--MD5=[cb04b5b46b07c04aca76b2fa5bc8e5da]
link EDIT_CONTENT to union--><g id="link_EDIT_CONTENT_union"><path d="M1166.69,992.26 C1235.32,1410.54 1297.74,1992.24 1152,2161.6 C1091.54,2231.85 775.83,2233.51 698.23,2232.84 " fill="none" id="EDIT_CONTENT-to-union" style="stroke:#181818;stroke-width:1.0;"/><polygon fill="#181818" points="693.66,2232.78,702.6254,2236.857,698.6598,2232.8229,702.694,2228.8573,693.66,2232.78" style="stroke:#181818;stroke-width:1.0;"/></g><!--MD5=[579c1c469da73c5446fd0d518153c367]
link union to *end--><g id="link_union_*end"><path d="M681,2246.06 C681,2260.1 681,2283.92 681,2299.45 " fill="none" id="union-to-*end" style="stroke:#181818;stroke-width:1.0;"/><polygon fill="#181818" points="681,2304.16,685,2295.16,681,2299.16,677,2295.16,681,2304.16" style="stroke:#181818;stroke-width:1.0;"/></g><!--MD5=[f24e0c61a7d12bcb05c34b862536c652]
reverse link CONTENT_MANAGEMENT to union--><g id="link_CONTENT_MANAGEMENT_union"><path d="M605.51,567.74 C505.85,635.92 258.66,822.57 168,1051.8 C77.29,1281.14 6,1975.64 168,2161.6 C202.4,2201.09 599.14,2227.51 670.15,2231.94 " fill="none" id="CONTENT_MANAGEMENT-backto-union" style="stroke:#181818;stroke-width:1.0;"/><polygon fill="#181818" points="609.43,564.38,599.7404,566.1441,605.2986,567.1962,604.2464,572.7544,609.43,564.38" style="stroke:#181818;stroke-width:1.0;"/></g><!--MD5=[4fb1570c075a96439375b47480a01655]
@startuml content-management
state ADD_CONTENT {
    state ACS1 as " "
    state ACS2 as " "    
    state ACS3 as " "    
    state ACS4 as " "    
    state ACSC1 <<choice>>   
    state ACSC2 <<choice>>   
    state ACSC3 <<choice>>   

    [*] - -> ACS1
    ACS1 - -> ACSC1 
    note on link 
        <b> System allows to: </b>
        * Use API
        * Manually
    end note
    ACSC1 - -> ACS2
    note on link 
        <b> Manually: </b>                    
        * Name    
        * Year 
        * Age
        * Storyline
        * Genres
        * Actors
        * Trailer
        * Poster
        * Rating
        * Duration              
    end note

    ACSC1 - -> ACS3 
    note on link
    <b> Use API: </b>
        * Insert content name
        * Select type of content
    end note       
    
    ACS2 - -> ACSC2    
    note on link 
        Is serie?
    end note

    ACSC2  - -> ACS4
    note on link 
        <b> Deatils serie: </b>
        * Number of seasons
        * Number of episodes        
        * Details of each episode
            * Name    
            * Year 
            * Age 
            * Storyline
            * Genres
            * Actors
            * Trailer
            * Poster
            * Rating
            * Duration   
    end note

    
    ACSC2 - -> ACSC3
    ACS3 - -> ACSC3
    ACS4 - -> ACSC3
    ACSC3 - -> [*]
    ACSC3 - -> ACS1    
}

state DELETE_CONTENT {
    state DCS1 as " "
    state DCS2 as " "    
    state DCS3 as " "    
    state DCSC1 <<choice>>   
    state DCSC2 <<choice>>   

    [*] - -> DCS1
    DCS1 - -> DCSC1 
    note on link 
        <b> System allows to: </b>
        * Search 
        * Filter
    end note

    DCSC1 - -> DCS2
    note on link 
        <b> Search: </b>
        * Name        
    end note

    DCSC1 - -> DCS3
    note on link 
        <b> Filter: </b>
        * Type of content (movie, series)
        * Genre
        * Rating
        * Year          
    end note

    DCS2 - -> DCSC2
    DCS3 - -> DCSC2
    DCSC2 - -> [*]
    DCSC2 - -> DCS1        
}

state EDIT_CONTENT {
    state ECS1 as " "
    state ECS2 as " "    
    state ECS3 as " "    
    state ECS4 as " "    
    state ECSC1 <<choice>>   
    state ECSC2 <<choice>>   
    state ECSC3 <<choice>>   

    [*] - -> ECS1
    ECS1 - -> ECSC1 
    note on link 
        <b> System allows to: </b>
        * Search 
        * Filter
    end note

    ECSC1 - -> ECS2
    note on link 
        <b> Search: </b>
        * Name        
    end note

    ECSC1 - -> ECS3
    note on link 
        <b> Filter: </b>
        * Type of content (movie, series)
        * Genre
        * Rating
        * Year          
    end note

    ECS2 - -> ECSC2
    ECS3 - -> ECSC2
    ECSC2 - -> ECS4
    note on link 
        <b> System allows to: </b>
        * Name
        * Year 
        * Storyline
        * Genres
        * Actors
        * Trailer
        * Poster
        * Rate
        * Duration   
    end note

    ECS4 - -> ECSC3
    ECSC3 - -> [*]
    ECSC3 - -> ECS1     
}

[*] - -> CONTENT_MANAGEMENT

CONTENT_MANAGEMENT - -> ADD_CONTENT
CONTENT_MANAGEMENT - -> DELETE_CONTENT
CONTENT_MANAGEMENT -right-> EDIT_CONTENT

state union <<choice>>
ADD_CONTENT - -> union 
DELETE_CONTENT - -> union 
EDIT_CONTENT - -> union 

union - -> [*]
union -left-> CONTENT_MANAGEMENT

@enduml

PlantUML version 1.2022.7(Mon Aug 22 12:01:30 ECT 2022)
(GPL source distribution)
Java Runtime: OpenJDK Runtime Environment
JVM: OpenJDK 64-Bit Server VM
Default Encoding: UTF-8
Language: en
Country: null
--></g></svg>